<?xml version="1.0" encoding="UTF-8" ?>
<svg version="1.1" width="35" height="35" xmlns="http://www.w3.org/2000/svg" shape-rendering="crispEdges">
<rect x="14" y="0" width="7" height="3" fill="#FFD57B" opacity="0.101961" />
<rect x="12" y="1" width="2" height="3" fill="#FFD57B" opacity="0.101961" />
<rect x="21" y="1" width="2" height="3" fill="#FFD57B" opacity="0.101961" />
<rect x="10" y="2" width="2" height="3" fill="#FFD57B" opacity="0.101961" />
<rect x="23" y="2" width="2" height="3" fill="#FFD57B" opacity="0.101961" />
<rect x="8" y="3" width="2" height="3" fill="#FFD57B" opacity="0.101961" />
<rect x="14" y="3" width="7" height="4" fill="#FFDB83" opacity="0.235294" />
<rect x="25" y="3" width="2" height="3" fill="#FFD57B" opacity="0.101961" />
<rect x="7" y="4" width="1" height="4" fill="#FFD57B" opacity="0.101961" />
<rect x="12" y="4" width="2" height="12" fill="#FFDB83" opacity="0.235294" />
<rect x="21" y="4" width="2" height="12" fill="#FFDB83" opacity="0.235294" />
<rect x="27" y="4" width="1" height="4" fill="#FFD57B" opacity="0.101961" />
<rect x="6" y="5" width="1" height="4" fill="#FFD57B" opacity="0.101961" />
<rect x="10" y="5" width="2" height="12" fill="#FFDB83" opacity="0.235294" />
<rect x="23" y="5" width="2" height="12" fill="#FFDB83" opacity="0.235294" />
<rect x="28" y="5" width="1" height="4" fill="#FFD57B" opacity="0.101961" />
<rect x="5" y="6" width="1" height="4" fill="#FFD57B" opacity="0.101961" />
<rect x="8" y="6" width="1" height="1" fill="#FFD57B" opacity="0.101961" />
<rect x="9" y="6" width="1" height="12" fill="#FFDB83" opacity="0.235294" />
<rect x="25" y="6" width="1" height="12" fill="#FFDB83" opacity="0.235294" />
<rect x="26" y="6" width="1" height="1" fill="#FFD57B" opacity="0.101961" />
<rect x="29" y="6" width="1" height="4" fill="#FFD57B" opacity="0.101961" />
<rect x="4" y="7" width="1" height="5" fill="#FFD57B" opacity="0.101961" />
<rect x="8" y="7" width="1" height="21" fill="#FFDB83" opacity="0.235294" />
<rect x="14" y="7" width="5" height="5" fill="#FFDB83" opacity="0.235294" />
<rect x="19" y="7" width="1" height="1" fill="#FCB757" />
<rect x="20" y="7" width="1" height="8" fill="#FFDB83" opacity="0.235294" />
<rect x="26" y="7" width="1" height="21" fill="#FFDB83" opacity="0.235294" />
<rect x="30" y="7" width="1" height="5" fill="#FFD57B" opacity="0.101961" />
<rect x="3" y="8" width="1" height="6" fill="#FFD57B" opacity="0.101961" />
<rect x="7" y="8" width="1" height="19" fill="#FFDB83" opacity="0.235294" />
<rect x="19" y="8" width="1" height="7" fill="#FFDB83" opacity="0.235294" />
<rect x="27" y="8" width="1" height="19" fill="#FFDB83" opacity="0.235294" />
<rect x="31" y="8" width="1" height="6" fill="#FFD57B" opacity="0.101961" />
<rect x="6" y="9" width="1" height="17" fill="#FFDB83" opacity="0.235294" />
<rect x="28" y="9" width="1" height="17" fill="#FFDB83" opacity="0.235294" />
<rect x="2" y="10" width="1" height="15" fill="#FFD57B" opacity="0.101961" />
<rect x="5" y="10" width="1" height="15" fill="#FFDB83" opacity="0.235294" />
<rect x="29" y="10" width="1" height="15" fill="#FFDB83" opacity="0.235294" />
<rect x="32" y="10" width="1" height="15" fill="#FFD57B" opacity="0.101961" />
<rect x="1" y="12" width="1" height="11" fill="#FFD57B" opacity="0.101961" />
<rect x="4" y="12" width="1" height="11" fill="#FFDB83" opacity="0.235294" />
<rect x="14" y="12" width="1" height="1" fill="#FFDB83" opacity="0.235294" />
<rect x="15" y="12" width="1" height="1" fill="#FCB757" />
<rect x="16" y="12" width="3" height="1" fill="#FFDB83" opacity="0.235294" />
<rect x="30" y="12" width="1" height="11" fill="#FFDB83" opacity="0.235294" />
<rect x="33" y="12" width="1" height="11" fill="#FFD57B" opacity="0.101961" />
<rect x="14" y="13" width="1" height="4" fill="#FCB757" />
<rect x="15" y="13" width="2" height="1" fill="#FFDB83" opacity="0.235294" />
<rect x="17" y="13" width="1" height="1" fill="#4A4033" />
<rect x="18" y="13" width="1" height="1" fill="#FFDB83" opacity="0.235294" />
<rect x="0" y="14" width="1" height="7" fill="#FFD57B" opacity="0.101961" />
<rect x="3" y="14" width="1" height="7" fill="#FFDB83" opacity="0.235294" />
<rect x="15" y="14" width="1" height="1" fill="#FFDB83" opacity="0.235294" />
<rect x="16" y="14" width="1" height="2" fill="#4A4033" />
<rect x="17" y="14" width="1" height="1" fill="#6E6465" />
<rect x="18" y="14" width="1" height="2" fill="#4A4033" />
<rect x="31" y="14" width="1" height="7" fill="#FFDB83" opacity="0.235294" />
<rect x="34" y="14" width="1" height="7" fill="#FFD57B" opacity="0.101961" />
<rect x="15" y="15" width="1" height="3" fill="#FCB757" />
<rect x="17" y="15" width="1" height="1" fill="#5F564F" />
<rect x="19" y="15" width="2" height="1" fill="#4A4033" />
<rect x="12" y="16" width="1" height="1" fill="#FFDB83" opacity="0.235294" />
<rect x="13" y="16" width="1" height="1" fill="#4A4033" />
<rect x="16" y="16" width="1" height="7" fill="#FCB757" />
<rect x="17" y="16" width="4" height="1" fill="#6E6465" />
<rect x="21" y="16" width="1" height="1" fill="#4A4033" />
<rect x="22" y="16" width="1" height="1" fill="#FFDB83" opacity="0.235294" />
<rect x="10" y="17" width="1" height="1" fill="#4A4033" />
<rect x="11" y="17" width="1" height="1" fill="#FFDB83" opacity="0.235294" />
<rect x="12" y="17" width="1" height="1" fill="#4A4033" />
<rect x="13" y="17" width="1" height="1" fill="#6E6465" />
<rect x="14" y="17" width="1" height="2" fill="#C27749" />
<rect x="17" y="17" width="1" height="5" fill="#FCB757" />
<rect x="18" y="17" width="3" height="1" fill="#C27749" />
<rect x="21" y="17" width="1" height="1" fill="#6E6465" />
<rect x="22" y="17" width="1" height="1" fill="#4A4033" />
<rect x="23" y="17" width="1" height="1" fill="#FFDB83" opacity="0.235294" />
<rect x="24" y="17" width="1" height="1" fill="#4A4033" />
<rect x="9" y="18" width="1" height="6" fill="#4A4033" />
<rect x="10" y="18" width="1" height="1" fill="#6E6465" />
<rect x="11" y="18" width="1" height="1" fill="#4A4033" />
<rect x="12" y="18" width="1" height="1" fill="#6E6465" />
<rect x="13" y="18" width="1" height="1" fill="#C27749" />
<rect x="15" y="18" width="1" height="1" fill="#C27749" />
<rect x="18" y="18" width="1" height="2" fill="#FCB757" />
<rect x="19" y="18" width="1" height="1" fill="#D8924D" />
<rect x="20" y="18" width="1" height="1" fill="#C27749" />
<rect x="21" y="18" width="1" height="4" fill="#FCB757" />
<rect x="22" y="18" width="1" height="1" fill="#6E6465" />
<rect x="23" y="18" width="1" height="1" fill="#4A4033" />
<rect x="24" y="18" width="1" height="1" fill="#6E6465" />
<rect x="25" y="18" width="1" height="6" fill="#4A4033" />
<rect x="10" y="19" width="1" height="4" fill="#5F564F" />
<rect x="11" y="19" width="1" height="5" fill="#6E6465" />
<rect x="12" y="19" width="1" height="2" fill="#C27749" />
<rect x="13" y="19" width="1" height="4" fill="#FCB757" />
<rect x="14" y="19" width="2" height="2" fill="#D8924D" />
<rect x="19" y="19" width="1" height="6" fill="#FCB757" />
<rect x="20" y="19" width="1" height="2" fill="#D8924D" />
<rect x="22" y="19" width="1" height="1" fill="#C27749" />
<rect x="23" y="19" width="1" height="5" fill="#6E6465" />
<rect x="24" y="19" width="1" height="4" fill="#5F564F" />
<rect x="18" y="20" width="1" height="3" fill="#FFDB77" />
<rect x="22" y="20" width="1" height="4" fill="#FCB757" />
<rect x="3" y="21" width="1" height="6" fill="#FFD57B" opacity="0.101961" />
<rect x="12" y="21" width="1" height="1" fill="#D8924D" />
<rect x="14" y="21" width="1" height="1" fill="#D8924D" />
<rect x="15" y="21" width="1" height="3" fill="#FCB757" />
<rect x="20" y="21" width="1" height="3" fill="#FCB757" />
<rect x="31" y="21" width="1" height="6" fill="#FFD57B" opacity="0.101961" />
<rect x="12" y="22" width="1" height="2" fill="#FCB757" />
<rect x="14" y="22" width="1" height="2" fill="#FCB757" />
<rect x="17" y="22" width="1" height="3" fill="#FFDB77" />
<rect x="21" y="22" width="1" height="3" fill="#FFDB77" />
<rect x="4" y="23" width="1" height="5" fill="#FFD57B" opacity="0.101961" />
<rect x="10" y="23" width="1" height="1" fill="#52483F" />
<rect x="13" y="23" width="1" height="2" fill="#FFDB77" />
<rect x="16" y="23" width="1" height="3" fill="#FFDB77" />
<rect x="18" y="23" width="1" height="1" fill="#FCB757" />
<rect x="24" y="23" width="1" height="1" fill="#52483F" />
<rect x="30" y="23" width="1" height="5" fill="#FFD57B" opacity="0.101961" />
<rect x="9" y="24" width="1" height="2" fill="#FFDB83" opacity="0.235294" />
<rect x="10" y="24" width="1" height="5" fill="#4A4033" />
<rect x="11" y="24" width="1" height="1" fill="#5F564F" />
<rect x="12" y="24" width="1" height="1" fill="#6E6465" />
<rect x="14" y="24" width="2" height="2" fill="#FFDB77" />
<rect x="18" y="24" width="1" height="2" fill="#FFDB77" />
<rect x="20" y="24" width="1" height="2" fill="#FFDB77" />
<rect x="22" y="24" width="1" height="1" fill="#6E6465" />
<rect x="23" y="24" width="1" height="1" fill="#5F564F" />
<rect x="24" y="24" width="1" height="5" fill="#4A4033" />
<rect x="25" y="24" width="1" height="2" fill="#FFDB83" opacity="0.235294" />
<rect x="5" y="25" width="1" height="4" fill="#FFD57B" opacity="0.101961" />
<rect x="11" y="25" width="1" height="4" fill="#52483F" />
<rect x="12" y="25" width="1" height="1" fill="#5F564F" />
<rect x="13" y="25" width="1" height="1" fill="#6E6465" />
<rect x="17" y="25" width="1" height="3" fill="#5F564F" />
<rect x="19" y="25" width="1" height="1" fill="#FFDB77" />
<rect x="21" y="25" width="1" height="1" fill="#6E6465" />
<rect x="22" y="25" width="1" height="1" fill="#5F564F" />
<rect x="23" y="25" width="1" height="4" fill="#52483F" />
<rect x="29" y="25" width="1" height="4" fill="#FFD57B" opacity="0.101961" />
<rect x="6" y="26" width="1" height="4" fill="#FFD57B" opacity="0.101961" />
<rect x="9" y="26" width="1" height="3" fill="#786C58" opacity="0.627451" />
<rect x="12" y="26" width="1" height="3" fill="#4A4033" />
<rect x="13" y="26" width="1" height="1" fill="#5F564F" />
<rect x="14" y="26" width="3" height="1" fill="#6E6465" />
<rect x="18" y="26" width="3" height="1" fill="#6E6465" />
<rect x="21" y="26" width="1" height="1" fill="#5F564F" />
<rect x="22" y="26" width="1" height="3" fill="#4A4033" />
<rect x="25" y="26" width="1" height="3" fill="#786C58" opacity="0.627451" />
<rect x="28" y="26" width="1" height="4" fill="#FFD57B" opacity="0.101961" />
<rect x="7" y="27" width="1" height="4" fill="#FFD57B" opacity="0.101961" />
<rect x="13" y="27" width="1" height="1" fill="#4A4033" />
<rect x="14" y="27" width="3" height="1" fill="#5F564F" />
<rect x="18" y="27" width="3" height="1" fill="#5F564F" />
<rect x="21" y="27" width="1" height="1" fill="#4A4033" />
<rect x="27" y="27" width="1" height="4" fill="#FFD57B" opacity="0.101961" />
<rect x="8" y="28" width="1" height="4" fill="#FFD57B" opacity="0.101961" />
<rect x="13" y="28" width="1" height="3" fill="#786C58" opacity="0.627451" />
<rect x="14" y="28" width="3" height="1" fill="#4A4033" />
<rect x="17" y="28" width="1" height="4" fill="#52483F" />
<rect x="18" y="28" width="3" height="1" fill="#4A4033" />
<rect x="21" y="28" width="1" height="3" fill="#786C58" opacity="0.627451" />
<rect x="26" y="28" width="1" height="4" fill="#FFD57B" opacity="0.101961" />
<rect x="9" y="29" width="1" height="1" fill="#4F494A" opacity="0.560784" />
<rect x="10" y="29" width="1" height="1" fill="#786C58" opacity="0.627451" />
<rect x="11" y="29" width="1" height="1" fill="#4A4033" />
<rect x="12" y="29" width="1" height="2" fill="#786C58" opacity="0.627451" />
<rect x="14" y="29" width="2" height="3" fill="#786C58" opacity="0.627451" />
<rect x="16" y="29" width="1" height="3" fill="#4A4033" />
<rect x="18" y="29" width="1" height="3" fill="#4A4033" />
<rect x="19" y="29" width="2" height="3" fill="#786C58" opacity="0.627451" />
<rect x="22" y="29" width="1" height="2" fill="#786C58" opacity="0.627451" />
<rect x="23" y="29" width="1" height="1" fill="#4A4033" />
<rect x="24" y="29" width="1" height="1" fill="#786C58" opacity="0.627451" />
<rect x="25" y="29" width="1" height="1" fill="#4F494A" opacity="0.560784" />
<rect x="9" y="30" width="1" height="2" fill="#FFD57B" opacity="0.101961" />
<rect x="10" y="30" width="2" height="1" fill="#4F494A" opacity="0.560784" />
<rect x="23" y="30" width="2" height="1" fill="#4F494A" opacity="0.560784" />
<rect x="25" y="30" width="1" height="2" fill="#FFD57B" opacity="0.101961" />
<rect x="10" y="31" width="3" height="2" fill="#FFD57B" opacity="0.101961" />
<rect x="13" y="31" width="1" height="1" fill="#4F494A" opacity="0.560784" />
<rect x="21" y="31" width="1" height="1" fill="#4F494A" opacity="0.560784" />
<rect x="22" y="31" width="3" height="2" fill="#FFD57B" opacity="0.101961" />
<rect x="13" y="32" width="2" height="2" fill="#FFD57B" opacity="0.101961" />
<rect x="15" y="32" width="2" height="1" fill="#4F494A" opacity="0.560784" />
<rect x="17" y="32" width="1" height="1" fill="#4A4033" />
<rect x="18" y="32" width="2" height="1" fill="#4F494A" opacity="0.560784" />
<rect x="20" y="32" width="2" height="2" fill="#FFD57B" opacity="0.101961" />
<rect x="12" y="33" width="1" height="1" fill="#FFD57B" opacity="0.101961" />
<rect x="15" y="33" width="1" height="2" fill="#FFD57B" opacity="0.101961" />
<rect x="16" y="33" width="3" height="1" fill="#4F494A" opacity="0.560784" />
<rect x="19" y="33" width="1" height="2" fill="#FFD57B" opacity="0.101961" />
<rect x="22" y="33" width="1" height="1" fill="#FFD57B" opacity="0.101961" />
<rect x="14" y="34" width="1" height="1" fill="#FFD57B" opacity="0.101961" />
<rect x="16" y="34" width="3" height="1" fill="#FFD57B" opacity="0.101961" />
<rect x="20" y="34" width="1" height="1" fill="#FFD57B" opacity="0.101961" />
</svg>