<?xml version="1.0" encoding="UTF-8" ?>
<svg version="1.1" width="36" height="41" xmlns="http://www.w3.org/2000/svg" shape-rendering="crispEdges">
<rect x="18" y="0" width="6" height="3" fill="#C7CFDD" />
<rect x="14" y="1" width="4" height="10" fill="#C7CFDD" />
<rect x="11" y="2" width="3" height="13" fill="#C7CFDD" />
<rect x="9" y="3" width="2" height="33" fill="#C7CFDD" />
<rect x="18" y="3" width="5" height="4" fill="#C7CFDD" />
<rect x="7" y="4" width="2" height="30" fill="#C7CFDD" />
<rect x="6" y="5" width="1" height="28" fill="#C7CFDD" />
<rect x="5" y="6" width="1" height="26" fill="#C7CFDD" />
<rect x="4" y="7" width="1" height="24" fill="#C7CFDD" />
<rect x="18" y="7" width="4" height="3" fill="#C7CFDD" />
<rect x="3" y="8" width="1" height="22" fill="#C7CFDD" />
<rect x="2" y="10" width="1" height="18" fill="#C7CFDD" />
<rect x="18" y="10" width="1" height="1" fill="#C7CFDD" />
<rect x="14" y="11" width="3" height="1" fill="#C7CFDD" />
<rect x="25" y="11" width="1" height="1" fill="#391F21" />
<rect x="26" y="11" width="3" height="4" fill="#5D2C28" />
<rect x="14" y="12" width="1" height="1" fill="#C7CFDD" />
<rect x="23" y="12" width="2" height="1" fill="#391F21" />
<rect x="25" y="12" width="1" height="6" fill="#5D2C28" />
<rect x="29" y="12" width="2" height="4" fill="#5D2C28" />
<rect x="1" y="13" width="1" height="13" fill="#C7CFDD" />
<rect x="22" y="13" width="2" height="1" fill="#391F21" />
<rect x="24" y="13" width="1" height="1" fill="#5D2C28" />
<rect x="31" y="13" width="1" height="5" fill="#5D2C28" />
<rect x="21" y="14" width="2" height="2" fill="#391F21" />
<rect x="23" y="14" width="1" height="1" fill="#5D2C28" />
<rect x="24" y="14" width="1" height="4" fill="#391F21" />
<rect x="32" y="14" width="1" height="3" fill="#5D2C28" />
<rect x="11" y="15" width="2" height="2" fill="#C7CFDD" />
<rect x="20" y="15" width="1" height="1" fill="#391F21" />
<rect x="23" y="15" width="1" height="1" fill="#391F21" />
<rect x="26" y="15" width="1" height="1" fill="#5D2C28" />
<rect x="27" y="15" width="2" height="2" fill="#391F21" />
<rect x="19" y="16" width="3" height="1" fill="#1C121C" />
<rect x="22" y="16" width="1" height="1" fill="#391F21" />
<rect x="23" y="16" width="1" height="5" fill="#1C121C" />
<rect x="26" y="16" width="1" height="2" fill="#391F21" />
<rect x="29" y="16" width="1" height="2" fill="#391F21" />
<rect x="30" y="16" width="1" height="1" fill="#5D2C28" />
<rect x="0" y="17" width="1" height="6" fill="#C7CFDD" />
<rect x="11" y="17" width="1" height="21" fill="#C7CFDD" />
<rect x="21" y="17" width="2" height="2" fill="#1C121C" />
<rect x="27" y="17" width="2" height="2" fill="#1C121C" />
<rect x="30" y="17" width="1" height="1" fill="#391F21" />
<rect x="32" y="17" width="1" height="1" fill="#391F21" />
<rect x="33" y="17" width="1" height="1" fill="#5D2C28" />
<rect x="20" y="18" width="1" height="1" fill="#1C121C" />
<rect x="24" y="18" width="1" height="2" fill="#1C121C" />
<rect x="25" y="18" width="1" height="1" fill="#391F21" />
<rect x="26" y="18" width="1" height="1" fill="#1C121C" />
<rect x="29" y="18" width="2" height="1" fill="#1C121C" />
<rect x="31" y="18" width="1" height="1" fill="#B4B4B4" />
<rect x="22" y="19" width="1" height="1" fill="#1C121C" />
<rect x="25" y="19" width="1" height="1" fill="#891E2B" />
<rect x="26" y="19" width="1" height="1" fill="#B4B4B4" />
<rect x="27" y="19" width="3" height="1" fill="#FFFFFF" />
<rect x="30" y="19" width="1" height="1" fill="#B4B4B4" />
<rect x="31" y="19" width="3" height="1" fill="#571C27" />
<rect x="12" y="20" width="1" height="18" fill="#C7CFDD" />
<rect x="24" y="20" width="2" height="2" fill="#C42430" />
<rect x="26" y="20" width="1" height="1" fill="#891E2B" />
<rect x="27" y="20" width="3" height="1" fill="#B4B4B4" />
<rect x="30" y="20" width="2" height="5" fill="#891E2B" />
<rect x="32" y="20" width="2" height="1" fill="#571C27" />
<rect x="34" y="20" width="1" height="3" fill="#272727" />
<rect x="23" y="21" width="1" height="1" fill="#891E2B" />
<rect x="26" y="21" width="1" height="4" fill="#C42430" />
<rect x="27" y="21" width="3" height="1" fill="#891E2B" />
<rect x="32" y="21" width="1" height="2" fill="#891E2B" />
<rect x="33" y="21" width="1" height="2" fill="#571C27" />
<rect x="13" y="22" width="1" height="17" fill="#C7CFDD" />
<rect x="23" y="22" width="1" height="1" fill="#272727" />
<rect x="24" y="22" width="1" height="1" fill="#891E2B" />
<rect x="25" y="22" width="1" height="2" fill="#C42430" />
<rect x="27" y="22" width="1" height="1" fill="#C42430" />
<rect x="28" y="22" width="2" height="1" fill="#891E2B" />
<rect x="22" y="23" width="1" height="1" fill="#B4B4B4" />
<rect x="23" y="23" width="1" height="1" fill="#FFFFFF" />
<rect x="24" y="23" width="1" height="1" fill="#272727" />
<rect x="27" y="23" width="2" height="1" fill="#800020" />
<rect x="29" y="23" width="1" height="10" fill="#891E2B" />
<rect x="32" y="23" width="1" height="6" fill="#571C27" />
<rect x="33" y="23" width="1" height="1" fill="#272727" />
<rect x="14" y="24" width="1" height="15" fill="#C7CFDD" />
<rect x="22" y="24" width="1" height="1" fill="#FFFFFF" />
<rect x="23" y="24" width="2" height="1" fill="#B4B4B4" />
<rect x="25" y="24" width="1" height="1" fill="#891E2B" />
<rect x="27" y="24" width="1" height="1" fill="#891E2B" />
<rect x="28" y="24" width="1" height="1" fill="#800020" />
<rect x="33" y="24" width="1" height="1" fill="#571C27" />
<rect x="21" y="25" width="2" height="1" fill="#F6CA9F" />
<rect x="23" y="25" width="1" height="1" fill="#B4B4B4" />
<rect x="24" y="25" width="1" height="1" fill="#8A4836" />
<rect x="25" y="25" width="1" height="1" fill="#272727" />
<rect x="26" y="25" width="1" height="1" fill="#891E2B" />
<rect x="27" y="25" width="1" height="1" fill="#800020" />
<rect x="28" y="25" width="1" height="1" fill="#571C27" />
<rect x="30" y="25" width="1" height="8" fill="#891E2B" />
<rect x="31" y="25" width="1" height="2" fill="#571C27" />
<rect x="15" y="26" width="1" height="14" fill="#C7CFDD" />
<rect x="21" y="26" width="1" height="1" fill="#F6CA9F" />
<rect x="22" y="26" width="1" height="2" fill="#E69C69" />
<rect x="23" y="26" width="1" height="1" fill="#BF6F4A" />
<rect x="24" y="26" width="4" height="1" fill="#571C27" />
<rect x="28" y="26" width="1" height="7" fill="#891E2B" />
<rect x="33" y="26" width="2" height="4" fill="#571C27" />
<rect x="16" y="27" width="1" height="13" fill="#C7CFDD" />
<rect x="19" y="27" width="2" height="2" fill="#424C6E" />
<rect x="21" y="27" width="1" height="1" fill="#E69C69" />
<rect x="23" y="27" width="1" height="7" fill="#131313" />
<rect x="24" y="27" width="2" height="1" fill="#571C27" />
<rect x="26" y="27" width="2" height="5" fill="#891E2B" />
<rect x="31" y="27" width="1" height="6" fill="#891E2B" />
<rect x="35" y="27" width="1" height="4" fill="#571C27" />
<rect x="17" y="28" width="1" height="9" fill="#C7CFDD" />
<rect x="21" y="28" width="1" height="1" fill="#424C6E" />
<rect x="22" y="28" width="1" height="4" fill="#131313" />
<rect x="24" y="28" width="1" height="2" fill="#571C27" />
<rect x="25" y="28" width="1" height="3" fill="#891E2B" />
<rect x="18" y="29" width="2" height="3" fill="#C7CFDD" />
<rect x="21" y="29" width="1" height="3" fill="#92A1B9" />
<rect x="32" y="29" width="1" height="4" fill="#891E2B" />
<rect x="20" y="30" width="1" height="3" fill="#FFFFFF" />
<rect x="24" y="30" width="1" height="4" fill="#131313" />
<rect x="33" y="30" width="2" height="2" fill="#891E2B" />
<rect x="25" y="31" width="1" height="4" fill="#131313" />
<rect x="18" y="32" width="1" height="2" fill="#C7CFDD" />
<rect x="19" y="32" width="1" height="4" fill="#FFFFFF" />
<rect x="21" y="32" width="2" height="2" fill="#C7CFDD" />
<rect x="26" y="32" width="2" height="1" fill="#131313" />
<rect x="33" y="32" width="1" height="1" fill="#891E2B" />
<rect x="34" y="32" width="1" height="2" fill="#272727" />
<rect x="20" y="33" width="1" height="3" fill="#92A1B9" />
<rect x="29" y="33" width="4" height="1" fill="#131313" />
<rect x="33" y="33" width="1" height="1" fill="#272727" />
<rect x="8" y="34" width="1" height="1" fill="#C7CFDD" />
<rect x="18" y="34" width="1" height="4" fill="#FFFFFF" />
<rect x="21" y="34" width="1" height="2" fill="#C7CFDD" />
<rect x="23" y="34" width="1" height="1" fill="#BF6F4A" />
<rect x="24" y="34" width="1" height="3" fill="#391F21" />
<rect x="30" y="34" width="6" height="2" fill="#131313" />
<rect x="23" y="35" width="1" height="1" fill="#391F21" />
<rect x="25" y="35" width="1" height="2" fill="#391F21" />
<rect x="10" y="36" width="1" height="1" fill="#C7CFDD" />
<rect x="19" y="36" width="1" height="1" fill="#92A1B9" />
<rect x="20" y="36" width="1" height="3" fill="#C7CFDD" />
<rect x="31" y="36" width="5" height="1" fill="#131313" />
<rect x="17" y="37" width="1" height="4" fill="#FFFFFF" />
<rect x="19" y="37" width="1" height="4" fill="#C7CFDD" />
<rect x="32" y="37" width="2" height="1" fill="#131313" />
<rect x="34" y="37" width="2" height="2" fill="#8A4836" />
<rect x="18" y="38" width="1" height="3" fill="#C7CFDD" />
<rect x="34" y="39" width="1" height="1" fill="#8A4836" />
<rect x="35" y="39" width="1" height="1" fill="#5D2C28" />
</svg>