<?xml version="1.0" encoding="UTF-8" ?>
<svg version="1.1" width="54" height="41" xmlns="http://www.w3.org/2000/svg" shape-rendering="crispEdges">
<rect x="19" y="0" width="15" height="11" fill="#FFFFFF" />
<rect x="15" y="1" width="4" height="16" fill="#FFFFFF" />
<rect x="34" y="1" width="4" height="16" fill="#FFFFFF" />
<rect x="12" y="2" width="3" height="19" fill="#FFFFFF" />
<rect x="38" y="2" width="3" height="18" fill="#FFFFFF" />
<rect x="10" y="3" width="2" height="35" fill="#FFFFFF" />
<rect x="41" y="3" width="2" height="19" fill="#FFFFFF" />
<rect x="9" y="4" width="1" height="33" fill="#FFFFFF" />
<rect x="43" y="4" width="2" height="18" fill="#FFFFFF" />
<rect x="8" y="5" width="1" height="31" fill="#FFFFFF" />
<rect x="45" y="5" width="2" height="18" fill="#FFFFFF" />
<rect x="7" y="6" width="1" height="29" fill="#FFFFFF" />
<rect x="47" y="6" width="1" height="17" fill="#FFFFFF" />
<rect x="6" y="7" width="1" height="27" fill="#FFFFFF" />
<rect x="48" y="7" width="1" height="16" fill="#FFFFFF" />
<rect x="5" y="8" width="1" height="25" fill="#FFFFFF" />
<rect x="49" y="8" width="1" height="15" fill="#FFFFFF" />
<rect x="4" y="9" width="1" height="23" fill="#FFFFFF" />
<rect x="3" y="10" width="1" height="21" fill="#FFFFFF" />
<rect x="50" y="10" width="1" height="14" fill="#FFFFFF" />
<rect x="19" y="11" width="6" height="1" fill="#FFFFFF" />
<rect x="25" y="11" width="1" height="1" fill="#391F21" />
<rect x="26" y="11" width="3" height="4" fill="#5D2C28" />
<rect x="29" y="11" width="5" height="1" fill="#FFFFFF" />
<rect x="2" y="12" width="1" height="17" fill="#FFFFFF" />
<rect x="19" y="12" width="4" height="1" fill="#FFFFFF" />
<rect x="23" y="12" width="2" height="1" fill="#391F21" />
<rect x="25" y="12" width="1" height="6" fill="#5D2C28" />
<rect x="29" y="12" width="2" height="4" fill="#5D2C28" />
<rect x="31" y="12" width="3" height="1" fill="#FFFFFF" />
<rect x="51" y="12" width="1" height="12" fill="#FFFFFF" />
<rect x="19" y="13" width="3" height="1" fill="#FFFFFF" />
<rect x="22" y="13" width="2" height="1" fill="#391F21" />
<rect x="24" y="13" width="1" height="1" fill="#5D2C28" />
<rect x="31" y="13" width="1" height="5" fill="#5D2C28" />
<rect x="32" y="13" width="2" height="1" fill="#FFFFFF" />
<rect x="1" y="14" width="1" height="12" fill="#FFFFFF" />
<rect x="19" y="14" width="2" height="1" fill="#FFFFFF" />
<rect x="21" y="14" width="2" height="2" fill="#391F21" />
<rect x="23" y="14" width="1" height="1" fill="#5D2C28" />
<rect x="24" y="14" width="1" height="4" fill="#391F21" />
<rect x="32" y="14" width="1" height="3" fill="#5D2C28" />
<rect x="33" y="14" width="1" height="2" fill="#FFFFFF" />
<rect x="19" y="15" width="1" height="1" fill="#FFFFFF" />
<rect x="20" y="15" width="1" height="1" fill="#391F21" />
<rect x="23" y="15" width="1" height="1" fill="#391F21" />
<rect x="26" y="15" width="1" height="1" fill="#5D2C28" />
<rect x="27" y="15" width="2" height="2" fill="#391F21" />
<rect x="52" y="15" width="1" height="9" fill="#FFFFFF" />
<rect x="19" y="16" width="3" height="1" fill="#1C121C" />
<rect x="22" y="16" width="1" height="1" fill="#391F21" />
<rect x="23" y="16" width="1" height="4" fill="#1C121C" />
<rect x="26" y="16" width="1" height="2" fill="#391F21" />
<rect x="29" y="16" width="1" height="2" fill="#391F21" />
<rect x="30" y="16" width="1" height="1" fill="#5D2C28" />
<rect x="0" y="17" width="1" height="6" fill="#FFFFFF" />
<rect x="15" y="17" width="2" height="1" fill="#FFFFFF" />
<rect x="21" y="17" width="2" height="2" fill="#1C121C" />
<rect x="27" y="17" width="2" height="3" fill="#1C121C" />
<rect x="30" y="17" width="1" height="1" fill="#391F21" />
<rect x="32" y="17" width="2" height="1" fill="#391F21" />
<rect x="36" y="17" width="2" height="1" fill="#FFFFFF" />
<rect x="15" y="18" width="1" height="1" fill="#FFFFFF" />
<rect x="20" y="18" width="1" height="1" fill="#1C121C" />
<rect x="24" y="18" width="1" height="2" fill="#1C121C" />
<rect x="25" y="18" width="1" height="1" fill="#391F21" />
<rect x="26" y="18" width="1" height="2" fill="#1C121C" />
<rect x="29" y="18" width="2" height="2" fill="#1C121C" />
<rect x="31" y="18" width="1" height="1" fill="#391F21" />
<rect x="22" y="19" width="1" height="1" fill="#1C121C" />
<rect x="25" y="19" width="1" height="1" fill="#1C121C" />
<rect x="31" y="19" width="1" height="1" fill="#B4B4B4" />
<rect x="32" y="19" width="1" height="1" fill="#571C27" />
<rect x="53" y="19" width="1" height="4" fill="#FFFFFF" />
<rect x="22" y="20" width="2" height="2" fill="#C42430" />
<rect x="24" y="20" width="1" height="1" fill="#891E2B" />
<rect x="25" y="20" width="1" height="1" fill="#B4B4B4" />
<rect x="26" y="20" width="4" height="1" fill="#FFFFFF" />
<rect x="30" y="20" width="1" height="1" fill="#B4B4B4" />
<rect x="31" y="20" width="2" height="2" fill="#891E2B" />
<rect x="33" y="20" width="1" height="3" fill="#571C27" />
<rect x="39" y="20" width="2" height="2" fill="#FFFFFF" />
<rect x="12" y="21" width="2" height="18" fill="#FFFFFF" />
<rect x="21" y="21" width="1" height="1" fill="#891E2B" />
<rect x="24" y="21" width="1" height="4" fill="#C42430" />
<rect x="25" y="21" width="1" height="1" fill="#891E2B" />
<rect x="26" y="21" width="4" height="1" fill="#B4B4B4" />
<rect x="30" y="21" width="1" height="4" fill="#891E2B" />
<rect x="34" y="21" width="1" height="3" fill="#272727" />
<rect x="21" y="22" width="1" height="1" fill="#272727" />
<rect x="22" y="22" width="1" height="1" fill="#891E2B" />
<rect x="23" y="22" width="1" height="2" fill="#C42430" />
<rect x="25" y="22" width="1" height="1" fill="#C42430" />
<rect x="26" y="22" width="4" height="1" fill="#891E2B" />
<rect x="31" y="22" width="1" height="2" fill="#891E2B" />
<rect x="32" y="22" width="1" height="9" fill="#571C27" />
<rect x="44" y="22" width="1" height="1" fill="#FFFFFF" />
<rect x="20" y="23" width="1" height="1" fill="#B4B4B4" />
<rect x="21" y="23" width="1" height="1" fill="#FFFFFF" />
<rect x="22" y="23" width="1" height="1" fill="#272727" />
<rect x="25" y="23" width="2" height="1" fill="#800020" />
<rect x="27" y="23" width="3" height="10" fill="#891E2B" />
<rect x="33" y="23" width="1" height="1" fill="#131313" />
<rect x="14" y="24" width="1" height="13" fill="#FFFFFF" />
<rect x="20" y="24" width="1" height="1" fill="#FFFFFF" />
<rect x="21" y="24" width="2" height="1" fill="#B4B4B4" />
<rect x="23" y="24" width="1" height="1" fill="#891E2B" />
<rect x="25" y="24" width="1" height="1" fill="#891E2B" />
<rect x="26" y="24" width="1" height="1" fill="#800020" />
<rect x="31" y="24" width="1" height="6" fill="#571C27" />
<rect x="33" y="24" width="1" height="1" fill="#272727" />
<rect x="19" y="25" width="2" height="1" fill="#F6CA9F" />
<rect x="21" y="25" width="1" height="1" fill="#B4B4B4" />
<rect x="23" y="25" width="1" height="1" fill="#272727" />
<rect x="24" y="25" width="1" height="1" fill="#891E2B" />
<rect x="25" y="25" width="1" height="1" fill="#800020" />
<rect x="26" y="25" width="1" height="2" fill="#571C27" />
<rect x="30" y="25" width="1" height="3" fill="#571C27" />
<rect x="15" y="26" width="1" height="10" fill="#FFFFFF" />
<rect x="19" y="26" width="1" height="1" fill="#F6CA9F" />
<rect x="20" y="26" width="1" height="2" fill="#E69C69" />
<rect x="21" y="26" width="2" height="2" fill="#424C6E" />
<rect x="24" y="26" width="2" height="2" fill="#571C27" />
<rect x="33" y="26" width="1" height="5" fill="#571C27" />
<rect x="19" y="27" width="1" height="1" fill="#E69C69" />
<rect x="23" y="27" width="1" height="4" fill="#571C27" />
<rect x="26" y="27" width="1" height="6" fill="#891E2B" />
<rect x="34" y="27" width="1" height="5" fill="#571C27" />
<rect x="16" y="28" width="1" height="7" fill="#FFFFFF" />
<rect x="21" y="28" width="1" height="1" fill="#92A1B9" />
<rect x="22" y="28" width="1" height="1" fill="#424C6E" />
<rect x="24" y="28" width="1" height="1" fill="#571C27" />
<rect x="25" y="28" width="1" height="4" fill="#891E2B" />
<rect x="30" y="28" width="1" height="6" fill="#891E2B" />
<rect x="35" y="28" width="1" height="4" fill="#571C27" />
<rect x="17" y="29" width="2" height="4" fill="#FFFFFF" />
<rect x="20" y="29" width="1" height="2" fill="#FFFFFF" />
<rect x="21" y="29" width="1" height="1" fill="#C7CFDD" />
<rect x="22" y="29" width="1" height="6" fill="#131313" />
<rect x="24" y="29" width="1" height="3" fill="#891E2B" />
<rect x="19" y="30" width="1" height="2" fill="#FFFFFF" />
<rect x="21" y="30" width="1" height="1" fill="#92A1B9" />
<rect x="31" y="30" width="1" height="4" fill="#891E2B" />
<rect x="20" y="31" width="1" height="1" fill="#92A1B9" />
<rect x="21" y="31" width="1" height="2" fill="#C7CFDD" />
<rect x="23" y="31" width="1" height="4" fill="#131313" />
<rect x="32" y="31" width="2" height="2" fill="#891E2B" />
<rect x="19" y="32" width="1" height="1" fill="#92A1B9" />
<rect x="20" y="32" width="1" height="2" fill="#C7CFDD" />
<rect x="24" y="32" width="2" height="2" fill="#131313" />
<rect x="34" y="32" width="1" height="1" fill="#891E2B" />
<rect x="17" y="33" width="1" height="1" fill="#FFFFFF" />
<rect x="18" y="33" width="1" height="1" fill="#92A1B9" />
<rect x="19" y="33" width="1" height="2" fill="#C7CFDD" />
<rect x="26" y="33" width="2" height="1" fill="#131313" />
<rect x="28" y="33" width="2" height="1" fill="#891E2B" />
<rect x="32" y="33" width="1" height="1" fill="#891E2B" />
<rect x="33" y="33" width="1" height="2" fill="#272727" />
<rect x="17" y="34" width="1" height="1" fill="#92A1B9" />
<rect x="18" y="34" width="1" height="2" fill="#C7CFDD" />
<rect x="24" y="34" width="1" height="2" fill="#131313" />
<rect x="28" y="34" width="4" height="1" fill="#131313" />
<rect x="32" y="34" width="1" height="1" fill="#272727" />
<rect x="16" y="35" width="1" height="1" fill="#92A1B9" />
<rect x="17" y="35" width="1" height="2" fill="#C7CFDD" />
<rect x="22" y="35" width="1" height="1" fill="#BF6F4A" />
<rect x="23" y="35" width="1" height="3" fill="#391F21" />
<rect x="29" y="35" width="6" height="2" fill="#131313" />
<rect x="15" y="36" width="2" height="2" fill="#C7CFDD" />
<rect x="22" y="36" width="1" height="1" fill="#391F21" />
<rect x="24" y="36" width="1" height="2" fill="#391F21" />
<rect x="14" y="37" width="1" height="2" fill="#C7CFDD" />
<rect x="30" y="37" width="5" height="1" fill="#131313" />
<rect x="15" y="38" width="1" height="1" fill="#C7CFDD" />
<rect x="31" y="38" width="2" height="1" fill="#131313" />
<rect x="33" y="38" width="2" height="2" fill="#8A4836" />
<rect x="33" y="40" width="1" height="1" fill="#8A4836" />
<rect x="34" y="40" width="1" height="1" fill="#5D2C28" />
</svg>