<?xml version="1.0" encoding="UTF-8" ?>
<svg version="1.1" width="17" height="30" xmlns="http://www.w3.org/2000/svg" shape-rendering="crispEdges">
<rect x="8" y="0" width="4" height="4" fill="#5D2C28" />
<rect x="6" y="1" width="2" height="1" fill="#391F21" />
<rect x="12" y="1" width="2" height="3" fill="#5D2C28" />
<rect x="5" y="2" width="2" height="1" fill="#391F21" />
<rect x="7" y="2" width="1" height="1" fill="#5D2C28" />
<rect x="14" y="2" width="1" height="5" fill="#5D2C28" />
<rect x="4" y="3" width="2" height="2" fill="#391F21" />
<rect x="6" y="3" width="1" height="1" fill="#5D2C28" />
<rect x="7" y="3" width="1" height="4" fill="#391F21" />
<rect x="3" y="4" width="1" height="1" fill="#391F21" />
<rect x="6" y="4" width="1" height="1" fill="#391F21" />
<rect x="8" y="4" width="2" height="1" fill="#5D2C28" />
<rect x="10" y="4" width="3" height="2" fill="#391F21" />
<rect x="13" y="4" width="1" height="2" fill="#5D2C28" />
<rect x="15" y="4" width="1" height="3" fill="#5D2C28" />
<rect x="3" y="5" width="2" height="2" fill="#1C121C" />
<rect x="5" y="5" width="1" height="1" fill="#391F21" />
<rect x="6" y="5" width="1" height="5" fill="#1C121C" />
<rect x="8" y="5" width="1" height="2" fill="#5D2C28" />
<rect x="9" y="5" width="1" height="2" fill="#391F21" />
<rect x="5" y="6" width="1" height="4" fill="#1C121C" />
<rect x="10" y="6" width="2" height="1" fill="#1C121C" />
<rect x="12" y="6" width="2" height="1" fill="#391F21" />
<rect x="4" y="7" width="1" height="2" fill="#1C121C" />
<rect x="7" y="7" width="1" height="2" fill="#1C121C" />
<rect x="8" y="7" width="1" height="1" fill="#391F21" />
<rect x="9" y="7" width="2" height="1" fill="#1C121C" />
<rect x="11" y="7" width="2" height="2" fill="#424C6E" />
<rect x="13" y="7" width="2" height="1" fill="#1C121C" />
<rect x="15" y="7" width="1" height="1" fill="#8A4836" />
<rect x="16" y="7" width="1" height="1" fill="#2A2F4E" />
<rect x="8" y="8" width="3" height="1" fill="#B4B4B4" />
<rect x="13" y="8" width="1" height="2" fill="#2A2F4E" />
<rect x="14" y="8" width="1" height="1" fill="#8A4836" />
<rect x="15" y="8" width="1" height="1" fill="#BF6F4A" />
<rect x="16" y="8" width="1" height="1" fill="#8A4836" />
<rect x="7" y="9" width="1" height="1" fill="#B4B4B4" />
<rect x="8" y="9" width="4" height="1" fill="#FFFFFF" />
<rect x="12" y="9" width="1" height="5" fill="#92A1B9" />
<rect x="14" y="9" width="1" height="2" fill="#2A2F4E" />
<rect x="15" y="9" width="1" height="1" fill="#8A4836" />
<rect x="3" y="10" width="2" height="2" fill="#C42430" />
<rect x="5" y="10" width="2" height="1" fill="#891E2B" />
<rect x="7" y="10" width="4" height="1" fill="#571C27" />
<rect x="11" y="10" width="1" height="1" fill="#C7CFDD" />
<rect x="13" y="10" width="1" height="3" fill="#92A1B9" />
<rect x="15" y="10" width="1" height="3" fill="#2A2F4E" />
<rect x="2" y="11" width="1" height="1" fill="#891E2B" />
<rect x="5" y="11" width="1" height="4" fill="#C42430" />
<rect x="6" y="11" width="4" height="1" fill="#891E2B" />
<rect x="10" y="11" width="1" height="2" fill="#C7CFDD" />
<rect x="11" y="11" width="1" height="4" fill="#92A1B9" />
<rect x="14" y="11" width="1" height="1" fill="#92A1B9" />
<rect x="16" y="11" width="1" height="2" fill="#2A2F4E" />
<rect x="2" y="12" width="1" height="1" fill="#272727" />
<rect x="3" y="12" width="1" height="1" fill="#891E2B" />
<rect x="4" y="12" width="1" height="2" fill="#C42430" />
<rect x="6" y="12" width="1" height="1" fill="#C42430" />
<rect x="7" y="12" width="2" height="1" fill="#891E2B" />
<rect x="9" y="12" width="1" height="2" fill="#FFFFFF" />
<rect x="14" y="12" width="1" height="2" fill="#891E2B" />
<rect x="1" y="13" width="1" height="1" fill="#B4B4B4" />
<rect x="2" y="13" width="1" height="1" fill="#FFFFFF" />
<rect x="3" y="13" width="1" height="2" fill="#272727" />
<rect x="6" y="13" width="2" height="1" fill="#800020" />
<rect x="8" y="13" width="1" height="2" fill="#FFFFFF" />
<rect x="10" y="13" width="1" height="1" fill="#92A1B9" />
<rect x="13" y="13" width="1" height="7" fill="#571C27" />
<rect x="15" y="13" width="1" height="2" fill="#891E2B" />
<rect x="16" y="13" width="1" height="2" fill="#272727" />
<rect x="1" y="14" width="1" height="1" fill="#FFFFFF" />
<rect x="2" y="14" width="1" height="2" fill="#B4B4B4" />
<rect x="4" y="14" width="1" height="1" fill="#891E2B" />
<rect x="6" y="14" width="1" height="1" fill="#891E2B" />
<rect x="7" y="14" width="1" height="2" fill="#FFFFFF" />
<rect x="9" y="14" width="1" height="1" fill="#92A1B9" />
<rect x="10" y="14" width="1" height="2" fill="#C7CFDD" />
<rect x="12" y="14" width="1" height="5" fill="#571C27" />
<rect x="14" y="14" width="1" height="2" fill="#571C27" />
<rect x="0" y="15" width="2" height="1" fill="#F6CA9F" />
<rect x="4" y="15" width="1" height="1" fill="#272727" />
<rect x="5" y="15" width="1" height="1" fill="#891E2B" />
<rect x="6" y="15" width="1" height="2" fill="#FFFFFF" />
<rect x="8" y="15" width="2" height="2" fill="#C7CFDD" />
<rect x="11" y="15" width="1" height="3" fill="#571C27" />
<rect x="15" y="15" width="1" height="1" fill="#272727" />
<rect x="0" y="16" width="1" height="1" fill="#F6CA9F" />
<rect x="1" y="16" width="1" height="2" fill="#E69C69" />
<rect x="5" y="16" width="1" height="3" fill="#FFFFFF" />
<rect x="7" y="16" width="1" height="3" fill="#C7CFDD" />
<rect x="10" y="16" width="1" height="2" fill="#571C27" />
<rect x="0" y="17" width="1" height="1" fill="#E69C69" />
<rect x="6" y="17" width="1" height="2" fill="#C7CFDD" />
<rect x="8" y="17" width="1" height="1" fill="#C7CFDD" />
<rect x="9" y="17" width="1" height="1" fill="#571C27" />
<rect x="4" y="18" width="1" height="3" fill="#571C27" />
<rect x="8" y="18" width="4" height="5" fill="#891E2B" />
<rect x="5" y="19" width="1" height="1" fill="#571C27" />
<rect x="6" y="19" width="2" height="4" fill="#891E2B" />
<rect x="12" y="19" width="1" height="4" fill="#891E2B" />
<rect x="14" y="19" width="1" height="2" fill="#571C27" />
<rect x="5" y="20" width="1" height="2" fill="#891E2B" />
<rect x="13" y="20" width="1" height="2" fill="#891E2B" />
<rect x="5" y="22" width="1" height="3" fill="#131313" />
<rect x="13" y="22" width="1" height="3" fill="#272727" />
<rect x="6" y="23" width="3" height="2" fill="#131313" />
<rect x="9" y="23" width="1" height="4" fill="#272727" />
<rect x="10" y="23" width="3" height="2" fill="#3D3D3D" />
<rect x="6" y="25" width="2" height="2" fill="#5D2C28" />
<rect x="8" y="25" width="1" height="1" fill="#131313" />
<rect x="10" y="25" width="3" height="2" fill="#272727" />
<rect x="10" y="27" width="2" height="1" fill="#272727" />
<rect x="10" y="28" width="2" height="2" fill="#8A4836" />
</svg>