<?xml version="1.0" encoding="UTF-8" ?>
<svg version="1.1" width="78" height="59" xmlns="http://www.w3.org/2000/svg" shape-rendering="crispEdges">
<rect x="15" y="0" width="2" height="4" fill="#131313" />
<rect x="39" y="0" width="2" height="4" fill="#131313" />
<rect x="14" y="1" width="1" height="2" fill="#131313" />
<rect x="17" y="1" width="1" height="1" fill="#131313" />
<rect x="38" y="1" width="1" height="1" fill="#131313" />
<rect x="41" y="1" width="1" height="2" fill="#131313" />
<rect x="13" y="2" width="1" height="2" fill="#131313" />
<rect x="42" y="2" width="1" height="2" fill="#131313" />
<rect x="12" y="3" width="1" height="3" fill="#131313" />
<rect x="14" y="3" width="1" height="1" fill="#3D3D3D" />
<rect x="41" y="3" width="1" height="1" fill="#3D3D3D" />
<rect x="43" y="3" width="1" height="3" fill="#131313" />
<rect x="11" y="4" width="1" height="20" fill="#131313" />
<rect x="13" y="4" width="1" height="11" fill="#3D3D3D" />
<rect x="14" y="4" width="2" height="3" fill="#131313" />
<rect x="40" y="4" width="2" height="3" fill="#131313" />
<rect x="42" y="4" width="1" height="11" fill="#3D3D3D" />
<rect x="44" y="4" width="1" height="20" fill="#131313" />
<rect x="10" y="5" width="1" height="16" fill="#131313" />
<rect x="45" y="5" width="1" height="12" fill="#131313" />
<rect x="12" y="6" width="1" height="7" fill="#3D3D3D" />
<rect x="43" y="6" width="1" height="7" fill="#3D3D3D" />
<rect x="9" y="7" width="1" height="12" fill="#131313" />
<rect x="14" y="7" width="1" height="5" fill="#131313" />
<rect x="41" y="7" width="1" height="5" fill="#131313" />
<rect x="46" y="7" width="1" height="10" fill="#131313" />
<rect x="8" y="9" width="1" height="10" fill="#131313" />
<rect x="47" y="9" width="1" height="7" fill="#131313" />
<rect x="15" y="10" width="1" height="4" fill="#131313" />
<rect x="40" y="10" width="1" height="4" fill="#131313" />
<rect x="7" y="11" width="1" height="5" fill="#131313" />
<rect x="48" y="11" width="1" height="5" fill="#131313" />
<rect x="14" y="12" width="1" height="5" fill="#3D3D3D" />
<rect x="16" y="12" width="1" height="4" fill="#131313" />
<rect x="39" y="12" width="1" height="4" fill="#131313" />
<rect x="41" y="12" width="1" height="5" fill="#3D3D3D" />
<rect x="12" y="13" width="1" height="11" fill="#131313" />
<rect x="43" y="13" width="1" height="12" fill="#131313" />
<rect x="15" y="14" width="1" height="5" fill="#3D3D3D" />
<rect x="17" y="14" width="1" height="3" fill="#131313" />
<rect x="38" y="14" width="1" height="3" fill="#131313" />
<rect x="40" y="14" width="1" height="5" fill="#3D3D3D" />
<rect x="13" y="15" width="1" height="10" fill="#131313" />
<rect x="42" y="15" width="1" height="12" fill="#131313" />
<rect x="49" y="15" width="18" height="1" fill="#131313" />
<rect x="16" y="16" width="1" height="5" fill="#3D3D3D" />
<rect x="18" y="16" width="1" height="2" fill="#131313" />
<rect x="37" y="16" width="1" height="2" fill="#131313" />
<rect x="39" y="16" width="1" height="5" fill="#3D3D3D" />
<rect x="47" y="16" width="5" height="1" fill="#C42430" />
<rect x="52" y="16" width="15" height="3" fill="#571C27" />
<rect x="67" y="16" width="3" height="1" fill="#131313" />
<rect x="14" y="17" width="1" height="11" fill="#131313" />
<rect x="17" y="17" width="1" height="5" fill="#3D3D3D" />
<rect x="19" y="17" width="1" height="2" fill="#131313" />
<rect x="36" y="17" width="1" height="2" fill="#131313" />
<rect x="38" y="17" width="1" height="5" fill="#3D3D3D" />
<rect x="41" y="17" width="1" height="9" fill="#131313" />
<rect x="45" y="17" width="2" height="1" fill="#C42430" />
<rect x="47" y="17" width="5" height="1" fill="#571C27" />
<rect x="67" y="17" width="3" height="4" fill="#571C27" />
<rect x="70" y="17" width="3" height="1" fill="#131313" />
<rect x="18" y="18" width="1" height="5" fill="#3D3D3D" />
<rect x="20" y="18" width="2" height="2" fill="#131313" />
<rect x="24" y="18" width="8" height="1" fill="#131313" />
<rect x="34" y="18" width="2" height="2" fill="#131313" />
<rect x="37" y="18" width="1" height="5" fill="#3D3D3D" />
<rect x="45" y="18" width="6" height="1" fill="#131313" />
<rect x="51" y="18" width="1" height="3" fill="#571C27" />
<rect x="70" y="18" width="3" height="2" fill="#571C27" />
<rect x="73" y="18" width="2" height="1" fill="#131313" />
<rect x="6" y="19" width="2" height="1" fill="#131313" />
<rect x="8" y="19" width="2" height="1" fill="#C42430" />
<rect x="15" y="19" width="1" height="8" fill="#131313" />
<rect x="19" y="19" width="1" height="5" fill="#3D3D3D" />
<rect x="22" y="19" width="2" height="2" fill="#131313" />
<rect x="24" y="19" width="8" height="2" fill="#571C27" />
<rect x="32" y="19" width="2" height="1" fill="#131313" />
<rect x="36" y="19" width="1" height="5" fill="#3D3D3D" />
<rect x="40" y="19" width="1" height="8" fill="#131313" />
<rect x="45" y="19" width="5" height="1" fill="#131313" />
<rect x="50" y="19" width="1" height="1" fill="#571C27" />
<rect x="52" y="19" width="3" height="1" fill="#131313" />
<rect x="55" y="19" width="12" height="1" fill="#571C27" />
<rect x="73" y="19" width="2" height="1" fill="#571C27" />
<rect x="75" y="19" width="2" height="1" fill="#131313" />
<rect x="4" y="20" width="2" height="1" fill="#131313" />
<rect x="6" y="20" width="2" height="1" fill="#C42430" />
<rect x="8" y="20" width="2" height="5" fill="#571C27" />
<rect x="20" y="20" width="2" height="2" fill="#3D3D3D" />
<rect x="32" y="20" width="1" height="3" fill="#571C27" />
<rect x="33" y="20" width="1" height="2" fill="#131313" />
<rect x="34" y="20" width="2" height="2" fill="#3D3D3D" />
<rect x="45" y="20" width="2" height="1" fill="#131313" />
<rect x="48" y="20" width="1" height="1" fill="#131313" />
<rect x="49" y="20" width="1" height="1" fill="#571C27" />
<rect x="50" y="20" width="1" height="1" fill="#131313" />
<rect x="52" y="20" width="4" height="1" fill="#571C27" />
<rect x="56" y="20" width="2" height="1" fill="#131313" />
<rect x="58" y="20" width="9" height="1" fill="#571C27" />
<rect x="70" y="20" width="5" height="1" fill="#131313" />
<rect x="75" y="20" width="2" height="1" fill="#571C27" />
<rect x="77" y="20" width="1" height="1" fill="#131313" />
<rect x="3" y="21" width="1" height="1" fill="#131313" />
<rect x="4" y="21" width="2" height="1" fill="#C42430" />
<rect x="6" y="21" width="2" height="6" fill="#571C27" />
<rect x="10" y="21" width="1" height="3" fill="#571C27" />
<rect x="16" y="21" width="1" height="6" fill="#131313" />
<rect x="22" y="21" width="1" height="1" fill="#131313" />
<rect x="23" y="21" width="1" height="1" fill="#571C27" />
<rect x="24" y="21" width="4" height="2" fill="#891E2B" />
<rect x="28" y="21" width="4" height="1" fill="#571C27" />
<rect x="39" y="21" width="1" height="7" fill="#131313" />
<rect x="45" y="21" width="1" height="2" fill="#131313" />
<rect x="49" y="21" width="1" height="3" fill="#131313" />
<rect x="50" y="21" width="1" height="9" fill="#571C27" />
<rect x="51" y="21" width="2" height="1" fill="#131313" />
<rect x="53" y="21" width="5" height="2" fill="#571C27" />
<rect x="58" y="21" width="1" height="1" fill="#131313" />
<rect x="59" y="21" width="9" height="1" fill="#571C27" />
<rect x="68" y="21" width="2" height="1" fill="#131313" />
<rect x="75" y="21" width="2" height="1" fill="#131313" />
<rect x="1" y="22" width="2" height="1" fill="#131313" />
<rect x="3" y="22" width="1" height="1" fill="#C42430" />
<rect x="4" y="22" width="2" height="3" fill="#571C27" />
<rect x="17" y="22" width="1" height="6" fill="#131313" />
<rect x="20" y="22" width="1" height="2" fill="#3D3D3D" />
<rect x="21" y="22" width="1" height="2" fill="#131313" />
<rect x="22" y="22" width="1" height="2" fill="#571C27" />
<rect x="23" y="22" width="1" height="3" fill="#891E2B" />
<rect x="28" y="22" width="3" height="2" fill="#891E2B" />
<rect x="31" y="22" width="1" height="1" fill="#571C27" />
<rect x="33" y="22" width="1" height="2" fill="#571C27" />
<rect x="34" y="22" width="1" height="2" fill="#131313" />
<rect x="35" y="22" width="1" height="2" fill="#3D3D3D" />
<rect x="38" y="22" width="1" height="6" fill="#131313" />
<rect x="51" y="22" width="1" height="7" fill="#571C27" />
<rect x="52" y="22" width="1" height="1" fill="#131313" />
<rect x="58" y="22" width="1" height="3" fill="#571C27" />
<rect x="59" y="22" width="1" height="1" fill="#131313" />
<rect x="60" y="22" width="7" height="1" fill="#571C27" />
<rect x="67" y="22" width="1" height="1" fill="#131313" />
<rect x="0" y="23" width="1" height="1" fill="#131313" />
<rect x="1" y="23" width="2" height="1" fill="#C42430" />
<rect x="3" y="23" width="1" height="2" fill="#571C27" />
<rect x="18" y="23" width="1" height="5" fill="#131313" />
<rect x="24" y="23" width="1" height="1" fill="#891E2B" />
<rect x="25" y="23" width="3" height="6" fill="#C42430" />
<rect x="31" y="23" width="2" height="5" fill="#891E2B" />
<rect x="37" y="23" width="1" height="5" fill="#131313" />
<rect x="52" y="23" width="1" height="6" fill="#571C27" />
<rect x="53" y="23" width="1" height="3" fill="#131313" />
<rect x="54" y="23" width="4" height="2" fill="#571C27" />
<rect x="59" y="23" width="1" height="3" fill="#571C27" />
<rect x="60" y="23" width="1" height="1" fill="#131313" />
<rect x="61" y="23" width="4" height="1" fill="#571C27" />
<rect x="65" y="23" width="1" height="1" fill="#891E2B" />
<rect x="66" y="23" width="1" height="1" fill="#131313" />
<rect x="1" y="24" width="2" height="1" fill="#131313" />
<rect x="10" y="24" width="1" height="1" fill="#131313" />
<rect x="11" y="24" width="2" height="3" fill="#571C27" />
<rect x="19" y="24" width="2" height="2" fill="#131313" />
<rect x="21" y="24" width="1" height="2" fill="#571C27" />
<rect x="22" y="24" width="1" height="2" fill="#891E2B" />
<rect x="24" y="24" width="1" height="7" fill="#C42430" />
<rect x="28" y="24" width="1" height="6" fill="#C42430" />
<rect x="29" y="24" width="2" height="1" fill="#891E2B" />
<rect x="33" y="24" width="1" height="4" fill="#891E2B" />
<rect x="34" y="24" width="1" height="2" fill="#571C27" />
<rect x="35" y="24" width="2" height="2" fill="#131313" />
<rect x="48" y="24" width="1" height="2" fill="#131313" />
<rect x="49" y="24" width="1" height="7" fill="#571C27" />
<rect x="60" y="24" width="1" height="2" fill="#571C27" />
<rect x="61" y="24" width="1" height="1" fill="#131313" />
<rect x="62" y="24" width="2" height="1" fill="#571C27" />
<rect x="64" y="24" width="1" height="2" fill="#891E2B" />
<rect x="65" y="24" width="1" height="2" fill="#131313" />
<rect x="3" y="25" width="2" height="1" fill="#131313" />
<rect x="5" y="25" width="1" height="1" fill="#571C27" />
<rect x="8" y="25" width="1" height="4" fill="#571C27" />
<rect x="9" y="25" width="1" height="1" fill="#131313" />
<rect x="10" y="25" width="1" height="3" fill="#571C27" />
<rect x="13" y="25" width="1" height="1" fill="#571C27" />
<rect x="23" y="25" width="1" height="5" fill="#C42430" />
<rect x="29" y="25" width="1" height="4" fill="#C42430" />
<rect x="30" y="25" width="1" height="1" fill="#891E2B" />
<rect x="54" y="25" width="3" height="1" fill="#571C27" />
<rect x="57" y="25" width="2" height="6" fill="#891E2B" />
<rect x="61" y="25" width="2" height="2" fill="#571C27" />
<rect x="63" y="25" width="1" height="1" fill="#891E2B" />
<rect x="5" y="26" width="1" height="1" fill="#131313" />
<rect x="9" y="26" width="1" height="2" fill="#571C27" />
<rect x="13" y="26" width="1" height="2" fill="#891E2B" />
<rect x="19" y="26" width="1" height="2" fill="#131313" />
<rect x="20" y="26" width="1" height="1" fill="#571C27" />
<rect x="21" y="26" width="1" height="1" fill="#891E2B" />
<rect x="22" y="26" width="1" height="3" fill="#C42430" />
<rect x="30" y="26" width="1" height="2" fill="#C42430" />
<rect x="34" y="26" width="1" height="2" fill="#891E2B" />
<rect x="35" y="26" width="1" height="2" fill="#571C27" />
<rect x="36" y="26" width="1" height="1" fill="#131313" />
<rect x="41" y="26" width="1" height="4" fill="#571C27" />
<rect x="47" y="26" width="1" height="2" fill="#131313" />
<rect x="48" y="26" width="1" height="3" fill="#C42430" />
<rect x="53" y="26" width="1" height="4" fill="#571C27" />
<rect x="54" y="26" width="1" height="4" fill="#131313" />
<rect x="55" y="26" width="1" height="3" fill="#571C27" />
<rect x="56" y="26" width="1" height="7" fill="#891E2B" />
<rect x="59" y="26" width="2" height="4" fill="#891E2B" />
<rect x="63" y="26" width="1" height="3" fill="#571C27" />
<rect x="64" y="26" width="1" height="2" fill="#131313" />
<rect x="6" y="27" width="1" height="1" fill="#131313" />
<rect x="7" y="27" width="1" height="1" fill="#571C27" />
<rect x="11" y="27" width="2" height="4" fill="#891E2B" />
<rect x="15" y="27" width="2" height="8" fill="#571C27" />
<rect x="20" y="27" width="1" height="1" fill="#891E2B" />
<rect x="21" y="27" width="1" height="1" fill="#C42430" />
<rect x="36" y="27" width="1" height="1" fill="#571C27" />
<rect x="40" y="27" width="1" height="18" fill="#571C27" />
<rect x="42" y="27" width="1" height="5" fill="#571C27" />
<rect x="43" y="27" width="1" height="2" fill="#131313" />
<rect x="61" y="27" width="1" height="3" fill="#891E2B" />
<rect x="62" y="27" width="1" height="1" fill="#571C27" />
<rect x="7" y="28" width="1" height="1" fill="#131313" />
<rect x="9" y="28" width="2" height="1" fill="#891E2B" />
<rect x="13" y="28" width="1" height="3" fill="#131313" />
<rect x="14" y="28" width="1" height="7" fill="#571C27" />
<rect x="17" y="28" width="4" height="1" fill="#571C27" />
<rect x="21" y="28" width="1" height="1" fill="#891E2B" />
<rect x="30" y="28" width="2" height="1" fill="#891E2B" />
<rect x="32" y="28" width="3" height="1" fill="#571C27" />
<rect x="35" y="28" width="2" height="1" fill="#891E2B" />
<rect x="37" y="28" width="3" height="1" fill="#571C27" />
<rect x="45" y="28" width="2" height="1" fill="#131313" />
<rect x="47" y="28" width="1" height="1" fill="#C42430" />
<rect x="62" y="28" width="1" height="1" fill="#891E2B" />
<rect x="64" y="28" width="1" height="1" fill="#571C27" />
<rect x="65" y="28" width="1" height="1" fill="#131313" />
<rect x="8" y="29" width="2" height="1" fill="#131313" />
<rect x="10" y="29" width="1" height="1" fill="#891E2B" />
<rect x="17" y="29" width="1" height="7" fill="#891E2B" />
<rect x="18" y="29" width="1" height="5" fill="#571C27" />
<rect x="19" y="29" width="2" height="1" fill="#FFA214" />
<rect x="21" y="29" width="1" height="1" fill="#571C27" />
<rect x="22" y="29" width="1" height="1" fill="#891E2B" />
<rect x="25" y="29" width="1" height="2" fill="#891E2B" />
<rect x="26" y="29" width="2" height="1" fill="#C42430" />
<rect x="29" y="29" width="2" height="1" fill="#891E2B" />
<rect x="31" y="29" width="1" height="1" fill="#571C27" />
<rect x="32" y="29" width="3" height="1" fill="#FFA214" />
<rect x="35" y="29" width="1" height="4" fill="#571C27" />
<rect x="36" y="29" width="2" height="7" fill="#891E2B" />
<rect x="38" y="29" width="2" height="2" fill="#571C27" />
<rect x="43" y="29" width="1" height="4" fill="#571C27" />
<rect x="44" y="29" width="1" height="1" fill="#131313" />
<rect x="45" y="29" width="2" height="1" fill="#C42430" />
<rect x="47" y="29" width="2" height="3" fill="#571C27" />
<rect x="51" y="29" width="2" height="6" fill="#891E2B" />
<rect x="55" y="29" width="1" height="3" fill="#131313" />
<rect x="62" y="29" width="3" height="1" fill="#131313" />
<rect x="10" y="30" width="1" height="1" fill="#131313" />
<rect x="19" y="30" width="1" height="3" fill="#FFA214" />
<rect x="20" y="30" width="1" height="1" fill="#FFC825" />
<rect x="21" y="30" width="1" height="1" fill="#FFA214" />
<rect x="22" y="30" width="1" height="1" fill="#571C27" />
<rect x="23" y="30" width="1" height="1" fill="#891E2B" />
<rect x="26" y="30" width="1" height="2" fill="#891E2B" />
<rect x="27" y="30" width="1" height="1" fill="#C42430" />
<rect x="28" y="30" width="2" height="1" fill="#891E2B" />
<rect x="30" y="30" width="1" height="1" fill="#571C27" />
<rect x="31" y="30" width="2" height="1" fill="#FFA214" />
<rect x="33" y="30" width="1" height="3" fill="#FFC825" />
<rect x="34" y="30" width="1" height="3" fill="#FFA214" />
<rect x="41" y="30" width="1" height="2" fill="#891E2B" />
<rect x="44" y="30" width="1" height="1" fill="#C42430" />
<rect x="45" y="30" width="2" height="2" fill="#571C27" />
<rect x="50" y="30" width="1" height="6" fill="#891E2B" />
<rect x="53" y="30" width="1" height="5" fill="#891E2B" />
<rect x="54" y="30" width="1" height="3" fill="#571C27" />
<rect x="59" y="30" width="3" height="1" fill="#131313" />
<rect x="11" y="31" width="1" height="3" fill="#131313" />
<rect x="12" y="31" width="1" height="2" fill="#891E2B" />
<rect x="13" y="31" width="1" height="3" fill="#571C27" />
<rect x="20" y="31" width="1" height="1" fill="#FFEB57" />
<rect x="21" y="31" width="1" height="1" fill="#FFC825" />
<rect x="22" y="31" width="1" height="1" fill="#FFA214" />
<rect x="23" y="31" width="1" height="1" fill="#571C27" />
<rect x="24" y="31" width="1" height="1" fill="#891E2B" />
<rect x="25" y="31" width="1" height="3" fill="#571C27" />
<rect x="27" y="31" width="1" height="1" fill="#891E2B" />
<rect x="28" y="31" width="2" height="1" fill="#571C27" />
<rect x="30" y="31" width="1" height="1" fill="#FFA214" />
<rect x="31" y="31" width="1" height="1" fill="#FFC825" />
<rect x="32" y="31" width="1" height="2" fill="#FFEB57" />
<rect x="38" y="31" width="1" height="10" fill="#891E2B" />
<rect x="39" y="31" width="1" height="3" fill="#571C27" />
<rect x="44" y="31" width="1" height="2" fill="#571C27" />
<rect x="49" y="31" width="1" height="6" fill="#891E2B" />
<rect x="57" y="31" width="1" height="1" fill="#891E2B" />
<rect x="58" y="31" width="1" height="1" fill="#131313" />
<rect x="20" y="32" width="1" height="1" fill="#FFC825" />
<rect x="21" y="32" width="1" height="1" fill="#FFEB57" />
<rect x="22" y="32" width="1" height="1" fill="#FFC825" />
<rect x="23" y="32" width="1" height="2" fill="#FFA214" />
<rect x="24" y="32" width="1" height="2" fill="#571C27" />
<rect x="26" y="32" width="2" height="2" fill="#571C27" />
<rect x="28" y="32" width="2" height="1" fill="#FFA214" />
<rect x="30" y="32" width="1" height="1" fill="#FFC825" />
<rect x="31" y="32" width="1" height="2" fill="#FFEB57" />
<rect x="41" y="32" width="1" height="13" fill="#571C27" />
<rect x="42" y="32" width="1" height="2" fill="#891E2B" />
<rect x="45" y="32" width="1" height="1" fill="#571C27" />
<rect x="46" y="32" width="3" height="4" fill="#891E2B" />
<rect x="55" y="32" width="1" height="3" fill="#571C27" />
<rect x="57" y="32" width="1" height="1" fill="#131313" />
<rect x="12" y="33" width="1" height="1" fill="#571C27" />
<rect x="19" y="33" width="1" height="2" fill="#571C27" />
<rect x="20" y="33" width="3" height="1" fill="#FFA214" />
<rect x="28" y="33" width="1" height="1" fill="#FFA214" />
<rect x="29" y="33" width="1" height="1" fill="#FFC825" />
<rect x="30" y="33" width="1" height="1" fill="#FFEB57" />
<rect x="32" y="33" width="1" height="1" fill="#FFC825" />
<rect x="33" y="33" width="1" height="1" fill="#FFA214" />
<rect x="34" y="33" width="1" height="1" fill="#571C27" />
<rect x="35" y="33" width="1" height="3" fill="#891E2B" />
<rect x="43" y="33" width="3" height="3" fill="#891E2B" />
<rect x="54" y="33" width="1" height="2" fill="#891E2B" />
<rect x="56" y="33" width="1" height="2" fill="#131313" />
<rect x="12" y="34" width="2" height="1" fill="#131313" />
<rect x="18" y="34" width="1" height="4" fill="#891E2B" />
<rect x="20" y="34" width="4" height="1" fill="#571C27" />
<rect x="24" y="34" width="4" height="2" fill="#891E2B" />
<rect x="28" y="34" width="1" height="1" fill="#571C27" />
<rect x="29" y="34" width="4" height="1" fill="#FFA214" />
<rect x="33" y="34" width="1" height="1" fill="#571C27" />
<rect x="34" y="34" width="1" height="3" fill="#891E2B" />
<rect x="39" y="34" width="1" height="4" fill="#891E2B" />
<rect x="42" y="34" width="1" height="12" fill="#571C27" />
<rect x="14" y="35" width="2" height="1" fill="#131313" />
<rect x="16" y="35" width="1" height="2" fill="#571C27" />
<rect x="19" y="35" width="5" height="1" fill="#891E2B" />
<rect x="28" y="35" width="1" height="3" fill="#891E2B" />
<rect x="29" y="35" width="4" height="1" fill="#571C27" />
<rect x="33" y="35" width="1" height="3" fill="#891E2B" />
<rect x="51" y="35" width="5" height="1" fill="#131313" />
<rect x="15" y="36" width="1" height="1" fill="#131313" />
<rect x="17" y="36" width="1" height="2" fill="#571C27" />
<rect x="19" y="36" width="1" height="1" fill="#891E2B" />
<rect x="20" y="36" width="1" height="1" fill="#131313" />
<rect x="21" y="36" width="1" height="1" fill="#891E2B" />
<rect x="22" y="36" width="1" height="1" fill="#131313" />
<rect x="23" y="36" width="2" height="1" fill="#891E2B" />
<rect x="25" y="36" width="1" height="2" fill="#131313" />
<rect x="26" y="36" width="2" height="1" fill="#891E2B" />
<rect x="29" y="36" width="4" height="1" fill="#891E2B" />
<rect x="35" y="36" width="2" height="1" fill="#131313" />
<rect x="37" y="36" width="1" height="1" fill="#891E2B" />
<rect x="43" y="36" width="2" height="1" fill="#571C27" />
<rect x="45" y="36" width="2" height="1" fill="#131313" />
<rect x="47" y="36" width="2" height="1" fill="#891E2B" />
<rect x="50" y="36" width="1" height="1" fill="#131313" />
<rect x="16" y="37" width="1" height="1" fill="#131313" />
<rect x="19" y="37" width="1" height="1" fill="#131313" />
<rect x="20" y="37" width="1" height="4" fill="#FFC825" />
<rect x="21" y="37" width="1" height="2" fill="#131313" />
<rect x="22" y="37" width="1" height="1" fill="#FFC825" />
<rect x="23" y="37" width="1" height="2" fill="#131313" />
<rect x="24" y="37" width="1" height="1" fill="#891E2B" />
<rect x="26" y="37" width="1" height="1" fill="#891E2B" />
<rect x="27" y="37" width="1" height="1" fill="#131313" />
<rect x="29" y="37" width="1" height="1" fill="#891E2B" />
<rect x="30" y="37" width="3" height="1" fill="#131313" />
<rect x="34" y="37" width="1" height="1" fill="#131313" />
<rect x="35" y="37" width="2" height="1" fill="#FFA214" />
<rect x="37" y="37" width="1" height="3" fill="#131313" />
<rect x="43" y="37" width="1" height="3" fill="#571C27" />
<rect x="44" y="37" width="1" height="3" fill="#131313" />
<rect x="47" y="37" width="1" height="1" fill="#131313" />
<rect x="48" y="37" width="1" height="1" fill="#891E2B" />
<rect x="49" y="37" width="1" height="1" fill="#131313" />
<rect x="17" y="38" width="2" height="1" fill="#131313" />
<rect x="19" y="38" width="1" height="2" fill="#FFA214" />
<rect x="22" y="38" width="1" height="2" fill="#FFEB57" />
<rect x="24" y="38" width="1" height="2" fill="#131313" />
<rect x="25" y="38" width="1" height="1" fill="#FFC825" />
<rect x="26" y="38" width="1" height="2" fill="#131313" />
<rect x="27" y="38" width="1" height="1" fill="#FFC825" />
<rect x="28" y="38" width="2" height="1" fill="#131313" />
<rect x="30" y="38" width="2" height="1" fill="#FFC825" />
<rect x="32" y="38" width="2" height="1" fill="#131313" />
<rect x="34" y="38" width="2" height="1" fill="#FFC825" />
<rect x="36" y="38" width="1" height="2" fill="#FFA214" />
<rect x="39" y="38" width="1" height="7" fill="#571C27" />
<rect x="48" y="38" width="1" height="1" fill="#131313" />
<rect x="18" y="39" width="1" height="1" fill="#131313" />
<rect x="21" y="39" width="1" height="3" fill="#FFC825" />
<rect x="23" y="39" width="1" height="1" fill="#FFC825" />
<rect x="25" y="39" width="1" height="3" fill="#FFEB57" />
<rect x="27" y="39" width="1" height="3" fill="#FFEB57" />
<rect x="28" y="39" width="1" height="1" fill="#FFC825" />
<rect x="29" y="39" width="1" height="1" fill="#131313" />
<rect x="30" y="39" width="2" height="3" fill="#FFEB57" />
<rect x="32" y="39" width="1" height="1" fill="#131313" />
<rect x="33" y="39" width="1" height="1" fill="#FFC825" />
<rect x="34" y="39" width="1" height="2" fill="#FFEB57" />
<rect x="35" y="39" width="1" height="1" fill="#FFC825" />
<rect x="70" y="39" width="2" height="10" fill="#131313" />
<rect x="19" y="40" width="1" height="2" fill="#131313" />
<rect x="22" y="40" width="1" height="1" fill="#FFC825" />
<rect x="23" y="40" width="1" height="1" fill="#FFEB57" />
<rect x="24" y="40" width="1" height="2" fill="#FFC825" />
<rect x="26" y="40" width="1" height="1" fill="#FFC825" />
<rect x="28" y="40" width="1" height="1" fill="#FFEB57" />
<rect x="29" y="40" width="1" height="1" fill="#FFC825" />
<rect x="32" y="40" width="2" height="1" fill="#FFEB57" />
<rect x="35" y="40" width="1" height="1" fill="#FFA214" />
<rect x="36" y="40" width="1" height="1" fill="#131313" />
<rect x="37" y="40" width="1" height="3" fill="#891E2B" />
<rect x="43" y="40" width="1" height="3" fill="#131313" />
<rect x="68" y="40" width="2" height="2" fill="#131313" />
<rect x="72" y="40" width="1" height="5" fill="#131313" />
<rect x="20" y="41" width="1" height="1" fill="#FFA214" />
<rect x="22" y="41" width="1" height="2" fill="#131313" />
<rect x="23" y="41" width="1" height="2" fill="#FFC825" />
<rect x="26" y="41" width="1" height="1" fill="#FFEB57" />
<rect x="28" y="41" width="1" height="1" fill="#FFC825" />
<rect x="29" y="41" width="1" height="1" fill="#FFEB57" />
<rect x="32" y="41" width="1" height="1" fill="#FFC825" />
<rect x="33" y="41" width="1" height="1" fill="#FFEB57" />
<rect x="34" y="41" width="1" height="1" fill="#FFC825" />
<rect x="35" y="41" width="1" height="1" fill="#131313" />
<rect x="36" y="41" width="1" height="3" fill="#891E2B" />
<rect x="38" y="41" width="1" height="4" fill="#571C27" />
<rect x="66" y="41" width="2" height="2" fill="#131313" />
<rect x="20" y="42" width="1" height="3" fill="#131313" />
<rect x="21" y="42" width="1" height="1" fill="#FFA214" />
<rect x="24" y="42" width="1" height="1" fill="#131313" />
<rect x="25" y="42" width="3" height="1" fill="#FFC825" />
<rect x="28" y="42" width="1" height="1" fill="#131313" />
<rect x="29" y="42" width="3" height="1" fill="#FFC825" />
<rect x="32" y="42" width="1" height="1" fill="#131313" />
<rect x="33" y="42" width="1" height="1" fill="#FFC825" />
<rect x="34" y="42" width="1" height="1" fill="#131313" />
<rect x="35" y="42" width="1" height="2" fill="#891E2B" />
<rect x="65" y="42" width="1" height="2" fill="#131313" />
<rect x="68" y="42" width="2" height="2" fill="#272727" />
<rect x="21" y="43" width="1" height="1" fill="#131313" />
<rect x="22" y="43" width="1" height="3" fill="#571C27" />
<rect x="23" y="43" width="1" height="1" fill="#131313" />
<rect x="24" y="43" width="1" height="2" fill="#891E2B" />
<rect x="25" y="43" width="1" height="1" fill="#131313" />
<rect x="26" y="43" width="1" height="1" fill="#FFC825" />
<rect x="27" y="43" width="1" height="1" fill="#131313" />
<rect x="28" y="43" width="1" height="4" fill="#891E2B" />
<rect x="29" y="43" width="3" height="1" fill="#131313" />
<rect x="32" y="43" width="1" height="2" fill="#891E2B" />
<rect x="33" y="43" width="1" height="1" fill="#131313" />
<rect x="34" y="43" width="1" height="2" fill="#891E2B" />
<rect x="37" y="43" width="1" height="2" fill="#571C27" />
<rect x="43" y="43" width="1" height="11" fill="#571C27" />
<rect x="44" y="43" width="1" height="2" fill="#131313" />
<rect x="64" y="43" width="1" height="2" fill="#131313" />
<rect x="66" y="43" width="2" height="4" fill="#272727" />
<rect x="16" y="44" width="4" height="1" fill="#131313" />
<rect x="21" y="44" width="1" height="2" fill="#571C27" />
<rect x="23" y="44" width="1" height="4" fill="#571C27" />
<rect x="25" y="44" width="1" height="2" fill="#891E2B" />
<rect x="26" y="44" width="1" height="1" fill="#131313" />
<rect x="27" y="44" width="1" height="3" fill="#891E2B" />
<rect x="29" y="44" width="3" height="2" fill="#891E2B" />
<rect x="33" y="44" width="1" height="1" fill="#891E2B" />
<rect x="35" y="44" width="2" height="1" fill="#571C27" />
<rect x="63" y="44" width="1" height="2" fill="#131313" />
<rect x="65" y="44" width="1" height="5" fill="#272727" />
<rect x="68" y="44" width="1" height="1" fill="#272727" />
<rect x="69" y="44" width="1" height="8" fill="#131313" />
<rect x="14" y="45" width="2" height="1" fill="#131313" />
<rect x="16" y="45" width="5" height="1" fill="#891E2B" />
<rect x="24" y="45" width="1" height="5" fill="#571C27" />
<rect x="26" y="45" width="1" height="1" fill="#891E2B" />
<rect x="32" y="45" width="3" height="1" fill="#571C27" />
<rect x="35" y="45" width="1" height="7" fill="#C42430" />
<rect x="36" y="45" width="3" height="1" fill="#891E2B" />
<rect x="39" y="45" width="3" height="2" fill="#C42430" />
<rect x="44" y="45" width="1" height="4" fill="#571C27" />
<rect x="45" y="45" width="1" height="2" fill="#131313" />
<rect x="62" y="45" width="1" height="2" fill="#131313" />
<rect x="64" y="45" width="1" height="4" fill="#272727" />
<rect x="68" y="45" width="1" height="8" fill="#131313" />
<rect x="13" y="46" width="1" height="1" fill="#131313" />
<rect x="14" y="46" width="1" height="1" fill="#891E2B" />
<rect x="15" y="46" width="5" height="2" fill="#C42430" />
<rect x="20" y="46" width="3" height="1" fill="#891E2B" />
<rect x="25" y="46" width="2" height="2" fill="#571C27" />
<rect x="29" y="46" width="2" height="1" fill="#891E2B" />
<rect x="31" y="46" width="2" height="2" fill="#C42430" />
<rect x="33" y="46" width="1" height="1" fill="#891E2B" />
<rect x="34" y="46" width="1" height="6" fill="#C42430" />
<rect x="36" y="46" width="1" height="2" fill="#C42430" />
<rect x="37" y="46" width="1" height="3" fill="#891E2B" />
<rect x="38" y="46" width="1" height="5" fill="#C42430" />
<rect x="42" y="46" width="1" height="4" fill="#891E2B" />
<rect x="61" y="46" width="1" height="3" fill="#131313" />
<rect x="63" y="46" width="1" height="4" fill="#272727" />
<rect x="11" y="47" width="2" height="1" fill="#131313" />
<rect x="13" y="47" width="1" height="1" fill="#891E2B" />
<rect x="14" y="47" width="1" height="2" fill="#C42430" />
<rect x="20" y="47" width="1" height="2" fill="#C42430" />
<rect x="21" y="47" width="2" height="1" fill="#891E2B" />
<rect x="27" y="47" width="3" height="1" fill="#571C27" />
<rect x="30" y="47" width="1" height="5" fill="#C42430" />
<rect x="33" y="47" width="1" height="5" fill="#C42430" />
<rect x="39" y="47" width="2" height="2" fill="#C42430" />
<rect x="41" y="47" width="1" height="2" fill="#891E2B" />
<rect x="45" y="47" width="1" height="3" fill="#571C27" />
<rect x="46" y="47" width="1" height="2" fill="#131313" />
<rect x="60" y="47" width="1" height="5" fill="#131313" />
<rect x="62" y="47" width="1" height="4" fill="#272727" />
<rect x="66" y="47" width="1" height="1" fill="#272727" />
<rect x="67" y="47" width="1" height="6" fill="#131313" />
<rect x="10" y="48" width="1" height="1" fill="#131313" />
<rect x="11" y="48" width="1" height="4" fill="#C42430" />
<rect x="12" y="48" width="1" height="1" fill="#891E2B" />
<rect x="13" y="48" width="1" height="4" fill="#C42430" />
<rect x="15" y="48" width="1" height="2" fill="#891E2B" />
<rect x="16" y="48" width="2" height="3" fill="#C42430" />
<rect x="18" y="48" width="2" height="1" fill="#891E2B" />
<rect x="21" y="48" width="1" height="2" fill="#C42430" />
<rect x="22" y="48" width="2" height="5" fill="#891E2B" />
<rect x="25" y="48" width="1" height="8" fill="#131313" />
<rect x="26" y="48" width="3" height="1" fill="#571C27" />
<rect x="29" y="48" width="1" height="1" fill="#891E2B" />
<rect x="31" y="48" width="1" height="2" fill="#C42430" />
<rect x="32" y="48" width="1" height="1" fill="#891E2B" />
<rect x="36" y="48" width="1" height="1" fill="#891E2B" />
<rect x="66" y="48" width="1" height="6" fill="#131313" />
<rect x="9" y="49" width="1" height="3" fill="#131313" />
<rect x="10" y="49" width="1" height="2" fill="#C42430" />
<rect x="12" y="49" width="1" height="3" fill="#571C27" />
<rect x="14" y="49" width="1" height="2" fill="#891E2B" />
<rect x="18" y="49" width="1" height="3" fill="#891E2B" />
<rect x="19" y="49" width="1" height="3" fill="#571C27" />
<rect x="20" y="49" width="1" height="1" fill="#891E2B" />
<rect x="26" y="49" width="3" height="1" fill="#131313" />
<rect x="29" y="49" width="1" height="3" fill="#C42430" />
<rect x="32" y="49" width="1" height="1" fill="#571C27" />
<rect x="36" y="49" width="2" height="3" fill="#571C27" />
<rect x="39" y="49" width="1" height="2" fill="#C42430" />
<rect x="40" y="49" width="1" height="2" fill="#891E2B" />
<rect x="41" y="49" width="1" height="2" fill="#571C27" />
<rect x="44" y="49" width="1" height="3" fill="#891E2B" />
<rect x="46" y="49" width="1" height="2" fill="#571C27" />
<rect x="47" y="49" width="1" height="2" fill="#131313" />
<rect x="59" y="49" width="1" height="2" fill="#131313" />
<rect x="61" y="49" width="1" height="2" fill="#272727" />
<rect x="64" y="49" width="2" height="6" fill="#131313" />
<rect x="70" y="49" width="1" height="2" fill="#131313" />
<rect x="15" y="50" width="1" height="3" fill="#571C27" />
<rect x="20" y="50" width="1" height="3" fill="#571C27" />
<rect x="21" y="50" width="1" height="1" fill="#891E2B" />
<rect x="24" y="50" width="1" height="5" fill="#891E2B" />
<rect x="28" y="50" width="1" height="2" fill="#131313" />
<rect x="31" y="50" width="1" height="2" fill="#891E2B" />
<rect x="32" y="50" width="1" height="4" fill="#131313" />
<rect x="42" y="50" width="1" height="3" fill="#571C27" />
<rect x="45" y="50" width="1" height="4" fill="#891E2B" />
<rect x="58" y="50" width="1" height="1" fill="#131313" />
<rect x="63" y="50" width="1" height="6" fill="#131313" />
<rect x="10" y="51" width="1" height="1" fill="#891E2B" />
<rect x="14" y="51" width="1" height="2" fill="#C42430" />
<rect x="16" y="51" width="1" height="1" fill="#891E2B" />
<rect x="17" y="51" width="1" height="1" fill="#C42430" />
<rect x="21" y="51" width="1" height="3" fill="#571C27" />
<rect x="38" y="51" width="1" height="1" fill="#3D3D3D" />
<rect x="39" y="51" width="1" height="2" fill="#131313" />
<rect x="40" y="51" width="1" height="1" fill="#571C27" />
<rect x="41" y="51" width="1" height="1" fill="#891E2B" />
<rect x="46" y="51" width="1" height="4" fill="#891E2B" />
<rect x="47" y="51" width="1" height="1" fill="#571C27" />
<rect x="48" y="51" width="3" height="1" fill="#131313" />
<rect x="57" y="51" width="1" height="1" fill="#131313" />
<rect x="58" y="51" width="2" height="1" fill="#571C27" />
<rect x="61" y="51" width="2" height="3" fill="#131313" />
<rect x="10" y="52" width="1" height="1" fill="#131313" />
<rect x="11" y="52" width="1" height="1" fill="#3D3D3D" />
<rect x="12" y="52" width="1" height="3" fill="#131313" />
<rect x="13" y="52" width="1" height="1" fill="#891E2B" />
<rect x="16" y="52" width="1" height="3" fill="#131313" />
<rect x="17" y="52" width="1" height="1" fill="#3D3D3D" />
<rect x="18" y="52" width="2" height="2" fill="#131313" />
<rect x="29" y="52" width="1" height="1" fill="#131313" />
<rect x="30" y="52" width="1" height="1" fill="#3D3D3D" />
<rect x="31" y="52" width="1" height="3" fill="#131313" />
<rect x="33" y="52" width="1" height="1" fill="#131313" />
<rect x="34" y="52" width="1" height="1" fill="#3D3D3D" />
<rect x="35" y="52" width="1" height="3" fill="#131313" />
<rect x="36" y="52" width="1" height="1" fill="#891E2B" />
<rect x="37" y="52" width="2" height="1" fill="#571C27" />
<rect x="40" y="52" width="1" height="2" fill="#891E2B" />
<rect x="41" y="52" width="1" height="2" fill="#571C27" />
<rect x="44" y="52" width="1" height="3" fill="#571C27" />
<rect x="47" y="52" width="1" height="4" fill="#891E2B" />
<rect x="48" y="52" width="3" height="1" fill="#571C27" />
<rect x="51" y="52" width="6" height="1" fill="#131313" />
<rect x="57" y="52" width="1" height="1" fill="#571C27" />
<rect x="58" y="52" width="1" height="1" fill="#891E2B" />
<rect x="59" y="52" width="2" height="3" fill="#571C27" />
<rect x="11" y="53" width="1" height="1" fill="#131313" />
<rect x="13" y="53" width="1" height="1" fill="#131313" />
<rect x="14" y="53" width="1" height="1" fill="#3D3D3D" />
<rect x="15" y="53" width="1" height="3" fill="#131313" />
<rect x="17" y="53" width="1" height="1" fill="#131313" />
<rect x="20" y="53" width="1" height="1" fill="#131313" />
<rect x="22" y="53" width="1" height="2" fill="#C42430" />
<rect x="23" y="53" width="1" height="3" fill="#891E2B" />
<rect x="30" y="53" width="1" height="1" fill="#131313" />
<rect x="34" y="53" width="1" height="1" fill="#131313" />
<rect x="36" y="53" width="1" height="4" fill="#131313" />
<rect x="37" y="53" width="1" height="2" fill="#571C27" />
<rect x="38" y="53" width="2" height="1" fill="#891E2B" />
<rect x="42" y="53" width="1" height="1" fill="#131313" />
<rect x="48" y="53" width="3" height="3" fill="#891E2B" />
<rect x="51" y="53" width="6" height="1" fill="#571C27" />
<rect x="57" y="53" width="1" height="1" fill="#891E2B" />
<rect x="58" y="53" width="1" height="3" fill="#571C27" />
<rect x="14" y="54" width="1" height="1" fill="#131313" />
<rect x="18" y="54" width="1" height="1" fill="#131313" />
<rect x="21" y="54" width="1" height="1" fill="#131313" />
<rect x="38" y="54" width="1" height="2" fill="#C42430" />
<rect x="39" y="54" width="1" height="2" fill="#891E2B" />
<rect x="40" y="54" width="1" height="1" fill="#571C27" />
<rect x="41" y="54" width="1" height="1" fill="#131313" />
<rect x="43" y="54" width="1" height="1" fill="#131313" />
<rect x="45" y="54" width="1" height="2" fill="#571C27" />
<rect x="51" y="54" width="6" height="1" fill="#891E2B" />
<rect x="57" y="54" width="1" height="3" fill="#571C27" />
<rect x="61" y="54" width="1" height="1" fill="#571C27" />
<rect x="62" y="54" width="1" height="2" fill="#131313" />
<rect x="20" y="55" width="1" height="1" fill="#131313" />
<rect x="21" y="55" width="1" height="1" fill="#3D3D3D" />
<rect x="22" y="55" width="1" height="1" fill="#891E2B" />
<rect x="24" y="55" width="1" height="1" fill="#571C27" />
<rect x="37" y="55" width="1" height="1" fill="#891E2B" />
<rect x="40" y="55" width="1" height="2" fill="#131313" />
<rect x="44" y="55" width="1" height="1" fill="#131313" />
<rect x="46" y="55" width="1" height="2" fill="#571C27" />
<rect x="51" y="55" width="4" height="1" fill="#891E2B" />
<rect x="55" y="55" width="2" height="2" fill="#571C27" />
<rect x="59" y="55" width="1" height="1" fill="#571C27" />
<rect x="60" y="55" width="2" height="1" fill="#131313" />
<rect x="19" y="56" width="1" height="1" fill="#131313" />
<rect x="20" y="56" width="1" height="1" fill="#3D3D3D" />
<rect x="21" y="56" width="1" height="2" fill="#131313" />
<rect x="22" y="56" width="1" height="1" fill="#571C27" />
<rect x="23" y="56" width="2" height="1" fill="#131313" />
<rect x="37" y="56" width="1" height="1" fill="#3D3D3D" />
<rect x="38" y="56" width="1" height="1" fill="#891E2B" />
<rect x="39" y="56" width="1" height="1" fill="#571C27" />
<rect x="45" y="56" width="1" height="1" fill="#131313" />
<rect x="47" y="56" width="8" height="1" fill="#571C27" />
<rect x="58" y="56" width="2" height="1" fill="#131313" />
<rect x="20" y="57" width="1" height="1" fill="#131313" />
<rect x="22" y="57" width="1" height="1" fill="#131313" />
<rect x="35" y="57" width="1" height="1" fill="#131313" />
<rect x="36" y="57" width="1" height="1" fill="#3D3D3D" />
<rect x="37" y="57" width="1" height="2" fill="#131313" />
<rect x="38" y="57" width="1" height="1" fill="#571C27" />
<rect x="39" y="57" width="1" height="1" fill="#131313" />
<rect x="46" y="57" width="2" height="1" fill="#131313" />
<rect x="48" y="57" width="8" height="1" fill="#571C27" />
<rect x="56" y="57" width="2" height="1" fill="#131313" />
<rect x="36" y="58" width="1" height="1" fill="#131313" />
<rect x="38" y="58" width="1" height="1" fill="#131313" />
<rect x="48" y="58" width="8" height="1" fill="#131313" />
</svg>