<svg width="146" height="175" viewBox="0 0 146 175" fill="none" xmlns="http://www.w3.org/2000/svg">
<rect x="31.9191" y="78.6155" width="11.2308" height="96.3482" fill="#9A7600"/>
<rect x="11.2307" y="78.6155" width="20.6883" height="11.2308" fill="#9A7600"/>
<rect y="67.3846" width="11.2308" height="11.2308" fill="#9A7600"/>
<rect x="11.2307" y="56.1539" width="11.2308" height="11.2308" fill="#9A7600"/>
<rect x="22.4615" y="44.9231" width="11.2308" height="11.2308" fill="#9A7600"/>
<rect x="33.6923" y="33.6924" width="11.2308" height="11.2308" fill="#9A7600"/>
<rect x="44.9231" y="22.4615" width="11.2308" height="11.2308" fill="#9A7600"/>
<rect x="43.1498" y="155.458" width="13.004" height="11.2308" fill="#9A7600"/>
<rect x="56.1538" y="11.2308" width="11.2308" height="11.2308" fill="#9A7600"/>
<rect x="56.1538" y="144.227" width="11.2308" height="11.2308" fill="#9A7600"/>
<rect x="67.3846" width="11.2308" height="11.2308" fill="#9A7600"/>
<rect x="67.3846" y="132.996" width="11.2308" height="11.2308" fill="#9A7600"/>
<rect width="11.2308" height="96.3482" transform="matrix(-1 0 0 1 114.081 78.6155)" fill="#9A7600"/>
<rect width="20.6883" height="11.2308" transform="matrix(-1 0 0 1 134.769 78.6155)" fill="#9A7600"/>
<rect width="11.2308" height="11.2308" transform="matrix(-1 0 0 1 146 67.3846)" fill="#9A7600"/>
<rect width="11.2308" height="11.2308" transform="matrix(-1 0 0 1 134.769 56.1539)" fill="#9A7600"/>
<rect width="11.2308" height="11.2308" transform="matrix(-1 0 0 1 123.538 44.9231)" fill="#9A7600"/>
<rect width="11.2308" height="11.2308" transform="matrix(-1 0 0 1 112.308 33.6924)" fill="#9A7600"/>
<rect width="11.2308" height="11.2308" transform="matrix(-1 0 0 1 101.077 22.4615)" fill="#9A7600"/>
<rect width="13.004" height="11.2308" transform="matrix(-1 0 0 1 102.85 155.458)" fill="#9A7600"/>
<rect width="11.2308" height="11.2308" transform="matrix(-1 0 0 1 89.8462 11.2308)" fill="#9A7600"/>
<rect width="11.2308" height="11.2308" transform="matrix(-1 0 0 1 89.8462 144.227)" fill="#9A7600"/>
<rect width="11.2308" height="11.2308" transform="matrix(-1 0 0 1 78.6154 0)" fill="#9A7600"/>
<rect width="11.2308" height="11.2308" transform="matrix(-1 0 0 1 78.6154 132.996)" fill="#9A7600"/>
<rect x="33.6923" y="44.9231" width="11.2308" height="11.2308" fill="#FFD200"/>
<rect x="22.4615" y="56.1539" width="22.4615" height="11.2308" fill="#FFD200"/>
<rect x="11.2307" y="67.3846" width="33.6923" height="11.2308" fill="#FFD200"/>
<rect x="43.1498" y="78.6155" width="1.77328" height="76.8421" fill="#FFD200"/>
<rect width="5.91093" height="121.765" transform="matrix(-1 0 0 1 73.2955 11.2308)" fill="#FFD200"/>
<rect width="11.2308" height="121.765" transform="matrix(-1 0 0 1 67.3846 22.4615)" fill="#FFD200"/>
<rect width="11.2308" height="121.765" transform="matrix(-1 0 0 1 56.1538 33.6924)" fill="#FFD200"/>
<rect width="11.2308" height="11.2308" transform="matrix(-1 0 0 1 112.308 44.9231)" fill="#F5B000"/>
<rect width="22.4615" height="11.2308" transform="matrix(-1 0 0 1 123.538 56.1539)" fill="#F5B000"/>
<rect width="33.6923" height="11.2308" transform="matrix(-1 0 0 1 134.769 67.3846)" fill="#F5B000"/>
<rect width="1.77328" height="76.8421" transform="matrix(-1 0 0 1 102.85 78.6155)" fill="#F5B000"/>
<rect x="72.7045" y="11.2308" width="5.91093" height="121.765" fill="#F5B000"/>
<rect x="78.6154" y="22.4615" width="11.2308" height="121.765" fill="#F5B000"/>
<rect x="89.8462" y="33.6924" width="11.2308" height="121.765" fill="#F5B000"/>
</svg>
