<svg width="160" height="56" viewBox="0 0 160 56" fill="none" xmlns="http://www.w3.org/2000/svg">
<rect x="9.81607" y="4.90802" width="4.90797" height="140.368" transform="rotate(-90 9.81607 4.90802)" fill="black"/>
<rect x="9.81607" y="9.81598" width="4.90797" height="140.368" transform="rotate(-90 9.81607 9.81598)" fill="#E87777"/>
<rect x="9.81607" y="50.5521" width="4.90797" height="140.368" transform="rotate(-90 9.81607 50.5521)" fill="#650909"/>
<rect x="9.81607" y="55.4601" width="4.90797" height="140.368" transform="rotate(-90 9.81607 55.4601)" fill="black"/>
<rect x="9.81607" y="9.81598" width="140.368" height="35.8282" fill="#A91212"/>
<rect x="0.00012207" y="9.81598" width="4.90797" height="35.8282" fill="black"/>
<rect x="4.90805" y="4.90802" width="4.90797" height="4.90797" fill="black"/>
<rect x="9.81607" y="9.81598" width="4.90797" height="4.90797" fill="#E87777"/>
<rect x="145.276" y="9.81598" width="4.90797" height="4.90797" fill="#E87777"/>
<rect x="9.81607" y="40.7361" width="4.90797" height="4.90797" fill="#650909"/>
<rect x="145.276" y="40.7361" width="4.90797" height="4.90797" fill="#650909"/>
<rect x="4.90805" y="45.6441" width="4.90797" height="4.90797" fill="black"/>
<rect x="4.90805" y="27.9755" width="4.90797" height="17.6687" fill="#650909"/>
<rect x="4.90805" y="9.81598" width="4.90797" height="18.1595" fill="#E87777"/>
<rect x="9.81601" y="4.90802" width="4.90797" height="4.90797" fill="#E87777"/>
<rect x="9.81601" y="45.6441" width="4.90797" height="4.90797" fill="#650909"/>
<rect width="4.90797" height="4.90797" transform="matrix(-1 0 0 1 150.184 4.90802)" fill="#E87777"/>
<rect width="4.90797" height="4.90797" transform="matrix(-1 0 0 1 150.184 45.6441)" fill="#650909"/>
<rect x="150.184" y="27.9755" width="4.90797" height="17.6687" fill="#650909"/>
<rect x="150.184" y="9.81598" width="4.90797" height="18.1595" fill="#E87777"/>
<rect width="4.90797" height="35.8282" transform="matrix(-1 0 0 1 160 9.81598)" fill="black"/>
<rect width="4.90797" height="4.90797" transform="matrix(-1 0 0 1 155.092 4.90802)" fill="black"/>
<rect width="4.90797" height="4.90797" transform="matrix(-1 0 0 1 155.092 45.6441)" fill="black"/>
</svg>
