<?xml version="1.0" encoding="UTF-8" ?>
<svg version="1.1" width="60" height="54" xmlns="http://www.w3.org/2000/svg" shape-rendering="crispEdges">
<rect x="31" y="0" width="8" height="1" fill="#131313" />
<rect x="12" y="1" width="5" height="1" fill="#131313" />
<rect x="30" y="1" width="1" height="1" fill="#131313" />
<rect x="31" y="1" width="8" height="2" fill="#571C27" />
<rect x="39" y="1" width="1" height="1" fill="#131313" />
<rect x="11" y="2" width="1" height="1" fill="#131313" />
<rect x="12" y="2" width="5" height="2" fill="#571C27" />
<rect x="17" y="2" width="2" height="1" fill="#131313" />
<rect x="29" y="2" width="1" height="2" fill="#131313" />
<rect x="30" y="2" width="1" height="6" fill="#571C27" />
<rect x="39" y="2" width="1" height="3" fill="#571C27" />
<rect x="40" y="2" width="1" height="1" fill="#131313" />
<rect x="10" y="3" width="1" height="1" fill="#131313" />
<rect x="11" y="3" width="1" height="3" fill="#571C27" />
<rect x="17" y="3" width="2" height="2" fill="#571C27" />
<rect x="19" y="3" width="1" height="2" fill="#131313" />
<rect x="31" y="3" width="6" height="1" fill="#571C27" />
<rect x="37" y="3" width="1" height="1" fill="#131313" />
<rect x="38" y="3" width="1" height="1" fill="#571C27" />
<rect x="40" y="3" width="1" height="2" fill="#571C27" />
<rect x="41" y="3" width="1" height="1" fill="#131313" />
<rect x="9" y="4" width="1" height="5" fill="#131313" />
<rect x="10" y="4" width="1" height="5" fill="#571C27" />
<rect x="12" y="4" width="3" height="1" fill="#891E2B" />
<rect x="15" y="4" width="2" height="1" fill="#131313" />
<rect x="28" y="4" width="1" height="3" fill="#131313" />
<rect x="29" y="4" width="1" height="3" fill="#571C27" />
<rect x="31" y="4" width="5" height="1" fill="#571C27" />
<rect x="36" y="4" width="1" height="1" fill="#131313" />
<rect x="38" y="4" width="1" height="1" fill="#131313" />
<rect x="41" y="4" width="1" height="2" fill="#571C27" />
<rect x="42" y="4" width="1" height="3" fill="#131313" />
<rect x="12" y="5" width="2" height="1" fill="#891E2B" />
<rect x="14" y="5" width="1" height="1" fill="#131313" />
<rect x="17" y="5" width="2" height="1" fill="#131313" />
<rect x="31" y="5" width="2" height="1" fill="#571C27" />
<rect x="33" y="5" width="2" height="1" fill="#891E2B" />
<rect x="35" y="5" width="1" height="1" fill="#131313" />
<rect x="39" y="5" width="2" height="2" fill="#131313" />
<rect x="11" y="6" width="2" height="1" fill="#891E2B" />
<rect x="13" y="6" width="1" height="1" fill="#131313" />
<rect x="31" y="6" width="1" height="2" fill="#571C27" />
<rect x="32" y="6" width="2" height="1" fill="#891E2B" />
<rect x="34" y="6" width="1" height="1" fill="#131313" />
<rect x="37" y="6" width="2" height="1" fill="#131313" />
<rect x="41" y="6" width="1" height="1" fill="#131313" />
<rect x="11" y="7" width="1" height="1" fill="#891E2B" />
<rect x="12" y="7" width="1" height="3" fill="#131313" />
<rect x="29" y="7" width="1" height="2" fill="#131313" />
<rect x="32" y="7" width="1" height="1" fill="#571C27" />
<rect x="33" y="7" width="1" height="2" fill="#131313" />
<rect x="36" y="7" width="1" height="1" fill="#131313" />
<rect x="37" y="7" width="6" height="3" fill="#571C27" />
<rect x="43" y="7" width="1" height="1" fill="#131313" />
<rect x="11" y="8" width="1" height="2" fill="#571C27" />
<rect x="28" y="8" width="1" height="1" fill="#131313" />
<rect x="30" y="8" width="3" height="1" fill="#131313" />
<rect x="35" y="8" width="1" height="3" fill="#131313" />
<rect x="36" y="8" width="1" height="3" fill="#571C27" />
<rect x="43" y="8" width="1" height="11" fill="#571C27" />
<rect x="44" y="8" width="1" height="3" fill="#131313" />
<rect x="10" y="9" width="1" height="1" fill="#131313" />
<rect x="26" y="9" width="2" height="1" fill="#131313" />
<rect x="28" y="9" width="6" height="3" fill="#571C27" />
<rect x="34" y="9" width="1" height="1" fill="#131313" />
<rect x="11" y="10" width="1" height="1" fill="#131313" />
<rect x="25" y="10" width="1" height="2" fill="#131313" />
<rect x="26" y="10" width="2" height="3" fill="#571C27" />
<rect x="34" y="10" width="1" height="5" fill="#571C27" />
<rect x="37" y="10" width="4" height="1" fill="#891E2B" />
<rect x="41" y="10" width="2" height="1" fill="#571C27" />
<rect x="35" y="11" width="1" height="6" fill="#571C27" />
<rect x="36" y="11" width="3" height="1" fill="#131313" />
<rect x="39" y="11" width="1" height="1" fill="#571C27" />
<rect x="40" y="11" width="2" height="2" fill="#891E2B" />
<rect x="42" y="11" width="1" height="7" fill="#571C27" />
<rect x="44" y="11" width="1" height="6" fill="#571C27" />
<rect x="45" y="11" width="1" height="6" fill="#131313" />
<rect x="24" y="12" width="1" height="1" fill="#131313" />
<rect x="25" y="12" width="1" height="1" fill="#571C27" />
<rect x="28" y="12" width="4" height="1" fill="#891E2B" />
<rect x="32" y="12" width="2" height="1" fill="#571C27" />
<rect x="36" y="12" width="1" height="5" fill="#131313" />
<rect x="39" y="12" width="1" height="2" fill="#131313" />
<rect x="8" y="13" width="3" height="1" fill="#131313" />
<rect x="25" y="13" width="5" height="1" fill="#131313" />
<rect x="30" y="13" width="1" height="1" fill="#571C27" />
<rect x="31" y="13" width="2" height="1" fill="#891E2B" />
<rect x="33" y="13" width="1" height="1" fill="#571C27" />
<rect x="40" y="13" width="1" height="1" fill="#571C27" />
<rect x="41" y="13" width="1" height="1" fill="#891E2B" />
<rect x="49" y="13" width="3" height="1" fill="#131313" />
<rect x="7" y="14" width="1" height="1" fill="#131313" />
<rect x="8" y="14" width="3" height="4" fill="#571C27" />
<rect x="11" y="14" width="2" height="1" fill="#131313" />
<rect x="30" y="14" width="2" height="1" fill="#131313" />
<rect x="32" y="14" width="2" height="1" fill="#891E2B" />
<rect x="40" y="14" width="1" height="1" fill="#131313" />
<rect x="41" y="14" width="1" height="3" fill="#571C27" />
<rect x="48" y="14" width="1" height="1" fill="#131313" />
<rect x="49" y="14" width="3" height="2" fill="#571C27" />
<rect x="52" y="14" width="1" height="1" fill="#131313" />
<rect x="6" y="15" width="1" height="1" fill="#131313" />
<rect x="7" y="15" width="1" height="8" fill="#571C27" />
<rect x="11" y="15" width="2" height="3" fill="#571C27" />
<rect x="13" y="15" width="1" height="2" fill="#131313" />
<rect x="25" y="15" width="5" height="1" fill="#131313" />
<rect x="32" y="15" width="1" height="2" fill="#131313" />
<rect x="33" y="15" width="1" height="2" fill="#571C27" />
<rect x="34" y="15" width="1" height="1" fill="#891E2B" />
<rect x="39" y="15" width="1" height="2" fill="#131313" />
<rect x="40" y="15" width="1" height="2" fill="#571C27" />
<rect x="47" y="15" width="1" height="1" fill="#131313" />
<rect x="48" y="15" width="1" height="2" fill="#571C27" />
<rect x="52" y="15" width="1" height="2" fill="#571C27" />
<rect x="53" y="15" width="2" height="1" fill="#131313" />
<rect x="5" y="16" width="1" height="1" fill="#131313" />
<rect x="6" y="16" width="1" height="5" fill="#571C27" />
<rect x="24" y="16" width="1" height="1" fill="#131313" />
<rect x="25" y="16" width="5" height="1" fill="#571C27" />
<rect x="30" y="16" width="1" height="1" fill="#131313" />
<rect x="34" y="16" width="1" height="1" fill="#571C27" />
<rect x="46" y="16" width="1" height="2" fill="#131313" />
<rect x="47" y="16" width="1" height="2" fill="#571C27" />
<rect x="49" y="16" width="1" height="1" fill="#571C27" />
<rect x="50" y="16" width="2" height="1" fill="#891E2B" />
<rect x="53" y="16" width="2" height="1" fill="#571C27" />
<rect x="55" y="16" width="1" height="1" fill="#131313" />
<rect x="4" y="17" width="1" height="3" fill="#131313" />
<rect x="5" y="17" width="1" height="2" fill="#571C27" />
<rect x="13" y="17" width="1" height="3" fill="#571C27" />
<rect x="14" y="17" width="1" height="3" fill="#131313" />
<rect x="23" y="17" width="1" height="1" fill="#131313" />
<rect x="24" y="17" width="2" height="1" fill="#571C27" />
<rect x="26" y="17" width="3" height="2" fill="#891E2B" />
<rect x="29" y="17" width="2" height="1" fill="#571C27" />
<rect x="31" y="17" width="1" height="6" fill="#131313" />
<rect x="33" y="17" width="3" height="1" fill="#131313" />
<rect x="40" y="17" width="2" height="1" fill="#131313" />
<rect x="44" y="17" width="1" height="2" fill="#131313" />
<rect x="48" y="17" width="4" height="1" fill="#131313" />
<rect x="52" y="17" width="2" height="1" fill="#891E2B" />
<rect x="54" y="17" width="2" height="1" fill="#571C27" />
<rect x="56" y="17" width="1" height="1" fill="#131313" />
<rect x="8" y="18" width="2" height="1" fill="#571C27" />
<rect x="10" y="18" width="1" height="1" fill="#891E2B" />
<rect x="11" y="18" width="1" height="1" fill="#571C27" />
<rect x="12" y="18" width="1" height="2" fill="#131313" />
<rect x="24" y="18" width="1" height="1" fill="#131313" />
<rect x="25" y="18" width="1" height="1" fill="#571C27" />
<rect x="29" y="18" width="1" height="1" fill="#891E2B" />
<rect x="30" y="18" width="1" height="4" fill="#571C27" />
<rect x="37" y="18" width="4" height="1" fill="#131313" />
<rect x="42" y="18" width="1" height="1" fill="#131313" />
<rect x="47" y="18" width="1" height="1" fill="#131313" />
<rect x="52" y="18" width="2" height="1" fill="#131313" />
<rect x="54" y="18" width="1" height="2" fill="#891E2B" />
<rect x="55" y="18" width="2" height="3" fill="#571C27" />
<rect x="57" y="18" width="1" height="3" fill="#131313" />
<rect x="5" y="19" width="1" height="1" fill="#131313" />
<rect x="8" y="19" width="1" height="1" fill="#571C27" />
<rect x="9" y="19" width="1" height="1" fill="#891E2B" />
<rect x="10" y="19" width="2" height="1" fill="#131313" />
<rect x="20" y="19" width="4" height="1" fill="#131313" />
<rect x="25" y="19" width="1" height="1" fill="#131313" />
<rect x="26" y="19" width="4" height="1" fill="#571C27" />
<rect x="36" y="19" width="1" height="1" fill="#131313" />
<rect x="37" y="19" width="4" height="1" fill="#571C27" />
<rect x="41" y="19" width="1" height="1" fill="#131313" />
<rect x="43" y="19" width="1" height="1" fill="#131313" />
<rect x="53" y="19" width="1" height="1" fill="#131313" />
<rect x="3" y="20" width="1" height="1" fill="#131313" />
<rect x="4" y="20" width="1" height="1" fill="#571C27" />
<rect x="5" y="20" width="1" height="2" fill="#891E2B" />
<rect x="8" y="20" width="1" height="2" fill="#891E2B" />
<rect x="9" y="20" width="1" height="1" fill="#571C27" />
<rect x="10" y="20" width="1" height="2" fill="#131313" />
<rect x="13" y="20" width="1" height="1" fill="#131313" />
<rect x="19" y="20" width="1" height="1" fill="#131313" />
<rect x="20" y="20" width="4" height="1" fill="#571C27" />
<rect x="24" y="20" width="1" height="1" fill="#131313" />
<rect x="26" y="20" width="1" height="1" fill="#131313" />
<rect x="27" y="20" width="3" height="1" fill="#571C27" />
<rect x="35" y="20" width="1" height="1" fill="#131313" />
<rect x="36" y="20" width="2" height="2" fill="#571C27" />
<rect x="38" y="20" width="3" height="2" fill="#891E2B" />
<rect x="41" y="20" width="1" height="1" fill="#571C27" />
<rect x="42" y="20" width="1" height="1" fill="#131313" />
<rect x="54" y="20" width="1" height="2" fill="#131313" />
<rect x="2" y="21" width="1" height="4" fill="#131313" />
<rect x="3" y="21" width="1" height="9" fill="#571C27" />
<rect x="4" y="21" width="1" height="2" fill="#891E2B" />
<rect x="6" y="21" width="1" height="1" fill="#131313" />
<rect x="9" y="21" width="1" height="1" fill="#131313" />
<rect x="18" y="21" width="1" height="1" fill="#131313" />
<rect x="19" y="21" width="2" height="1" fill="#571C27" />
<rect x="21" y="21" width="3" height="1" fill="#891E2B" />
<rect x="24" y="21" width="1" height="3" fill="#571C27" />
<rect x="25" y="21" width="1" height="1" fill="#131313" />
<rect x="27" y="21" width="1" height="2" fill="#131313" />
<rect x="28" y="21" width="2" height="1" fill="#571C27" />
<rect x="34" y="21" width="1" height="1" fill="#131313" />
<rect x="35" y="21" width="1" height="1" fill="#571C27" />
<rect x="41" y="21" width="1" height="2" fill="#891E2B" />
<rect x="42" y="21" width="1" height="4" fill="#571C27" />
<rect x="43" y="21" width="1" height="4" fill="#131313" />
<rect x="49" y="21" width="2" height="1" fill="#131313" />
<rect x="55" y="21" width="1" height="1" fill="#571C27" />
<rect x="56" y="21" width="1" height="1" fill="#131313" />
<rect x="5" y="22" width="1" height="1" fill="#131313" />
<rect x="6" y="22" width="1" height="1" fill="#571C27" />
<rect x="8" y="22" width="3" height="1" fill="#571C27" />
<rect x="11" y="22" width="1" height="1" fill="#131313" />
<rect x="17" y="22" width="1" height="4" fill="#131313" />
<rect x="18" y="22" width="2" height="1" fill="#571C27" />
<rect x="20" y="22" width="3" height="1" fill="#891E2B" />
<rect x="23" y="22" width="1" height="2" fill="#571C27" />
<rect x="25" y="22" width="1" height="1" fill="#571C27" />
<rect x="26" y="22" width="1" height="2" fill="#131313" />
<rect x="28" y="22" width="3" height="1" fill="#131313" />
<rect x="35" y="22" width="2" height="1" fill="#131313" />
<rect x="37" y="22" width="3" height="1" fill="#571C27" />
<rect x="40" y="22" width="1" height="1" fill="#891E2B" />
<rect x="48" y="22" width="1" height="1" fill="#131313" />
<rect x="49" y="22" width="2" height="1" fill="#571C27" />
<rect x="51" y="22" width="3" height="1" fill="#131313" />
<rect x="54" y="22" width="1" height="1" fill="#571C27" />
<rect x="55" y="22" width="1" height="2" fill="#131313" />
<rect x="4" y="23" width="2" height="1" fill="#571C27" />
<rect x="6" y="23" width="2" height="1" fill="#891E2B" />
<rect x="8" y="23" width="2" height="1" fill="#571C27" />
<rect x="10" y="23" width="1" height="1" fill="#131313" />
<rect x="18" y="23" width="1" height="3" fill="#571C27" />
<rect x="19" y="23" width="2" height="1" fill="#891E2B" />
<rect x="21" y="23" width="2" height="1" fill="#571C27" />
<rect x="25" y="23" width="1" height="1" fill="#131313" />
<rect x="27" y="23" width="5" height="3" fill="#571C27" />
<rect x="32" y="23" width="2" height="1" fill="#131313" />
<rect x="37" y="23" width="1" height="1" fill="#131313" />
<rect x="38" y="23" width="4" height="1" fill="#571C27" />
<rect x="49" y="23" width="1" height="1" fill="#131313" />
<rect x="50" y="23" width="4" height="1" fill="#571C27" />
<rect x="54" y="23" width="1" height="1" fill="#131313" />
<rect x="56" y="23" width="1" height="1" fill="#131313" />
<rect x="4" y="24" width="1" height="1" fill="#571C27" />
<rect x="5" y="24" width="1" height="1" fill="#891E2B" />
<rect x="6" y="24" width="4" height="1" fill="#131313" />
<rect x="19" y="24" width="1" height="3" fill="#571C27" />
<rect x="20" y="24" width="5" height="1" fill="#131313" />
<rect x="25" y="24" width="2" height="5" fill="#571C27" />
<rect x="32" y="24" width="2" height="6" fill="#571C27" />
<rect x="34" y="24" width="1" height="1" fill="#131313" />
<rect x="38" y="24" width="1" height="1" fill="#131313" />
<rect x="39" y="24" width="3" height="1" fill="#571C27" />
<rect x="50" y="24" width="1" height="1" fill="#131313" />
<rect x="51" y="24" width="2" height="1" fill="#571C27" />
<rect x="53" y="24" width="1" height="1" fill="#131313" />
<rect x="54" y="24" width="3" height="1" fill="#571C27" />
<rect x="57" y="24" width="1" height="1" fill="#131313" />
<rect x="1" y="25" width="1" height="1" fill="#131313" />
<rect x="2" y="25" width="1" height="4" fill="#571C27" />
<rect x="4" y="25" width="1" height="1" fill="#891E2B" />
<rect x="5" y="25" width="2" height="1" fill="#571C27" />
<rect x="7" y="25" width="1" height="1" fill="#131313" />
<rect x="20" y="25" width="1" height="2" fill="#571C27" />
<rect x="21" y="25" width="1" height="2" fill="#131313" />
<rect x="23" y="25" width="1" height="2" fill="#131313" />
<rect x="24" y="25" width="1" height="2" fill="#571C27" />
<rect x="34" y="25" width="1" height="5" fill="#571C27" />
<rect x="35" y="25" width="1" height="2" fill="#131313" />
<rect x="39" y="25" width="4" height="1" fill="#131313" />
<rect x="51" y="25" width="2" height="1" fill="#131313" />
<rect x="54" y="25" width="2" height="1" fill="#131313" />
<rect x="56" y="25" width="2" height="4" fill="#571C27" />
<rect x="58" y="25" width="1" height="2" fill="#131313" />
<rect x="0" y="26" width="1" height="1" fill="#131313" />
<rect x="1" y="26" width="1" height="1" fill="#571C27" />
<rect x="4" y="26" width="3" height="1" fill="#131313" />
<rect x="18" y="26" width="1" height="1" fill="#131313" />
<rect x="27" y="26" width="2" height="1" fill="#571C27" />
<rect x="29" y="26" width="3" height="2" fill="#891E2B" />
<rect x="39" y="26" width="2" height="1" fill="#131313" />
<rect x="55" y="26" width="1" height="2" fill="#131313" />
<rect x="1" y="27" width="1" height="2" fill="#131313" />
<rect x="4" y="27" width="1" height="2" fill="#131313" />
<rect x="19" y="27" width="2" height="2" fill="#131313" />
<rect x="24" y="27" width="1" height="2" fill="#131313" />
<rect x="27" y="27" width="1" height="3" fill="#571C27" />
<rect x="28" y="27" width="1" height="2" fill="#891E2B" />
<rect x="35" y="27" width="1" height="2" fill="#571C27" />
<rect x="36" y="27" width="1" height="3" fill="#131313" />
<rect x="38" y="27" width="1" height="3" fill="#131313" />
<rect x="39" y="27" width="2" height="2" fill="#571C27" />
<rect x="41" y="27" width="1" height="1" fill="#131313" />
<rect x="53" y="27" width="2" height="1" fill="#131313" />
<rect x="58" y="27" width="1" height="1" fill="#571C27" />
<rect x="59" y="27" width="1" height="1" fill="#131313" />
<rect x="5" y="28" width="1" height="1" fill="#131313" />
<rect x="7" y="28" width="2" height="1" fill="#131313" />
<rect x="17" y="28" width="2" height="1" fill="#131313" />
<rect x="29" y="28" width="2" height="1" fill="#891E2B" />
<rect x="31" y="28" width="1" height="3" fill="#571C27" />
<rect x="41" y="28" width="1" height="4" fill="#571C27" />
<rect x="42" y="28" width="1" height="4" fill="#131313" />
<rect x="52" y="28" width="1" height="2" fill="#131313" />
<rect x="53" y="28" width="2" height="1" fill="#571C27" />
<rect x="55" y="28" width="1" height="1" fill="#891E2B" />
<rect x="58" y="28" width="1" height="1" fill="#131313" />
<rect x="2" y="29" width="1" height="1" fill="#131313" />
<rect x="4" y="29" width="2" height="1" fill="#571C27" />
<rect x="6" y="29" width="1" height="1" fill="#131313" />
<rect x="7" y="29" width="2" height="2" fill="#571C27" />
<rect x="9" y="29" width="1" height="1" fill="#131313" />
<rect x="16" y="29" width="1" height="4" fill="#131313" />
<rect x="17" y="29" width="4" height="2" fill="#571C27" />
<rect x="21" y="29" width="1" height="1" fill="#131313" />
<rect x="25" y="29" width="1" height="1" fill="#131313" />
<rect x="26" y="29" width="1" height="1" fill="#571C27" />
<rect x="28" y="29" width="3" height="2" fill="#571C27" />
<rect x="35" y="29" width="1" height="1" fill="#131313" />
<rect x="37" y="29" width="1" height="1" fill="#131313" />
<rect x="39" y="29" width="1" height="1" fill="#131313" />
<rect x="40" y="29" width="1" height="1" fill="#571C27" />
<rect x="50" y="29" width="2" height="1" fill="#131313" />
<rect x="53" y="29" width="1" height="1" fill="#131313" />
<rect x="54" y="29" width="3" height="2" fill="#571C27" />
<rect x="57" y="29" width="1" height="4" fill="#131313" />
<rect x="3" y="30" width="3" height="1" fill="#131313" />
<rect x="6" y="30" width="1" height="1" fill="#571C27" />
<rect x="9" y="30" width="1" height="2" fill="#571C27" />
<rect x="10" y="30" width="1" height="1" fill="#131313" />
<rect x="21" y="30" width="1" height="2" fill="#571C27" />
<rect x="22" y="30" width="1" height="1" fill="#131313" />
<rect x="26" y="30" width="2" height="1" fill="#131313" />
<rect x="32" y="30" width="1" height="1" fill="#571C27" />
<rect x="33" y="30" width="2" height="1" fill="#131313" />
<rect x="35" y="30" width="4" height="1" fill="#571C27" />
<rect x="39" y="30" width="2" height="1" fill="#891E2B" />
<rect x="49" y="30" width="1" height="1" fill="#131313" />
<rect x="50" y="30" width="2" height="2" fill="#571C27" />
<rect x="52" y="30" width="2" height="1" fill="#891E2B" />
<rect x="4" y="31" width="1" height="1" fill="#131313" />
<rect x="5" y="31" width="1" height="1" fill="#571C27" />
<rect x="6" y="31" width="3" height="1" fill="#131313" />
<rect x="10" y="31" width="1" height="1" fill="#571C27" />
<rect x="11" y="31" width="1" height="1" fill="#131313" />
<rect x="17" y="31" width="1" height="2" fill="#571C27" />
<rect x="18" y="31" width="2" height="2" fill="#891E2B" />
<rect x="20" y="31" width="1" height="1" fill="#571C27" />
<rect x="22" y="31" width="1" height="4" fill="#571C27" />
<rect x="23" y="31" width="2" height="1" fill="#131313" />
<rect x="28" y="31" width="6" height="1" fill="#131313" />
<rect x="34" y="31" width="3" height="1" fill="#571C27" />
<rect x="37" y="31" width="3" height="1" fill="#891E2B" />
<rect x="40" y="31" width="1" height="2" fill="#571C27" />
<rect x="48" y="31" width="1" height="1" fill="#131313" />
<rect x="49" y="31" width="1" height="1" fill="#571C27" />
<rect x="52" y="31" width="2" height="1" fill="#571C27" />
<rect x="54" y="31" width="1" height="1" fill="#131313" />
<rect x="55" y="31" width="1" height="2" fill="#891E2B" />
<rect x="56" y="31" width="1" height="2" fill="#571C27" />
<rect x="3" y="32" width="1" height="1" fill="#131313" />
<rect x="4" y="32" width="1" height="5" fill="#571C27" />
<rect x="5" y="32" width="1" height="2" fill="#131313" />
<rect x="9" y="32" width="2" height="1" fill="#131313" />
<rect x="20" y="32" width="2" height="2" fill="#891E2B" />
<rect x="23" y="32" width="2" height="1" fill="#571C27" />
<rect x="25" y="32" width="1" height="1" fill="#131313" />
<rect x="28" y="32" width="1" height="5" fill="#131313" />
<rect x="29" y="32" width="3" height="3" fill="#571C27" />
<rect x="32" y="32" width="1" height="1" fill="#131313" />
<rect x="34" y="32" width="1" height="1" fill="#131313" />
<rect x="35" y="32" width="1" height="1" fill="#571C27" />
<rect x="36" y="32" width="3" height="1" fill="#891E2B" />
<rect x="39" y="32" width="1" height="2" fill="#571C27" />
<rect x="41" y="32" width="1" height="1" fill="#131313" />
<rect x="49" y="32" width="2" height="1" fill="#131313" />
<rect x="51" y="32" width="1" height="2" fill="#891E2B" />
<rect x="52" y="32" width="1" height="2" fill="#571C27" />
<rect x="53" y="32" width="1" height="1" fill="#131313" />
<rect x="54" y="32" width="1" height="2" fill="#891E2B" />
<rect x="2" y="33" width="1" height="3" fill="#131313" />
<rect x="3" y="33" width="1" height="3" fill="#571C27" />
<rect x="17" y="33" width="1" height="1" fill="#131313" />
<rect x="18" y="33" width="1" height="1" fill="#571C27" />
<rect x="19" y="33" width="1" height="1" fill="#891E2B" />
<rect x="23" y="33" width="1" height="1" fill="#571C27" />
<rect x="24" y="33" width="1" height="1" fill="#131313" />
<rect x="32" y="33" width="1" height="2" fill="#571C27" />
<rect x="33" y="33" width="1" height="1" fill="#131313" />
<rect x="35" y="33" width="1" height="1" fill="#131313" />
<rect x="36" y="33" width="3" height="1" fill="#571C27" />
<rect x="40" y="33" width="1" height="1" fill="#131313" />
<rect x="46" y="33" width="1" height="1" fill="#131313" />
<rect x="49" y="33" width="1" height="2" fill="#131313" />
<rect x="50" y="33" width="1" height="1" fill="#571C27" />
<rect x="53" y="33" width="1" height="5" fill="#571C27" />
<rect x="55" y="33" width="1" height="1" fill="#571C27" />
<rect x="56" y="33" width="1" height="1" fill="#131313" />
<rect x="5" y="34" width="1" height="2" fill="#891E2B" />
<rect x="6" y="34" width="1" height="2" fill="#131313" />
<rect x="16" y="34" width="1" height="1" fill="#131313" />
<rect x="18" y="34" width="1" height="1" fill="#131313" />
<rect x="19" y="34" width="3" height="1" fill="#571C27" />
<rect x="23" y="34" width="1" height="1" fill="#131313" />
<rect x="33" y="34" width="1" height="1" fill="#571C27" />
<rect x="34" y="34" width="1" height="1" fill="#131313" />
<rect x="36" y="34" width="4" height="1" fill="#131313" />
<rect x="45" y="34" width="1" height="3" fill="#131313" />
<rect x="46" y="34" width="1" height="3" fill="#571C27" />
<rect x="47" y="34" width="2" height="1" fill="#131313" />
<rect x="50" y="34" width="1" height="1" fill="#891E2B" />
<rect x="51" y="34" width="1" height="2" fill="#571C27" />
<rect x="52" y="34" width="1" height="2" fill="#891E2B" />
<rect x="54" y="34" width="2" height="1" fill="#131313" />
<rect x="7" y="35" width="1" height="1" fill="#131313" />
<rect x="12" y="35" width="1" height="1" fill="#131313" />
<rect x="15" y="35" width="1" height="2" fill="#131313" />
<rect x="16" y="35" width="1" height="11" fill="#571C27" />
<rect x="17" y="35" width="1" height="1" fill="#131313" />
<rect x="19" y="35" width="4" height="1" fill="#131313" />
<rect x="29" y="35" width="1" height="2" fill="#571C27" />
<rect x="30" y="35" width="4" height="1" fill="#891E2B" />
<rect x="34" y="35" width="1" height="3" fill="#571C27" />
<rect x="35" y="35" width="1" height="1" fill="#131313" />
<rect x="47" y="35" width="1" height="1" fill="#131313" />
<rect x="48" y="35" width="1" height="4" fill="#571C27" />
<rect x="49" y="35" width="1" height="1" fill="#891E2B" />
<rect x="50" y="35" width="1" height="5" fill="#571C27" />
<rect x="54" y="35" width="1" height="2" fill="#571C27" />
<rect x="55" y="35" width="1" height="2" fill="#131313" />
<rect x="3" y="36" width="1" height="1" fill="#131313" />
<rect x="5" y="36" width="1" height="2" fill="#571C27" />
<rect x="6" y="36" width="2" height="1" fill="#891E2B" />
<rect x="8" y="36" width="4" height="1" fill="#131313" />
<rect x="12" y="36" width="1" height="2" fill="#571C27" />
<rect x="13" y="36" width="1" height="2" fill="#131313" />
<rect x="17" y="36" width="1" height="11" fill="#571C27" />
<rect x="18" y="36" width="2" height="1" fill="#131313" />
<rect x="24" y="36" width="3" height="1" fill="#131313" />
<rect x="30" y="36" width="1" height="2" fill="#571C27" />
<rect x="31" y="36" width="3" height="1" fill="#891E2B" />
<rect x="35" y="36" width="1" height="1" fill="#571C27" />
<rect x="36" y="36" width="1" height="1" fill="#131313" />
<rect x="47" y="36" width="1" height="3" fill="#571C27" />
<rect x="49" y="36" width="1" height="4" fill="#571C27" />
<rect x="51" y="36" width="1" height="1" fill="#891E2B" />
<rect x="52" y="36" width="1" height="3" fill="#571C27" />
<rect x="4" y="37" width="1" height="1" fill="#131313" />
<rect x="6" y="37" width="2" height="1" fill="#571C27" />
<rect x="8" y="37" width="2" height="1" fill="#891E2B" />
<rect x="10" y="37" width="2" height="2" fill="#571C27" />
<rect x="14" y="37" width="1" height="6" fill="#131313" />
<rect x="15" y="37" width="1" height="6" fill="#571C27" />
<rect x="18" y="37" width="2" height="2" fill="#571C27" />
<rect x="20" y="37" width="1" height="2" fill="#131313" />
<rect x="23" y="37" width="1" height="6" fill="#131313" />
<rect x="24" y="37" width="3" height="1" fill="#571C27" />
<rect x="27" y="37" width="1" height="2" fill="#131313" />
<rect x="29" y="37" width="1" height="1" fill="#131313" />
<rect x="31" y="37" width="3" height="1" fill="#571C27" />
<rect x="35" y="37" width="1" height="1" fill="#131313" />
<rect x="46" y="37" width="1" height="2" fill="#131313" />
<rect x="51" y="37" width="1" height="3" fill="#571C27" />
<rect x="54" y="37" width="1" height="1" fill="#131313" />
<rect x="5" y="38" width="2" height="1" fill="#131313" />
<rect x="7" y="38" width="3" height="1" fill="#571C27" />
<rect x="12" y="38" width="1" height="1" fill="#131313" />
<rect x="24" y="38" width="1" height="5" fill="#571C27" />
<rect x="25" y="38" width="1" height="1" fill="#891E2B" />
<rect x="26" y="38" width="1" height="1" fill="#571C27" />
<rect x="30" y="38" width="5" height="1" fill="#131313" />
<rect x="53" y="38" width="1" height="1" fill="#131313" />
<rect x="7" y="39" width="1" height="1" fill="#131313" />
<rect x="8" y="39" width="3" height="1" fill="#571C27" />
<rect x="11" y="39" width="1" height="1" fill="#131313" />
<rect x="18" y="39" width="1" height="1" fill="#571C27" />
<rect x="19" y="39" width="1" height="1" fill="#131313" />
<rect x="25" y="39" width="1" height="5" fill="#571C27" />
<rect x="26" y="39" width="2" height="1" fill="#891E2B" />
<rect x="28" y="39" width="2" height="1" fill="#131313" />
<rect x="47" y="39" width="2" height="1" fill="#131313" />
<rect x="52" y="39" width="1" height="1" fill="#131313" />
<rect x="8" y="40" width="3" height="1" fill="#131313" />
<rect x="18" y="40" width="1" height="3" fill="#891E2B" />
<rect x="19" y="40" width="1" height="1" fill="#571C27" />
<rect x="20" y="40" width="1" height="2" fill="#131313" />
<rect x="26" y="40" width="1" height="5" fill="#571C27" />
<rect x="27" y="40" width="2" height="1" fill="#891E2B" />
<rect x="29" y="40" width="1" height="1" fill="#571C27" />
<rect x="30" y="40" width="5" height="1" fill="#131313" />
<rect x="49" y="40" width="3" height="1" fill="#131313" />
<rect x="19" y="41" width="1" height="3" fill="#891E2B" />
<rect x="27" y="41" width="1" height="4" fill="#571C27" />
<rect x="28" y="41" width="4" height="1" fill="#891E2B" />
<rect x="32" y="41" width="3" height="1" fill="#571C27" />
<rect x="35" y="41" width="1" height="1" fill="#131313" />
<rect x="20" y="42" width="1" height="1" fill="#571C27" />
<rect x="21" y="42" width="2" height="1" fill="#131313" />
<rect x="28" y="42" width="6" height="2" fill="#571C27" />
<rect x="34" y="42" width="1" height="2" fill="#131313" />
<rect x="15" y="43" width="1" height="3" fill="#131313" />
<rect x="18" y="43" width="1" height="4" fill="#571C27" />
<rect x="20" y="43" width="3" height="1" fill="#891E2B" />
<rect x="23" y="43" width="1" height="3" fill="#571C27" />
<rect x="24" y="43" width="1" height="3" fill="#131313" />
<rect x="48" y="43" width="1" height="1" fill="#131313" />
<rect x="19" y="44" width="4" height="3" fill="#571C27" />
<rect x="25" y="44" width="1" height="1" fill="#131313" />
<rect x="28" y="44" width="4" height="1" fill="#571C27" />
<rect x="32" y="44" width="2" height="1" fill="#131313" />
<rect x="47" y="44" width="1" height="3" fill="#131313" />
<rect x="48" y="44" width="1" height="2" fill="#571C27" />
<rect x="49" y="44" width="1" height="1" fill="#131313" />
<rect x="26" y="45" width="6" height="1" fill="#131313" />
<rect x="49" y="45" width="1" height="5" fill="#571C27" />
<rect x="50" y="45" width="1" height="5" fill="#131313" />
<rect x="16" y="46" width="1" height="1" fill="#131313" />
<rect x="23" y="46" width="1" height="1" fill="#131313" />
<rect x="26" y="46" width="1" height="1" fill="#131313" />
<rect x="27" y="46" width="3" height="1" fill="#571C27" />
<rect x="30" y="46" width="1" height="1" fill="#131313" />
<rect x="48" y="46" width="1" height="2" fill="#891E2B" />
<rect x="17" y="47" width="6" height="1" fill="#131313" />
<rect x="25" y="47" width="1" height="1" fill="#131313" />
<rect x="26" y="47" width="2" height="1" fill="#891E2B" />
<rect x="28" y="47" width="3" height="3" fill="#571C27" />
<rect x="31" y="47" width="1" height="3" fill="#131313" />
<rect x="46" y="47" width="1" height="1" fill="#131313" />
<rect x="47" y="47" width="1" height="3" fill="#891E2B" />
<rect x="17" y="48" width="1" height="2" fill="#131313" />
<rect x="18" y="48" width="1" height="2" fill="#571C27" />
<rect x="19" y="48" width="2" height="1" fill="#131313" />
<rect x="24" y="48" width="1" height="1" fill="#131313" />
<rect x="25" y="48" width="2" height="1" fill="#891E2B" />
<rect x="27" y="48" width="1" height="5" fill="#571C27" />
<rect x="41" y="48" width="2" height="1" fill="#131313" />
<rect x="45" y="48" width="1" height="1" fill="#131313" />
<rect x="46" y="48" width="1" height="2" fill="#891E2B" />
<rect x="48" y="48" width="1" height="3" fill="#571C27" />
<rect x="19" y="49" width="2" height="2" fill="#571C27" />
<rect x="21" y="49" width="1" height="1" fill="#131313" />
<rect x="23" y="49" width="1" height="1" fill="#131313" />
<rect x="24" y="49" width="3" height="4" fill="#571C27" />
<rect x="40" y="49" width="1" height="2" fill="#131313" />
<rect x="41" y="49" width="2" height="2" fill="#571C27" />
<rect x="43" y="49" width="2" height="1" fill="#131313" />
<rect x="45" y="49" width="1" height="1" fill="#891E2B" />
<rect x="18" y="50" width="1" height="1" fill="#131313" />
<rect x="21" y="50" width="1" height="3" fill="#571C27" />
<rect x="22" y="50" width="1" height="1" fill="#131313" />
<rect x="23" y="50" width="1" height="3" fill="#571C27" />
<rect x="28" y="50" width="2" height="2" fill="#571C27" />
<rect x="30" y="50" width="1" height="2" fill="#131313" />
<rect x="43" y="50" width="5" height="2" fill="#571C27" />
<rect x="49" y="50" width="1" height="1" fill="#131313" />
<rect x="19" y="51" width="1" height="1" fill="#131313" />
<rect x="20" y="51" width="1" height="1" fill="#571C27" />
<rect x="22" y="51" width="1" height="2" fill="#571C27" />
<rect x="41" y="51" width="2" height="1" fill="#131313" />
<rect x="48" y="51" width="1" height="1" fill="#131313" />
<rect x="20" y="52" width="1" height="1" fill="#131313" />
<rect x="28" y="52" width="1" height="1" fill="#571C27" />
<rect x="29" y="52" width="1" height="1" fill="#131313" />
<rect x="43" y="52" width="5" height="1" fill="#131313" />
<rect x="21" y="53" width="8" height="1" fill="#131313" />
</svg>