<?xml version="1.0" encoding="UTF-8" ?>
<svg version="1.1" width="24" height="47" xmlns="http://www.w3.org/2000/svg" shape-rendering="crispEdges">
<rect x="11" y="0" width="2" height="1" fill="#000000" />
<rect x="10" y="1" width="1" height="2" fill="#000000" />
<rect x="11" y="1" width="1" height="19" fill="#2B0040" />
<rect x="12" y="1" width="1" height="1" fill="#DA8DFF" />
<rect x="13" y="1" width="1" height="2" fill="#000000" />
<rect x="12" y="2" width="1" height="9" fill="#B927FF" />
<rect x="9" y="3" width="1" height="2" fill="#000000" />
<rect x="10" y="3" width="1" height="21" fill="#2D0043" />
<rect x="13" y="3" width="1" height="5" fill="#DA8DFF" />
<rect x="14" y="3" width="1" height="2" fill="#000000" />
<rect x="8" y="5" width="1" height="2" fill="#000000" />
<rect x="9" y="5" width="1" height="17" fill="#6A009C" />
<rect x="14" y="5" width="1" height="5" fill="#DA8DFF" />
<rect x="15" y="5" width="1" height="2" fill="#000000" />
<rect x="7" y="7" width="1" height="2" fill="#000000" />
<rect x="8" y="7" width="1" height="8" fill="#6A009C" />
<rect x="15" y="7" width="1" height="7" fill="#DA8DFF" />
<rect x="16" y="7" width="1" height="2" fill="#000000" />
<rect x="13" y="8" width="1" height="10" fill="#6A009C" />
<rect x="6" y="9" width="1" height="2" fill="#000000" />
<rect x="7" y="9" width="1" height="11" fill="#6A009C" />
<rect x="16" y="9" width="1" height="5" fill="#DA8DFF" />
<rect x="17" y="9" width="1" height="2" fill="#000000" />
<rect x="14" y="10" width="1" height="3" fill="#6A009C" />
<rect x="5" y="11" width="1" height="2" fill="#000000" />
<rect x="6" y="11" width="1" height="8" fill="#6A009C" />
<rect x="12" y="11" width="1" height="5" fill="#DA8DFF" />
<rect x="17" y="11" width="1" height="9" fill="#DA8DFF" />
<rect x="18" y="11" width="1" height="2" fill="#000000" />
<rect x="4" y="13" width="1" height="2" fill="#000000" />
<rect x="5" y="13" width="1" height="5" fill="#6A009C" />
<rect x="14" y="13" width="1" height="6" fill="#DA8DFF" />
<rect x="18" y="13" width="1" height="7" fill="#DA8DFF" />
<rect x="19" y="13" width="1" height="2" fill="#000000" />
<rect x="15" y="14" width="2" height="2" fill="#6A009C" />
<rect x="3" y="15" width="1" height="2" fill="#000000" />
<rect x="4" y="15" width="1" height="3" fill="#6A009C" />
<rect x="8" y="15" width="1" height="7" fill="#B927FF" />
<rect x="19" y="15" width="1" height="5" fill="#DA8DFF" />
<rect x="20" y="15" width="1" height="2" fill="#000000" />
<rect x="12" y="16" width="1" height="2" fill="#B927FF" />
<rect x="15" y="16" width="1" height="3" fill="#6A009C" />
<rect x="16" y="16" width="1" height="5" fill="#DA8DFF" />
<rect x="2" y="17" width="1" height="2" fill="#000000" />
<rect x="3" y="17" width="1" height="5" fill="#6A009C" />
<rect x="20" y="17" width="1" height="3" fill="#DA8DFF" />
<rect x="21" y="17" width="1" height="2" fill="#000000" />
<rect x="4" y="18" width="2" height="2" fill="#B927FF" />
<rect x="12" y="18" width="2" height="6" fill="#DA8DFF" />
<rect x="1" y="19" width="1" height="2" fill="#000000" />
<rect x="2" y="19" width="1" height="5" fill="#6A009C" />
<rect x="6" y="19" width="1" height="4" fill="#B927FF" />
<rect x="14" y="19" width="1" height="3" fill="#6A009C" />
<rect x="15" y="19" width="1" height="2" fill="#DA8DFF" />
<rect x="21" y="19" width="1" height="5" fill="#DA8DFF" />
<rect x="22" y="19" width="1" height="2" fill="#000000" />
<rect x="4" y="20" width="1" height="2" fill="#6A009C" />
<rect x="5" y="20" width="1" height="4" fill="#B927FF" />
<rect x="7" y="20" width="1" height="2" fill="#B927FF" />
<rect x="11" y="20" width="1" height="2" fill="#2D0043" />
<rect x="17" y="20" width="4" height="1" fill="#6A009C" />
<rect x="0" y="21" width="1" height="5" fill="#000000" />
<rect x="1" y="21" width="1" height="3" fill="#6A009C" />
<rect x="15" y="21" width="5" height="1" fill="#6A009C" />
<rect x="20" y="21" width="1" height="3" fill="#DA8DFF" />
<rect x="22" y="21" width="1" height="3" fill="#DA8DFF" />
<rect x="23" y="21" width="1" height="1" fill="#2D0043" />
<rect x="3" y="22" width="2" height="1" fill="#B927FF" />
<rect x="7" y="22" width="1" height="2" fill="#6A009C" />
<rect x="8" y="22" width="2" height="2" fill="#2D0043" />
<rect x="11" y="22" width="1" height="1" fill="#2B0040" />
<rect x="14" y="22" width="1" height="2" fill="#DA8DFF" />
<rect x="15" y="22" width="4" height="1" fill="#6A009C" />
<rect x="19" y="22" width="1" height="2" fill="#DA8DFF" />
<rect x="23" y="22" width="1" height="4" fill="#000000" />
<rect x="3" y="23" width="1" height="1" fill="#6A009C" />
<rect x="4" y="23" width="1" height="1" fill="#B927FF" />
<rect x="6" y="23" width="1" height="1" fill="#6A009C" />
<rect x="11" y="23" width="1" height="1" fill="#2D0043" />
<rect x="15" y="23" width="4" height="1" fill="#DA8DFF" />
<rect x="1" y="24" width="3" height="1" fill="#B927FF" />
<rect x="4" y="24" width="2" height="1" fill="#6A009C" />
<rect x="6" y="24" width="2" height="2" fill="#B927FF" />
<rect x="8" y="24" width="4" height="2" fill="#6A009C" />
<rect x="12" y="24" width="1" height="11" fill="#DA8DFF" />
<rect x="13" y="24" width="1" height="21" fill="#6A009C" />
<rect x="14" y="24" width="2" height="15" fill="#2D0043" />
<rect x="16" y="24" width="2" height="3" fill="#6A009C" />
<rect x="18" y="24" width="1" height="2" fill="#2D0043" />
<rect x="19" y="24" width="1" height="2" fill="#6A009C" />
<rect x="20" y="24" width="1" height="1" fill="#2D0043" />
<rect x="21" y="24" width="2" height="1" fill="#6A009C" />
<rect x="1" y="25" width="2" height="1" fill="#B927FF" />
<rect x="3" y="25" width="2" height="1" fill="#6A009C" />
<rect x="5" y="25" width="1" height="1" fill="#B927FF" />
<rect x="20" y="25" width="1" height="3" fill="#6A009C" />
<rect x="21" y="25" width="1" height="2" fill="#2D0043" />
<rect x="22" y="25" width="1" height="1" fill="#6A009C" />
<rect x="1" y="26" width="1" height="2" fill="#000000" />
<rect x="2" y="26" width="1" height="1" fill="#B927FF" />
<rect x="3" y="26" width="1" height="4" fill="#6A009C" />
<rect x="4" y="26" width="1" height="2" fill="#B927FF" />
<rect x="5" y="26" width="1" height="2" fill="#6A009C" />
<rect x="6" y="26" width="1" height="2" fill="#B927FF" />
<rect x="7" y="26" width="4" height="2" fill="#6A009C" />
<rect x="11" y="26" width="1" height="16" fill="#2B0040" />
<rect x="18" y="26" width="1" height="5" fill="#6A009C" />
<rect x="19" y="26" width="1" height="4" fill="#2D0043" />
<rect x="22" y="26" width="1" height="2" fill="#000000" />
<rect x="2" y="27" width="1" height="1" fill="#6A009C" />
<rect x="16" y="27" width="1" height="13" fill="#2D0043" />
<rect x="17" y="27" width="1" height="10" fill="#6A009C" />
<rect x="21" y="27" width="1" height="1" fill="#6A009C" />
<rect x="2" y="28" width="1" height="2" fill="#000000" />
<rect x="4" y="28" width="1" height="5" fill="#6A009C" />
<rect x="5" y="28" width="1" height="4" fill="#B927FF" />
<rect x="6" y="28" width="4" height="1" fill="#6A009C" />
<rect x="10" y="28" width="1" height="17" fill="#B927FF" />
<rect x="20" y="28" width="1" height="2" fill="#2D0043" />
<rect x="21" y="28" width="1" height="2" fill="#000000" />
<rect x="6" y="29" width="3" height="2" fill="#6A009C" />
<rect x="9" y="29" width="1" height="14" fill="#B927FF" />
<rect x="3" y="30" width="1" height="3" fill="#000000" />
<rect x="19" y="30" width="1" height="1" fill="#6A009C" />
<rect x="20" y="30" width="1" height="3" fill="#000000" />
<rect x="6" y="31" width="2" height="2" fill="#6A009C" />
<rect x="8" y="31" width="1" height="10" fill="#B927FF" />
<rect x="18" y="31" width="2" height="2" fill="#2D0043" />
<rect x="5" y="32" width="1" height="3" fill="#6A009C" />
<rect x="4" y="33" width="1" height="2" fill="#000000" />
<rect x="6" y="33" width="1" height="3" fill="#6A009C" />
<rect x="7" y="33" width="1" height="6" fill="#B927FF" />
<rect x="18" y="33" width="1" height="2" fill="#2D0043" />
<rect x="19" y="33" width="1" height="2" fill="#000000" />
<rect x="5" y="35" width="1" height="2" fill="#000000" />
<rect x="12" y="35" width="1" height="11" fill="#B927FF" />
<rect x="18" y="35" width="1" height="2" fill="#000000" />
<rect x="6" y="36" width="1" height="1" fill="#B927FF" />
<rect x="6" y="37" width="1" height="2" fill="#000000" />
<rect x="17" y="37" width="1" height="2" fill="#000000" />
<rect x="7" y="39" width="1" height="2" fill="#000000" />
<rect x="14" y="39" width="2" height="2" fill="#6A009C" />
<rect x="16" y="40" width="1" height="1" fill="#000000" />
<rect x="8" y="41" width="1" height="2" fill="#000000" />
<rect x="14" y="41" width="1" height="2" fill="#6A009C" />
<rect x="15" y="41" width="1" height="2" fill="#000000" />
<rect x="11" y="42" width="1" height="3" fill="#2D0043" />
<rect x="9" y="43" width="1" height="2" fill="#000000" />
<rect x="14" y="43" width="1" height="2" fill="#000000" />
<rect x="10" y="45" width="1" height="1" fill="#000000" />
<rect x="11" y="45" width="1" height="1" fill="#6A009C" />
<rect x="13" y="45" width="1" height="1" fill="#000000" />
<rect x="11" y="46" width="2" height="1" fill="#000000" />
</svg>