<?xml version="1.0" encoding="UTF-8" ?>
<svg version="1.1" width="49" height="31" xmlns="http://www.w3.org/2000/svg" shape-rendering="crispEdges">
<rect x="32" y="0" width="1" height="1" fill="#391F21" />
<rect x="33" y="0" width="2" height="1" fill="#5D2C28" />
<rect x="35" y="0" width="2" height="3" fill="#391F21" />
<rect x="31" y="1" width="3" height="1" fill="#5D2C28" />
<rect x="34" y="1" width="1" height="2" fill="#391F21" />
<rect x="37" y="1" width="2" height="3" fill="#391F21" />
<rect x="30" y="2" width="1" height="2" fill="#391F21" />
<rect x="31" y="2" width="2" height="3" fill="#5D2C28" />
<rect x="33" y="2" width="1" height="1" fill="#391F21" />
<rect x="39" y="2" width="1" height="7" fill="#391F21" />
<rect x="29" y="3" width="1" height="1" fill="#5D2C28" />
<rect x="33" y="3" width="3" height="2" fill="#5D2C28" />
<rect x="36" y="3" width="1" height="1" fill="#391F21" />
<rect x="40" y="3" width="1" height="5" fill="#391F21" />
<rect x="29" y="4" width="1" height="2" fill="#391F21" />
<rect x="30" y="4" width="1" height="3" fill="#5D2C28" />
<rect x="36" y="4" width="2" height="1" fill="#5D2C28" />
<rect x="38" y="4" width="1" height="6" fill="#391F21" />
<rect x="41" y="4" width="1" height="2" fill="#391F21" />
<rect x="18" y="5" width="11" height="3" fill="#FFFFFF" />
<rect x="31" y="5" width="1" height="2" fill="#391F21" />
<rect x="32" y="5" width="3" height="1" fill="#5D2C28" />
<rect x="35" y="5" width="3" height="3" fill="#391F21" />
<rect x="42" y="5" width="1" height="1" fill="#391F21" />
<rect x="14" y="6" width="4" height="6" fill="#FFFFFF" />
<rect x="29" y="6" width="1" height="1" fill="#5D2C28" />
<rect x="32" y="6" width="1" height="1" fill="#5D2C28" />
<rect x="33" y="6" width="1" height="1" fill="#391F21" />
<rect x="34" y="6" width="1" height="1" fill="#5D2C28" />
<rect x="41" y="6" width="3" height="1" fill="#891E2B" />
<rect x="11" y="7" width="3" height="20" fill="#FFFFFF" />
<rect x="29" y="7" width="2" height="1" fill="#391F21" />
<rect x="31" y="7" width="1" height="1" fill="#BF6F4A" />
<rect x="32" y="7" width="1" height="1" fill="#391F21" />
<rect x="33" y="7" width="1" height="1" fill="#1C121C" />
<rect x="34" y="7" width="1" height="1" fill="#391F21" />
<rect x="41" y="7" width="1" height="1" fill="#391F21" />
<rect x="42" y="7" width="1" height="2" fill="#C42430" />
<rect x="43" y="7" width="1" height="1" fill="#891E2B" />
<rect x="8" y="8" width="3" height="18" fill="#FFFFFF" />
<rect x="18" y="8" width="10" height="1" fill="#FFFFFF" />
<rect x="30" y="8" width="1" height="1" fill="#391F21" />
<rect x="31" y="8" width="2" height="1" fill="#E69C69" />
<rect x="33" y="8" width="1" height="1" fill="#0069AA" />
<rect x="34" y="8" width="1" height="1" fill="#FFFFFF" />
<rect x="35" y="8" width="1" height="3" fill="#391F21" />
<rect x="36" y="8" width="1" height="2" fill="#BF6F4A" />
<rect x="37" y="8" width="1" height="2" fill="#391F21" />
<rect x="40" y="8" width="2" height="2" fill="#C42430" />
<rect x="43" y="8" width="1" height="3" fill="#272727" />
<rect x="44" y="8" width="1" height="1" fill="#B4B4B4" />
<rect x="6" y="9" width="2" height="16" fill="#FFFFFF" />
<rect x="18" y="9" width="7" height="1" fill="#FFFFFF" />
<rect x="30" y="9" width="1" height="1" fill="#1C121C" />
<rect x="31" y="9" width="4" height="1" fill="#F6CA9F" />
<rect x="39" y="9" width="1" height="1" fill="#C42430" />
<rect x="42" y="9" width="1" height="1" fill="#891E2B" />
<rect x="44" y="9" width="1" height="1" fill="#FFFFFF" />
<rect x="45" y="9" width="1" height="2" fill="#B4B4B4" />
<rect x="4" y="10" width="2" height="15" fill="#FFFFFF" />
<rect x="18" y="10" width="3" height="1" fill="#FFFFFF" />
<rect x="31" y="10" width="1" height="1" fill="#E69C69" />
<rect x="32" y="10" width="2" height="1" fill="#F6CA9F" />
<rect x="34" y="10" width="1" height="1" fill="#E69C69" />
<rect x="36" y="10" width="1" height="1" fill="#858585" />
<rect x="37" y="10" width="1" height="3" fill="#571C27" />
<rect x="38" y="10" width="2" height="2" fill="#891E2B" />
<rect x="40" y="10" width="1" height="1" fill="#C42430" />
<rect x="41" y="10" width="1" height="2" fill="#891E2B" />
<rect x="42" y="10" width="1" height="2" fill="#131313" />
<rect x="44" y="10" width="1" height="1" fill="#B4B4B4" />
<rect x="46" y="10" width="2" height="1" fill="#E69C69" />
<rect x="3" y="11" width="1" height="13" fill="#FFFFFF" />
<rect x="30" y="11" width="2" height="1" fill="#571C27" />
<rect x="32" y="11" width="2" height="1" fill="#E69C69" />
<rect x="34" y="11" width="1" height="1" fill="#8A4836" />
<rect x="35" y="11" width="1" height="1" fill="#5D2C28" />
<rect x="36" y="11" width="1" height="1" fill="#571C27" />
<rect x="40" y="11" width="1" height="1" fill="#891E2B" />
<rect x="45" y="11" width="1" height="1" fill="#FFFFFF" />
<rect x="46" y="11" width="2" height="2" fill="#F6CA9F" />
<rect x="48" y="11" width="1" height="2" fill="#E69C69" />
<rect x="2" y="12" width="1" height="12" fill="#FFFFFF" />
<rect x="14" y="12" width="2" height="1" fill="#FFFFFF" />
<rect x="30" y="12" width="1" height="2" fill="#272727" />
<rect x="31" y="12" width="3" height="1" fill="#571C27" />
<rect x="34" y="12" width="2" height="1" fill="#BF6F4A" />
<rect x="36" y="12" width="1" height="1" fill="#8A4836" />
<rect x="38" y="12" width="1" height="1" fill="#891E2B" />
<rect x="39" y="12" width="3" height="1" fill="#571C27" />
<rect x="1" y="13" width="1" height="10" fill="#FFFFFF" />
<rect x="14" y="13" width="1" height="1" fill="#FFFFFF" />
<rect x="31" y="13" width="1" height="1" fill="#272727" />
<rect x="32" y="13" width="3" height="1" fill="#571C27" />
<rect x="35" y="13" width="2" height="1" fill="#BF6F4A" />
<rect x="37" y="13" width="1" height="2" fill="#8A4836" />
<rect x="38" y="13" width="3" height="1" fill="#571C27" />
<rect x="30" y="14" width="1" height="1" fill="#858585" />
<rect x="31" y="14" width="1" height="1" fill="#B4B4B4" />
<rect x="32" y="14" width="1" height="1" fill="#272727" />
<rect x="33" y="14" width="1" height="1" fill="#5D2C28" />
<rect x="34" y="14" width="1" height="2" fill="#571C27" />
<rect x="35" y="14" width="1" height="1" fill="#272727" />
<rect x="36" y="14" width="1" height="1" fill="#BF6F4A" />
<rect x="38" y="14" width="2" height="2" fill="#8A4836" />
<rect x="40" y="14" width="1" height="1" fill="#571C27" />
<rect x="0" y="15" width="1" height="6" fill="#FFFFFF" />
<rect x="30" y="15" width="1" height="1" fill="#B4B4B4" />
<rect x="31" y="15" width="2" height="1" fill="#FFFFFF" />
<rect x="33" y="15" width="1" height="1" fill="#B4B4B4" />
<rect x="35" y="15" width="3" height="2" fill="#424C6E" />
<rect x="40" y="15" width="1" height="1" fill="#8A4836" />
<rect x="14" y="16" width="1" height="11" fill="#FFFFFF" />
<rect x="31" y="16" width="1" height="1" fill="#B4B4B4" />
<rect x="32" y="16" width="2" height="1" fill="#F6CA9F" />
<rect x="34" y="16" width="1" height="1" fill="#E69C69" />
<rect x="38" y="16" width="4" height="1" fill="#571C27" />
<rect x="15" y="17" width="2" height="10" fill="#FFFFFF" />
<rect x="32" y="17" width="3" height="10" fill="#FFFFFF" />
<rect x="35" y="17" width="1" height="1" fill="#424C6E" />
<rect x="36" y="17" width="1" height="1" fill="#92A1B9" />
<rect x="37" y="17" width="1" height="1" fill="#BF6F4A" />
<rect x="38" y="17" width="2" height="2" fill="#8A4836" />
<rect x="40" y="17" width="2" height="4" fill="#571C27" />
<rect x="17" y="18" width="15" height="10" fill="#FFFFFF" />
<rect x="35" y="18" width="1" height="9" fill="#FFFFFF" />
<rect x="36" y="18" width="1" height="1" fill="#C7CFDD" />
<rect x="37" y="18" width="1" height="8" fill="#FFFFFF" />
<rect x="36" y="19" width="1" height="8" fill="#FFFFFF" />
<rect x="38" y="19" width="1" height="7" fill="#FFFFFF" />
<rect x="39" y="19" width="1" height="1" fill="#571C27" />
<rect x="42" y="19" width="1" height="3" fill="#571C27" />
<rect x="39" y="20" width="1" height="6" fill="#FFFFFF" />
<rect x="40" y="21" width="1" height="5" fill="#FFFFFF" />
<rect x="41" y="21" width="1" height="1" fill="#571C27" />
<rect x="41" y="22" width="1" height="4" fill="#FFFFFF" />
<rect x="42" y="22" width="1" height="1" fill="#131313" />
<rect x="42" y="23" width="1" height="2" fill="#FFFFFF" />
<rect x="43" y="23" width="1" height="1" fill="#131313" />
<rect x="43" y="24" width="1" height="3" fill="#FFFFFF" />
<rect x="7" y="25" width="1" height="1" fill="#FFFFFF" />
<rect x="42" y="25" width="1" height="2" fill="#C7CFDD" />
<rect x="37" y="26" width="1" height="1" fill="#272727" />
<rect x="41" y="26" width="1" height="1" fill="#C7CFDD" />
<rect x="44" y="26" width="1" height="1" fill="#131313" />
<rect x="35" y="27" width="2" height="2" fill="#272727" />
<rect x="42" y="27" width="1" height="1" fill="#BF6F4A" />
<rect x="43" y="27" width="2" height="2" fill="#391F21" />
<rect x="34" y="29" width="2" height="1" fill="#8A4836" />
<rect x="36" y="29" width="1" height="2" fill="#5D2C28" />
<rect x="33" y="30" width="2" height="1" fill="#F6CA9F" />
<rect x="35" y="30" width="1" height="1" fill="#8A4836" />
</svg>