<?xml version="1.0" encoding="UTF-8" ?>
<svg version="1.1" width="63" height="63" xmlns="http://www.w3.org/2000/svg" shape-rendering="crispEdges">
<rect x="12" y="0" width="1" height="4" fill="#131313" />
<rect x="10" y="1" width="2" height="2" fill="#131313" />
<rect x="13" y="1" width="1" height="2" fill="#131313" />
<rect x="35" y="1" width="1" height="5" fill="#131313" />
<rect x="9" y="2" width="1" height="2" fill="#131313" />
<rect x="34" y="2" width="1" height="2" fill="#131313" />
<rect x="36" y="2" width="2" height="2" fill="#131313" />
<rect x="8" y="3" width="1" height="3" fill="#131313" />
<rect x="10" y="3" width="1" height="1" fill="#3D3D3D" />
<rect x="11" y="3" width="1" height="4" fill="#131313" />
<rect x="38" y="3" width="1" height="2" fill="#131313" />
<rect x="7" y="4" width="1" height="21" fill="#131313" />
<rect x="9" y="4" width="1" height="12" fill="#3D3D3D" />
<rect x="10" y="4" width="1" height="9" fill="#131313" />
<rect x="36" y="4" width="1" height="4" fill="#131313" />
<rect x="37" y="4" width="1" height="2" fill="#3D3D3D" />
<rect x="6" y="5" width="1" height="19" fill="#131313" />
<rect x="38" y="5" width="1" height="10" fill="#3D3D3D" />
<rect x="39" y="5" width="1" height="3" fill="#131313" />
<rect x="8" y="6" width="1" height="8" fill="#3D3D3D" />
<rect x="37" y="6" width="1" height="5" fill="#131313" />
<rect x="40" y="6" width="1" height="18" fill="#131313" />
<rect x="5" y="7" width="1" height="16" fill="#131313" />
<rect x="41" y="7" width="1" height="15" fill="#131313" />
<rect x="39" y="8" width="1" height="3" fill="#3D3D3D" />
<rect x="4" y="9" width="1" height="11" fill="#131313" />
<rect x="3" y="10" width="1" height="8" fill="#131313" />
<rect x="11" y="10" width="1" height="5" fill="#131313" />
<rect x="42" y="10" width="1" height="10" fill="#131313" />
<rect x="36" y="11" width="1" height="3" fill="#131313" />
<rect x="37" y="11" width="1" height="5" fill="#3D3D3D" />
<rect x="39" y="11" width="1" height="15" fill="#131313" />
<rect x="35" y="12" width="1" height="3" fill="#131313" />
<rect x="43" y="12" width="1" height="5" fill="#131313" />
<rect x="10" y="13" width="1" height="5" fill="#3D3D3D" />
<rect x="12" y="13" width="1" height="3" fill="#131313" />
<rect x="8" y="14" width="1" height="12" fill="#131313" />
<rect x="34" y="14" width="1" height="3" fill="#131313" />
<rect x="36" y="14" width="1" height="4" fill="#3D3D3D" />
<rect x="11" y="15" width="1" height="5" fill="#3D3D3D" />
<rect x="13" y="15" width="1" height="3" fill="#131313" />
<rect x="33" y="15" width="1" height="3" fill="#131313" />
<rect x="35" y="15" width="1" height="5" fill="#3D3D3D" />
<rect x="38" y="15" width="1" height="13" fill="#131313" />
<rect x="9" y="16" width="1" height="11" fill="#131313" />
<rect x="12" y="16" width="1" height="6" fill="#3D3D3D" />
<rect x="37" y="16" width="1" height="11" fill="#131313" />
<rect x="14" y="17" width="1" height="2" fill="#131313" />
<rect x="32" y="17" width="1" height="2" fill="#131313" />
<rect x="34" y="17" width="1" height="5" fill="#3D3D3D" />
<rect x="10" y="18" width="1" height="13" fill="#131313" />
<rect x="13" y="18" width="1" height="5" fill="#3D3D3D" />
<rect x="15" y="18" width="2" height="2" fill="#131313" />
<rect x="30" y="18" width="2" height="2" fill="#131313" />
<rect x="33" y="18" width="1" height="5" fill="#3D3D3D" />
<rect x="36" y="18" width="1" height="9" fill="#131313" />
<rect x="14" y="19" width="1" height="5" fill="#3D3D3D" />
<rect x="17" y="19" width="10" height="1" fill="#131313" />
<rect x="29" y="19" width="1" height="2" fill="#131313" />
<rect x="32" y="19" width="1" height="4" fill="#3D3D3D" />
<rect x="11" y="20" width="1" height="8" fill="#131313" />
<rect x="15" y="20" width="2" height="2" fill="#3D3D3D" />
<rect x="17" y="20" width="2" height="1" fill="#131313" />
<rect x="19" y="20" width="8" height="2" fill="#571C27" />
<rect x="27" y="20" width="2" height="1" fill="#131313" />
<rect x="30" y="20" width="2" height="4" fill="#3D3D3D" />
<rect x="35" y="20" width="1" height="8" fill="#131313" />
<rect x="17" y="21" width="1" height="1" fill="#131313" />
<rect x="18" y="21" width="1" height="3" fill="#571C27" />
<rect x="27" y="21" width="1" height="4" fill="#571C27" />
<rect x="28" y="21" width="1" height="2" fill="#131313" />
<rect x="29" y="21" width="1" height="2" fill="#3D3D3D" />
<rect x="12" y="22" width="1" height="6" fill="#131313" />
<rect x="15" y="22" width="1" height="2" fill="#3D3D3D" />
<rect x="16" y="22" width="1" height="2" fill="#131313" />
<rect x="17" y="22" width="1" height="3" fill="#571C27" />
<rect x="19" y="22" width="5" height="2" fill="#891E2B" />
<rect x="24" y="22" width="3" height="1" fill="#571C27" />
<rect x="34" y="22" width="1" height="6" fill="#131313" />
<rect x="13" y="23" width="1" height="5" fill="#131313" />
<rect x="24" y="23" width="2" height="4" fill="#891E2B" />
<rect x="26" y="23" width="1" height="1" fill="#571C27" />
<rect x="28" y="23" width="1" height="7" fill="#571C27" />
<rect x="29" y="23" width="1" height="3" fill="#131313" />
<rect x="32" y="23" width="2" height="6" fill="#131313" />
<rect x="14" y="24" width="2" height="1" fill="#131313" />
<rect x="16" y="24" width="1" height="2" fill="#571C27" />
<rect x="18" y="24" width="2" height="1" fill="#891E2B" />
<rect x="20" y="24" width="3" height="7" fill="#C42430" />
<rect x="23" y="24" width="1" height="1" fill="#891E2B" />
<rect x="26" y="24" width="1" height="5" fill="#891E2B" />
<rect x="30" y="24" width="1" height="1" fill="#3D3D3D" />
<rect x="31" y="24" width="1" height="4" fill="#131313" />
<rect x="14" y="25" width="1" height="2" fill="#131313" />
<rect x="15" y="25" width="1" height="2" fill="#571C27" />
<rect x="17" y="25" width="1" height="1" fill="#891E2B" />
<rect x="18" y="25" width="2" height="4" fill="#C42430" />
<rect x="23" y="25" width="1" height="5" fill="#C42430" />
<rect x="27" y="25" width="1" height="3" fill="#891E2B" />
<rect x="30" y="25" width="1" height="2" fill="#131313" />
<rect x="40" y="25" width="1" height="1" fill="#131313" />
<rect x="16" y="26" width="1" height="1" fill="#891E2B" />
<rect x="17" y="26" width="1" height="4" fill="#C42430" />
<rect x="29" y="26" width="1" height="8" fill="#571C27" />
<rect x="39" y="26" width="2" height="2" fill="#C42430" />
<rect x="41" y="26" width="3" height="1" fill="#131313" />
<rect x="6" y="27" width="2" height="1" fill="#131313" />
<rect x="14" y="27" width="1" height="3" fill="#571C27" />
<rect x="15" y="27" width="1" height="3" fill="#891E2B" />
<rect x="16" y="27" width="1" height="2" fill="#C42430" />
<rect x="24" y="27" width="1" height="2" fill="#C42430" />
<rect x="25" y="27" width="1" height="2" fill="#891E2B" />
<rect x="30" y="27" width="1" height="5" fill="#571C27" />
<rect x="41" y="27" width="1" height="3" fill="#C42430" />
<rect x="42" y="27" width="2" height="1" fill="#891E2B" />
<rect x="44" y="27" width="2" height="1" fill="#131313" />
<rect x="5" y="28" width="1" height="1" fill="#131313" />
<rect x="6" y="28" width="2" height="1" fill="#C42430" />
<rect x="8" y="28" width="1" height="1" fill="#131313" />
<rect x="11" y="28" width="3" height="1" fill="#571C27" />
<rect x="27" y="28" width="1" height="2" fill="#571C27" />
<rect x="31" y="28" width="1" height="5" fill="#571C27" />
<rect x="34" y="28" width="1" height="2" fill="#581D27" />
<rect x="35" y="28" width="1" height="2" fill="#5D2127" />
<rect x="36" y="28" width="1" height="3" fill="#131313" />
<rect x="39" y="28" width="1" height="1" fill="#131313" />
<rect x="40" y="28" width="1" height="1" fill="#C42430" />
<rect x="42" y="28" width="1" height="3" fill="#C42430" />
<rect x="43" y="28" width="3" height="1" fill="#891E2B" />
<rect x="46" y="28" width="2" height="1" fill="#131313" />
<rect x="4" y="29" width="1" height="1" fill="#131313" />
<rect x="5" y="29" width="2" height="1" fill="#C42430" />
<rect x="7" y="29" width="1" height="1" fill="#131313" />
<rect x="11" y="29" width="1" height="4" fill="#571C27" />
<rect x="12" y="29" width="2" height="4" fill="#891E2B" />
<rect x="16" y="29" width="1" height="2" fill="#891E2B" />
<rect x="18" y="29" width="1" height="2" fill="#C42430" />
<rect x="19" y="29" width="1" height="3" fill="#891E2B" />
<rect x="24" y="29" width="1" height="1" fill="#891E2B" />
<rect x="25" y="29" width="2" height="1" fill="#571C27" />
<rect x="32" y="29" width="1" height="16" fill="#571C27" />
<rect x="33" y="29" width="1" height="1" fill="#581D27" />
<rect x="40" y="29" width="1" height="1" fill="#131313" />
<rect x="43" y="29" width="1" height="3" fill="#C42430" />
<rect x="44" y="29" width="4" height="1" fill="#891E2B" />
<rect x="48" y="29" width="2" height="1" fill="#131313" />
<rect x="3" y="30" width="1" height="1" fill="#131313" />
<rect x="4" y="30" width="1" height="2" fill="#C42430" />
<rect x="5" y="30" width="3" height="1" fill="#891E2B" />
<rect x="8" y="30" width="1" height="1" fill="#131313" />
<rect x="14" y="30" width="1" height="4" fill="#891E2B" />
<rect x="15" y="30" width="1" height="1" fill="#571C27" />
<rect x="17" y="30" width="1" height="2" fill="#891E2B" />
<rect x="23" y="30" width="1" height="1" fill="#891E2B" />
<rect x="24" y="30" width="2" height="1" fill="#571C27" />
<rect x="26" y="30" width="3" height="4" fill="#891E2B" />
<rect x="33" y="30" width="3" height="5" fill="#571C27" />
<rect x="41" y="30" width="1" height="2" fill="#131313" />
<rect x="44" y="30" width="1" height="3" fill="#C42430" />
<rect x="45" y="30" width="5" height="1" fill="#891E2B" />
<rect x="50" y="30" width="2" height="1" fill="#131313" />
<rect x="2" y="31" width="1" height="1" fill="#131313" />
<rect x="3" y="31" width="1" height="3" fill="#C42430" />
<rect x="5" y="31" width="1" height="1" fill="#891E2B" />
<rect x="6" y="31" width="1" height="7" fill="#571C27" />
<rect x="7" y="31" width="2" height="1" fill="#891E2B" />
<rect x="9" y="31" width="1" height="1" fill="#131313" />
<rect x="10" y="31" width="1" height="3" fill="#891E2B" />
<rect x="15" y="31" width="1" height="3" fill="#891E2B" />
<rect x="16" y="31" width="1" height="1" fill="#571C27" />
<rect x="18" y="31" width="1" height="1" fill="#891E2B" />
<rect x="20" y="31" width="3" height="1" fill="#891E2B" />
<rect x="23" y="31" width="2" height="1" fill="#571C27" />
<rect x="25" y="31" width="1" height="5" fill="#891E2B" />
<rect x="36" y="31" width="1" height="3" fill="#571C27" />
<rect x="37" y="31" width="1" height="3" fill="#131313" />
<rect x="40" y="31" width="1" height="1" fill="#131313" />
<rect x="42" y="31" width="1" height="2" fill="#891E2B" />
<rect x="45" y="31" width="1" height="3" fill="#C42430" />
<rect x="46" y="31" width="6" height="2" fill="#891E2B" />
<rect x="52" y="31" width="1" height="1" fill="#131313" />
<rect x="1" y="32" width="1" height="3" fill="#131313" />
<rect x="2" y="32" width="1" height="6" fill="#C42430" />
<rect x="4" y="32" width="1" height="3" fill="#891E2B" />
<rect x="5" y="32" width="1" height="6" fill="#571C27" />
<rect x="7" y="32" width="1" height="5" fill="#571C27" />
<rect x="8" y="32" width="2" height="1" fill="#891E2B" />
<rect x="16" y="32" width="1" height="2" fill="#891E2B" />
<rect x="17" y="32" width="6" height="1" fill="#571C27" />
<rect x="23" y="32" width="2" height="4" fill="#891E2B" />
<rect x="30" y="32" width="1" height="9" fill="#891E2B" />
<rect x="38" y="32" width="2" height="1" fill="#131313" />
<rect x="40" y="32" width="2" height="1" fill="#C42430" />
<rect x="43" y="32" width="1" height="7" fill="#571C27" />
<rect x="52" y="32" width="1" height="5" fill="#891E2B" />
<rect x="53" y="32" width="1" height="1" fill="#131313" />
<rect x="8" y="33" width="1" height="4" fill="#571C27" />
<rect x="9" y="33" width="1" height="1" fill="#891E2B" />
<rect x="11" y="33" width="1" height="5" fill="#891E2B" />
<rect x="12" y="33" width="1" height="1" fill="#571C27" />
<rect x="13" y="33" width="1" height="1" fill="#891E2B" />
<rect x="17" y="33" width="5" height="1" fill="#571C27" />
<rect x="22" y="33" width="1" height="2" fill="#891E2B" />
<rect x="31" y="33" width="1" height="5" fill="#891E2B" />
<rect x="38" y="33" width="2" height="1" fill="#C42430" />
<rect x="40" y="33" width="2" height="1" fill="#891E2B" />
<rect x="42" y="33" width="1" height="5" fill="#571C27" />
<rect x="44" y="33" width="1" height="6" fill="#571C27" />
<rect x="46" y="33" width="1" height="3" fill="#C42430" />
<rect x="47" y="33" width="5" height="1" fill="#891E2B" />
<rect x="53" y="33" width="1" height="3" fill="#891E2B" />
<rect x="54" y="33" width="1" height="1" fill="#131313" />
<rect x="3" y="34" width="1" height="5" fill="#891E2B" />
<rect x="9" y="34" width="2" height="5" fill="#571C27" />
<rect x="12" y="34" width="1" height="3" fill="#891E2B" />
<rect x="13" y="34" width="5" height="1" fill="#571C27" />
<rect x="18" y="34" width="2" height="4" fill="#891E2B" />
<rect x="20" y="34" width="2" height="1" fill="#571C27" />
<rect x="26" y="34" width="2" height="1" fill="#891E2B" />
<rect x="28" y="34" width="1" height="1" fill="#571C27" />
<rect x="29" y="34" width="1" height="4" fill="#891E2B" />
<rect x="36" y="34" width="2" height="1" fill="#C42430" />
<rect x="38" y="34" width="2" height="1" fill="#891E2B" />
<rect x="40" y="34" width="2" height="4" fill="#571C27" />
<rect x="45" y="34" width="1" height="6" fill="#571C27" />
<rect x="47" y="34" width="1" height="3" fill="#C42430" />
<rect x="48" y="34" width="4" height="2" fill="#891E2B" />
<rect x="54" y="34" width="1" height="1" fill="#891E2B" />
<rect x="55" y="34" width="1" height="1" fill="#131313" />
<rect x="0" y="35" width="1" height="6" fill="#131313" />
<rect x="1" y="35" width="1" height="6" fill="#C42430" />
<rect x="4" y="35" width="1" height="1" fill="#571C27" />
<rect x="13" y="35" width="5" height="2" fill="#891E2B" />
<rect x="20" y="35" width="1" height="4" fill="#891E2B" />
<rect x="21" y="35" width="2" height="1" fill="#571C27" />
<rect x="26" y="35" width="1" height="1" fill="#891E2B" />
<rect x="27" y="35" width="1" height="1" fill="#571C27" />
<rect x="28" y="35" width="1" height="2" fill="#891E2B" />
<rect x="33" y="35" width="2" height="9" fill="#571C27" />
<rect x="35" y="35" width="3" height="1" fill="#891E2B" />
<rect x="38" y="35" width="2" height="4" fill="#571C27" />
<rect x="54" y="35" width="1" height="1" fill="#131313" />
<rect x="4" y="36" width="1" height="3" fill="#131313" />
<rect x="21" y="36" width="1" height="3" fill="#891E2B" />
<rect x="22" y="36" width="5" height="1" fill="#571C27" />
<rect x="27" y="36" width="1" height="1" fill="#891E2B" />
<rect x="35" y="36" width="1" height="12" fill="#571C27" />
<rect x="36" y="36" width="1" height="2" fill="#891E2B" />
<rect x="37" y="36" width="1" height="2" fill="#571C27" />
<rect x="46" y="36" width="1" height="3" fill="#571C27" />
<rect x="48" y="36" width="1" height="3" fill="#C42430" />
<rect x="49" y="36" width="3" height="2" fill="#891E2B" />
<rect x="53" y="36" width="1" height="1" fill="#131313" />
<rect x="7" y="37" width="2" height="1" fill="#131313" />
<rect x="12" y="37" width="1" height="1" fill="#131313" />
<rect x="13" y="37" width="1" height="1" fill="#891E2B" />
<rect x="14" y="37" width="1" height="1" fill="#131313" />
<rect x="15" y="37" width="2" height="1" fill="#891E2B" />
<rect x="17" y="37" width="1" height="2" fill="#131313" />
<rect x="22" y="37" width="5" height="1" fill="#891E2B" />
<rect x="27" y="37" width="2" height="1" fill="#131313" />
<rect x="47" y="37" width="1" height="2" fill="#131313" />
<rect x="52" y="37" width="1" height="1" fill="#131313" />
<rect x="2" y="38" width="1" height="6" fill="#891E2B" />
<rect x="5" y="38" width="2" height="1" fill="#131313" />
<rect x="8" y="38" width="1" height="1" fill="#131313" />
<rect x="11" y="38" width="1" height="1" fill="#131313" />
<rect x="12" y="38" width="1" height="3" fill="#FFC825" />
<rect x="13" y="38" width="1" height="2" fill="#131313" />
<rect x="14" y="38" width="1" height="1" fill="#FFC825" />
<rect x="15" y="38" width="1" height="2" fill="#131313" />
<rect x="16" y="38" width="1" height="1" fill="#891E2B" />
<rect x="18" y="38" width="1" height="1" fill="#891E2B" />
<rect x="19" y="38" width="1" height="1" fill="#131313" />
<rect x="22" y="38" width="3" height="1" fill="#131313" />
<rect x="25" y="38" width="1" height="1" fill="#891E2B" />
<rect x="26" y="38" width="1" height="1" fill="#131313" />
<rect x="27" y="38" width="2" height="1" fill="#FFA214" />
<rect x="29" y="38" width="1" height="3" fill="#131313" />
<rect x="31" y="38" width="1" height="9" fill="#571C27" />
<rect x="36" y="38" width="1" height="1" fill="#571C27" />
<rect x="37" y="38" width="1" height="1" fill="#891E2B" />
<rect x="40" y="38" width="1" height="2" fill="#571C27" />
<rect x="41" y="38" width="2" height="1" fill="#131313" />
<rect x="49" y="38" width="2" height="1" fill="#891E2B" />
<rect x="51" y="38" width="1" height="6" fill="#131313" />
<rect x="3" y="39" width="1" height="5" fill="#131313" />
<rect x="9" y="39" width="1" height="1" fill="#131313" />
<rect x="10" y="39" width="1" height="1" fill="#571C27" />
<rect x="11" y="39" width="1" height="2" fill="#FFA214" />
<rect x="14" y="39" width="1" height="2" fill="#FFEB57" />
<rect x="16" y="39" width="1" height="2" fill="#131313" />
<rect x="17" y="39" width="1" height="1" fill="#FFC825" />
<rect x="18" y="39" width="1" height="2" fill="#131313" />
<rect x="19" y="39" width="1" height="1" fill="#FFC825" />
<rect x="20" y="39" width="2" height="1" fill="#131313" />
<rect x="22" y="39" width="2" height="1" fill="#FFC825" />
<rect x="24" y="39" width="2" height="1" fill="#131313" />
<rect x="26" y="39" width="2" height="1" fill="#FFC825" />
<rect x="28" y="39" width="1" height="2" fill="#FFA214" />
<rect x="36" y="39" width="3" height="1" fill="#131313" />
<rect x="39" y="39" width="1" height="1" fill="#571C27" />
<rect x="41" y="39" width="1" height="1" fill="#131313" />
<rect x="43" y="39" width="2" height="1" fill="#131313" />
<rect x="46" y="39" width="1" height="1" fill="#131313" />
<rect x="48" y="39" width="1" height="4" fill="#131313" />
<rect x="49" y="39" width="1" height="4" fill="#C42430" />
<rect x="50" y="39" width="1" height="4" fill="#891E2B" />
<rect x="10" y="40" width="1" height="3" fill="#131313" />
<rect x="13" y="40" width="1" height="2" fill="#FFC825" />
<rect x="15" y="40" width="1" height="3" fill="#FFC825" />
<rect x="17" y="40" width="1" height="2" fill="#FFEB57" />
<rect x="19" y="40" width="1" height="2" fill="#FFEB57" />
<rect x="20" y="40" width="1" height="2" fill="#FFC825" />
<rect x="21" y="40" width="1" height="1" fill="#131313" />
<rect x="22" y="40" width="2" height="2" fill="#FFEB57" />
<rect x="24" y="40" width="1" height="1" fill="#131313" />
<rect x="25" y="40" width="1" height="1" fill="#FFC825" />
<rect x="26" y="40" width="1" height="1" fill="#FFEB57" />
<rect x="27" y="40" width="1" height="1" fill="#FFC825" />
<rect x="36" y="40" width="1" height="5" fill="#131313" />
<rect x="39" y="40" width="2" height="1" fill="#131313" />
<rect x="45" y="40" width="1" height="1" fill="#131313" />
<rect x="1" y="41" width="1" height="3" fill="#131313" />
<rect x="11" y="41" width="1" height="2" fill="#571C27" />
<rect x="12" y="41" width="1" height="1" fill="#FFA214" />
<rect x="14" y="41" width="1" height="2" fill="#131313" />
<rect x="16" y="41" width="1" height="1" fill="#FFC825" />
<rect x="18" y="41" width="1" height="1" fill="#FFEB57" />
<rect x="21" y="41" width="1" height="1" fill="#FFEB57" />
<rect x="24" y="41" width="1" height="1" fill="#FFC825" />
<rect x="25" y="41" width="1" height="1" fill="#FFEB57" />
<rect x="26" y="41" width="1" height="1" fill="#FFC825" />
<rect x="27" y="41" width="1" height="1" fill="#FFA214" />
<rect x="28" y="41" width="1" height="1" fill="#131313" />
<rect x="29" y="41" width="1" height="1" fill="#891E2B" />
<rect x="30" y="41" width="1" height="6" fill="#571C27" />
<rect x="12" y="42" width="1" height="3" fill="#571C27" />
<rect x="13" y="42" width="1" height="1" fill="#FFA214" />
<rect x="16" y="42" width="1" height="1" fill="#131313" />
<rect x="17" y="42" width="3" height="1" fill="#FFC825" />
<rect x="20" y="42" width="1" height="1" fill="#131313" />
<rect x="21" y="42" width="3" height="1" fill="#FFC825" />
<rect x="24" y="42" width="1" height="1" fill="#131313" />
<rect x="25" y="42" width="1" height="1" fill="#FFC825" />
<rect x="26" y="42" width="2" height="1" fill="#131313" />
<rect x="28" y="42" width="1" height="2" fill="#891E2B" />
<rect x="29" y="42" width="1" height="5" fill="#571C27" />
<rect x="11" y="43" width="1" height="2" fill="#131313" />
<rect x="13" y="43" width="1" height="1" fill="#131313" />
<rect x="14" y="43" width="1" height="1" fill="#891E2B" />
<rect x="15" y="43" width="1" height="1" fill="#131313" />
<rect x="16" y="43" width="1" height="3" fill="#891E2B" />
<rect x="17" y="43" width="1" height="1" fill="#131313" />
<rect x="18" y="43" width="1" height="1" fill="#FFC825" />
<rect x="19" y="43" width="1" height="1" fill="#131313" />
<rect x="20" y="43" width="1" height="4" fill="#891E2B" />
<rect x="21" y="43" width="3" height="1" fill="#131313" />
<rect x="24" y="43" width="1" height="3" fill="#891E2B" />
<rect x="25" y="43" width="1" height="1" fill="#131313" />
<rect x="26" y="43" width="2" height="2" fill="#891E2B" />
<rect x="49" y="43" width="1" height="1" fill="#131313" />
<rect x="50" y="43" width="1" height="1" fill="#C42430" />
<rect x="2" y="44" width="1" height="1" fill="#131313" />
<rect x="13" y="44" width="2" height="3" fill="#571C27" />
<rect x="15" y="44" width="1" height="1" fill="#891E2B" />
<rect x="17" y="44" width="1" height="3" fill="#891E2B" />
<rect x="18" y="44" width="1" height="1" fill="#131313" />
<rect x="19" y="44" width="1" height="3" fill="#891E2B" />
<rect x="21" y="44" width="3" height="2" fill="#891E2B" />
<rect x="25" y="44" width="1" height="2" fill="#891E2B" />
<rect x="28" y="44" width="1" height="3" fill="#571C27" />
<rect x="33" y="44" width="1" height="3" fill="#891E2B" />
<rect x="34" y="44" width="1" height="1" fill="#571C27" />
<rect x="50" y="44" width="1" height="1" fill="#131313" />
<rect x="12" y="45" width="1" height="1" fill="#131313" />
<rect x="15" y="45" width="1" height="3" fill="#571C27" />
<rect x="18" y="45" width="1" height="2" fill="#891E2B" />
<rect x="26" y="45" width="1" height="1" fill="#891E2B" />
<rect x="27" y="45" width="1" height="3" fill="#571C27" />
<rect x="32" y="45" width="1" height="2" fill="#891E2B" />
<rect x="34" y="45" width="1" height="2" fill="#891E2B" />
<rect x="36" y="45" width="1" height="5" fill="#571C27" />
<rect x="37" y="45" width="1" height="3" fill="#131313" />
<rect x="9" y="46" width="3" height="1" fill="#131313" />
<rect x="12" y="46" width="1" height="1" fill="#571C27" />
<rect x="16" y="46" width="1" height="4" fill="#571C27" />
<rect x="21" y="46" width="6" height="1" fill="#571C27" />
<rect x="7" y="47" width="2" height="1" fill="#131313" />
<rect x="9" y="47" width="5" height="1" fill="#891E2B" />
<rect x="14" y="47" width="1" height="1" fill="#571C27" />
<rect x="17" y="47" width="7" height="1" fill="#571C27" />
<rect x="24" y="47" width="1" height="1" fill="#891E2B" />
<rect x="25" y="47" width="2" height="1" fill="#571C27" />
<rect x="28" y="47" width="1" height="7" fill="#C42430" />
<rect x="29" y="47" width="3" height="1" fill="#891E2B" />
<rect x="32" y="47" width="3" height="2" fill="#C42430" />
<rect x="6" y="48" width="1" height="1" fill="#131313" />
<rect x="7" y="48" width="1" height="1" fill="#891E2B" />
<rect x="8" y="48" width="5" height="2" fill="#C42430" />
<rect x="13" y="48" width="3" height="1" fill="#891E2B" />
<rect x="17" y="48" width="6" height="2" fill="#571C27" />
<rect x="23" y="48" width="1" height="1" fill="#891E2B" />
<rect x="24" y="48" width="2" height="2" fill="#C42430" />
<rect x="26" y="48" width="1" height="1" fill="#891E2B" />
<rect x="27" y="48" width="1" height="6" fill="#C42430" />
<rect x="29" y="48" width="1" height="2" fill="#C42430" />
<rect x="30" y="48" width="1" height="3" fill="#891E2B" />
<rect x="31" y="48" width="1" height="5" fill="#C42430" />
<rect x="35" y="48" width="1" height="4" fill="#891E2B" />
<rect x="37" y="48" width="1" height="3" fill="#571C27" />
<rect x="38" y="48" width="1" height="2" fill="#131313" />
<rect x="4" y="49" width="2" height="1" fill="#131313" />
<rect x="6" y="49" width="1" height="1" fill="#891E2B" />
<rect x="7" y="49" width="1" height="2" fill="#C42430" />
<rect x="13" y="49" width="1" height="2" fill="#C42430" />
<rect x="14" y="49" width="2" height="1" fill="#891E2B" />
<rect x="23" y="49" width="1" height="5" fill="#C42430" />
<rect x="26" y="49" width="1" height="5" fill="#C42430" />
<rect x="32" y="49" width="2" height="2" fill="#C42430" />
<rect x="34" y="49" width="1" height="2" fill="#891E2B" />
<rect x="3" y="50" width="1" height="1" fill="#131313" />
<rect x="4" y="50" width="1" height="4" fill="#C42430" />
<rect x="5" y="50" width="1" height="1" fill="#891E2B" />
<rect x="6" y="50" width="1" height="4" fill="#C42430" />
<rect x="8" y="50" width="1" height="2" fill="#891E2B" />
<rect x="9" y="50" width="2" height="3" fill="#C42430" />
<rect x="11" y="50" width="2" height="1" fill="#891E2B" />
<rect x="14" y="50" width="1" height="2" fill="#C42430" />
<rect x="15" y="50" width="2" height="5" fill="#891E2B" />
<rect x="17" y="50" width="1" height="2" fill="#571C27" />
<rect x="18" y="50" width="4" height="1" fill="#131313" />
<rect x="22" y="50" width="1" height="1" fill="#891E2B" />
<rect x="24" y="50" width="1" height="2" fill="#C42430" />
<rect x="25" y="50" width="1" height="1" fill="#891E2B" />
<rect x="29" y="50" width="1" height="1" fill="#891E2B" />
<rect x="36" y="50" width="1" height="5" fill="#891E2B" />
<rect x="38" y="50" width="1" height="2" fill="#571C27" />
<rect x="39" y="50" width="1" height="1" fill="#131313" />
<rect x="2" y="51" width="1" height="3" fill="#131313" />
<rect x="3" y="51" width="1" height="2" fill="#C42430" />
<rect x="5" y="51" width="1" height="3" fill="#571C27" />
<rect x="7" y="51" width="1" height="2" fill="#891E2B" />
<rect x="11" y="51" width="1" height="3" fill="#891E2B" />
<rect x="12" y="51" width="1" height="3" fill="#571C27" />
<rect x="13" y="51" width="1" height="1" fill="#891E2B" />
<rect x="18" y="51" width="1" height="7" fill="#131313" />
<rect x="21" y="51" width="1" height="3" fill="#131313" />
<rect x="22" y="51" width="1" height="3" fill="#C42430" />
<rect x="25" y="51" width="1" height="1" fill="#571C27" />
<rect x="29" y="51" width="2" height="3" fill="#571C27" />
<rect x="32" y="51" width="1" height="2" fill="#C42430" />
<rect x="33" y="51" width="1" height="2" fill="#891E2B" />
<rect x="34" y="51" width="1" height="2" fill="#571C27" />
<rect x="37" y="51" width="1" height="4" fill="#891E2B" />
<rect x="39" y="51" width="1" height="2" fill="#571C27" />
<rect x="40" y="51" width="1" height="1" fill="#131313" />
<rect x="8" y="52" width="1" height="3" fill="#571C27" />
<rect x="13" y="52" width="1" height="3" fill="#571C27" />
<rect x="14" y="52" width="1" height="1" fill="#891E2B" />
<rect x="17" y="52" width="1" height="5" fill="#891E2B" />
<rect x="24" y="52" width="1" height="2" fill="#891E2B" />
<rect x="25" y="52" width="1" height="4" fill="#131313" />
<rect x="35" y="52" width="1" height="3" fill="#571C27" />
<rect x="38" y="52" width="1" height="4" fill="#891E2B" />
<rect x="40" y="52" width="1" height="2" fill="#571C27" />
<rect x="41" y="52" width="1" height="1" fill="#131313" />
<rect x="49" y="52" width="11" height="2" fill="#131313" />
<rect x="3" y="53" width="1" height="1" fill="#891E2B" />
<rect x="7" y="53" width="1" height="2" fill="#C42430" />
<rect x="9" y="53" width="1" height="1" fill="#891E2B" />
<rect x="10" y="53" width="1" height="1" fill="#C42430" />
<rect x="14" y="53" width="1" height="3" fill="#571C27" />
<rect x="31" y="53" width="1" height="1" fill="#3D3D3D" />
<rect x="32" y="53" width="1" height="2" fill="#131313" />
<rect x="33" y="53" width="1" height="1" fill="#571C27" />
<rect x="34" y="53" width="1" height="1" fill="#891E2B" />
<rect x="39" y="53" width="1" height="3" fill="#891E2B" />
<rect x="41" y="53" width="1" height="2" fill="#571C27" />
<rect x="42" y="53" width="2" height="1" fill="#131313" />
<rect x="47" y="53" width="2" height="2" fill="#131313" />
<rect x="60" y="53" width="2" height="3" fill="#131313" />
<rect x="3" y="54" width="1" height="1" fill="#131313" />
<rect x="4" y="54" width="1" height="1" fill="#3D3D3D" />
<rect x="5" y="54" width="1" height="3" fill="#131313" />
<rect x="6" y="54" width="1" height="1" fill="#891E2B" />
<rect x="9" y="54" width="1" height="3" fill="#131313" />
<rect x="10" y="54" width="1" height="1" fill="#3D3D3D" />
<rect x="11" y="54" width="2" height="2" fill="#131313" />
<rect x="22" y="54" width="1" height="1" fill="#131313" />
<rect x="23" y="54" width="1" height="1" fill="#3D3D3D" />
<rect x="24" y="54" width="1" height="3" fill="#131313" />
<rect x="26" y="54" width="1" height="1" fill="#131313" />
<rect x="27" y="54" width="1" height="1" fill="#3D3D3D" />
<rect x="28" y="54" width="1" height="3" fill="#131313" />
<rect x="29" y="54" width="1" height="1" fill="#891E2B" />
<rect x="30" y="54" width="2" height="1" fill="#571C27" />
<rect x="33" y="54" width="1" height="2" fill="#891E2B" />
<rect x="34" y="54" width="1" height="2" fill="#571C27" />
<rect x="40" y="54" width="1" height="3" fill="#891E2B" />
<rect x="42" y="54" width="2" height="2" fill="#571C27" />
<rect x="44" y="54" width="3" height="1" fill="#131313" />
<rect x="49" y="54" width="11" height="1" fill="#272727" />
<rect x="62" y="54" width="1" height="1" fill="#131313" />
<rect x="4" y="55" width="1" height="1" fill="#131313" />
<rect x="6" y="55" width="1" height="1" fill="#131313" />
<rect x="7" y="55" width="1" height="1" fill="#3D3D3D" />
<rect x="8" y="55" width="1" height="3" fill="#131313" />
<rect x="10" y="55" width="1" height="1" fill="#131313" />
<rect x="13" y="55" width="1" height="1" fill="#131313" />
<rect x="15" y="55" width="1" height="2" fill="#C42430" />
<rect x="16" y="55" width="1" height="3" fill="#891E2B" />
<rect x="23" y="55" width="1" height="1" fill="#131313" />
<rect x="27" y="55" width="1" height="1" fill="#131313" />
<rect x="29" y="55" width="1" height="4" fill="#131313" />
<rect x="30" y="55" width="1" height="2" fill="#571C27" />
<rect x="31" y="55" width="2" height="1" fill="#891E2B" />
<rect x="35" y="55" width="1" height="1" fill="#131313" />
<rect x="36" y="55" width="2" height="1" fill="#571C27" />
<rect x="41" y="55" width="1" height="2" fill="#891E2B" />
<rect x="44" y="55" width="1" height="2" fill="#571C27" />
<rect x="45" y="55" width="2" height="1" fill="#131313" />
<rect x="47" y="55" width="2" height="1" fill="#272727" />
<rect x="49" y="55" width="9" height="1" fill="#3D3D3D" />
<rect x="58" y="55" width="1" height="2" fill="#272727" />
<rect x="59" y="55" width="1" height="4" fill="#131313" />
<rect x="7" y="56" width="1" height="1" fill="#131313" />
<rect x="11" y="56" width="1" height="1" fill="#131313" />
<rect x="14" y="56" width="1" height="1" fill="#131313" />
<rect x="31" y="56" width="1" height="2" fill="#C42430" />
<rect x="32" y="56" width="1" height="2" fill="#891E2B" />
<rect x="33" y="56" width="1" height="1" fill="#571C27" />
<rect x="34" y="56" width="1" height="1" fill="#131313" />
<rect x="36" y="56" width="1" height="1" fill="#131313" />
<rect x="37" y="56" width="3" height="1" fill="#571C27" />
<rect x="42" y="56" width="1" height="1" fill="#891E2B" />
<rect x="43" y="56" width="1" height="1" fill="#571C27" />
<rect x="45" y="56" width="2" height="4" fill="#571C27" />
<rect x="47" y="56" width="2" height="2" fill="#131313" />
<rect x="49" y="56" width="1" height="1" fill="#272727" />
<rect x="50" y="56" width="8" height="1" fill="#3D3D3D" />
<rect x="60" y="56" width="1" height="1" fill="#131313" />
<rect x="13" y="57" width="1" height="1" fill="#131313" />
<rect x="14" y="57" width="1" height="1" fill="#3D3D3D" />
<rect x="15" y="57" width="1" height="1" fill="#891E2B" />
<rect x="17" y="57" width="1" height="1" fill="#571C27" />
<rect x="30" y="57" width="1" height="1" fill="#891E2B" />
<rect x="33" y="57" width="1" height="2" fill="#131313" />
<rect x="37" y="57" width="2" height="1" fill="#131313" />
<rect x="39" y="57" width="4" height="1" fill="#571C27" />
<rect x="43" y="57" width="2" height="1" fill="#891E2B" />
<rect x="49" y="57" width="1" height="6" fill="#131313" />
<rect x="50" y="57" width="1" height="2" fill="#272727" />
<rect x="51" y="57" width="2" height="1" fill="#3D3D3D" />
<rect x="53" y="57" width="1" height="2" fill="#272727" />
<rect x="54" y="57" width="1" height="1" fill="#3D3D3D" />
<rect x="55" y="57" width="3" height="1" fill="#272727" />
<rect x="58" y="57" width="1" height="3" fill="#131313" />
<rect x="12" y="58" width="1" height="1" fill="#131313" />
<rect x="13" y="58" width="1" height="1" fill="#3D3D3D" />
<rect x="14" y="58" width="1" height="2" fill="#131313" />
<rect x="15" y="58" width="1" height="1" fill="#571C27" />
<rect x="16" y="58" width="2" height="1" fill="#131313" />
<rect x="30" y="58" width="1" height="1" fill="#3D3D3D" />
<rect x="31" y="58" width="1" height="1" fill="#891E2B" />
<rect x="32" y="58" width="1" height="1" fill="#571C27" />
<rect x="39" y="58" width="3" height="1" fill="#131313" />
<rect x="42" y="58" width="3" height="1" fill="#571C27" />
<rect x="47" y="58" width="1" height="1" fill="#571C27" />
<rect x="48" y="58" width="1" height="5" fill="#131313" />
<rect x="51" y="58" width="2" height="1" fill="#272727" />
<rect x="54" y="58" width="1" height="1" fill="#272727" />
<rect x="55" y="58" width="1" height="4" fill="#131313" />
<rect x="56" y="58" width="2" height="1" fill="#272727" />
<rect x="13" y="59" width="1" height="1" fill="#131313" />
<rect x="15" y="59" width="1" height="1" fill="#131313" />
<rect x="28" y="59" width="1" height="1" fill="#131313" />
<rect x="29" y="59" width="1" height="1" fill="#3D3D3D" />
<rect x="30" y="59" width="1" height="2" fill="#131313" />
<rect x="31" y="59" width="1" height="1" fill="#571C27" />
<rect x="32" y="59" width="1" height="1" fill="#131313" />
<rect x="42" y="59" width="2" height="1" fill="#131313" />
<rect x="44" y="59" width="1" height="1" fill="#571C27" />
<rect x="47" y="59" width="1" height="3" fill="#131313" />
<rect x="50" y="59" width="5" height="3" fill="#131313" />
<rect x="56" y="59" width="2" height="2" fill="#131313" />
<rect x="29" y="60" width="1" height="1" fill="#131313" />
<rect x="31" y="60" width="1" height="1" fill="#131313" />
<rect x="44" y="60" width="3" height="1" fill="#131313" />
<rect x="46" y="61" width="1" height="1" fill="#131313" />
<rect x="50" y="62" width="4" height="1" fill="#131313" />
</svg>