<?xml version="1.0" encoding="UTF-8" ?>
<svg version="1.1" width="63" height="63" xmlns="http://www.w3.org/2000/svg" shape-rendering="crispEdges">
<rect x="12" y="0" width="1" height="4" fill="#FFFFFF" />
<rect x="10" y="1" width="2" height="6" fill="#FFFFFF" />
<rect x="13" y="1" width="1" height="2" fill="#FFFFFF" />
<rect x="35" y="1" width="1" height="5" fill="#FFFFFF" />
<rect x="9" y="2" width="1" height="25" fill="#FFFFFF" />
<rect x="34" y="2" width="1" height="2" fill="#FFFFFF" />
<rect x="36" y="2" width="2" height="6" fill="#FFFFFF" />
<rect x="8" y="3" width="1" height="23" fill="#FFFFFF" />
<rect x="38" y="3" width="1" height="25" fill="#FFFFFF" />
<rect x="7" y="4" width="1" height="21" fill="#FFFFFF" />
<rect x="6" y="5" width="1" height="19" fill="#FFFFFF" />
<rect x="39" y="5" width="1" height="24" fill="#FFFFFF" />
<rect x="40" y="6" width="1" height="18" fill="#FFFFFF" />
<rect x="5" y="7" width="1" height="16" fill="#FFFFFF" />
<rect x="10" y="7" width="1" height="36" fill="#FFFFFF" />
<rect x="41" y="7" width="1" height="15" fill="#FFFFFF" />
<rect x="37" y="8" width="1" height="19" fill="#FFFFFF" />
<rect x="4" y="9" width="1" height="11" fill="#FFFFFF" />
<rect x="3" y="10" width="1" height="8" fill="#FFFFFF" />
<rect x="11" y="10" width="1" height="35" fill="#FFFFFF" />
<rect x="42" y="10" width="1" height="10" fill="#FFFFFF" />
<rect x="36" y="11" width="1" height="16" fill="#FFFFFF" />
<rect x="35" y="12" width="1" height="44" fill="#FFFFFF" />
<rect x="43" y="12" width="1" height="5" fill="#FFFFFF" />
<rect x="12" y="13" width="1" height="43" fill="#FFFFFF" />
<rect x="34" y="14" width="1" height="43" fill="#FFFFFF" />
<rect x="13" y="15" width="1" height="41" fill="#FFFFFF" />
<rect x="33" y="15" width="1" height="44" fill="#FFFFFF" />
<rect x="14" y="17" width="1" height="43" fill="#FFFFFF" />
<rect x="32" y="17" width="1" height="43" fill="#FFFFFF" />
<rect x="15" y="18" width="2" height="41" fill="#FFFFFF" />
<rect x="31" y="18" width="1" height="43" fill="#FFFFFF" />
<rect x="17" y="19" width="8" height="32" fill="#FFFFFF" />
<rect x="28" y="19" width="3" height="38" fill="#FFFFFF" />
<rect x="25" y="20" width="3" height="35" fill="#FFFFFF" />
<rect x="40" y="25" width="1" height="5" fill="#FFFFFF" />
<rect x="41" y="26" width="3" height="13" fill="#FFFFFF" />
<rect x="6" y="27" width="2" height="11" fill="#FFFFFF" />
<rect x="44" y="27" width="2" height="13" fill="#FFFFFF" />
<rect x="5" y="28" width="1" height="11" fill="#FFFFFF" />
<rect x="8" y="28" width="1" height="1" fill="#FFFFFF" />
<rect x="36" y="28" width="1" height="29" fill="#FFFFFF" />
<rect x="46" y="28" width="2" height="11" fill="#FFFFFF" />
<rect x="4" y="29" width="1" height="10" fill="#FFFFFF" />
<rect x="48" y="29" width="2" height="14" fill="#FFFFFF" />
<rect x="3" y="30" width="1" height="14" fill="#FFFFFF" />
<rect x="8" y="30" width="1" height="9" fill="#FFFFFF" />
<rect x="50" y="30" width="2" height="14" fill="#FFFFFF" />
<rect x="2" y="31" width="1" height="14" fill="#FFFFFF" />
<rect x="9" y="31" width="1" height="9" fill="#FFFFFF" />
<rect x="37" y="31" width="1" height="9" fill="#FFFFFF" />
<rect x="40" y="31" width="1" height="10" fill="#FFFFFF" />
<rect x="52" y="31" width="1" height="7" fill="#FFFFFF" />
<rect x="1" y="32" width="1" height="12" fill="#FFFFFF" />
<rect x="38" y="32" width="2" height="8" fill="#FFFFFF" />
<rect x="53" y="32" width="1" height="5" fill="#FFFFFF" />
<rect x="54" y="33" width="1" height="3" fill="#FFFFFF" />
<rect x="55" y="34" width="1" height="1" fill="#FFFFFF" />
<rect x="0" y="35" width="1" height="6" fill="#FFFFFF" />
<rect x="6" y="38" width="1" height="1" fill="#FFFFFF" />
<rect x="41" y="39" width="1" height="1" fill="#FFFFFF" />
<rect x="43" y="39" width="1" height="1" fill="#FFFFFF" />
<rect x="46" y="39" width="1" height="1" fill="#FFFFFF" />
<rect x="39" y="40" width="1" height="1" fill="#FFFFFF" />
<rect x="45" y="40" width="1" height="1" fill="#FFFFFF" />
<rect x="49" y="43" width="1" height="1" fill="#FFFFFF" />
<rect x="50" y="44" width="1" height="1" fill="#FFFFFF" />
<rect x="37" y="45" width="1" height="13" fill="#FFFFFF" />
<rect x="9" y="46" width="3" height="10" fill="#FFFFFF" />
<rect x="7" y="47" width="2" height="10" fill="#FFFFFF" />
<rect x="6" y="48" width="1" height="8" fill="#FFFFFF" />
<rect x="38" y="48" width="1" height="10" fill="#FFFFFF" />
<rect x="4" y="49" width="2" height="7" fill="#FFFFFF" />
<rect x="3" y="50" width="1" height="5" fill="#FFFFFF" />
<rect x="39" y="50" width="1" height="9" fill="#FFFFFF" />
<rect x="2" y="51" width="1" height="3" fill="#FFFFFF" />
<rect x="17" y="51" width="2" height="7" fill="#FFFFFF" />
<rect x="21" y="51" width="4" height="3" fill="#FFFFFF" />
<rect x="40" y="51" width="1" height="8" fill="#FFFFFF" />
<rect x="41" y="52" width="1" height="7" fill="#FFFFFF" />
<rect x="49" y="52" width="11" height="7" fill="#FFFFFF" />
<rect x="42" y="53" width="2" height="7" fill="#FFFFFF" />
<rect x="47" y="53" width="2" height="9" fill="#FFFFFF" />
<rect x="60" y="53" width="2" height="3" fill="#FFFFFF" />
<rect x="22" y="54" width="3" height="1" fill="#FFFFFF" />
<rect x="44" y="54" width="3" height="7" fill="#FFFFFF" />
<rect x="62" y="54" width="1" height="1" fill="#FFFFFF" />
<rect x="23" y="55" width="3" height="1" fill="#FFFFFF" />
<rect x="27" y="55" width="1" height="1" fill="#FFFFFF" />
<rect x="5" y="56" width="1" height="1" fill="#FFFFFF" />
<rect x="9" y="56" width="1" height="1" fill="#FFFFFF" />
<rect x="11" y="56" width="1" height="1" fill="#FFFFFF" />
<rect x="24" y="56" width="1" height="1" fill="#FFFFFF" />
<rect x="60" y="56" width="1" height="1" fill="#FFFFFF" />
<rect x="8" y="57" width="1" height="1" fill="#FFFFFF" />
<rect x="13" y="57" width="1" height="3" fill="#FFFFFF" />
<rect x="29" y="57" width="2" height="4" fill="#FFFFFF" />
<rect x="12" y="58" width="1" height="1" fill="#FFFFFF" />
<rect x="17" y="58" width="1" height="1" fill="#FFFFFF" />
<rect x="15" y="59" width="1" height="1" fill="#FFFFFF" />
<rect x="28" y="59" width="1" height="1" fill="#FFFFFF" />
<rect x="49" y="59" width="10" height="1" fill="#FFFFFF" />
<rect x="49" y="60" width="9" height="1" fill="#FFFFFF" />
<rect x="46" y="61" width="1" height="1" fill="#FFFFFF" />
<rect x="49" y="61" width="7" height="1" fill="#FFFFFF" />
<rect x="48" y="62" width="6" height="1" fill="#FFFFFF" />
</svg>