<?xml version="1.0" encoding="UTF-8" ?>
<svg version="1.1" width="33" height="39" xmlns="http://www.w3.org/2000/svg" shape-rendering="crispEdges">
<rect x="9" y="0" width="4" height="1" fill="#391F21" />
<rect x="20" y="0" width="2" height="1" fill="#FFFFFF" />
<rect x="22" y="0" width="1" height="35" fill="#C7CFDD" />
<rect x="7" y="1" width="3" height="4" fill="#391F21" />
<rect x="10" y="1" width="2" height="1" fill="#5D2C28" />
<rect x="12" y="1" width="3" height="1" fill="#391F21" />
<rect x="20" y="1" width="1" height="3" fill="#FFFFFF" />
<rect x="21" y="1" width="1" height="35" fill="#C7CFDD" />
<rect x="23" y="1" width="1" height="34" fill="#C7CFDD" />
<rect x="6" y="2" width="1" height="9" fill="#391F21" />
<rect x="10" y="2" width="1" height="3" fill="#391F21" />
<rect x="11" y="2" width="3" height="1" fill="#5D2C28" />
<rect x="14" y="2" width="2" height="1" fill="#391F21" />
<rect x="16" y="2" width="2" height="2" fill="#F6CA9F" />
<rect x="18" y="2" width="1" height="2" fill="#E69C69" />
<rect x="19" y="2" width="1" height="5" fill="#FFFFFF" />
<rect x="24" y="2" width="2" height="32" fill="#C7CFDD" />
<rect x="11" y="3" width="1" height="1" fill="#391F21" />
<rect x="12" y="3" width="3" height="3" fill="#5D2C28" />
<rect x="15" y="3" width="1" height="2" fill="#391F21" />
<rect x="26" y="3" width="1" height="30" fill="#C7CFDD" />
<rect x="5" y="4" width="1" height="7" fill="#391F21" />
<rect x="11" y="4" width="1" height="4" fill="#5D2C28" />
<rect x="16" y="4" width="1" height="2" fill="#391F21" />
<rect x="17" y="4" width="1" height="1" fill="#E69C69" />
<rect x="20" y="4" width="1" height="10" fill="#C7CFDD" />
<rect x="27" y="4" width="1" height="28" fill="#C7CFDD" />
<rect x="7" y="5" width="2" height="1" fill="#391F21" />
<rect x="9" y="5" width="2" height="2" fill="#5D2C28" />
<rect x="15" y="5" width="1" height="2" fill="#5D2C28" />
<rect x="18" y="5" width="1" height="5" fill="#FFFFFF" />
<rect x="28" y="5" width="1" height="26" fill="#C7CFDD" />
<rect x="3" y="6" width="2" height="1" fill="#391F21" />
<rect x="7" y="6" width="2" height="1" fill="#5D2C28" />
<rect x="12" y="6" width="1" height="2" fill="#5D2C28" />
<rect x="13" y="6" width="2" height="2" fill="#391F21" />
<rect x="16" y="6" width="1" height="1" fill="#5D2C28" />
<rect x="17" y="6" width="1" height="1" fill="#391F21" />
<rect x="4" y="7" width="1" height="1" fill="#391F21" />
<rect x="7" y="7" width="3" height="3" fill="#391F21" />
<rect x="10" y="7" width="1" height="2" fill="#5D2C28" />
<rect x="15" y="7" width="2" height="1" fill="#391F21" />
<rect x="19" y="7" width="1" height="5" fill="#C7CFDD" />
<rect x="29" y="7" width="1" height="22" fill="#C7CFDD" />
<rect x="11" y="8" width="2" height="1" fill="#391F21" />
<rect x="13" y="8" width="1" height="1" fill="#BF6F4A" />
<rect x="14" y="8" width="1" height="1" fill="#1C121C" />
<rect x="15" y="8" width="1" height="2" fill="#391F21" />
<rect x="17" y="8" width="1" height="3" fill="#FFFFFF" />
<rect x="4" y="9" width="1" height="1" fill="#391F21" />
<rect x="10" y="9" width="1" height="1" fill="#391F21" />
<rect x="11" y="9" width="1" height="1" fill="#1C121C" />
<rect x="12" y="9" width="1" height="1" fill="#BF6F4A" />
<rect x="13" y="9" width="1" height="2" fill="#E69C69" />
<rect x="14" y="9" width="1" height="1" fill="#0069AA" />
<rect x="30" y="9" width="1" height="18" fill="#C7CFDD" />
<rect x="7" y="10" width="2" height="2" fill="#391F21" />
<rect x="9" y="10" width="1" height="2" fill="#E69C69" />
<rect x="10" y="10" width="1" height="1" fill="#FFFFFF" />
<rect x="11" y="10" width="1" height="1" fill="#0069AA" />
<rect x="12" y="10" width="1" height="1" fill="#E69C69" />
<rect x="14" y="10" width="1" height="2" fill="#E69C69" />
<rect x="18" y="10" width="1" height="2" fill="#92A1B9" />
<rect x="4" y="11" width="2" height="2" fill="#C42430" />
<rect x="6" y="11" width="1" height="1" fill="#891E2B" />
<rect x="10" y="11" width="1" height="2" fill="#E69C69" />
<rect x="11" y="11" width="3" height="1" fill="#F6CA9F" />
<rect x="15" y="11" width="1" height="3" fill="#424C6E" />
<rect x="16" y="11" width="1" height="1" fill="#92A1B9" />
<rect x="17" y="11" width="1" height="1" fill="#C7CFDD" />
<rect x="3" y="12" width="1" height="1" fill="#891E2B" />
<rect x="6" y="12" width="1" height="3" fill="#C42430" />
<rect x="7" y="12" width="1" height="4" fill="#891E2B" />
<rect x="8" y="12" width="1" height="1" fill="#391F21" />
<rect x="9" y="12" width="1" height="1" fill="#B4B4B4" />
<rect x="11" y="12" width="3" height="1" fill="#E69C69" />
<rect x="14" y="12" width="1" height="1" fill="#2A2F4E" />
<rect x="16" y="12" width="1" height="2" fill="#424C6E" />
<rect x="17" y="12" width="1" height="1" fill="#92A1B9" />
<rect x="18" y="12" width="2" height="3" fill="#2A2F4E" />
<rect x="31" y="12" width="1" height="12" fill="#C7CFDD" />
<rect x="3" y="13" width="1" height="2" fill="#131313" />
<rect x="4" y="13" width="1" height="1" fill="#891E2B" />
<rect x="5" y="13" width="1" height="1" fill="#C42430" />
<rect x="8" y="13" width="2" height="1" fill="#891E2B" />
<rect x="10" y="13" width="2" height="1" fill="#5D2C28" />
<rect x="12" y="13" width="1" height="2" fill="#571C27" />
<rect x="13" y="13" width="1" height="1" fill="#272727" />
<rect x="17" y="13" width="1" height="1" fill="#2A2F4E" />
<rect x="4" y="14" width="1" height="1" fill="#3D3D3D" />
<rect x="5" y="14" width="1" height="1" fill="#891E2B" />
<rect x="8" y="14" width="1" height="1" fill="#891E2B" />
<rect x="9" y="14" width="1" height="1" fill="#5D2C28" />
<rect x="10" y="14" width="2" height="1" fill="#8A4836" />
<rect x="14" y="14" width="3" height="1" fill="#E69C69" />
<rect x="20" y="14" width="1" height="1" fill="#2A2F4E" />
<rect x="3" y="15" width="1" height="7" fill="#571C27" />
<rect x="4" y="15" width="2" height="1" fill="#272727" />
<rect x="6" y="15" width="1" height="1" fill="#891E2B" />
<rect x="8" y="15" width="3" height="1" fill="#571C27" />
<rect x="11" y="15" width="1" height="1" fill="#8A4836" />
<rect x="12" y="15" width="1" height="3" fill="#B4B4B4" />
<rect x="13" y="15" width="1" height="2" fill="#E69C69" />
<rect x="14" y="15" width="3" height="1" fill="#F6CA9F" />
<rect x="2" y="16" width="1" height="5" fill="#571C27" />
<rect x="4" y="16" width="1" height="6" fill="#571C27" />
<rect x="5" y="16" width="5" height="1" fill="#272727" />
<rect x="10" y="16" width="2" height="1" fill="#B4B4B4" />
<rect x="14" y="16" width="2" height="1" fill="#F6CA9F" />
<rect x="20" y="16" width="1" height="20" fill="#C7CFDD" />
<rect x="32" y="16" width="1" height="4" fill="#C7CFDD" />
<rect x="1" y="17" width="1" height="3" fill="#571C27" />
<rect x="5" y="17" width="1" height="4" fill="#571C27" />
<rect x="6" y="17" width="4" height="1" fill="#272727" />
<rect x="10" y="17" width="2" height="1" fill="#FFFFFF" />
<rect x="13" y="17" width="2" height="1" fill="#2A2F4E" />
<rect x="6" y="18" width="1" height="2" fill="#571C27" />
<rect x="7" y="18" width="3" height="1" fill="#272727" />
<rect x="10" y="18" width="1" height="1" fill="#B4B4B4" />
<rect x="11" y="18" width="1" height="2" fill="#891E2B" />
<rect x="12" y="18" width="4" height="1" fill="#571C27" />
<rect x="19" y="18" width="1" height="19" fill="#C7CFDD" />
<rect x="7" y="19" width="1" height="2" fill="#131313" />
<rect x="8" y="19" width="1" height="3" fill="#272727" />
<rect x="9" y="19" width="2" height="1" fill="#3D3D3D" />
<rect x="12" y="19" width="1" height="2" fill="#891E2B" />
<rect x="13" y="19" width="3" height="1" fill="#571C27" />
<rect x="6" y="20" width="1" height="3" fill="#131313" />
<rect x="9" y="20" width="1" height="3" fill="#272727" />
<rect x="10" y="20" width="2" height="1" fill="#3D3D3D" />
<rect x="13" y="20" width="1" height="2" fill="#891E2B" />
<rect x="14" y="20" width="2" height="1" fill="#571C27" />
<rect x="18" y="20" width="1" height="17" fill="#C7CFDD" />
<rect x="1" y="21" width="2" height="3" fill="#131313" />
<rect x="5" y="21" width="1" height="3" fill="#131313" />
<rect x="10" y="21" width="1" height="4" fill="#272727" />
<rect x="11" y="21" width="2" height="2" fill="#3D3D3D" />
<rect x="14" y="21" width="1" height="1" fill="#891E2B" />
<rect x="17" y="21" width="1" height="16" fill="#C7CFDD" />
<rect x="3" y="22" width="2" height="3" fill="#131313" />
<rect x="13" y="22" width="1" height="2" fill="#3D3D3D" />
<rect x="14" y="22" width="1" height="2" fill="#272727" />
<rect x="11" y="23" width="1" height="3" fill="#272727" />
<rect x="12" y="23" width="1" height="1" fill="#3D3D3D" />
<rect x="16" y="23" width="1" height="15" fill="#C7CFDD" />
<rect x="1" y="24" width="1" height="2" fill="#5D2C28" />
<rect x="2" y="24" width="1" height="1" fill="#131313" />
<rect x="12" y="24" width="2" height="2" fill="#272727" />
<rect x="15" y="24" width="1" height="14" fill="#C7CFDD" />
<rect x="2" y="25" width="1" height="1" fill="#5D2C28" />
<rect x="14" y="25" width="1" height="13" fill="#C7CFDD" />
<rect x="1" y="26" width="2" height="1" fill="#BF6F4A" />
<rect x="11" y="26" width="3" height="12" fill="#C7CFDD" />
<rect x="7" y="27" width="4" height="12" fill="#C7CFDD" />
<rect x="4" y="28" width="3" height="11" fill="#C7CFDD" />
<rect x="3" y="29" width="1" height="10" fill="#C7CFDD" />
<rect x="2" y="31" width="1" height="8" fill="#C7CFDD" />
<rect x="1" y="34" width="1" height="5" fill="#C7CFDD" />
<rect x="0" y="36" width="1" height="3" fill="#C7CFDD" />
<rect x="11" y="38" width="2" height="1" fill="#C7CFDD" />
</svg>