<?xml version="1.0" encoding="UTF-8" ?>
<svg version="1.1" width="34" height="32" xmlns="http://www.w3.org/2000/svg" shape-rendering="crispEdges">
<rect x="17" y="0" width="8" height="2" fill="#92A1B9" />
<rect x="9" y="1" width="8" height="1" fill="#92A1B9" />
<rect x="25" y="1" width="6" height="2" fill="#92A1B9" />
<rect x="4" y="2" width="9" height="1" fill="#92A1B9" />
<rect x="13" y="2" width="2" height="3" fill="#391F21" />
<rect x="15" y="2" width="2" height="1" fill="#5D2C28" />
<rect x="17" y="2" width="1" height="1" fill="#391F21" />
<rect x="18" y="2" width="7" height="1" fill="#92A1B9" />
<rect x="31" y="2" width="3" height="1" fill="#92A1B9" />
<rect x="0" y="3" width="1" height="3" fill="#FFFFFF" />
<rect x="1" y="3" width="3" height="1" fill="#C7CFDD" />
<rect x="4" y="3" width="7" height="1" fill="#92A1B9" />
<rect x="11" y="3" width="2" height="3" fill="#391F21" />
<rect x="15" y="3" width="1" height="2" fill="#391F21" />
<rect x="16" y="3" width="3" height="1" fill="#5D2C28" />
<rect x="19" y="3" width="11" height="1" fill="#92A1B9" />
<rect x="1" y="4" width="1" height="3" fill="#FFFFFF" />
<rect x="2" y="4" width="4" height="1" fill="#C7CFDD" />
<rect x="6" y="4" width="4" height="1" fill="#92A1B9" />
<rect x="10" y="4" width="1" height="7" fill="#391F21" />
<rect x="16" y="4" width="1" height="1" fill="#391F21" />
<rect x="17" y="4" width="2" height="3" fill="#5D2C28" />
<rect x="19" y="4" width="1" height="2" fill="#391F21" />
<rect x="20" y="4" width="5" height="1" fill="#92A1B9" />
<rect x="2" y="5" width="2" height="2" fill="#FFFFFF" />
<rect x="4" y="5" width="1" height="1" fill="#92A1B9" />
<rect x="5" y="5" width="3" height="1" fill="#C7CFDD" />
<rect x="8" y="5" width="1" height="1" fill="#92A1B9" />
<rect x="9" y="5" width="1" height="5" fill="#391F21" />
<rect x="13" y="5" width="1" height="1" fill="#391F21" />
<rect x="14" y="5" width="3" height="2" fill="#5D2C28" />
<rect x="20" y="5" width="1" height="1" fill="#5D2C28" />
<rect x="21" y="5" width="1" height="1" fill="#92A1B9" />
<rect x="4" y="6" width="1" height="2" fill="#FFFFFF" />
<rect x="5" y="6" width="2" height="1" fill="#92A1B9" />
<rect x="7" y="6" width="1" height="1" fill="#C7CFDD" />
<rect x="8" y="6" width="1" height="2" fill="#391F21" />
<rect x="11" y="6" width="1" height="6" fill="#391F21" />
<rect x="12" y="6" width="2" height="1" fill="#5D2C28" />
<rect x="19" y="6" width="1" height="3" fill="#5D2C28" />
<rect x="20" y="6" width="1" height="2" fill="#391F21" />
<rect x="3" y="7" width="1" height="1" fill="#FFFFFF" />
<rect x="5" y="7" width="2" height="2" fill="#FFFFFF" />
<rect x="7" y="7" width="1" height="1" fill="#391F21" />
<rect x="12" y="7" width="3" height="3" fill="#391F21" />
<rect x="15" y="7" width="3" height="1" fill="#5D2C28" />
<rect x="18" y="7" width="1" height="2" fill="#391F21" />
<rect x="7" y="8" width="2" height="1" fill="#FFFFFF" />
<rect x="15" y="8" width="1" height="1" fill="#5D2C28" />
<rect x="16" y="8" width="1" height="1" fill="#391F21" />
<rect x="17" y="8" width="1" height="1" fill="#5D2C28" />
<rect x="20" y="8" width="1" height="1" fill="#5D2C28" />
<rect x="7" y="9" width="1" height="1" fill="#FFFFFF" />
<rect x="8" y="9" width="1" height="1" fill="#391F21" />
<rect x="15" y="9" width="1" height="1" fill="#391F21" />
<rect x="16" y="9" width="1" height="1" fill="#1C121C" />
<rect x="17" y="9" width="1" height="1" fill="#391F21" />
<rect x="18" y="9" width="1" height="1" fill="#BF6F4A" />
<rect x="19" y="9" width="3" height="1" fill="#391F21" />
<rect x="9" y="10" width="1" height="1" fill="#FFFFFF" />
<rect x="12" y="10" width="1" height="2" fill="#391F21" />
<rect x="13" y="10" width="1" height="2" fill="#BF6F4A" />
<rect x="14" y="10" width="1" height="3" fill="#391F21" />
<rect x="15" y="10" width="1" height="1" fill="#FFFFFF" />
<rect x="16" y="10" width="1" height="1" fill="#0069AA" />
<rect x="17" y="10" width="2" height="1" fill="#E69C69" />
<rect x="19" y="10" width="1" height="1" fill="#391F21" />
<rect x="10" y="11" width="1" height="3" fill="#571C27" />
<rect x="15" y="11" width="4" height="1" fill="#F6CA9F" />
<rect x="19" y="11" width="1" height="1" fill="#1C121C" />
<rect x="8" y="12" width="2" height="2" fill="#571C27" />
<rect x="11" y="12" width="2" height="1" fill="#571C27" />
<rect x="13" y="12" width="1" height="1" fill="#858585" />
<rect x="15" y="12" width="1" height="1" fill="#E69C69" />
<rect x="16" y="12" width="2" height="1" fill="#F6CA9F" />
<rect x="18" y="12" width="1" height="1" fill="#E69C69" />
<rect x="19" y="12" width="1" height="1" fill="#B4B4B4" />
<rect x="7" y="13" width="1" height="2" fill="#272727" />
<rect x="11" y="13" width="1" height="9" fill="#891E2B" />
<rect x="12" y="13" width="2" height="1" fill="#571C27" />
<rect x="14" y="13" width="2" height="2" fill="#891E2B" />
<rect x="16" y="13" width="2" height="1" fill="#E69C69" />
<rect x="18" y="13" width="1" height="1" fill="#C42430" />
<rect x="19" y="13" width="1" height="1" fill="#891E2B" />
<rect x="6" y="14" width="1" height="3" fill="#B4B4B4" />
<rect x="8" y="14" width="1" height="3" fill="#272727" />
<rect x="9" y="14" width="1" height="5" fill="#571C27" />
<rect x="10" y="14" width="1" height="8" fill="#891E2B" />
<rect x="12" y="14" width="1" height="7" fill="#891E2B" />
<rect x="13" y="14" width="1" height="3" fill="#571C27" />
<rect x="16" y="14" width="2" height="2" fill="#C42430" />
<rect x="18" y="14" width="1" height="1" fill="#891E2B" />
<rect x="19" y="14" width="1" height="1" fill="#131313" />
<rect x="5" y="15" width="1" height="3" fill="#B4B4B4" />
<rect x="7" y="15" width="1" height="1" fill="#B4B4B4" />
<rect x="14" y="15" width="1" height="6" fill="#571C27" />
<rect x="15" y="15" width="1" height="2" fill="#891E2B" />
<rect x="18" y="15" width="1" height="1" fill="#272727" />
<rect x="4" y="16" width="1" height="1" fill="#FFFFFF" />
<rect x="16" y="16" width="2" height="1" fill="#891E2B" />
<rect x="3" y="17" width="2" height="1" fill="#E69C69" />
<rect x="13" y="17" width="1" height="2" fill="#891E2B" />
<rect x="15" y="17" width="2" height="1" fill="#571C27" />
<rect x="3" y="18" width="1" height="1" fill="#F6CA9F" />
<rect x="4" y="18" width="1" height="1" fill="#E69C69" />
<rect x="8" y="18" width="1" height="3" fill="#571C27" />
<rect x="15" y="18" width="1" height="1" fill="#571C27" />
<rect x="6" y="19" width="2" height="4" fill="#571C27" />
<rect x="9" y="19" width="1" height="4" fill="#891E2B" />
<rect x="13" y="19" width="1" height="1" fill="#571C27" />
<rect x="5" y="20" width="1" height="2" fill="#571C27" />
<rect x="13" y="20" width="1" height="8" fill="#131313" />
<rect x="15" y="20" width="1" height="2" fill="#571C27" />
<rect x="8" y="21" width="1" height="2" fill="#891E2B" />
<rect x="12" y="21" width="1" height="2" fill="#272727" />
<rect x="14" y="21" width="1" height="7" fill="#131313" />
<rect x="16" y="21" width="1" height="2" fill="#571C27" />
<rect x="10" y="22" width="2" height="1" fill="#3D3D3D" />
<rect x="15" y="22" width="1" height="5" fill="#131313" />
<rect x="6" y="23" width="1" height="7" fill="#272727" />
<rect x="7" y="23" width="4" height="1" fill="#3D3D3D" />
<rect x="11" y="23" width="1" height="2" fill="#272727" />
<rect x="12" y="23" width="1" height="4" fill="#131313" />
<rect x="7" y="24" width="3" height="2" fill="#3D3D3D" />
<rect x="10" y="24" width="1" height="3" fill="#272727" />
<rect x="5" y="25" width="1" height="4" fill="#272727" />
<rect x="11" y="25" width="1" height="1" fill="#131313" />
<rect x="7" y="26" width="3" height="2" fill="#272727" />
<rect x="7" y="28" width="1" height="1" fill="#272727" />
<rect x="13" y="28" width="3" height="1" fill="#391F21" />
<rect x="4" y="29" width="1" height="2" fill="#5D2C28" />
<rect x="5" y="29" width="1" height="2" fill="#8A4836" />
<rect x="13" y="29" width="2" height="1" fill="#391F21" />
<rect x="15" y="29" width="2" height="1" fill="#E69C69" />
<rect x="6" y="30" width="1" height="1" fill="#8A4836" />
<rect x="5" y="31" width="1" height="1" fill="#E69C69" />
<rect x="6" y="31" width="1" height="1" fill="#F6CA9F" />
</svg>