<svg width="41" height="41" viewBox="0 0 41 41" fill="none" xmlns="http://www.w3.org/2000/svg">
<path d="M23.9167 3.41663V37.5833H18.7917V35.875H17.0833V34.1666H15.375V32.4583H13.6667V30.75H11.9583V29.0416H10.25V27.3333H1.70833V13.6666H10.25V11.9583H11.9583V10.25H13.6667V8.54163H15.375V6.83329H17.0833V5.12496H18.7917V3.41663H23.9167Z" fill="white"/>
<path d="M29.0417 25.625V23.9167H27.3333V22.2083H29.0417V18.7917H27.3333V17.0833H29.0417V15.375H30.75V17.0833H32.4583V23.9167H30.75V25.625H29.0417Z" fill="white"/>
<path d="M39.2917 17.0833V23.9167H37.5833V27.3333H35.875V29.0417H34.1667V30.75H32.4583V29.0417H30.75V27.3333H32.4583V25.625H34.1667V23.9167H35.875V17.0833H34.1667V15.375H32.4583V13.6667H30.75V11.9583H32.4583V10.25H34.1667V11.9583H35.875V13.6667H37.5833V17.0833H39.2917Z" fill="white"/>
</svg>
