<?xml version="1.0" encoding="UTF-8" ?>
<svg version="1.1" width="60" height="56" xmlns="http://www.w3.org/2000/svg" shape-rendering="crispEdges">
<rect x="30" y="0" width="7" height="1" fill="#131313" />
<rect x="29" y="1" width="1" height="1" fill="#131313" />
<rect x="30" y="1" width="7" height="1" fill="#571C27" />
<rect x="37" y="1" width="2" height="1" fill="#131313" />
<rect x="10" y="2" width="2" height="1" fill="#131313" />
<rect x="28" y="2" width="1" height="4" fill="#131313" />
<rect x="29" y="2" width="6" height="1" fill="#571C27" />
<rect x="35" y="2" width="2" height="1" fill="#131313" />
<rect x="37" y="2" width="2" height="1" fill="#571C27" />
<rect x="39" y="2" width="1" height="1" fill="#131313" />
<rect x="9" y="3" width="1" height="1" fill="#131313" />
<rect x="10" y="3" width="2" height="2" fill="#571C27" />
<rect x="12" y="3" width="1" height="2" fill="#131313" />
<rect x="29" y="3" width="2" height="1" fill="#571C27" />
<rect x="31" y="3" width="4" height="1" fill="#131313" />
<rect x="37" y="3" width="2" height="1" fill="#131313" />
<rect x="39" y="3" width="1" height="1" fill="#571C27" />
<rect x="40" y="3" width="1" height="1" fill="#131313" />
<rect x="8" y="4" width="1" height="1" fill="#131313" />
<rect x="9" y="4" width="1" height="5" fill="#571C27" />
<rect x="29" y="4" width="1" height="2" fill="#571C27" />
<rect x="30" y="4" width="1" height="2" fill="#131313" />
<rect x="39" y="4" width="1" height="1" fill="#131313" />
<rect x="7" y="5" width="1" height="3" fill="#131313" />
<rect x="8" y="5" width="1" height="3" fill="#571C27" />
<rect x="10" y="5" width="2" height="1" fill="#131313" />
<rect x="10" y="6" width="1" height="3" fill="#131313" />
<rect x="29" y="6" width="1" height="1" fill="#131313" />
<rect x="30" y="6" width="1" height="1" fill="#571C27" />
<rect x="31" y="6" width="1" height="2" fill="#131313" />
<rect x="38" y="6" width="5" height="1" fill="#131313" />
<rect x="30" y="7" width="1" height="1" fill="#131313" />
<rect x="32" y="7" width="4" height="1" fill="#131313" />
<rect x="37" y="7" width="1" height="4" fill="#131313" />
<rect x="38" y="7" width="5" height="2" fill="#571C27" />
<rect x="43" y="7" width="2" height="1" fill="#131313" />
<rect x="8" y="8" width="1" height="1" fill="#131313" />
<rect x="29" y="8" width="1" height="1" fill="#131313" />
<rect x="30" y="8" width="6" height="3" fill="#571C27" />
<rect x="36" y="8" width="1" height="1" fill="#131313" />
<rect x="43" y="8" width="2" height="4" fill="#571C27" />
<rect x="45" y="8" width="1" height="1" fill="#131313" />
<rect x="9" y="9" width="1" height="1" fill="#131313" />
<rect x="10" y="9" width="1" height="1" fill="#571C27" />
<rect x="11" y="9" width="1" height="1" fill="#131313" />
<rect x="25" y="9" width="2" height="1" fill="#131313" />
<rect x="28" y="9" width="1" height="1" fill="#131313" />
<rect x="29" y="9" width="1" height="2" fill="#571C27" />
<rect x="36" y="9" width="1" height="8" fill="#571C27" />
<rect x="38" y="9" width="1" height="1" fill="#131313" />
<rect x="39" y="9" width="4" height="1" fill="#571C27" />
<rect x="45" y="9" width="1" height="5" fill="#571C27" />
<rect x="46" y="9" width="1" height="5" fill="#131313" />
<rect x="10" y="10" width="1" height="1" fill="#131313" />
<rect x="24" y="10" width="1" height="1" fill="#131313" />
<rect x="25" y="10" width="2" height="1" fill="#571C27" />
<rect x="27" y="10" width="1" height="1" fill="#131313" />
<rect x="28" y="10" width="1" height="2" fill="#571C27" />
<rect x="39" y="10" width="4" height="1" fill="#131313" />
<rect x="25" y="11" width="1" height="1" fill="#131313" />
<rect x="26" y="11" width="2" height="1" fill="#571C27" />
<rect x="29" y="11" width="5" height="1" fill="#131313" />
<rect x="34" y="11" width="2" height="1" fill="#571C27" />
<rect x="37" y="11" width="1" height="5" fill="#571C27" />
<rect x="38" y="11" width="1" height="5" fill="#131313" />
<rect x="42" y="11" width="1" height="1" fill="#131313" />
<rect x="26" y="12" width="4" height="1" fill="#131313" />
<rect x="34" y="12" width="1" height="2" fill="#131313" />
<rect x="35" y="12" width="1" height="2" fill="#571C27" />
<rect x="43" y="12" width="1" height="2" fill="#131313" />
<rect x="44" y="12" width="1" height="2" fill="#571C27" />
<rect x="24" y="13" width="2" height="1" fill="#131313" />
<rect x="26" y="13" width="4" height="2" fill="#571C27" />
<rect x="30" y="13" width="1" height="1" fill="#131313" />
<rect x="51" y="13" width="3" height="1" fill="#131313" />
<rect x="23" y="14" width="1" height="1" fill="#131313" />
<rect x="24" y="14" width="2" height="1" fill="#571C27" />
<rect x="30" y="14" width="1" height="2" fill="#571C27" />
<rect x="31" y="14" width="1" height="1" fill="#131313" />
<rect x="35" y="14" width="1" height="2" fill="#131313" />
<rect x="40" y="14" width="3" height="1" fill="#131313" />
<rect x="44" y="14" width="2" height="1" fill="#131313" />
<rect x="50" y="14" width="1" height="2" fill="#131313" />
<rect x="51" y="14" width="3" height="2" fill="#571C27" />
<rect x="54" y="14" width="1" height="1" fill="#131313" />
<rect x="6" y="15" width="5" height="1" fill="#131313" />
<rect x="22" y="15" width="1" height="2" fill="#131313" />
<rect x="23" y="15" width="1" height="2" fill="#571C27" />
<rect x="24" y="15" width="2" height="1" fill="#891E2B" />
<rect x="26" y="15" width="2" height="1" fill="#571C27" />
<rect x="28" y="15" width="2" height="1" fill="#131313" />
<rect x="31" y="15" width="1" height="3" fill="#571C27" />
<rect x="32" y="15" width="1" height="3" fill="#131313" />
<rect x="39" y="15" width="1" height="2" fill="#131313" />
<rect x="40" y="15" width="3" height="2" fill="#571C27" />
<rect x="43" y="15" width="1" height="2" fill="#131313" />
<rect x="54" y="15" width="1" height="2" fill="#571C27" />
<rect x="55" y="15" width="1" height="1" fill="#131313" />
<rect x="5" y="16" width="1" height="1" fill="#131313" />
<rect x="6" y="16" width="5" height="1" fill="#571C27" />
<rect x="11" y="16" width="2" height="1" fill="#131313" />
<rect x="24" y="16" width="1" height="1" fill="#891E2B" />
<rect x="25" y="16" width="2" height="1" fill="#571C27" />
<rect x="27" y="16" width="1" height="1" fill="#131313" />
<rect x="30" y="16" width="1" height="2" fill="#131313" />
<rect x="34" y="16" width="1" height="1" fill="#131313" />
<rect x="35" y="16" width="1" height="1" fill="#571C27" />
<rect x="37" y="16" width="1" height="1" fill="#131313" />
<rect x="51" y="16" width="3" height="1" fill="#131313" />
<rect x="55" y="16" width="1" height="4" fill="#571C27" />
<rect x="56" y="16" width="1" height="1" fill="#131313" />
<rect x="4" y="17" width="1" height="2" fill="#131313" />
<rect x="5" y="17" width="2" height="1" fill="#571C27" />
<rect x="7" y="17" width="2" height="1" fill="#131313" />
<rect x="9" y="17" width="4" height="1" fill="#571C27" />
<rect x="13" y="17" width="1" height="1" fill="#131313" />
<rect x="23" y="17" width="1" height="1" fill="#131313" />
<rect x="24" y="17" width="2" height="1" fill="#571C27" />
<rect x="26" y="17" width="1" height="1" fill="#131313" />
<rect x="35" y="17" width="2" height="1" fill="#131313" />
<rect x="40" y="17" width="3" height="1" fill="#131313" />
<rect x="54" y="17" width="1" height="3" fill="#131313" />
<rect x="56" y="17" width="1" height="4" fill="#571C27" />
<rect x="57" y="17" width="1" height="4" fill="#131313" />
<rect x="5" y="18" width="1" height="1" fill="#571C27" />
<rect x="6" y="18" width="2" height="1" fill="#131313" />
<rect x="8" y="18" width="1" height="2" fill="#571C27" />
<rect x="9" y="18" width="4" height="1" fill="#131313" />
<rect x="24" y="18" width="2" height="1" fill="#131313" />
<rect x="31" y="18" width="1" height="1" fill="#131313" />
<rect x="5" y="19" width="2" height="1" fill="#131313" />
<rect x="7" y="19" width="1" height="5" fill="#571C27" />
<rect x="9" y="19" width="1" height="1" fill="#131313" />
<rect x="39" y="19" width="1" height="1" fill="#131313" />
<rect x="2" y="20" width="2" height="1" fill="#131313" />
<rect x="5" y="20" width="1" height="4" fill="#131313" />
<rect x="6" y="20" width="1" height="3" fill="#571C27" />
<rect x="8" y="20" width="1" height="4" fill="#131313" />
<rect x="38" y="20" width="1" height="3" fill="#131313" />
<rect x="39" y="20" width="1" height="2" fill="#571C27" />
<rect x="40" y="20" width="1" height="1" fill="#131313" />
<rect x="55" y="20" width="1" height="1" fill="#131313" />
<rect x="1" y="21" width="1" height="1" fill="#131313" />
<rect x="2" y="21" width="2" height="1" fill="#571C27" />
<rect x="4" y="21" width="1" height="1" fill="#131313" />
<rect x="22" y="21" width="1" height="1" fill="#131313" />
<rect x="40" y="21" width="1" height="2" fill="#571C27" />
<rect x="41" y="21" width="2" height="1" fill="#131313" />
<rect x="54" y="21" width="1" height="4" fill="#131313" />
<rect x="55" y="21" width="1" height="3" fill="#571C27" />
<rect x="56" y="21" width="1" height="4" fill="#131313" />
<rect x="0" y="22" width="1" height="3" fill="#131313" />
<rect x="1" y="22" width="2" height="3" fill="#571C27" />
<rect x="3" y="22" width="1" height="3" fill="#131313" />
<rect x="21" y="22" width="1" height="2" fill="#131313" />
<rect x="22" y="22" width="1" height="2" fill="#571C27" />
<rect x="23" y="22" width="3" height="1" fill="#131313" />
<rect x="39" y="22" width="1" height="1" fill="#131313" />
<rect x="41" y="22" width="2" height="1" fill="#571C27" />
<rect x="43" y="22" width="1" height="1" fill="#131313" />
<rect x="4" y="23" width="1" height="1" fill="#131313" />
<rect x="6" y="23" width="1" height="2" fill="#131313" />
<rect x="23" y="23" width="3" height="1" fill="#571C27" />
<rect x="26" y="23" width="1" height="1" fill="#131313" />
<rect x="31" y="23" width="3" height="1" fill="#131313" />
<rect x="37" y="23" width="1" height="3" fill="#131313" />
<rect x="38" y="23" width="2" height="1" fill="#571C27" />
<rect x="40" y="23" width="3" height="1" fill="#891E2B" />
<rect x="43" y="23" width="1" height="2" fill="#571C27" />
<rect x="44" y="23" width="1" height="2" fill="#131313" />
<rect x="52" y="23" width="2" height="1" fill="#131313" />
<rect x="4" y="24" width="2" height="1" fill="#571C27" />
<rect x="7" y="24" width="1" height="1" fill="#131313" />
<rect x="8" y="24" width="1" height="1" fill="#571C27" />
<rect x="9" y="24" width="1" height="1" fill="#131313" />
<rect x="22" y="24" width="1" height="2" fill="#131313" />
<rect x="23" y="24" width="1" height="2" fill="#571C27" />
<rect x="24" y="24" width="2" height="1" fill="#891E2B" />
<rect x="26" y="24" width="1" height="1" fill="#571C27" />
<rect x="27" y="24" width="1" height="1" fill="#131313" />
<rect x="29" y="24" width="2" height="1" fill="#131313" />
<rect x="31" y="24" width="3" height="1" fill="#571C27" />
<rect x="34" y="24" width="1" height="1" fill="#131313" />
<rect x="38" y="24" width="1" height="2" fill="#571C27" />
<rect x="39" y="24" width="3" height="1" fill="#891E2B" />
<rect x="42" y="24" width="1" height="2" fill="#571C27" />
<rect x="51" y="24" width="1" height="1" fill="#131313" />
<rect x="52" y="24" width="2" height="1" fill="#571C27" />
<rect x="55" y="24" width="1" height="1" fill="#131313" />
<rect x="1" y="25" width="1" height="2" fill="#131313" />
<rect x="2" y="25" width="2" height="1" fill="#571C27" />
<rect x="4" y="25" width="2" height="1" fill="#131313" />
<rect x="8" y="25" width="1" height="1" fill="#131313" />
<rect x="24" y="25" width="1" height="5" fill="#571C27" />
<rect x="25" y="25" width="2" height="1" fill="#891E2B" />
<rect x="27" y="25" width="1" height="1" fill="#571C27" />
<rect x="28" y="25" width="1" height="1" fill="#131313" />
<rect x="29" y="25" width="2" height="1" fill="#571C27" />
<rect x="31" y="25" width="2" height="2" fill="#891E2B" />
<rect x="33" y="25" width="2" height="1" fill="#571C27" />
<rect x="35" y="25" width="1" height="1" fill="#131313" />
<rect x="39" y="25" width="3" height="1" fill="#571C27" />
<rect x="43" y="25" width="1" height="1" fill="#131313" />
<rect x="52" y="25" width="1" height="1" fill="#131313" />
<rect x="53" y="25" width="4" height="1" fill="#571C27" />
<rect x="57" y="25" width="1" height="1" fill="#131313" />
<rect x="2" y="26" width="1" height="1" fill="#571C27" />
<rect x="3" y="26" width="1" height="1" fill="#131313" />
<rect x="23" y="26" width="1" height="4" fill="#131313" />
<rect x="25" y="26" width="2" height="3" fill="#571C27" />
<rect x="27" y="26" width="1" height="1" fill="#131313" />
<rect x="28" y="26" width="2" height="3" fill="#571C27" />
<rect x="30" y="26" width="1" height="1" fill="#891E2B" />
<rect x="33" y="26" width="1" height="1" fill="#891E2B" />
<rect x="34" y="26" width="2" height="4" fill="#571C27" />
<rect x="36" y="26" width="1" height="4" fill="#131313" />
<rect x="38" y="26" width="2" height="1" fill="#131313" />
<rect x="40" y="26" width="2" height="1" fill="#571C27" />
<rect x="42" y="26" width="1" height="1" fill="#131313" />
<rect x="53" y="26" width="4" height="1" fill="#131313" />
<rect x="57" y="26" width="1" height="1" fill="#571C27" />
<rect x="58" y="26" width="1" height="1" fill="#131313" />
<rect x="0" y="27" width="1" height="2" fill="#131313" />
<rect x="1" y="27" width="1" height="2" fill="#571C27" />
<rect x="2" y="27" width="1" height="2" fill="#131313" />
<rect x="27" y="27" width="1" height="2" fill="#571C27" />
<rect x="30" y="27" width="4" height="2" fill="#571C27" />
<rect x="40" y="27" width="2" height="1" fill="#131313" />
<rect x="57" y="27" width="1" height="2" fill="#131313" />
<rect x="58" y="27" width="1" height="2" fill="#571C27" />
<rect x="59" y="27" width="1" height="2" fill="#131313" />
<rect x="18" y="28" width="2" height="1" fill="#131313" />
<rect x="1" y="29" width="1" height="1" fill="#131313" />
<rect x="2" y="29" width="1" height="1" fill="#571C27" />
<rect x="3" y="29" width="4" height="1" fill="#131313" />
<rect x="17" y="29" width="1" height="1" fill="#131313" />
<rect x="18" y="29" width="2" height="2" fill="#571C27" />
<rect x="20" y="29" width="2" height="1" fill="#131313" />
<rect x="25" y="29" width="1" height="2" fill="#571C27" />
<rect x="26" y="29" width="4" height="1" fill="#891E2B" />
<rect x="30" y="29" width="2" height="1" fill="#571C27" />
<rect x="32" y="29" width="1" height="1" fill="#131313" />
<rect x="33" y="29" width="1" height="1" fill="#571C27" />
<rect x="56" y="29" width="1" height="1" fill="#131313" />
<rect x="57" y="29" width="1" height="6" fill="#571C27" />
<rect x="58" y="29" width="1" height="2" fill="#131313" />
<rect x="2" y="30" width="1" height="1" fill="#131313" />
<rect x="3" y="30" width="4" height="1" fill="#571C27" />
<rect x="7" y="30" width="1" height="1" fill="#131313" />
<rect x="16" y="30" width="1" height="1" fill="#131313" />
<rect x="17" y="30" width="1" height="2" fill="#571C27" />
<rect x="20" y="30" width="2" height="1" fill="#571C27" />
<rect x="22" y="30" width="1" height="3" fill="#131313" />
<rect x="24" y="30" width="1" height="1" fill="#131313" />
<rect x="26" y="30" width="1" height="2" fill="#571C27" />
<rect x="27" y="30" width="2" height="1" fill="#891E2B" />
<rect x="29" y="30" width="2" height="1" fill="#571C27" />
<rect x="31" y="30" width="1" height="1" fill="#131313" />
<rect x="32" y="30" width="1" height="1" fill="#571C27" />
<rect x="33" y="30" width="2" height="1" fill="#891E2B" />
<rect x="35" y="30" width="2" height="1" fill="#571C27" />
<rect x="37" y="30" width="1" height="2" fill="#131313" />
<rect x="51" y="30" width="1" height="1" fill="#131313" />
<rect x="54" y="30" width="2" height="1" fill="#131313" />
<rect x="56" y="30" width="1" height="1" fill="#571C27" />
<rect x="3" y="31" width="3" height="1" fill="#131313" />
<rect x="6" y="31" width="2" height="1" fill="#571C27" />
<rect x="8" y="31" width="1" height="1" fill="#131313" />
<rect x="15" y="31" width="1" height="2" fill="#131313" />
<rect x="16" y="31" width="1" height="2" fill="#571C27" />
<rect x="18" y="31" width="3" height="1" fill="#891E2B" />
<rect x="21" y="31" width="1" height="2" fill="#571C27" />
<rect x="25" y="31" width="1" height="1" fill="#131313" />
<rect x="27" y="31" width="2" height="1" fill="#571C27" />
<rect x="29" y="31" width="2" height="1" fill="#131313" />
<rect x="32" y="31" width="1" height="1" fill="#131313" />
<rect x="33" y="31" width="1" height="1" fill="#571C27" />
<rect x="34" y="31" width="2" height="1" fill="#891E2B" />
<rect x="36" y="31" width="1" height="2" fill="#571C27" />
<rect x="50" y="31" width="1" height="1" fill="#131313" />
<rect x="51" y="31" width="1" height="1" fill="#571C27" />
<rect x="52" y="31" width="2" height="1" fill="#131313" />
<rect x="54" y="31" width="2" height="1" fill="#571C27" />
<rect x="56" y="31" width="1" height="3" fill="#131313" />
<rect x="58" y="31" width="1" height="3" fill="#571C27" />
<rect x="59" y="31" width="1" height="3" fill="#131313" />
<rect x="3" y="32" width="1" height="3" fill="#131313" />
<rect x="4" y="32" width="1" height="3" fill="#571C27" />
<rect x="5" y="32" width="3" height="1" fill="#131313" />
<rect x="17" y="32" width="3" height="1" fill="#891E2B" />
<rect x="20" y="32" width="1" height="1" fill="#571C27" />
<rect x="26" y="32" width="3" height="1" fill="#131313" />
<rect x="33" y="32" width="1" height="1" fill="#131313" />
<rect x="34" y="32" width="2" height="1" fill="#571C27" />
<rect x="37" y="32" width="1" height="2" fill="#571C27" />
<rect x="38" y="32" width="1" height="2" fill="#131313" />
<rect x="51" y="32" width="1" height="4" fill="#131313" />
<rect x="52" y="32" width="1" height="5" fill="#571C27" />
<rect x="53" y="32" width="3" height="1" fill="#131313" />
<rect x="5" y="33" width="1" height="2" fill="#131313" />
<rect x="16" y="33" width="1" height="1" fill="#131313" />
<rect x="17" y="33" width="3" height="1" fill="#571C27" />
<rect x="20" y="33" width="2" height="1" fill="#131313" />
<rect x="34" y="33" width="3" height="1" fill="#131313" />
<rect x="53" y="33" width="1" height="3" fill="#571C27" />
<rect x="54" y="33" width="1" height="4" fill="#131313" />
<rect x="17" y="34" width="2" height="1" fill="#131313" />
<rect x="19" y="34" width="2" height="1" fill="#571C27" />
<rect x="21" y="34" width="1" height="2" fill="#131313" />
<rect x="37" y="34" width="1" height="1" fill="#131313" />
<rect x="55" y="34" width="1" height="1" fill="#131313" />
<rect x="56" y="34" width="1" height="1" fill="#571C27" />
<rect x="58" y="34" width="1" height="1" fill="#131313" />
<rect x="2" y="35" width="1" height="4" fill="#131313" />
<rect x="3" y="35" width="1" height="4" fill="#571C27" />
<rect x="4" y="35" width="1" height="1" fill="#131313" />
<rect x="19" y="35" width="1" height="1" fill="#131313" />
<rect x="20" y="35" width="1" height="1" fill="#571C27" />
<rect x="56" y="35" width="2" height="1" fill="#131313" />
<rect x="4" y="36" width="1" height="4" fill="#571C27" />
<rect x="5" y="36" width="1" height="3" fill="#131313" />
<rect x="20" y="36" width="1" height="1" fill="#131313" />
<rect x="50" y="36" width="1" height="2" fill="#131313" />
<rect x="51" y="36" width="1" height="2" fill="#571C27" />
<rect x="53" y="36" width="1" height="2" fill="#131313" />
<rect x="28" y="37" width="1" height="1" fill="#131313" />
<rect x="34" y="37" width="2" height="1" fill="#131313" />
<rect x="47" y="37" width="3" height="1" fill="#131313" />
<rect x="52" y="37" width="1" height="2" fill="#131313" />
<rect x="54" y="37" width="1" height="2" fill="#571C27" />
<rect x="55" y="37" width="1" height="2" fill="#131313" />
<rect x="17" y="38" width="3" height="1" fill="#131313" />
<rect x="23" y="38" width="2" height="1" fill="#131313" />
<rect x="27" y="38" width="1" height="3" fill="#131313" />
<rect x="28" y="38" width="1" height="3" fill="#571C27" />
<rect x="29" y="38" width="1" height="2" fill="#131313" />
<rect x="33" y="38" width="1" height="1" fill="#131313" />
<rect x="34" y="38" width="2" height="1" fill="#571C27" />
<rect x="36" y="38" width="1" height="1" fill="#131313" />
<rect x="46" y="38" width="1" height="1" fill="#131313" />
<rect x="47" y="38" width="4" height="1" fill="#571C27" />
<rect x="51" y="38" width="1" height="1" fill="#131313" />
<rect x="53" y="38" width="1" height="2" fill="#571C27" />
<rect x="3" y="39" width="1" height="1" fill="#131313" />
<rect x="5" y="39" width="1" height="2" fill="#571C27" />
<rect x="6" y="39" width="3" height="1" fill="#131313" />
<rect x="16" y="39" width="1" height="2" fill="#131313" />
<rect x="17" y="39" width="3" height="2" fill="#571C27" />
<rect x="20" y="39" width="1" height="2" fill="#131313" />
<rect x="22" y="39" width="1" height="1" fill="#131313" />
<rect x="23" y="39" width="2" height="1" fill="#571C27" />
<rect x="25" y="39" width="1" height="1" fill="#131313" />
<rect x="32" y="39" width="1" height="1" fill="#131313" />
<rect x="33" y="39" width="2" height="1" fill="#571C27" />
<rect x="35" y="39" width="1" height="2" fill="#891E2B" />
<rect x="36" y="39" width="1" height="2" fill="#571C27" />
<rect x="37" y="39" width="1" height="2" fill="#131313" />
<rect x="47" y="39" width="2" height="1" fill="#131313" />
<rect x="49" y="39" width="4" height="1" fill="#571C27" />
<rect x="54" y="39" width="1" height="1" fill="#131313" />
<rect x="4" y="40" width="1" height="1" fill="#131313" />
<rect x="6" y="40" width="3" height="2" fill="#571C27" />
<rect x="9" y="40" width="1" height="2" fill="#131313" />
<rect x="21" y="40" width="1" height="5" fill="#131313" />
<rect x="22" y="40" width="2" height="5" fill="#571C27" />
<rect x="24" y="40" width="1" height="2" fill="#131313" />
<rect x="29" y="40" width="1" height="2" fill="#571C27" />
<rect x="30" y="40" width="2" height="1" fill="#131313" />
<rect x="32" y="40" width="2" height="3" fill="#571C27" />
<rect x="34" y="40" width="1" height="1" fill="#891E2B" />
<rect x="49" y="40" width="5" height="1" fill="#131313" />
<rect x="5" y="41" width="1" height="1" fill="#131313" />
<rect x="14" y="41" width="2" height="1" fill="#131313" />
<rect x="17" y="41" width="3" height="1" fill="#131313" />
<rect x="28" y="41" width="1" height="1" fill="#131313" />
<rect x="30" y="41" width="2" height="2" fill="#571C27" />
<rect x="34" y="41" width="2" height="1" fill="#571C27" />
<rect x="36" y="41" width="1" height="1" fill="#131313" />
<rect x="6" y="42" width="3" height="1" fill="#131313" />
<rect x="13" y="42" width="1" height="5" fill="#131313" />
<rect x="14" y="42" width="2" height="5" fill="#571C27" />
<rect x="16" y="42" width="1" height="2" fill="#131313" />
<rect x="24" y="42" width="1" height="6" fill="#571C27" />
<rect x="25" y="42" width="1" height="2" fill="#131313" />
<rect x="29" y="42" width="1" height="1" fill="#131313" />
<rect x="34" y="42" width="2" height="1" fill="#131313" />
<rect x="30" y="43" width="4" height="1" fill="#131313" />
<rect x="16" y="44" width="1" height="4" fill="#571C27" />
<rect x="17" y="44" width="1" height="2" fill="#131313" />
<rect x="25" y="44" width="1" height="4" fill="#571C27" />
<rect x="26" y="44" width="5" height="1" fill="#131313" />
<rect x="31" y="44" width="3" height="1" fill="#571C27" />
<rect x="34" y="44" width="1" height="1" fill="#131313" />
<rect x="18" y="45" width="3" height="1" fill="#131313" />
<rect x="22" y="45" width="1" height="4" fill="#131313" />
<rect x="23" y="45" width="1" height="2" fill="#571C27" />
<rect x="26" y="45" width="6" height="1" fill="#571C27" />
<rect x="32" y="45" width="1" height="1" fill="#131313" />
<rect x="33" y="45" width="2" height="1" fill="#571C27" />
<rect x="35" y="45" width="1" height="1" fill="#131313" />
<rect x="49" y="45" width="1" height="1" fill="#131313" />
<rect x="17" y="46" width="4" height="3" fill="#571C27" />
<rect x="21" y="46" width="1" height="1" fill="#131313" />
<rect x="26" y="46" width="5" height="1" fill="#571C27" />
<rect x="31" y="46" width="1" height="1" fill="#131313" />
<rect x="33" y="46" width="2" height="1" fill="#131313" />
<rect x="48" y="46" width="1" height="1" fill="#131313" />
<rect x="49" y="46" width="1" height="1" fill="#571C27" />
<rect x="50" y="46" width="1" height="1" fill="#131313" />
<rect x="14" y="47" width="1" height="1" fill="#131313" />
<rect x="15" y="47" width="1" height="1" fill="#571C27" />
<rect x="21" y="47" width="1" height="2" fill="#571C27" />
<rect x="23" y="47" width="1" height="1" fill="#131313" />
<rect x="26" y="47" width="4" height="1" fill="#571C27" />
<rect x="30" y="47" width="1" height="1" fill="#131313" />
<rect x="49" y="47" width="1" height="4" fill="#131313" />
<rect x="50" y="47" width="1" height="5" fill="#571C27" />
<rect x="51" y="47" width="1" height="1" fill="#131313" />
<rect x="15" y="48" width="2" height="1" fill="#131313" />
<rect x="24" y="48" width="6" height="1" fill="#131313" />
<rect x="51" y="48" width="1" height="3" fill="#571C27" />
<rect x="52" y="48" width="1" height="3" fill="#131313" />
<rect x="17" y="49" width="5" height="1" fill="#131313" />
<rect x="28" y="49" width="1" height="1" fill="#131313" />
<rect x="29" y="49" width="1" height="1" fill="#571C27" />
<rect x="30" y="49" width="1" height="1" fill="#131313" />
<rect x="29" y="50" width="1" height="2" fill="#131313" />
<rect x="30" y="50" width="1" height="4" fill="#571C27" />
<rect x="31" y="50" width="1" height="4" fill="#131313" />
<rect x="48" y="50" width="1" height="1" fill="#131313" />
<rect x="20" y="51" width="1" height="1" fill="#131313" />
<rect x="47" y="51" width="1" height="2" fill="#131313" />
<rect x="48" y="51" width="2" height="2" fill="#571C27" />
<rect x="51" y="51" width="1" height="1" fill="#131313" />
<rect x="19" y="52" width="1" height="1" fill="#131313" />
<rect x="20" y="52" width="1" height="1" fill="#571C27" />
<rect x="21" y="52" width="2" height="1" fill="#131313" />
<rect x="25" y="52" width="4" height="1" fill="#131313" />
<rect x="29" y="52" width="1" height="3" fill="#571C27" />
<rect x="50" y="52" width="1" height="1" fill="#131313" />
<rect x="20" y="53" width="1" height="1" fill="#131313" />
<rect x="21" y="53" width="2" height="1" fill="#571C27" />
<rect x="23" y="53" width="2" height="1" fill="#131313" />
<rect x="25" y="53" width="4" height="2" fill="#571C27" />
<rect x="48" y="53" width="2" height="1" fill="#131313" />
<rect x="21" y="54" width="2" height="1" fill="#131313" />
<rect x="23" y="54" width="2" height="1" fill="#571C27" />
<rect x="30" y="54" width="1" height="1" fill="#131313" />
<rect x="23" y="55" width="7" height="1" fill="#131313" />
</svg>