<svg width="13" height="20" viewBox="0 0 13 20" fill="none" xmlns="http://www.w3.org/2000/svg">
<path d="M12.0833 1.20833V3.625H10.875V4.83333H9.66667V6.04167H8.45833V7.25H7.25V8.45833H6.04167V10.875H7.25V12.0833H8.45833V13.2917H9.66667V14.5H10.875V15.7083H12.0833V18.125H10.875V19.3333H8.45833V18.125H7.25V16.9167H6.04167V15.7083H4.83333V14.5H3.625V13.2917H2.41667V12.0833H1.20833V10.875H0V8.45833H1.20833V7.25H2.41667V6.04167H3.625V4.83333H4.83333V3.625H6.04167V2.41667H7.25V1.20833H8.45833V0H10.875V1.20833H12.0833Z" fill="white"/>
</svg>
