<?xml version="1.0" encoding="UTF-8" ?>
<svg version="1.1" width="54" height="41" xmlns="http://www.w3.org/2000/svg" shape-rendering="crispEdges">
<rect x="30" y="0" width="4" height="1" fill="#391F21" />
<rect x="28" y="1" width="3" height="1" fill="#391F21" />
<rect x="31" y="1" width="2" height="1" fill="#5D2C28" />
<rect x="33" y="1" width="3" height="4" fill="#391F21" />
<rect x="27" y="2" width="2" height="1" fill="#391F21" />
<rect x="29" y="2" width="3" height="1" fill="#5D2C28" />
<rect x="32" y="2" width="1" height="2" fill="#391F21" />
<rect x="36" y="2" width="1" height="4" fill="#391F21" />
<rect x="27" y="3" width="1" height="2" fill="#391F21" />
<rect x="28" y="3" width="3" height="3" fill="#5D2C28" />
<rect x="31" y="3" width="1" height="1" fill="#391F21" />
<rect x="26" y="4" width="1" height="3" fill="#391F21" />
<rect x="31" y="4" width="2" height="4" fill="#5D2C28" />
<rect x="37" y="4" width="1" height="6" fill="#391F21" />
<rect x="43" y="4" width="2" height="2" fill="#C7CFDD" />
<rect x="45" y="4" width="2" height="32" fill="#FFFFFF" />
<rect x="10" y="5" width="3" height="33" fill="#FFFFFF" />
<rect x="27" y="5" width="1" height="3" fill="#5D2C28" />
<rect x="33" y="5" width="2" height="2" fill="#5D2C28" />
<rect x="35" y="5" width="1" height="1" fill="#391F21" />
<rect x="38" y="5" width="1" height="1" fill="#F6CA9F" />
<rect x="39" y="5" width="1" height="1" fill="#E69C69" />
<rect x="42" y="5" width="1" height="2" fill="#C7CFDD" />
<rect x="47" y="5" width="1" height="30" fill="#FFFFFF" />
<rect x="8" y="6" width="2" height="30" fill="#FFFFFF" />
<rect x="13" y="6" width="1" height="33" fill="#FFFFFF" />
<rect x="28" y="6" width="1" height="1" fill="#5D2C28" />
<rect x="29" y="6" width="2" height="2" fill="#391F21" />
<rect x="35" y="6" width="2" height="1" fill="#5D2C28" />
<rect x="38" y="6" width="2" height="1" fill="#391F21" />
<rect x="41" y="6" width="1" height="2" fill="#C7CFDD" />
<rect x="43" y="6" width="1" height="1" fill="#C7CFDD" />
<rect x="44" y="6" width="1" height="31" fill="#FFFFFF" />
<rect x="7" y="7" width="1" height="28" fill="#FFFFFF" />
<rect x="14" y="7" width="1" height="9" fill="#FFFFFF" />
<rect x="25" y="7" width="1" height="1" fill="#391F21" />
<rect x="26" y="7" width="1" height="1" fill="#5D2C28" />
<rect x="28" y="7" width="1" height="6" fill="#391F21" />
<rect x="33" y="7" width="1" height="2" fill="#5D2C28" />
<rect x="34" y="7" width="3" height="3" fill="#391F21" />
<rect x="38" y="7" width="1" height="1" fill="#391F21" />
<rect x="40" y="7" width="1" height="2" fill="#C7CFDD" />
<rect x="42" y="7" width="1" height="1" fill="#92A1B9" />
<rect x="43" y="7" width="1" height="30" fill="#FFFFFF" />
<rect x="48" y="7" width="1" height="27" fill="#FFFFFF" />
<rect x="6" y="8" width="1" height="26" fill="#FFFFFF" />
<rect x="15" y="8" width="2" height="3" fill="#FFFFFF" />
<rect x="26" y="8" width="2" height="1" fill="#391F21" />
<rect x="29" y="8" width="1" height="1" fill="#391F21" />
<rect x="30" y="8" width="1" height="1" fill="#BF6F4A" />
<rect x="31" y="8" width="2" height="1" fill="#391F21" />
<rect x="39" y="8" width="1" height="2" fill="#C7CFDD" />
<rect x="41" y="8" width="1" height="1" fill="#92A1B9" />
<rect x="42" y="8" width="1" height="30" fill="#FFFFFF" />
<rect x="49" y="8" width="1" height="25" fill="#FFFFFF" />
<rect x="5" y="9" width="1" height="24" fill="#FFFFFF" />
<rect x="17" y="9" width="1" height="1" fill="#FFFFFF" />
<rect x="27" y="9" width="1" height="2" fill="#391F21" />
<rect x="29" y="9" width="2" height="1" fill="#1C121C" />
<rect x="31" y="9" width="2" height="1" fill="#BF6F4A" />
<rect x="33" y="9" width="1" height="1" fill="#391F21" />
<rect x="38" y="9" width="1" height="1" fill="#391F21" />
<rect x="40" y="9" width="1" height="1" fill="#92A1B9" />
<rect x="41" y="9" width="1" height="29" fill="#FFFFFF" />
<rect x="4" y="10" width="1" height="22" fill="#FFFFFF" />
<rect x="26" y="10" width="1" height="1" fill="#891E2B" />
<rect x="29" y="10" width="1" height="1" fill="#FFFFFF" />
<rect x="30" y="10" width="1" height="1" fill="#0069AA" />
<rect x="31" y="10" width="2" height="1" fill="#E69C69" />
<rect x="33" y="10" width="1" height="1" fill="#0069AA" />
<rect x="34" y="10" width="1" height="1" fill="#FFFFFF" />
<rect x="35" y="10" width="2" height="1" fill="#391F21" />
<rect x="37" y="10" width="2" height="1" fill="#C7CFDD" />
<rect x="39" y="10" width="1" height="1" fill="#92A1B9" />
<rect x="40" y="10" width="1" height="29" fill="#FFFFFF" />
<rect x="50" y="10" width="1" height="21" fill="#FFFFFF" />
<rect x="3" y="11" width="1" height="20" fill="#FFFFFF" />
<rect x="15" y="11" width="1" height="3" fill="#FFFFFF" />
<rect x="25" y="11" width="2" height="2" fill="#C42430" />
<rect x="27" y="11" width="1" height="1" fill="#891E2B" />
<rect x="29" y="11" width="2" height="1" fill="#E69C69" />
<rect x="31" y="11" width="2" height="1" fill="#F6CA9F" />
<rect x="33" y="11" width="2" height="1" fill="#E69C69" />
<rect x="35" y="11" width="1" height="2" fill="#391F21" />
<rect x="36" y="11" width="2" height="1" fill="#C7CFDD" />
<rect x="38" y="11" width="1" height="1" fill="#92A1B9" />
<rect x="39" y="11" width="1" height="5" fill="#FFFFFF" />
<rect x="2" y="12" width="1" height="18" fill="#FFFFFF" />
<rect x="24" y="12" width="1" height="1" fill="#891E2B" />
<rect x="27" y="12" width="1" height="3" fill="#C42430" />
<rect x="29" y="12" width="1" height="1" fill="#571C27" />
<rect x="30" y="12" width="4" height="1" fill="#E69C69" />
<rect x="34" y="12" width="1" height="2" fill="#2A2F4E" />
<rect x="36" y="12" width="1" height="1" fill="#C7CFDD" />
<rect x="37" y="12" width="1" height="1" fill="#92A1B9" />
<rect x="38" y="12" width="1" height="2" fill="#FFFFFF" />
<rect x="51" y="12" width="1" height="17" fill="#FFFFFF" />
<rect x="24" y="13" width="1" height="2" fill="#131313" />
<rect x="25" y="13" width="1" height="1" fill="#891E2B" />
<rect x="26" y="13" width="1" height="1" fill="#C42430" />
<rect x="28" y="13" width="2" height="2" fill="#891E2B" />
<rect x="30" y="13" width="2" height="1" fill="#B4B4B4" />
<rect x="32" y="13" width="1" height="1" fill="#858585" />
<rect x="33" y="13" width="1" height="1" fill="#2A2F4E" />
<rect x="35" y="13" width="1" height="2" fill="#2A2F4E" />
<rect x="36" y="13" width="1" height="1" fill="#92A1B9" />
<rect x="37" y="13" width="1" height="1" fill="#C7CFDD" />
<rect x="1" y="14" width="1" height="14" fill="#FFFFFF" />
<rect x="25" y="14" width="1" height="1" fill="#3D3D3D" />
<rect x="26" y="14" width="1" height="1" fill="#891E2B" />
<rect x="30" y="14" width="1" height="1" fill="#571C27" />
<rect x="31" y="14" width="1" height="1" fill="#891E2B" />
<rect x="32" y="14" width="2" height="1" fill="#5D2C28" />
<rect x="34" y="14" width="1" height="1" fill="#571C27" />
<rect x="36" y="14" width="1" height="3" fill="#424C6E" />
<rect x="37" y="14" width="1" height="1" fill="#92A1B9" />
<rect x="24" y="15" width="1" height="6" fill="#571C27" />
<rect x="25" y="15" width="3" height="1" fill="#272727" />
<rect x="28" y="15" width="1" height="1" fill="#891E2B" />
<rect x="29" y="15" width="1" height="1" fill="#571C27" />
<rect x="30" y="15" width="1" height="1" fill="#891E2B" />
<rect x="31" y="15" width="1" height="1" fill="#5D2C28" />
<rect x="32" y="15" width="1" height="1" fill="#F6CA9F" />
<rect x="33" y="15" width="2" height="1" fill="#E69C69" />
<rect x="35" y="15" width="1" height="1" fill="#8A4836" />
<rect x="37" y="15" width="2" height="2" fill="#424C6E" />
<rect x="52" y="15" width="1" height="11" fill="#FFFFFF" />
<rect x="23" y="16" width="1" height="4" fill="#571C27" />
<rect x="25" y="16" width="1" height="6" fill="#571C27" />
<rect x="26" y="16" width="3" height="1" fill="#272727" />
<rect x="29" y="16" width="3" height="1" fill="#B4B4B4" />
<rect x="32" y="16" width="1" height="2" fill="#E69C69" />
<rect x="33" y="16" width="1" height="1" fill="#F6CA9F" />
<rect x="34" y="16" width="1" height="1" fill="#E69C69" />
<rect x="35" y="16" width="1" height="5" fill="#571C27" />
<rect x="26" y="17" width="2" height="4" fill="#571C27" />
<rect x="28" y="17" width="2" height="1" fill="#B4B4B4" />
<rect x="30" y="17" width="1" height="1" fill="#FFFFFF" />
<rect x="31" y="17" width="1" height="1" fill="#B4B4B4" />
<rect x="33" y="17" width="1" height="1" fill="#8A4836" />
<rect x="34" y="17" width="1" height="3" fill="#571C27" />
<rect x="36" y="17" width="1" height="2" fill="#571C27" />
<rect x="28" y="18" width="2" height="1" fill="#571C27" />
<rect x="30" y="18" width="1" height="5" fill="#272727" />
<rect x="31" y="18" width="1" height="1" fill="#2A2F4E" />
<rect x="32" y="18" width="1" height="1" fill="#424C6E" />
<rect x="33" y="18" width="1" height="3" fill="#891E2B" />
<rect x="53" y="18" width="1" height="4" fill="#FFFFFF" />
<rect x="0" y="19" width="1" height="4" fill="#FFFFFF" />
<rect x="28" y="19" width="1" height="1" fill="#571C27" />
<rect x="29" y="19" width="1" height="1" fill="#272727" />
<rect x="31" y="19" width="2" height="1" fill="#272727" />
<rect x="39" y="19" width="1" height="20" fill="#FFFFFF" />
<rect x="14" y="20" width="1" height="19" fill="#FFFFFF" />
<rect x="28" y="20" width="2" height="2" fill="#131313" />
<rect x="31" y="20" width="2" height="1" fill="#3D3D3D" />
<rect x="34" y="20" width="1" height="2" fill="#891E2B" />
<rect x="24" y="21" width="1" height="2" fill="#131313" />
<rect x="26" y="21" width="1" height="1" fill="#571C27" />
<rect x="27" y="21" width="1" height="2" fill="#131313" />
<rect x="31" y="21" width="1" height="2" fill="#272727" />
<rect x="32" y="21" width="2" height="1" fill="#3D3D3D" />
<rect x="35" y="21" width="1" height="1" fill="#891E2B" />
<rect x="38" y="21" width="1" height="18" fill="#FFFFFF" />
<rect x="15" y="22" width="1" height="18" fill="#FFFFFF" />
<rect x="23" y="22" width="1" height="1" fill="#131313" />
<rect x="25" y="22" width="2" height="1" fill="#131313" />
<rect x="28" y="22" width="1" height="1" fill="#131313" />
<rect x="32" y="22" width="1" height="1" fill="#272727" />
<rect x="33" y="22" width="2" height="1" fill="#3D3D3D" />
<rect x="16" y="23" width="2" height="17" fill="#FFFFFF" />
<rect x="36" y="23" width="2" height="17" fill="#FFFFFF" />
<rect x="18" y="24" width="2" height="16" fill="#FFFFFF" />
<rect x="34" y="24" width="2" height="16" fill="#FFFFFF" />
<rect x="20" y="25" width="5" height="16" fill="#FFFFFF" />
<rect x="30" y="25" width="4" height="16" fill="#FFFFFF" />
<rect x="25" y="26" width="5" height="15" fill="#FFFFFF" />
<rect x="9" y="36" width="1" height="1" fill="#FFFFFF" />
<rect x="12" y="38" width="1" height="1" fill="#FFFFFF" />
<rect x="19" y="40" width="1" height="1" fill="#FFFFFF" />
</svg>