<?xml version="1.0" encoding="UTF-8" ?>
<svg version="1.1" width="43" height="32" xmlns="http://www.w3.org/2000/svg" shape-rendering="crispEdges">
<rect x="8" y="0" width="16" height="2" fill="#C7CFDD" />
<rect x="3" y="1" width="5" height="1" fill="#C7CFDD" />
<rect x="24" y="1" width="6" height="7" fill="#C7CFDD" />
<rect x="0" y="2" width="4" height="3" fill="#FFFFFF" />
<rect x="4" y="2" width="8" height="1" fill="#C7CFDD" />
<rect x="12" y="2" width="2" height="3" fill="#391F21" />
<rect x="14" y="2" width="2" height="1" fill="#5D2C28" />
<rect x="16" y="2" width="1" height="1" fill="#391F21" />
<rect x="17" y="2" width="7" height="1" fill="#C7CFDD" />
<rect x="30" y="2" width="3" height="21" fill="#C7CFDD" />
<rect x="4" y="3" width="6" height="1" fill="#C7CFDD" />
<rect x="10" y="3" width="2" height="3" fill="#391F21" />
<rect x="14" y="3" width="1" height="2" fill="#391F21" />
<rect x="15" y="3" width="3" height="1" fill="#5D2C28" />
<rect x="18" y="3" width="6" height="1" fill="#C7CFDD" />
<rect x="33" y="3" width="2" height="19" fill="#C7CFDD" />
<rect x="4" y="4" width="1" height="1" fill="#92A1B9" />
<rect x="5" y="4" width="4" height="1" fill="#C7CFDD" />
<rect x="9" y="4" width="1" height="7" fill="#391F21" />
<rect x="15" y="4" width="1" height="1" fill="#391F21" />
<rect x="16" y="4" width="2" height="3" fill="#5D2C28" />
<rect x="18" y="4" width="1" height="2" fill="#391F21" />
<rect x="19" y="4" width="5" height="1" fill="#C7CFDD" />
<rect x="35" y="4" width="2" height="17" fill="#C7CFDD" />
<rect x="1" y="5" width="4" height="1" fill="#FFFFFF" />
<rect x="5" y="5" width="1" height="1" fill="#92A1B9" />
<rect x="6" y="5" width="2" height="1" fill="#C7CFDD" />
<rect x="8" y="5" width="1" height="5" fill="#391F21" />
<rect x="12" y="5" width="1" height="1" fill="#391F21" />
<rect x="13" y="5" width="3" height="2" fill="#5D2C28" />
<rect x="19" y="5" width="1" height="1" fill="#5D2C28" />
<rect x="20" y="5" width="4" height="2" fill="#C7CFDD" />
<rect x="37" y="5" width="1" height="16" fill="#C7CFDD" />
<rect x="3" y="6" width="4" height="1" fill="#FFFFFF" />
<rect x="7" y="6" width="1" height="2" fill="#391F21" />
<rect x="10" y="6" width="1" height="6" fill="#391F21" />
<rect x="11" y="6" width="2" height="1" fill="#5D2C28" />
<rect x="18" y="6" width="1" height="3" fill="#5D2C28" />
<rect x="19" y="6" width="1" height="2" fill="#391F21" />
<rect x="38" y="6" width="1" height="15" fill="#C7CFDD" />
<rect x="5" y="7" width="1" height="1" fill="#FFFFFF" />
<rect x="6" y="7" width="1" height="1" fill="#391F21" />
<rect x="11" y="7" width="3" height="3" fill="#391F21" />
<rect x="14" y="7" width="3" height="1" fill="#5D2C28" />
<rect x="17" y="7" width="1" height="2" fill="#391F21" />
<rect x="39" y="7" width="1" height="13" fill="#C7CFDD" />
<rect x="14" y="8" width="1" height="1" fill="#5D2C28" />
<rect x="15" y="8" width="1" height="1" fill="#391F21" />
<rect x="16" y="8" width="1" height="1" fill="#5D2C28" />
<rect x="19" y="8" width="1" height="1" fill="#5D2C28" />
<rect x="26" y="8" width="4" height="1" fill="#C7CFDD" />
<rect x="40" y="8" width="1" height="12" fill="#C7CFDD" />
<rect x="7" y="9" width="1" height="1" fill="#391F21" />
<rect x="14" y="9" width="1" height="1" fill="#391F21" />
<rect x="15" y="9" width="1" height="1" fill="#1C121C" />
<rect x="16" y="9" width="1" height="1" fill="#391F21" />
<rect x="17" y="9" width="1" height="1" fill="#BF6F4A" />
<rect x="18" y="9" width="3" height="1" fill="#391F21" />
<rect x="27" y="9" width="3" height="1" fill="#C7CFDD" />
<rect x="41" y="9" width="1" height="10" fill="#C7CFDD" />
<rect x="11" y="10" width="1" height="2" fill="#391F21" />
<rect x="12" y="10" width="1" height="2" fill="#BF6F4A" />
<rect x="13" y="10" width="1" height="3" fill="#391F21" />
<rect x="14" y="10" width="1" height="1" fill="#FFFFFF" />
<rect x="15" y="10" width="1" height="1" fill="#0069AA" />
<rect x="16" y="10" width="2" height="1" fill="#E69C69" />
<rect x="18" y="10" width="1" height="1" fill="#391F21" />
<rect x="28" y="10" width="2" height="13" fill="#C7CFDD" />
<rect x="9" y="11" width="1" height="3" fill="#571C27" />
<rect x="14" y="11" width="4" height="1" fill="#F6CA9F" />
<rect x="18" y="11" width="1" height="1" fill="#1C121C" />
<rect x="42" y="11" width="1" height="7" fill="#C7CFDD" />
<rect x="7" y="12" width="2" height="2" fill="#571C27" />
<rect x="10" y="12" width="2" height="1" fill="#571C27" />
<rect x="12" y="12" width="1" height="1" fill="#858585" />
<rect x="14" y="12" width="1" height="1" fill="#E69C69" />
<rect x="15" y="12" width="2" height="1" fill="#F6CA9F" />
<rect x="17" y="12" width="1" height="1" fill="#E69C69" />
<rect x="18" y="12" width="1" height="2" fill="#B4B4B4" />
<rect x="27" y="12" width="1" height="12" fill="#C7CFDD" />
<rect x="6" y="13" width="1" height="2" fill="#272727" />
<rect x="10" y="13" width="1" height="9" fill="#891E2B" />
<rect x="11" y="13" width="2" height="1" fill="#571C27" />
<rect x="13" y="13" width="2" height="2" fill="#891E2B" />
<rect x="15" y="13" width="2" height="1" fill="#E69C69" />
<rect x="17" y="13" width="1" height="2" fill="#C42430" />
<rect x="25" y="13" width="2" height="11" fill="#C7CFDD" />
<rect x="5" y="14" width="1" height="3" fill="#B4B4B4" />
<rect x="7" y="14" width="1" height="3" fill="#272727" />
<rect x="8" y="14" width="1" height="5" fill="#571C27" />
<rect x="9" y="14" width="1" height="8" fill="#891E2B" />
<rect x="11" y="14" width="1" height="7" fill="#891E2B" />
<rect x="12" y="14" width="1" height="3" fill="#571C27" />
<rect x="15" y="14" width="2" height="2" fill="#C42430" />
<rect x="18" y="14" width="1" height="1" fill="#891E2B" />
<rect x="4" y="15" width="1" height="3" fill="#B4B4B4" />
<rect x="6" y="15" width="1" height="1" fill="#B4B4B4" />
<rect x="13" y="15" width="1" height="5" fill="#571C27" />
<rect x="14" y="15" width="1" height="2" fill="#891E2B" />
<rect x="17" y="15" width="1" height="1" fill="#891E2B" />
<rect x="18" y="15" width="1" height="1" fill="#131313" />
<rect x="3" y="16" width="1" height="1" fill="#FFFFFF" />
<rect x="15" y="16" width="2" height="1" fill="#891E2B" />
<rect x="17" y="16" width="1" height="1" fill="#272727" />
<rect x="2" y="17" width="2" height="1" fill="#E69C69" />
<rect x="12" y="17" width="1" height="2" fill="#891E2B" />
<rect x="14" y="17" width="2" height="1" fill="#571C27" />
<rect x="16" y="17" width="1" height="1" fill="#272727" />
<rect x="2" y="18" width="1" height="1" fill="#F6CA9F" />
<rect x="3" y="18" width="1" height="2" fill="#E69C69" />
<rect x="7" y="18" width="1" height="3" fill="#571C27" />
<rect x="14" y="18" width="1" height="1" fill="#571C27" />
<rect x="2" y="19" width="1" height="1" fill="#E69C69" />
<rect x="5" y="19" width="2" height="4" fill="#571C27" />
<rect x="8" y="19" width="1" height="4" fill="#891E2B" />
<rect x="12" y="19" width="1" height="1" fill="#571C27" />
<rect x="24" y="19" width="1" height="5" fill="#C7CFDD" />
<rect x="4" y="20" width="1" height="2" fill="#571C27" />
<rect x="12" y="20" width="2" height="8" fill="#131313" />
<rect x="7" y="21" width="1" height="2" fill="#891E2B" />
<rect x="11" y="21" width="1" height="2" fill="#272727" />
<rect x="14" y="21" width="1" height="6" fill="#131313" />
<rect x="35" y="21" width="1" height="1" fill="#C7CFDD" />
<rect x="9" y="22" width="2" height="1" fill="#3D3D3D" />
<rect x="5" y="23" width="1" height="7" fill="#272727" />
<rect x="6" y="23" width="4" height="2" fill="#3D3D3D" />
<rect x="10" y="23" width="1" height="3" fill="#272727" />
<rect x="11" y="23" width="1" height="4" fill="#131313" />
<rect x="28" y="23" width="1" height="1" fill="#C7CFDD" />
<rect x="4" y="25" width="1" height="4" fill="#272727" />
<rect x="6" y="25" width="3" height="1" fill="#3D3D3D" />
<rect x="9" y="25" width="1" height="2" fill="#272727" />
<rect x="6" y="26" width="3" height="2" fill="#272727" />
<rect x="6" y="28" width="1" height="1" fill="#272727" />
<rect x="12" y="28" width="3" height="1" fill="#391F21" />
<rect x="3" y="29" width="1" height="2" fill="#5D2C28" />
<rect x="4" y="29" width="1" height="2" fill="#8A4836" />
<rect x="12" y="29" width="2" height="1" fill="#391F21" />
<rect x="14" y="29" width="2" height="1" fill="#E69C69" />
<rect x="5" y="30" width="1" height="1" fill="#8A4836" />
<rect x="4" y="31" width="1" height="1" fill="#E69C69" />
<rect x="5" y="31" width="1" height="1" fill="#F6CA9F" />
</svg>