<svg width="47" height="47" viewBox="0 0 47 47" fill="none" xmlns="http://www.w3.org/2000/svg">
<path d="M45.0417 35.25V39.1667H41.125V41.125H39.1667V45.0417H35.25V41.125H33.2917V39.1667H29.375V35.25H33.2917V33.2917H35.25V29.375H39.1667V33.2917H41.125V35.25H45.0417Z" fill="white"/>
<path d="M45.0417 7.83337V11.75H41.125V13.7084H39.1667V17.625H35.25V13.7084H33.2917V11.75H29.375V7.83337H33.2917V5.87504H35.25V1.95837H39.1667V5.87504H41.125V7.83337H45.0417Z" fill="white"/>
<path d="M33.2917 21.5417V25.4584H29.375V27.4167H25.4583V29.375H23.5V31.3334H21.5417V35.25H19.5833V39.1667H15.6667V35.25H13.7083V31.3334H11.75V29.375H9.79168V27.4167H5.87501V25.4584H1.95834V21.5417H5.87501V19.5834H9.79168V17.625H11.75V15.6667H13.7083V11.75H15.6667V7.83337H19.5833V11.75H21.5417V15.6667H23.5V17.625H25.4583V19.5834H29.375V21.5417H33.2917Z" fill="white"/>
</svg>
