<?xml version="1.0" encoding="UTF-8" ?>
<svg version="1.1" width="68" height="66" xmlns="http://www.w3.org/2000/svg" shape-rendering="crispEdges">
<rect x="12" y="0" width="2" height="4" fill="#131313" />
<rect x="36" y="0" width="2" height="4" fill="#131313" />
<rect x="11" y="1" width="1" height="2" fill="#131313" />
<rect x="14" y="1" width="1" height="1" fill="#131313" />
<rect x="35" y="1" width="1" height="1" fill="#131313" />
<rect x="38" y="1" width="1" height="2" fill="#131313" />
<rect x="10" y="2" width="1" height="2" fill="#131313" />
<rect x="39" y="2" width="1" height="2" fill="#131313" />
<rect x="9" y="3" width="1" height="3" fill="#131313" />
<rect x="11" y="3" width="1" height="1" fill="#3D3D3D" />
<rect x="38" y="3" width="1" height="1" fill="#3D3D3D" />
<rect x="40" y="3" width="1" height="3" fill="#131313" />
<rect x="8" y="4" width="1" height="20" fill="#131313" />
<rect x="10" y="4" width="1" height="11" fill="#3D3D3D" />
<rect x="11" y="4" width="2" height="3" fill="#131313" />
<rect x="37" y="4" width="2" height="3" fill="#131313" />
<rect x="39" y="4" width="1" height="11" fill="#3D3D3D" />
<rect x="41" y="4" width="1" height="20" fill="#131313" />
<rect x="7" y="5" width="1" height="18" fill="#131313" />
<rect x="42" y="5" width="1" height="18" fill="#131313" />
<rect x="9" y="6" width="1" height="7" fill="#3D3D3D" />
<rect x="40" y="6" width="1" height="7" fill="#3D3D3D" />
<rect x="6" y="7" width="1" height="14" fill="#131313" />
<rect x="11" y="7" width="1" height="5" fill="#131313" />
<rect x="38" y="7" width="1" height="5" fill="#131313" />
<rect x="43" y="7" width="1" height="14" fill="#131313" />
<rect x="5" y="9" width="1" height="10" fill="#131313" />
<rect x="44" y="9" width="1" height="10" fill="#131313" />
<rect x="12" y="10" width="1" height="4" fill="#131313" />
<rect x="37" y="10" width="1" height="4" fill="#131313" />
<rect x="4" y="11" width="1" height="5" fill="#131313" />
<rect x="45" y="11" width="1" height="5" fill="#131313" />
<rect x="11" y="12" width="1" height="5" fill="#3D3D3D" />
<rect x="13" y="12" width="1" height="4" fill="#131313" />
<rect x="32" y="12" width="3" height="1" fill="#131313" />
<rect x="36" y="12" width="1" height="2" fill="#131313" />
<rect x="38" y="12" width="1" height="4" fill="#3D3D3D" />
<rect x="9" y="13" width="1" height="12" fill="#131313" />
<rect x="31" y="13" width="1" height="1" fill="#131313" />
<rect x="32" y="13" width="3" height="11" fill="#571C27" />
<rect x="35" y="13" width="1" height="1" fill="#131313" />
<rect x="40" y="13" width="1" height="12" fill="#131313" />
<rect x="12" y="14" width="1" height="2" fill="#3D3D3D" />
<rect x="14" y="14" width="3" height="1" fill="#131313" />
<rect x="30" y="14" width="1" height="1" fill="#131313" />
<rect x="31" y="14" width="1" height="16" fill="#571C27" />
<rect x="35" y="14" width="2" height="10" fill="#571C27" />
<rect x="37" y="14" width="1" height="1" fill="#3D3D3D" />
<rect x="10" y="15" width="1" height="3" fill="#131313" />
<rect x="14" y="15" width="3" height="9" fill="#571C27" />
<rect x="17" y="15" width="1" height="1" fill="#131313" />
<rect x="29" y="15" width="1" height="1" fill="#131313" />
<rect x="30" y="15" width="1" height="11" fill="#571C27" />
<rect x="37" y="15" width="1" height="11" fill="#571C27" />
<rect x="39" y="15" width="1" height="9" fill="#131313" />
<rect x="12" y="16" width="2" height="9" fill="#571C27" />
<rect x="17" y="16" width="1" height="8" fill="#571C27" />
<rect x="18" y="16" width="1" height="1" fill="#131313" />
<rect x="28" y="16" width="1" height="1" fill="#131313" />
<rect x="29" y="16" width="1" height="9" fill="#571C27" />
<rect x="38" y="16" width="1" height="5" fill="#571C27" />
<rect x="11" y="17" width="1" height="7" fill="#571C27" />
<rect x="18" y="17" width="1" height="7" fill="#571C27" />
<rect x="19" y="17" width="1" height="4" fill="#131313" />
<rect x="27" y="17" width="1" height="2" fill="#131313" />
<rect x="28" y="17" width="1" height="7" fill="#571C27" />
<rect x="10" y="18" width="1" height="5" fill="#571C27" />
<rect x="21" y="18" width="6" height="1" fill="#131313" />
<rect x="20" y="19" width="1" height="2" fill="#131313" />
<rect x="21" y="19" width="7" height="2" fill="#571C27" />
<rect x="19" y="21" width="3" height="4" fill="#571C27" />
<rect x="22" y="21" width="5" height="1" fill="#891E2B" />
<rect x="27" y="21" width="1" height="3" fill="#571C27" />
<rect x="38" y="21" width="1" height="2" fill="#131313" />
<rect x="22" y="22" width="1" height="5" fill="#571C27" />
<rect x="23" y="22" width="4" height="1" fill="#891E2B" />
<rect x="10" y="23" width="1" height="5" fill="#131313" />
<rect x="23" y="23" width="1" height="3" fill="#571C27" />
<rect x="24" y="23" width="1" height="7" fill="#C42430" />
<rect x="25" y="23" width="1" height="1" fill="#891E2B" />
<rect x="26" y="23" width="1" height="2" fill="#571C27" />
<rect x="38" y="23" width="1" height="8" fill="#571C27" />
<rect x="11" y="24" width="1" height="1" fill="#131313" />
<rect x="14" y="24" width="1" height="1" fill="#571C27" />
<rect x="15" y="24" width="4" height="4" fill="#891E2B" />
<rect x="25" y="24" width="1" height="1" fill="#571C27" />
<rect x="27" y="24" width="2" height="5" fill="#891E2B" />
<rect x="32" y="24" width="2" height="1" fill="#571C27" />
<rect x="34" y="24" width="3" height="3" fill="#891E2B" />
<rect x="39" y="24" width="1" height="6" fill="#571C27" />
<rect x="11" y="25" width="2" height="2" fill="#571C27" />
<rect x="13" y="25" width="2" height="3" fill="#891E2B" />
<rect x="19" y="25" width="1" height="3" fill="#891E2B" />
<rect x="20" y="25" width="2" height="1" fill="#571C27" />
<rect x="25" y="25" width="2" height="3" fill="#891E2B" />
<rect x="29" y="25" width="1" height="4" fill="#891E2B" />
<rect x="32" y="25" width="1" height="8" fill="#571C27" />
<rect x="33" y="25" width="1" height="1" fill="#891E2B" />
<rect x="40" y="25" width="1" height="3" fill="#571C27" />
<rect x="41" y="25" width="5" height="1" fill="#131313" />
<rect x="7" y="26" width="3" height="1" fill="#131313" />
<rect x="20" y="26" width="1" height="2" fill="#891E2B" />
<rect x="21" y="26" width="1" height="1" fill="#571C27" />
<rect x="23" y="26" width="1" height="4" fill="#C42430" />
<rect x="30" y="26" width="1" height="4" fill="#891E2B" />
<rect x="33" y="26" width="1" height="1" fill="#131313" />
<rect x="37" y="26" width="1" height="2" fill="#891E2B" />
<rect x="41" y="26" width="5" height="3" fill="#571C27" />
<rect x="46" y="26" width="3" height="1" fill="#131313" />
<rect x="6" y="27" width="1" height="1" fill="#131313" />
<rect x="7" y="27" width="3" height="8" fill="#571C27" />
<rect x="11" y="27" width="1" height="2" fill="#131313" />
<rect x="12" y="27" width="1" height="1" fill="#571C27" />
<rect x="21" y="27" width="2" height="2" fill="#C42430" />
<rect x="33" y="27" width="1" height="1" fill="#571C27" />
<rect x="34" y="27" width="1" height="1" fill="#131313" />
<rect x="35" y="27" width="2" height="1" fill="#891E2B" />
<rect x="46" y="27" width="3" height="12" fill="#571C27" />
<rect x="49" y="27" width="2" height="1" fill="#131313" />
<rect x="5" y="28" width="1" height="1" fill="#131313" />
<rect x="6" y="28" width="1" height="8" fill="#571C27" />
<rect x="10" y="28" width="1" height="8" fill="#571C27" />
<rect x="12" y="28" width="2" height="3" fill="#131313" />
<rect x="14" y="28" width="3" height="2" fill="#891E2B" />
<rect x="17" y="28" width="1" height="1" fill="#571C27" />
<rect x="18" y="28" width="1" height="1" fill="#891E2B" />
<rect x="19" y="28" width="2" height="1" fill="#C42430" />
<rect x="25" y="28" width="1" height="2" fill="#C42430" />
<rect x="26" y="28" width="1" height="2" fill="#891E2B" />
<rect x="33" y="28" width="1" height="4" fill="#891E2B" />
<rect x="34" y="28" width="2" height="1" fill="#571C27" />
<rect x="36" y="28" width="1" height="1" fill="#891E2B" />
<rect x="37" y="28" width="1" height="11" fill="#571C27" />
<rect x="40" y="28" width="1" height="1" fill="#131313" />
<rect x="49" y="28" width="2" height="11" fill="#571C27" />
<rect x="51" y="28" width="1" height="1" fill="#131313" />
<rect x="4" y="29" width="1" height="3" fill="#131313" />
<rect x="5" y="29" width="1" height="2" fill="#571C27" />
<rect x="11" y="29" width="1" height="2" fill="#571C27" />
<rect x="17" y="29" width="1" height="1" fill="#FFA214" />
<rect x="18" y="29" width="3" height="4" fill="#571C27" />
<rect x="21" y="29" width="1" height="1" fill="#C42430" />
<rect x="22" y="29" width="1" height="1" fill="#891E2B" />
<rect x="27" y="29" width="3" height="1" fill="#571C27" />
<rect x="34" y="29" width="2" height="4" fill="#891E2B" />
<rect x="36" y="29" width="1" height="10" fill="#571C27" />
<rect x="40" y="29" width="1" height="2" fill="#571C27" />
<rect x="41" y="29" width="1" height="1" fill="#131313" />
<rect x="42" y="29" width="4" height="2" fill="#571C27" />
<rect x="51" y="29" width="1" height="6" fill="#571C27" />
<rect x="52" y="29" width="1" height="1" fill="#131313" />
<rect x="14" y="30" width="1" height="6" fill="#891E2B" />
<rect x="15" y="30" width="1" height="4" fill="#571C27" />
<rect x="16" y="30" width="1" height="2" fill="#FFA214" />
<rect x="17" y="30" width="1" height="1" fill="#FFC825" />
<rect x="21" y="30" width="7" height="1" fill="#571C27" />
<rect x="28" y="30" width="1" height="3" fill="#891E2B" />
<rect x="29" y="30" width="2" height="1" fill="#571C27" />
<rect x="31" y="30" width="1" height="1" fill="#FFA214" />
<rect x="39" y="30" width="1" height="4" fill="#891E2B" />
<rect x="41" y="30" width="1" height="3" fill="#891E2B" />
<rect x="52" y="30" width="1" height="4" fill="#571C27" />
<rect x="53" y="30" width="1" height="1" fill="#131313" />
<rect x="5" y="31" width="1" height="1" fill="#131313" />
<rect x="11" y="31" width="2" height="1" fill="#891E2B" />
<rect x="13" y="31" width="1" height="3" fill="#131313" />
<rect x="17" y="31" width="1" height="8" fill="#571C27" />
<rect x="21" y="31" width="1" height="1" fill="#571C27" />
<rect x="22" y="31" width="2" height="4" fill="#891E2B" />
<rect x="24" y="31" width="3" height="1" fill="#571C27" />
<rect x="27" y="31" width="1" height="1" fill="#891E2B" />
<rect x="29" y="31" width="1" height="1" fill="#891E2B" />
<rect x="30" y="31" width="2" height="5" fill="#571C27" />
<rect x="38" y="31" width="1" height="3" fill="#891E2B" />
<rect x="40" y="31" width="1" height="1" fill="#891E2B" />
<rect x="42" y="31" width="1" height="9" fill="#891E2B" />
<rect x="43" y="31" width="3" height="2" fill="#571C27" />
<rect x="53" y="31" width="1" height="1" fill="#571C27" />
<rect x="54" y="31" width="1" height="1" fill="#131313" />
<rect x="3" y="32" width="1" height="1" fill="#131313" />
<rect x="4" y="32" width="2" height="10" fill="#571C27" />
<rect x="11" y="32" width="1" height="2" fill="#571C27" />
<rect x="12" y="32" width="1" height="2" fill="#131313" />
<rect x="16" y="32" width="1" height="3" fill="#571C27" />
<rect x="21" y="32" width="1" height="3" fill="#891E2B" />
<rect x="24" y="32" width="1" height="2" fill="#891E2B" />
<rect x="25" y="32" width="3" height="4" fill="#571C27" />
<rect x="29" y="32" width="1" height="3" fill="#571C27" />
<rect x="33" y="32" width="1" height="11" fill="#571C27" />
<rect x="40" y="32" width="1" height="8" fill="#571C27" />
<rect x="53" y="32" width="1" height="2" fill="#131313" />
<rect x="2" y="33" width="1" height="2" fill="#131313" />
<rect x="3" y="33" width="1" height="9" fill="#571C27" />
<rect x="18" y="33" width="2" height="4" fill="#571C27" />
<rect x="20" y="33" width="1" height="1" fill="#891E2B" />
<rect x="28" y="33" width="1" height="2" fill="#571C27" />
<rect x="32" y="33" width="1" height="1" fill="#891E2B" />
<rect x="34" y="33" width="2" height="7" fill="#571C27" />
<rect x="41" y="33" width="1" height="1" fill="#571C27" />
<rect x="43" y="33" width="1" height="1" fill="#891E2B" />
<rect x="44" y="33" width="2" height="7" fill="#571C27" />
<rect x="11" y="34" width="2" height="4" fill="#891E2B" />
<rect x="13" y="34" width="1" height="2" fill="#C42430" />
<rect x="15" y="34" width="1" height="4" fill="#891E2B" />
<rect x="20" y="34" width="1" height="4" fill="#571C27" />
<rect x="24" y="34" width="1" height="7" fill="#571C27" />
<rect x="32" y="34" width="1" height="10" fill="#571C27" />
<rect x="38" y="34" width="2" height="5" fill="#571C27" />
<rect x="41" y="34" width="1" height="2" fill="#891E2B" />
<rect x="43" y="34" width="1" height="1" fill="#571C27" />
<rect x="52" y="34" width="1" height="2" fill="#131313" />
<rect x="1" y="35" width="1" height="3" fill="#131313" />
<rect x="2" y="35" width="1" height="6" fill="#571C27" />
<rect x="7" y="35" width="1" height="1" fill="#891E2B" />
<rect x="8" y="35" width="2" height="2" fill="#571C27" />
<rect x="16" y="35" width="1" height="2" fill="#891E2B" />
<rect x="21" y="35" width="3" height="4" fill="#571C27" />
<rect x="28" y="35" width="2" height="4" fill="#891E2B" />
<rect x="43" y="35" width="1" height="9" fill="#891E2B" />
<rect x="51" y="35" width="1" height="1" fill="#131313" />
<rect x="6" y="36" width="1" height="1" fill="#891E2B" />
<rect x="7" y="36" width="1" height="15" fill="#571C27" />
<rect x="10" y="36" width="1" height="3" fill="#891E2B" />
<rect x="13" y="36" width="1" height="1" fill="#891E2B" />
<rect x="14" y="36" width="1" height="2" fill="#571C27" />
<rect x="25" y="36" width="2" height="6" fill="#571C27" />
<rect x="27" y="36" width="1" height="2" fill="#891E2B" />
<rect x="30" y="36" width="1" height="2" fill="#891E2B" />
<rect x="31" y="36" width="1" height="6" fill="#571C27" />
<rect x="41" y="36" width="1" height="3" fill="#571C27" />
<rect x="51" y="36" width="2" height="9" fill="#571C27" />
<rect x="53" y="36" width="1" height="1" fill="#131313" />
<rect x="6" y="37" width="1" height="13" fill="#571C27" />
<rect x="8" y="37" width="1" height="14" fill="#571C27" />
<rect x="9" y="37" width="1" height="2" fill="#891E2B" />
<rect x="13" y="37" width="1" height="1" fill="#571C27" />
<rect x="16" y="37" width="1" height="7" fill="#571C27" />
<rect x="18" y="37" width="2" height="5" fill="#891E2B" />
<rect x="53" y="37" width="1" height="6" fill="#571C27" />
<rect x="54" y="37" width="1" height="1" fill="#131313" />
<rect x="0" y="38" width="1" height="2" fill="#131313" />
<rect x="1" y="38" width="1" height="2" fill="#571C27" />
<rect x="11" y="38" width="1" height="2" fill="#571C27" />
<rect x="12" y="38" width="2" height="8" fill="#891E2B" />
<rect x="14" y="38" width="1" height="1" fill="#221100" />
<rect x="15" y="38" width="1" height="4" fill="#571C27" />
<rect x="20" y="38" width="1" height="3" fill="#891E2B" />
<rect x="27" y="38" width="1" height="7" fill="#571C27" />
<rect x="30" y="38" width="1" height="5" fill="#571C27" />
<rect x="54" y="38" width="1" height="2" fill="#571C27" />
<rect x="55" y="38" width="1" height="2" fill="#131313" />
<rect x="9" y="39" width="2" height="1" fill="#571C27" />
<rect x="14" y="39" width="1" height="2" fill="#571C27" />
<rect x="17" y="39" width="1" height="2" fill="#891E2B" />
<rect x="21" y="39" width="1" height="1" fill="#891E2B" />
<rect x="22" y="39" width="2" height="2" fill="#571C27" />
<rect x="28" y="39" width="2" height="4" fill="#571C27" />
<rect x="36" y="39" width="3" height="1" fill="#891E2B" />
<rect x="39" y="39" width="1" height="9" fill="#571C27" />
<rect x="41" y="39" width="1" height="1" fill="#131313" />
<rect x="46" y="39" width="1" height="2" fill="#891E2B" />
<rect x="47" y="39" width="1" height="2" fill="#571C27" />
<rect x="48" y="39" width="2" height="3" fill="#891E2B" />
<rect x="50" y="39" width="1" height="1" fill="#571C27" />
<rect x="1" y="40" width="1" height="1" fill="#131313" />
<rect x="9" y="40" width="3" height="1" fill="#891E2B" />
<rect x="21" y="40" width="1" height="2" fill="#571C27" />
<rect x="34" y="40" width="1" height="1" fill="#571C27" />
<rect x="35" y="40" width="3" height="1" fill="#891E2B" />
<rect x="38" y="40" width="1" height="7" fill="#571C27" />
<rect x="40" y="40" width="1" height="4" fill="#131313" />
<rect x="42" y="40" width="1" height="4" fill="#131313" />
<rect x="44" y="40" width="2" height="6" fill="#891E2B" />
<rect x="50" y="40" width="1" height="2" fill="#891E2B" />
<rect x="54" y="40" width="1" height="3" fill="#131313" />
<rect x="2" y="41" width="1" height="1" fill="#131313" />
<rect x="9" y="41" width="1" height="13" fill="#571C27" />
<rect x="10" y="41" width="2" height="1" fill="#891E2B" />
<rect x="14" y="41" width="1" height="1" fill="#221100" />
<rect x="17" y="41" width="1" height="3" fill="#571C27" />
<rect x="20" y="41" width="1" height="9" fill="#571C27" />
<rect x="22" y="41" width="3" height="3" fill="#891E2B" />
<rect x="34" y="41" width="3" height="1" fill="#891E2B" />
<rect x="37" y="41" width="1" height="7" fill="#571C27" />
<rect x="46" y="41" width="1" height="1" fill="#571C27" />
<rect x="47" y="41" width="1" height="2" fill="#891E2B" />
<rect x="3" y="42" width="2" height="1" fill="#131313" />
<rect x="5" y="42" width="1" height="8" fill="#571C27" />
<rect x="10" y="42" width="2" height="1" fill="#571C27" />
<rect x="14" y="42" width="1" height="6" fill="#571C27" />
<rect x="15" y="42" width="1" height="1" fill="#221100" />
<rect x="18" y="42" width="2" height="6" fill="#571C27" />
<rect x="21" y="42" width="1" height="1" fill="#891E2B" />
<rect x="25" y="42" width="1" height="2" fill="#891E2B" />
<rect x="26" y="42" width="1" height="4" fill="#571C27" />
<rect x="31" y="42" width="1" height="2" fill="#891E2B" />
<rect x="34" y="42" width="3" height="2" fill="#571C27" />
<rect x="46" y="42" width="1" height="2" fill="#891E2B" />
<rect x="48" y="42" width="1" height="1" fill="#891E2B" />
<rect x="49" y="42" width="2" height="4" fill="#571C27" />
<rect x="3" y="43" width="1" height="1" fill="#131313" />
<rect x="4" y="43" width="1" height="6" fill="#571C27" />
<rect x="10" y="43" width="1" height="2" fill="#571C27" />
<rect x="11" y="43" width="1" height="3" fill="#891E2B" />
<rect x="15" y="43" width="1" height="3" fill="#571C27" />
<rect x="21" y="43" width="1" height="8" fill="#571C27" />
<rect x="28" y="43" width="1" height="3" fill="#571C27" />
<rect x="29" y="43" width="2" height="1" fill="#891E2B" />
<rect x="33" y="43" width="1" height="4" fill="#891E2B" />
<rect x="47" y="43" width="2" height="8" fill="#571C27" />
<rect x="53" y="43" width="1" height="2" fill="#131313" />
<rect x="2" y="44" width="1" height="2" fill="#131313" />
<rect x="3" y="44" width="1" height="4" fill="#571C27" />
<rect x="16" y="44" width="2" height="3" fill="#891E2B" />
<rect x="22" y="44" width="1" height="6" fill="#571C27" />
<rect x="23" y="44" width="2" height="1" fill="#891E2B" />
<rect x="25" y="44" width="1" height="4" fill="#571C27" />
<rect x="29" y="44" width="1" height="4" fill="#571C27" />
<rect x="30" y="44" width="1" height="1" fill="#891E2B" />
<rect x="31" y="44" width="1" height="4" fill="#571C27" />
<rect x="32" y="44" width="1" height="3" fill="#891E2B" />
<rect x="34" y="44" width="2" height="1" fill="#891E2B" />
<rect x="36" y="44" width="1" height="5" fill="#571C27" />
<rect x="40" y="44" width="1" height="4" fill="#571C27" />
<rect x="41" y="44" width="1" height="4" fill="#131313" />
<rect x="43" y="44" width="1" height="2" fill="#131313" />
<rect x="46" y="44" width="1" height="7" fill="#571C27" />
<rect x="10" y="45" width="1" height="1" fill="#891E2B" />
<rect x="23" y="45" width="2" height="19" fill="#571C27" />
<rect x="27" y="45" width="1" height="9" fill="#891E2B" />
<rect x="30" y="45" width="1" height="3" fill="#571C27" />
<rect x="34" y="45" width="1" height="1" fill="#891E2B" />
<rect x="35" y="45" width="1" height="4" fill="#571C27" />
<rect x="51" y="45" width="1" height="1" fill="#571C27" />
<rect x="52" y="45" width="1" height="1" fill="#131313" />
<rect x="1" y="46" width="1" height="1" fill="#131313" />
<rect x="2" y="46" width="1" height="1" fill="#571C27" />
<rect x="10" y="46" width="3" height="6" fill="#571C27" />
<rect x="13" y="46" width="1" height="1" fill="#891E2B" />
<rect x="15" y="46" width="1" height="1" fill="#891E2B" />
<rect x="26" y="46" width="1" height="7" fill="#891E2B" />
<rect x="28" y="46" width="1" height="1" fill="#891E2B" />
<rect x="34" y="46" width="1" height="2" fill="#571C27" />
<rect x="42" y="46" width="1" height="1" fill="#131313" />
<rect x="43" y="46" width="2" height="1" fill="#891E2B" />
<rect x="45" y="46" width="1" height="4" fill="#571C27" />
<rect x="49" y="46" width="1" height="6" fill="#571C27" />
<rect x="50" y="46" width="2" height="1" fill="#131313" />
<rect x="2" y="47" width="1" height="1" fill="#131313" />
<rect x="13" y="47" width="1" height="5" fill="#571C27" />
<rect x="15" y="47" width="1" height="2" fill="#571C27" />
<rect x="16" y="47" width="1" height="1" fill="#891E2B" />
<rect x="17" y="47" width="1" height="1" fill="#571C27" />
<rect x="28" y="47" width="1" height="1" fill="#571C27" />
<rect x="32" y="47" width="2" height="1" fill="#571C27" />
<rect x="38" y="47" width="1" height="2" fill="#C42430" />
<rect x="43" y="47" width="1" height="3" fill="#131313" />
<rect x="44" y="47" width="1" height="2" fill="#571C27" />
<rect x="50" y="47" width="1" height="8" fill="#571C27" />
<rect x="51" y="47" width="1" height="5" fill="#131313" />
<rect x="3" y="48" width="1" height="1" fill="#131313" />
<rect x="14" y="48" width="1" height="1" fill="#C42430" />
<rect x="16" y="48" width="1" height="1" fill="#571C27" />
<rect x="17" y="48" width="3" height="1" fill="#891E2B" />
<rect x="25" y="48" width="1" height="4" fill="#891E2B" />
<rect x="28" y="48" width="1" height="6" fill="#891E2B" />
<rect x="29" y="48" width="1" height="1" fill="#C42430" />
<rect x="30" y="48" width="1" height="1" fill="#891E2B" />
<rect x="31" y="48" width="3" height="2" fill="#C42430" />
<rect x="34" y="48" width="1" height="3" fill="#891E2B" />
<rect x="37" y="48" width="1" height="2" fill="#C42430" />
<rect x="39" y="48" width="2" height="6" fill="#891E2B" />
<rect x="41" y="48" width="1" height="1" fill="#571C27" />
<rect x="42" y="48" width="1" height="2" fill="#131313" />
<rect x="4" y="49" width="1" height="1" fill="#131313" />
<rect x="14" y="49" width="1" height="3" fill="#571C27" />
<rect x="15" y="49" width="2" height="1" fill="#C42430" />
<rect x="17" y="49" width="2" height="1" fill="#571C27" />
<rect x="19" y="49" width="1" height="5" fill="#891E2B" />
<rect x="29" y="49" width="1" height="4" fill="#891E2B" />
<rect x="30" y="49" width="1" height="1" fill="#C42430" />
<rect x="35" y="49" width="2" height="1" fill="#C42430" />
<rect x="38" y="49" width="1" height="5" fill="#891E2B" />
<rect x="41" y="49" width="1" height="4" fill="#891E2B" />
<rect x="44" y="49" width="1" height="2" fill="#131313" />
<rect x="5" y="50" width="2" height="1" fill="#131313" />
<rect x="15" y="50" width="3" height="3" fill="#571C27" />
<rect x="18" y="50" width="1" height="2" fill="#891E2B" />
<rect x="20" y="50" width="1" height="4" fill="#891E2B" />
<rect x="22" y="50" width="1" height="2" fill="#131313" />
<rect x="30" y="50" width="1" height="3" fill="#891E2B" />
<rect x="31" y="50" width="2" height="2" fill="#C42430" />
<rect x="33" y="50" width="1" height="1" fill="#891E2B" />
<rect x="35" y="50" width="3" height="2" fill="#891E2B" />
<rect x="42" y="50" width="1" height="3" fill="#891E2B" />
<rect x="43" y="50" width="1" height="12" fill="#571C27" />
<rect x="45" y="50" width="1" height="3" fill="#131313" />
<rect x="6" y="51" width="1" height="3" fill="#131313" />
<rect x="7" y="51" width="2" height="2" fill="#C42430" />
<rect x="21" y="51" width="1" height="3" fill="#891E2B" />
<rect x="33" y="51" width="2" height="5" fill="#571C27" />
<rect x="44" y="51" width="1" height="2" fill="#571C27" />
<rect x="46" y="51" width="2" height="1" fill="#131313" />
<rect x="48" y="51" width="1" height="1" fill="#891E2B" />
<rect x="10" y="52" width="1" height="2" fill="#C42430" />
<rect x="11" y="52" width="1" height="1" fill="#891E2B" />
<rect x="12" y="52" width="1" height="3" fill="#571C27" />
<rect x="13" y="52" width="2" height="1" fill="#C42430" />
<rect x="18" y="52" width="1" height="11" fill="#571C27" />
<rect x="22" y="52" width="1" height="1" fill="#891E2B" />
<rect x="25" y="52" width="1" height="11" fill="#571C27" />
<rect x="31" y="52" width="1" height="2" fill="#C42430" />
<rect x="32" y="52" width="1" height="3" fill="#571C27" />
<rect x="35" y="52" width="1" height="5" fill="#571C27" />
<rect x="36" y="52" width="2" height="1" fill="#891E2B" />
<rect x="47" y="52" width="1" height="1" fill="#131313" />
<rect x="48" y="52" width="1" height="1" fill="#571C27" />
<rect x="49" y="52" width="1" height="1" fill="#891E2B" />
<rect x="51" y="52" width="1" height="5" fill="#571C27" />
<rect x="52" y="52" width="1" height="6" fill="#131313" />
<rect x="7" y="53" width="1" height="1" fill="#891E2B" />
<rect x="8" y="53" width="1" height="1" fill="#C42430" />
<rect x="11" y="53" width="1" height="2" fill="#C42430" />
<rect x="13" y="53" width="1" height="1" fill="#891E2B" />
<rect x="14" y="53" width="1" height="1" fill="#C42430" />
<rect x="15" y="53" width="1" height="1" fill="#891E2B" />
<rect x="16" y="53" width="2" height="1" fill="#571C27" />
<rect x="22" y="53" width="1" height="12" fill="#571C27" />
<rect x="26" y="53" width="1" height="9" fill="#571C27" />
<rect x="29" y="53" width="2" height="1" fill="#571C27" />
<rect x="36" y="53" width="1" height="4" fill="#571C27" />
<rect x="37" y="53" width="1" height="1" fill="#891E2B" />
<rect x="41" y="53" width="2" height="9" fill="#571C27" />
<rect x="44" y="53" width="1" height="1" fill="#131313" />
<rect x="48" y="53" width="1" height="1" fill="#131313" />
<rect x="49" y="53" width="1" height="1" fill="#571C27" />
<rect x="7" y="54" width="1" height="1" fill="#131313" />
<rect x="8" y="54" width="1" height="1" fill="#3D3D3D" />
<rect x="9" y="54" width="1" height="3" fill="#131313" />
<rect x="10" y="54" width="1" height="1" fill="#891E2B" />
<rect x="13" y="54" width="1" height="3" fill="#131313" />
<rect x="14" y="54" width="1" height="1" fill="#3D3D3D" />
<rect x="15" y="54" width="2" height="2" fill="#131313" />
<rect x="17" y="54" width="1" height="1" fill="#571C27" />
<rect x="19" y="54" width="3" height="10" fill="#571C27" />
<rect x="27" y="54" width="3" height="1" fill="#571C27" />
<rect x="30" y="54" width="1" height="1" fill="#131313" />
<rect x="31" y="54" width="1" height="1" fill="#3D3D3D" />
<rect x="37" y="54" width="4" height="7" fill="#571C27" />
<rect x="44" y="54" width="1" height="7" fill="#571C27" />
<rect x="45" y="54" width="1" height="1" fill="#131313" />
<rect x="49" y="54" width="1" height="1" fill="#131313" />
<rect x="8" y="55" width="1" height="1" fill="#131313" />
<rect x="10" y="55" width="1" height="1" fill="#131313" />
<rect x="11" y="55" width="1" height="1" fill="#3D3D3D" />
<rect x="12" y="55" width="1" height="3" fill="#131313" />
<rect x="14" y="55" width="1" height="1" fill="#131313" />
<rect x="17" y="55" width="1" height="2" fill="#131313" />
<rect x="27" y="55" width="2" height="1" fill="#571C27" />
<rect x="29" y="55" width="1" height="1" fill="#131313" />
<rect x="31" y="55" width="2" height="1" fill="#131313" />
<rect x="45" y="55" width="1" height="6" fill="#571C27" />
<rect x="46" y="55" width="1" height="1" fill="#131313" />
<rect x="50" y="55" width="1" height="4" fill="#131313" />
<rect x="54" y="55" width="11" height="2" fill="#131313" />
<rect x="11" y="56" width="1" height="1" fill="#131313" />
<rect x="15" y="56" width="1" height="1" fill="#131313" />
<rect x="27" y="56" width="1" height="5" fill="#571C27" />
<rect x="28" y="56" width="1" height="5" fill="#131313" />
<rect x="32" y="56" width="2" height="1" fill="#131313" />
<rect x="34" y="56" width="1" height="1" fill="#571C27" />
<rect x="46" y="56" width="1" height="2" fill="#571C27" />
<rect x="47" y="56" width="2" height="1" fill="#131313" />
<rect x="53" y="56" width="1" height="2" fill="#131313" />
<rect x="65" y="56" width="2" height="3" fill="#131313" />
<rect x="16" y="57" width="1" height="5" fill="#131313" />
<rect x="17" y="57" width="1" height="5" fill="#571C27" />
<rect x="33" y="57" width="1" height="2" fill="#131313" />
<rect x="34" y="57" width="1" height="1" fill="#891E2B" />
<rect x="35" y="57" width="1" height="1" fill="#C42430" />
<rect x="36" y="57" width="1" height="1" fill="#891E2B" />
<rect x="47" y="57" width="2" height="2" fill="#571C27" />
<rect x="49" y="57" width="1" height="1" fill="#131313" />
<rect x="51" y="57" width="1" height="2" fill="#131313" />
<rect x="54" y="57" width="11" height="1" fill="#272727" />
<rect x="67" y="57" width="1" height="1" fill="#131313" />
<rect x="34" y="58" width="1" height="1" fill="#3D3D3D" />
<rect x="35" y="58" width="1" height="1" fill="#891E2B" />
<rect x="36" y="58" width="1" height="1" fill="#571C27" />
<rect x="46" y="58" width="1" height="2" fill="#891E2B" />
<rect x="49" y="58" width="1" height="2" fill="#571C27" />
<rect x="52" y="58" width="2" height="1" fill="#272727" />
<rect x="54" y="58" width="9" height="1" fill="#3D3D3D" />
<rect x="63" y="58" width="1" height="2" fill="#272727" />
<rect x="64" y="58" width="1" height="4" fill="#131313" />
<rect x="32" y="59" width="1" height="1" fill="#131313" />
<rect x="33" y="59" width="1" height="1" fill="#3D3D3D" />
<rect x="34" y="59" width="1" height="2" fill="#131313" />
<rect x="35" y="59" width="1" height="1" fill="#571C27" />
<rect x="36" y="59" width="1" height="2" fill="#131313" />
<rect x="47" y="59" width="1" height="1" fill="#891E2B" />
<rect x="48" y="59" width="1" height="1" fill="#571C27" />
<rect x="50" y="59" width="2" height="4" fill="#571C27" />
<rect x="52" y="59" width="2" height="2" fill="#131313" />
<rect x="54" y="59" width="1" height="1" fill="#272727" />
<rect x="55" y="59" width="8" height="1" fill="#3D3D3D" />
<rect x="65" y="59" width="1" height="1" fill="#131313" />
<rect x="33" y="60" width="1" height="1" fill="#131313" />
<rect x="35" y="60" width="1" height="1" fill="#131313" />
<rect x="46" y="60" width="2" height="1" fill="#571C27" />
<rect x="48" y="60" width="2" height="1" fill="#891E2B" />
<rect x="54" y="60" width="1" height="6" fill="#131313" />
<rect x="55" y="60" width="1" height="2" fill="#272727" />
<rect x="56" y="60" width="2" height="1" fill="#3D3D3D" />
<rect x="58" y="60" width="1" height="2" fill="#272727" />
<rect x="59" y="60" width="1" height="1" fill="#3D3D3D" />
<rect x="60" y="60" width="3" height="1" fill="#272727" />
<rect x="63" y="60" width="1" height="3" fill="#131313" />
<rect x="27" y="61" width="1" height="1" fill="#131313" />
<rect x="37" y="61" width="1" height="1" fill="#131313" />
<rect x="38" y="61" width="3" height="1" fill="#571C27" />
<rect x="44" y="61" width="3" height="1" fill="#131313" />
<rect x="47" y="61" width="3" height="1" fill="#571C27" />
<rect x="52" y="61" width="1" height="1" fill="#571C27" />
<rect x="53" y="61" width="1" height="5" fill="#131313" />
<rect x="56" y="61" width="2" height="1" fill="#272727" />
<rect x="59" y="61" width="1" height="1" fill="#272727" />
<rect x="60" y="61" width="1" height="4" fill="#131313" />
<rect x="61" y="61" width="2" height="1" fill="#272727" />
<rect x="17" y="62" width="1" height="1" fill="#131313" />
<rect x="26" y="62" width="1" height="1" fill="#131313" />
<rect x="38" y="62" width="1" height="1" fill="#131313" />
<rect x="39" y="62" width="3" height="1" fill="#571C27" />
<rect x="42" y="62" width="2" height="1" fill="#131313" />
<rect x="47" y="62" width="2" height="1" fill="#131313" />
<rect x="49" y="62" width="1" height="1" fill="#571C27" />
<rect x="52" y="62" width="1" height="3" fill="#131313" />
<rect x="55" y="62" width="5" height="3" fill="#131313" />
<rect x="61" y="62" width="2" height="2" fill="#131313" />
<rect x="18" y="63" width="1" height="1" fill="#131313" />
<rect x="25" y="63" width="1" height="1" fill="#131313" />
<rect x="39" y="63" width="3" height="1" fill="#131313" />
<rect x="49" y="63" width="3" height="1" fill="#131313" />
<rect x="19" y="64" width="2" height="1" fill="#131313" />
<rect x="21" y="64" width="1" height="1" fill="#571C27" />
<rect x="23" y="64" width="1" height="1" fill="#571C27" />
<rect x="24" y="64" width="1" height="1" fill="#131313" />
<rect x="51" y="64" width="1" height="1" fill="#131313" />
<rect x="21" y="65" width="3" height="1" fill="#131313" />
<rect x="55" y="65" width="4" height="1" fill="#131313" />
</svg>