<?xml version="1.0" encoding="UTF-8" ?>
<svg version="1.1" width="64" height="66" xmlns="http://www.w3.org/2000/svg" shape-rendering="crispEdges">
<rect x="8" y="0" width="2" height="4" fill="#131313" />
<rect x="32" y="0" width="2" height="4" fill="#131313" />
<rect x="7" y="1" width="1" height="2" fill="#131313" />
<rect x="10" y="1" width="1" height="1" fill="#131313" />
<rect x="31" y="1" width="1" height="1" fill="#131313" />
<rect x="34" y="1" width="1" height="2" fill="#131313" />
<rect x="6" y="2" width="1" height="2" fill="#131313" />
<rect x="35" y="2" width="1" height="2" fill="#131313" />
<rect x="5" y="3" width="1" height="3" fill="#131313" />
<rect x="7" y="3" width="1" height="1" fill="#3D3D3D" />
<rect x="34" y="3" width="1" height="1" fill="#3D3D3D" />
<rect x="36" y="3" width="1" height="3" fill="#131313" />
<rect x="4" y="4" width="1" height="20" fill="#131313" />
<rect x="6" y="4" width="1" height="11" fill="#3D3D3D" />
<rect x="7" y="4" width="2" height="3" fill="#131313" />
<rect x="33" y="4" width="2" height="3" fill="#131313" />
<rect x="35" y="4" width="1" height="11" fill="#3D3D3D" />
<rect x="37" y="4" width="1" height="20" fill="#131313" />
<rect x="3" y="5" width="1" height="18" fill="#131313" />
<rect x="38" y="5" width="1" height="18" fill="#131313" />
<rect x="5" y="6" width="1" height="7" fill="#3D3D3D" />
<rect x="36" y="6" width="1" height="7" fill="#3D3D3D" />
<rect x="2" y="7" width="1" height="14" fill="#131313" />
<rect x="7" y="7" width="1" height="5" fill="#131313" />
<rect x="34" y="7" width="1" height="5" fill="#131313" />
<rect x="39" y="7" width="1" height="14" fill="#131313" />
<rect x="1" y="9" width="1" height="10" fill="#131313" />
<rect x="40" y="9" width="1" height="10" fill="#131313" />
<rect x="8" y="10" width="1" height="4" fill="#131313" />
<rect x="33" y="10" width="1" height="4" fill="#131313" />
<rect x="0" y="11" width="1" height="5" fill="#131313" />
<rect x="41" y="11" width="1" height="5" fill="#131313" />
<rect x="7" y="12" width="1" height="5" fill="#3D3D3D" />
<rect x="9" y="12" width="1" height="4" fill="#131313" />
<rect x="32" y="12" width="1" height="4" fill="#131313" />
<rect x="34" y="12" width="1" height="5" fill="#3D3D3D" />
<rect x="5" y="13" width="1" height="12" fill="#131313" />
<rect x="36" y="13" width="1" height="12" fill="#131313" />
<rect x="8" y="14" width="1" height="5" fill="#3D3D3D" />
<rect x="10" y="14" width="1" height="3" fill="#131313" />
<rect x="31" y="14" width="1" height="3" fill="#131313" />
<rect x="33" y="14" width="1" height="5" fill="#3D3D3D" />
<rect x="6" y="15" width="1" height="11" fill="#131313" />
<rect x="35" y="15" width="1" height="12" fill="#131313" />
<rect x="9" y="16" width="1" height="5" fill="#3D3D3D" />
<rect x="11" y="16" width="1" height="2" fill="#131313" />
<rect x="30" y="16" width="1" height="2" fill="#131313" />
<rect x="32" y="16" width="1" height="5" fill="#3D3D3D" />
<rect x="7" y="17" width="1" height="10" fill="#131313" />
<rect x="10" y="17" width="1" height="5" fill="#3D3D3D" />
<rect x="12" y="17" width="1" height="2" fill="#131313" />
<rect x="29" y="17" width="1" height="2" fill="#131313" />
<rect x="31" y="17" width="1" height="5" fill="#3D3D3D" />
<rect x="34" y="17" width="1" height="9" fill="#131313" />
<rect x="11" y="18" width="1" height="5" fill="#3D3D3D" />
<rect x="13" y="18" width="2" height="2" fill="#131313" />
<rect x="17" y="18" width="8" height="1" fill="#131313" />
<rect x="27" y="18" width="2" height="2" fill="#131313" />
<rect x="30" y="18" width="1" height="5" fill="#3D3D3D" />
<rect x="8" y="19" width="1" height="9" fill="#131313" />
<rect x="12" y="19" width="1" height="5" fill="#3D3D3D" />
<rect x="15" y="19" width="2" height="2" fill="#131313" />
<rect x="17" y="19" width="8" height="2" fill="#571C27" />
<rect x="25" y="19" width="2" height="1" fill="#131313" />
<rect x="29" y="19" width="1" height="5" fill="#3D3D3D" />
<rect x="33" y="19" width="1" height="8" fill="#131313" />
<rect x="13" y="20" width="2" height="2" fill="#3D3D3D" />
<rect x="25" y="20" width="1" height="3" fill="#571C27" />
<rect x="26" y="20" width="1" height="2" fill="#131313" />
<rect x="27" y="20" width="2" height="2" fill="#3D3D3D" />
<rect x="9" y="21" width="1" height="7" fill="#131313" />
<rect x="15" y="21" width="1" height="1" fill="#131313" />
<rect x="16" y="21" width="1" height="1" fill="#571C27" />
<rect x="17" y="21" width="4" height="2" fill="#891E2B" />
<rect x="21" y="21" width="4" height="1" fill="#571C27" />
<rect x="32" y="21" width="1" height="7" fill="#131313" />
<rect x="10" y="22" width="1" height="7" fill="#131313" />
<rect x="13" y="22" width="1" height="2" fill="#3D3D3D" />
<rect x="14" y="22" width="1" height="2" fill="#131313" />
<rect x="15" y="22" width="1" height="2" fill="#571C27" />
<rect x="16" y="22" width="1" height="3" fill="#891E2B" />
<rect x="21" y="22" width="3" height="2" fill="#891E2B" />
<rect x="24" y="22" width="1" height="1" fill="#571C27" />
<rect x="26" y="22" width="1" height="2" fill="#571C27" />
<rect x="27" y="22" width="1" height="2" fill="#131313" />
<rect x="28" y="22" width="1" height="2" fill="#3D3D3D" />
<rect x="31" y="22" width="1" height="6" fill="#131313" />
<rect x="11" y="23" width="1" height="5" fill="#131313" />
<rect x="17" y="23" width="1" height="1" fill="#891E2B" />
<rect x="18" y="23" width="3" height="6" fill="#C42430" />
<rect x="24" y="23" width="2" height="5" fill="#891E2B" />
<rect x="30" y="23" width="1" height="5" fill="#131313" />
<rect x="12" y="24" width="2" height="2" fill="#131313" />
<rect x="14" y="24" width="1" height="2" fill="#571C27" />
<rect x="15" y="24" width="1" height="2" fill="#891E2B" />
<rect x="17" y="24" width="1" height="7" fill="#C42430" />
<rect x="21" y="24" width="1" height="6" fill="#C42430" />
<rect x="22" y="24" width="2" height="1" fill="#891E2B" />
<rect x="26" y="24" width="1" height="4" fill="#891E2B" />
<rect x="27" y="24" width="1" height="2" fill="#571C27" />
<rect x="28" y="24" width="2" height="2" fill="#131313" />
<rect x="16" y="25" width="1" height="5" fill="#C42430" />
<rect x="22" y="25" width="1" height="4" fill="#C42430" />
<rect x="23" y="25" width="1" height="1" fill="#891E2B" />
<rect x="12" y="26" width="1" height="2" fill="#131313" />
<rect x="13" y="26" width="1" height="1" fill="#571C27" />
<rect x="14" y="26" width="1" height="1" fill="#891E2B" />
<rect x="15" y="26" width="1" height="3" fill="#C42430" />
<rect x="23" y="26" width="1" height="2" fill="#C42430" />
<rect x="27" y="26" width="1" height="2" fill="#891E2B" />
<rect x="28" y="26" width="1" height="2" fill="#571C27" />
<rect x="29" y="26" width="1" height="1" fill="#131313" />
<rect x="34" y="26" width="1" height="21" fill="#571C27" />
<rect x="13" y="27" width="1" height="1" fill="#891E2B" />
<rect x="14" y="27" width="1" height="1" fill="#C42430" />
<rect x="29" y="27" width="1" height="1" fill="#571C27" />
<rect x="33" y="27" width="1" height="20" fill="#571C27" />
<rect x="35" y="27" width="1" height="4" fill="#571C27" />
<rect x="36" y="27" width="1" height="2" fill="#131313" />
<rect x="11" y="28" width="3" height="1" fill="#571C27" />
<rect x="14" y="28" width="1" height="1" fill="#891E2B" />
<rect x="23" y="28" width="2" height="1" fill="#891E2B" />
<rect x="25" y="28" width="3" height="1" fill="#571C27" />
<rect x="28" y="28" width="2" height="1" fill="#891E2B" />
<rect x="30" y="28" width="3" height="1" fill="#571C27" />
<rect x="9" y="29" width="1" height="5" fill="#131313" />
<rect x="10" y="29" width="1" height="7" fill="#891E2B" />
<rect x="11" y="29" width="1" height="5" fill="#571C27" />
<rect x="12" y="29" width="2" height="1" fill="#FFA214" />
<rect x="14" y="29" width="1" height="1" fill="#571C27" />
<rect x="15" y="29" width="1" height="1" fill="#891E2B" />
<rect x="18" y="29" width="1" height="2" fill="#891E2B" />
<rect x="19" y="29" width="2" height="1" fill="#C42430" />
<rect x="22" y="29" width="2" height="1" fill="#891E2B" />
<rect x="24" y="29" width="1" height="1" fill="#571C27" />
<rect x="25" y="29" width="3" height="1" fill="#FFA214" />
<rect x="28" y="29" width="1" height="4" fill="#571C27" />
<rect x="29" y="29" width="2" height="7" fill="#891E2B" />
<rect x="31" y="29" width="2" height="2" fill="#571C27" />
<rect x="36" y="29" width="1" height="3" fill="#571C27" />
<rect x="37" y="29" width="1" height="2" fill="#131313" />
<rect x="12" y="30" width="1" height="3" fill="#FFA214" />
<rect x="13" y="30" width="1" height="1" fill="#FFC825" />
<rect x="14" y="30" width="1" height="1" fill="#FFA214" />
<rect x="15" y="30" width="1" height="1" fill="#571C27" />
<rect x="16" y="30" width="1" height="1" fill="#891E2B" />
<rect x="19" y="30" width="1" height="2" fill="#891E2B" />
<rect x="20" y="30" width="1" height="1" fill="#C42430" />
<rect x="21" y="30" width="2" height="1" fill="#891E2B" />
<rect x="23" y="30" width="1" height="1" fill="#571C27" />
<rect x="24" y="30" width="2" height="1" fill="#FFA214" />
<rect x="26" y="30" width="1" height="3" fill="#FFC825" />
<rect x="27" y="30" width="1" height="3" fill="#FFA214" />
<rect x="13" y="31" width="1" height="1" fill="#FFEB57" />
<rect x="14" y="31" width="1" height="1" fill="#FFC825" />
<rect x="15" y="31" width="1" height="1" fill="#FFA214" />
<rect x="16" y="31" width="1" height="1" fill="#571C27" />
<rect x="17" y="31" width="1" height="1" fill="#891E2B" />
<rect x="18" y="31" width="1" height="3" fill="#571C27" />
<rect x="20" y="31" width="1" height="1" fill="#891E2B" />
<rect x="21" y="31" width="2" height="1" fill="#571C27" />
<rect x="23" y="31" width="1" height="1" fill="#FFA214" />
<rect x="24" y="31" width="1" height="1" fill="#FFC825" />
<rect x="25" y="31" width="1" height="2" fill="#FFEB57" />
<rect x="31" y="31" width="1" height="10" fill="#891E2B" />
<rect x="32" y="31" width="1" height="3" fill="#571C27" />
<rect x="35" y="31" width="1" height="2" fill="#891E2B" />
<rect x="37" y="31" width="1" height="2" fill="#571C27" />
<rect x="38" y="31" width="1" height="1" fill="#131313" />
<rect x="13" y="32" width="1" height="1" fill="#FFC825" />
<rect x="14" y="32" width="1" height="1" fill="#FFEB57" />
<rect x="15" y="32" width="1" height="1" fill="#FFC825" />
<rect x="16" y="32" width="1" height="2" fill="#FFA214" />
<rect x="17" y="32" width="1" height="2" fill="#571C27" />
<rect x="19" y="32" width="2" height="2" fill="#571C27" />
<rect x="21" y="32" width="2" height="1" fill="#FFA214" />
<rect x="23" y="32" width="1" height="1" fill="#FFC825" />
<rect x="24" y="32" width="1" height="2" fill="#FFEB57" />
<rect x="36" y="32" width="1" height="2" fill="#891E2B" />
<rect x="38" y="32" width="1" height="2" fill="#571C27" />
<rect x="39" y="32" width="1" height="2" fill="#131313" />
<rect x="12" y="33" width="1" height="2" fill="#571C27" />
<rect x="13" y="33" width="3" height="1" fill="#FFA214" />
<rect x="21" y="33" width="1" height="1" fill="#FFA214" />
<rect x="22" y="33" width="1" height="1" fill="#FFC825" />
<rect x="23" y="33" width="1" height="1" fill="#FFEB57" />
<rect x="25" y="33" width="1" height="1" fill="#FFC825" />
<rect x="26" y="33" width="1" height="1" fill="#FFA214" />
<rect x="27" y="33" width="1" height="1" fill="#571C27" />
<rect x="28" y="33" width="1" height="3" fill="#891E2B" />
<rect x="35" y="33" width="1" height="15" fill="#571C27" />
<rect x="37" y="33" width="1" height="3" fill="#891E2B" />
<rect x="8" y="34" width="1" height="2" fill="#131313" />
<rect x="9" y="34" width="1" height="2" fill="#C42430" />
<rect x="11" y="34" width="1" height="4" fill="#891E2B" />
<rect x="13" y="34" width="4" height="1" fill="#571C27" />
<rect x="17" y="34" width="4" height="2" fill="#891E2B" />
<rect x="21" y="34" width="1" height="1" fill="#571C27" />
<rect x="22" y="34" width="4" height="1" fill="#FFA214" />
<rect x="26" y="34" width="1" height="1" fill="#571C27" />
<rect x="27" y="34" width="1" height="3" fill="#891E2B" />
<rect x="32" y="34" width="1" height="4" fill="#891E2B" />
<rect x="36" y="34" width="1" height="6" fill="#571C27" />
<rect x="38" y="34" width="1" height="4" fill="#891E2B" />
<rect x="39" y="34" width="1" height="2" fill="#571C27" />
<rect x="40" y="34" width="1" height="1" fill="#131313" />
<rect x="12" y="35" width="5" height="1" fill="#891E2B" />
<rect x="21" y="35" width="1" height="3" fill="#891E2B" />
<rect x="22" y="35" width="4" height="1" fill="#571C27" />
<rect x="26" y="35" width="1" height="3" fill="#891E2B" />
<rect x="40" y="35" width="1" height="3" fill="#571C27" />
<rect x="41" y="35" width="1" height="2" fill="#131313" />
<rect x="7" y="36" width="1" height="1" fill="#131313" />
<rect x="8" y="36" width="1" height="1" fill="#C42430" />
<rect x="9" y="36" width="1" height="1" fill="#891E2B" />
<rect x="10" y="36" width="1" height="2" fill="#571C27" />
<rect x="12" y="36" width="1" height="1" fill="#891E2B" />
<rect x="13" y="36" width="1" height="1" fill="#131313" />
<rect x="14" y="36" width="1" height="1" fill="#891E2B" />
<rect x="15" y="36" width="1" height="1" fill="#131313" />
<rect x="16" y="36" width="2" height="1" fill="#891E2B" />
<rect x="18" y="36" width="1" height="2" fill="#131313" />
<rect x="19" y="36" width="2" height="1" fill="#891E2B" />
<rect x="22" y="36" width="4" height="1" fill="#891E2B" />
<rect x="28" y="36" width="2" height="1" fill="#131313" />
<rect x="30" y="36" width="1" height="1" fill="#891E2B" />
<rect x="37" y="36" width="1" height="1" fill="#571C27" />
<rect x="39" y="36" width="1" height="3" fill="#891E2B" />
<rect x="6" y="37" width="1" height="1" fill="#131313" />
<rect x="7" y="37" width="1" height="1" fill="#C42430" />
<rect x="8" y="37" width="1" height="1" fill="#891E2B" />
<rect x="9" y="37" width="1" height="1" fill="#571C27" />
<rect x="12" y="37" width="1" height="1" fill="#131313" />
<rect x="13" y="37" width="1" height="4" fill="#FFC825" />
<rect x="14" y="37" width="1" height="2" fill="#131313" />
<rect x="15" y="37" width="1" height="1" fill="#FFC825" />
<rect x="16" y="37" width="1" height="2" fill="#131313" />
<rect x="17" y="37" width="1" height="1" fill="#891E2B" />
<rect x="19" y="37" width="1" height="1" fill="#891E2B" />
<rect x="20" y="37" width="1" height="1" fill="#131313" />
<rect x="22" y="37" width="1" height="1" fill="#891E2B" />
<rect x="23" y="37" width="3" height="1" fill="#131313" />
<rect x="27" y="37" width="1" height="1" fill="#131313" />
<rect x="28" y="37" width="2" height="1" fill="#FFA214" />
<rect x="30" y="37" width="1" height="3" fill="#131313" />
<rect x="37" y="37" width="1" height="3" fill="#131313" />
<rect x="41" y="37" width="1" height="5" fill="#571C27" />
<rect x="42" y="37" width="1" height="1" fill="#131313" />
<rect x="5" y="38" width="1" height="3" fill="#131313" />
<rect x="6" y="38" width="1" height="2" fill="#C42430" />
<rect x="7" y="38" width="1" height="1" fill="#891E2B" />
<rect x="8" y="38" width="1" height="1" fill="#571C27" />
<rect x="9" y="38" width="2" height="1" fill="#221100" />
<rect x="11" y="38" width="1" height="4" fill="#571C27" />
<rect x="12" y="38" width="1" height="2" fill="#FFA214" />
<rect x="15" y="38" width="1" height="2" fill="#FFEB57" />
<rect x="17" y="38" width="1" height="2" fill="#131313" />
<rect x="18" y="38" width="1" height="1" fill="#FFC825" />
<rect x="19" y="38" width="1" height="2" fill="#131313" />
<rect x="20" y="38" width="1" height="1" fill="#FFC825" />
<rect x="21" y="38" width="2" height="1" fill="#131313" />
<rect x="23" y="38" width="2" height="1" fill="#FFC825" />
<rect x="25" y="38" width="2" height="1" fill="#131313" />
<rect x="27" y="38" width="2" height="1" fill="#FFC825" />
<rect x="29" y="38" width="1" height="2" fill="#FFA214" />
<rect x="32" y="38" width="1" height="9" fill="#571C27" />
<rect x="38" y="38" width="1" height="3" fill="#131313" />
<rect x="40" y="38" width="1" height="3" fill="#891E2B" />
<rect x="42" y="38" width="1" height="8" fill="#571C27" />
<rect x="43" y="38" width="1" height="1" fill="#131313" />
<rect x="7" y="39" width="2" height="1" fill="#221100" />
<rect x="9" y="39" width="2" height="2" fill="#571C27" />
<rect x="14" y="39" width="1" height="3" fill="#FFC825" />
<rect x="16" y="39" width="1" height="1" fill="#FFC825" />
<rect x="18" y="39" width="1" height="3" fill="#FFEB57" />
<rect x="20" y="39" width="1" height="3" fill="#FFEB57" />
<rect x="21" y="39" width="1" height="1" fill="#FFC825" />
<rect x="22" y="39" width="1" height="1" fill="#131313" />
<rect x="23" y="39" width="2" height="3" fill="#FFEB57" />
<rect x="25" y="39" width="1" height="1" fill="#131313" />
<rect x="26" y="39" width="1" height="1" fill="#FFC825" />
<rect x="27" y="39" width="1" height="2" fill="#FFEB57" />
<rect x="28" y="39" width="1" height="1" fill="#FFC825" />
<rect x="39" y="39" width="1" height="2" fill="#C42430" />
<rect x="43" y="39" width="1" height="7" fill="#571C27" />
<rect x="44" y="39" width="1" height="3" fill="#131313" />
<rect x="6" y="40" width="2" height="1" fill="#891E2B" />
<rect x="8" y="40" width="1" height="8" fill="#571C27" />
<rect x="12" y="40" width="1" height="2" fill="#131313" />
<rect x="15" y="40" width="1" height="1" fill="#FFC825" />
<rect x="16" y="40" width="1" height="1" fill="#FFEB57" />
<rect x="17" y="40" width="1" height="2" fill="#FFC825" />
<rect x="19" y="40" width="1" height="1" fill="#FFC825" />
<rect x="21" y="40" width="1" height="1" fill="#FFEB57" />
<rect x="22" y="40" width="1" height="1" fill="#FFC825" />
<rect x="25" y="40" width="2" height="1" fill="#FFEB57" />
<rect x="28" y="40" width="1" height="1" fill="#FFA214" />
<rect x="29" y="40" width="1" height="1" fill="#131313" />
<rect x="30" y="40" width="1" height="3" fill="#891E2B" />
<rect x="36" y="40" width="1" height="4" fill="#131313" />
<rect x="6" y="41" width="1" height="6" fill="#131313" />
<rect x="7" y="41" width="1" height="6" fill="#891E2B" />
<rect x="9" y="41" width="1" height="6" fill="#571C27" />
<rect x="10" y="41" width="1" height="1" fill="#221100" />
<rect x="13" y="41" width="1" height="1" fill="#FFA214" />
<rect x="15" y="41" width="1" height="2" fill="#131313" />
<rect x="16" y="41" width="1" height="2" fill="#FFC825" />
<rect x="19" y="41" width="1" height="1" fill="#FFEB57" />
<rect x="21" y="41" width="1" height="1" fill="#FFC825" />
<rect x="22" y="41" width="1" height="1" fill="#FFEB57" />
<rect x="25" y="41" width="1" height="1" fill="#FFC825" />
<rect x="26" y="41" width="1" height="1" fill="#FFEB57" />
<rect x="27" y="41" width="1" height="1" fill="#FFC825" />
<rect x="28" y="41" width="1" height="1" fill="#131313" />
<rect x="29" y="41" width="1" height="3" fill="#891E2B" />
<rect x="31" y="41" width="1" height="6" fill="#571C27" />
<rect x="39" y="41" width="1" height="5" fill="#131313" />
<rect x="40" y="41" width="1" height="6" fill="#C42430" />
<rect x="10" y="42" width="1" height="4" fill="#571C27" />
<rect x="11" y="42" width="1" height="1" fill="#221100" />
<rect x="12" y="42" width="1" height="3" fill="#571C27" />
<rect x="13" y="42" width="1" height="1" fill="#131313" />
<rect x="14" y="42" width="1" height="1" fill="#FFA214" />
<rect x="17" y="42" width="1" height="1" fill="#131313" />
<rect x="18" y="42" width="3" height="1" fill="#FFC825" />
<rect x="21" y="42" width="1" height="1" fill="#131313" />
<rect x="22" y="42" width="3" height="1" fill="#FFC825" />
<rect x="25" y="42" width="1" height="1" fill="#131313" />
<rect x="26" y="42" width="1" height="1" fill="#FFC825" />
<rect x="27" y="42" width="1" height="1" fill="#131313" />
<rect x="28" y="42" width="1" height="2" fill="#891E2B" />
<rect x="41" y="42" width="1" height="6" fill="#891E2B" />
<rect x="44" y="42" width="1" height="4" fill="#571C27" />
<rect x="45" y="42" width="1" height="1" fill="#131313" />
<rect x="11" y="43" width="1" height="2" fill="#571C27" />
<rect x="13" y="43" width="1" height="1" fill="#571C27" />
<rect x="14" y="43" width="1" height="1" fill="#131313" />
<rect x="15" y="43" width="1" height="5" fill="#571C27" />
<rect x="16" y="43" width="1" height="1" fill="#131313" />
<rect x="17" y="43" width="1" height="2" fill="#891E2B" />
<rect x="18" y="43" width="1" height="1" fill="#131313" />
<rect x="19" y="43" width="1" height="1" fill="#FFC825" />
<rect x="20" y="43" width="1" height="1" fill="#131313" />
<rect x="21" y="43" width="1" height="4" fill="#891E2B" />
<rect x="22" y="43" width="3" height="1" fill="#131313" />
<rect x="25" y="43" width="1" height="2" fill="#891E2B" />
<rect x="26" y="43" width="1" height="1" fill="#131313" />
<rect x="27" y="43" width="1" height="2" fill="#891E2B" />
<rect x="30" y="43" width="1" height="4" fill="#571C27" />
<rect x="45" y="43" width="1" height="2" fill="#571C27" />
<rect x="46" y="43" width="1" height="1" fill="#131313" />
<rect x="13" y="44" width="1" height="1" fill="#131313" />
<rect x="14" y="44" width="1" height="4" fill="#571C27" />
<rect x="16" y="44" width="1" height="6" fill="#571C27" />
<rect x="18" y="44" width="1" height="2" fill="#891E2B" />
<rect x="19" y="44" width="1" height="1" fill="#131313" />
<rect x="20" y="44" width="1" height="3" fill="#891E2B" />
<rect x="22" y="44" width="3" height="2" fill="#891E2B" />
<rect x="26" y="44" width="1" height="1" fill="#891E2B" />
<rect x="28" y="44" width="2" height="3" fill="#571C27" />
<rect x="36" y="44" width="1" height="9" fill="#571C27" />
<rect x="37" y="44" width="1" height="4" fill="#131313" />
<rect x="46" y="44" width="1" height="2" fill="#571C27" />
<rect x="47" y="44" width="1" height="2" fill="#131313" />
<rect x="11" y="45" width="2" height="1" fill="#131313" />
<rect x="13" y="45" width="1" height="2" fill="#571C27" />
<rect x="17" y="45" width="1" height="7" fill="#571C27" />
<rect x="19" y="45" width="1" height="1" fill="#891E2B" />
<rect x="25" y="45" width="3" height="3" fill="#571C27" />
<rect x="45" y="45" width="1" height="1" fill="#221100" />
<rect x="10" y="46" width="2" height="1" fill="#131313" />
<rect x="12" y="46" width="1" height="1" fill="#571C27" />
<rect x="18" y="46" width="2" height="3" fill="#571C27" />
<rect x="22" y="46" width="2" height="1" fill="#891E2B" />
<rect x="24" y="46" width="1" height="1" fill="#571C27" />
<rect x="38" y="46" width="1" height="1" fill="#131313" />
<rect x="39" y="46" width="1" height="1" fill="#C42430" />
<rect x="42" y="46" width="3" height="1" fill="#221100" />
<rect x="45" y="46" width="1" height="6" fill="#571C27" />
<rect x="46" y="46" width="1" height="2" fill="#131313" />
<rect x="5" y="47" width="1" height="3" fill="#131313" />
<rect x="6" y="47" width="1" height="3" fill="#891E2B" />
<rect x="7" y="47" width="1" height="1" fill="#571C27" />
<rect x="9" y="47" width="5" height="1" fill="#891E2B" />
<rect x="20" y="47" width="4" height="1" fill="#571C27" />
<rect x="24" y="47" width="1" height="1" fill="#891E2B" />
<rect x="28" y="47" width="1" height="7" fill="#C42430" />
<rect x="29" y="47" width="3" height="1" fill="#891E2B" />
<rect x="32" y="47" width="3" height="2" fill="#C42430" />
<rect x="39" y="47" width="1" height="1" fill="#131313" />
<rect x="40" y="47" width="1" height="1" fill="#891E2B" />
<rect x="42" y="47" width="3" height="1" fill="#571C27" />
<rect x="7" y="48" width="1" height="1" fill="#891E2B" />
<rect x="8" y="48" width="5" height="2" fill="#C42430" />
<rect x="13" y="48" width="3" height="1" fill="#891E2B" />
<rect x="20" y="48" width="3" height="1" fill="#571C27" />
<rect x="23" y="48" width="1" height="1" fill="#891E2B" />
<rect x="24" y="48" width="2" height="2" fill="#C42430" />
<rect x="26" y="48" width="1" height="1" fill="#891E2B" />
<rect x="27" y="48" width="1" height="6" fill="#C42430" />
<rect x="29" y="48" width="1" height="2" fill="#C42430" />
<rect x="30" y="48" width="1" height="3" fill="#891E2B" />
<rect x="31" y="48" width="1" height="5" fill="#C42430" />
<rect x="35" y="48" width="1" height="4" fill="#891E2B" />
<rect x="37" y="48" width="1" height="6" fill="#571C27" />
<rect x="38" y="48" width="1" height="3" fill="#131313" />
<rect x="40" y="48" width="2" height="1" fill="#131313" />
<rect x="42" y="48" width="1" height="1" fill="#891E2B" />
<rect x="43" y="48" width="2" height="1" fill="#571C27" />
<rect x="46" y="48" width="1" height="7" fill="#571C27" />
<rect x="47" y="48" width="1" height="4" fill="#131313" />
<rect x="4" y="49" width="1" height="1" fill="#131313" />
<rect x="7" y="49" width="1" height="2" fill="#C42430" />
<rect x="13" y="49" width="1" height="2" fill="#C42430" />
<rect x="14" y="49" width="2" height="1" fill="#891E2B" />
<rect x="18" y="49" width="1" height="1" fill="#571C27" />
<rect x="19" y="49" width="3" height="1" fill="#131313" />
<rect x="22" y="49" width="1" height="1" fill="#571C27" />
<rect x="23" y="49" width="1" height="5" fill="#C42430" />
<rect x="26" y="49" width="1" height="5" fill="#C42430" />
<rect x="32" y="49" width="2" height="2" fill="#C42430" />
<rect x="34" y="49" width="1" height="2" fill="#891E2B" />
<rect x="42" y="49" width="1" height="2" fill="#131313" />
<rect x="43" y="49" width="1" height="2" fill="#891E2B" />
<rect x="44" y="49" width="1" height="2" fill="#571C27" />
<rect x="3" y="50" width="1" height="1" fill="#131313" />
<rect x="4" y="50" width="1" height="4" fill="#C42430" />
<rect x="5" y="50" width="1" height="1" fill="#891E2B" />
<rect x="6" y="50" width="1" height="4" fill="#C42430" />
<rect x="8" y="50" width="1" height="2" fill="#891E2B" />
<rect x="9" y="50" width="2" height="3" fill="#C42430" />
<rect x="11" y="50" width="2" height="1" fill="#891E2B" />
<rect x="14" y="50" width="1" height="2" fill="#C42430" />
<rect x="15" y="50" width="2" height="5" fill="#891E2B" />
<rect x="18" y="50" width="1" height="8" fill="#131313" />
<rect x="21" y="50" width="1" height="4" fill="#131313" />
<rect x="22" y="50" width="1" height="1" fill="#891E2B" />
<rect x="24" y="50" width="1" height="2" fill="#C42430" />
<rect x="25" y="50" width="1" height="1" fill="#891E2B" />
<rect x="29" y="50" width="1" height="1" fill="#891E2B" />
<rect x="2" y="51" width="1" height="3" fill="#131313" />
<rect x="3" y="51" width="1" height="2" fill="#C42430" />
<rect x="5" y="51" width="1" height="3" fill="#571C27" />
<rect x="7" y="51" width="1" height="2" fill="#891E2B" />
<rect x="11" y="51" width="1" height="3" fill="#891E2B" />
<rect x="12" y="51" width="1" height="3" fill="#571C27" />
<rect x="13" y="51" width="1" height="1" fill="#891E2B" />
<rect x="22" y="51" width="1" height="3" fill="#C42430" />
<rect x="25" y="51" width="1" height="1" fill="#571C27" />
<rect x="29" y="51" width="2" height="3" fill="#571C27" />
<rect x="32" y="51" width="1" height="2" fill="#C42430" />
<rect x="33" y="51" width="1" height="2" fill="#891E2B" />
<rect x="34" y="51" width="1" height="2" fill="#571C27" />
<rect x="38" y="51" width="1" height="4" fill="#571C27" />
<rect x="39" y="51" width="1" height="2" fill="#131313" />
<rect x="43" y="51" width="1" height="2" fill="#131313" />
<rect x="44" y="51" width="1" height="1" fill="#891E2B" />
<rect x="8" y="52" width="1" height="3" fill="#571C27" />
<rect x="13" y="52" width="1" height="3" fill="#571C27" />
<rect x="14" y="52" width="1" height="1" fill="#891E2B" />
<rect x="17" y="52" width="1" height="5" fill="#891E2B" />
<rect x="24" y="52" width="1" height="2" fill="#891E2B" />
<rect x="25" y="52" width="1" height="4" fill="#131313" />
<rect x="35" y="52" width="1" height="5" fill="#571C27" />
<rect x="44" y="52" width="1" height="1" fill="#571C27" />
<rect x="45" y="52" width="1" height="1" fill="#891E2B" />
<rect x="47" y="52" width="1" height="5" fill="#571C27" />
<rect x="48" y="52" width="1" height="6" fill="#131313" />
<rect x="3" y="53" width="1" height="1" fill="#891E2B" />
<rect x="7" y="53" width="1" height="2" fill="#C42430" />
<rect x="9" y="53" width="1" height="1" fill="#891E2B" />
<rect x="10" y="53" width="1" height="1" fill="#C42430" />
<rect x="14" y="53" width="1" height="3" fill="#571C27" />
<rect x="31" y="53" width="1" height="1" fill="#3D3D3D" />
<rect x="32" y="53" width="1" height="2" fill="#131313" />
<rect x="33" y="53" width="1" height="1" fill="#571C27" />
<rect x="34" y="53" width="1" height="1" fill="#891E2B" />
<rect x="36" y="53" width="1" height="3" fill="#891E2B" />
<rect x="39" y="53" width="1" height="2" fill="#571C27" />
<rect x="40" y="53" width="1" height="1" fill="#131313" />
<rect x="44" y="53" width="1" height="1" fill="#131313" />
<rect x="45" y="53" width="1" height="1" fill="#571C27" />
<rect x="3" y="54" width="1" height="1" fill="#131313" />
<rect x="4" y="54" width="1" height="1" fill="#3D3D3D" />
<rect x="5" y="54" width="1" height="3" fill="#131313" />
<rect x="6" y="54" width="1" height="1" fill="#891E2B" />
<rect x="9" y="54" width="1" height="3" fill="#131313" />
<rect x="10" y="54" width="1" height="1" fill="#3D3D3D" />
<rect x="11" y="54" width="2" height="2" fill="#131313" />
<rect x="22" y="54" width="1" height="1" fill="#131313" />
<rect x="23" y="54" width="1" height="1" fill="#3D3D3D" />
<rect x="24" y="54" width="1" height="3" fill="#131313" />
<rect x="26" y="54" width="1" height="1" fill="#131313" />
<rect x="27" y="54" width="1" height="1" fill="#3D3D3D" />
<rect x="28" y="54" width="1" height="3" fill="#131313" />
<rect x="29" y="54" width="1" height="1" fill="#891E2B" />
<rect x="30" y="54" width="2" height="1" fill="#571C27" />
<rect x="33" y="54" width="1" height="2" fill="#891E2B" />
<rect x="34" y="54" width="1" height="2" fill="#571C27" />
<rect x="37" y="54" width="1" height="3" fill="#891E2B" />
<rect x="40" y="54" width="1" height="2" fill="#571C27" />
<rect x="41" y="54" width="1" height="1" fill="#131313" />
<rect x="45" y="54" width="1" height="1" fill="#131313" />
<rect x="4" y="55" width="1" height="1" fill="#131313" />
<rect x="6" y="55" width="1" height="1" fill="#131313" />
<rect x="7" y="55" width="1" height="1" fill="#3D3D3D" />
<rect x="8" y="55" width="1" height="3" fill="#131313" />
<rect x="10" y="55" width="1" height="1" fill="#131313" />
<rect x="13" y="55" width="1" height="1" fill="#131313" />
<rect x="15" y="55" width="1" height="2" fill="#C42430" />
<rect x="16" y="55" width="1" height="3" fill="#891E2B" />
<rect x="23" y="55" width="1" height="1" fill="#131313" />
<rect x="27" y="55" width="1" height="1" fill="#131313" />
<rect x="29" y="55" width="1" height="4" fill="#131313" />
<rect x="30" y="55" width="1" height="2" fill="#571C27" />
<rect x="31" y="55" width="2" height="1" fill="#891E2B" />
<rect x="38" y="55" width="2" height="3" fill="#891E2B" />
<rect x="41" y="55" width="1" height="2" fill="#571C27" />
<rect x="42" y="55" width="1" height="1" fill="#131313" />
<rect x="46" y="55" width="1" height="4" fill="#131313" />
<rect x="50" y="55" width="11" height="2" fill="#131313" />
<rect x="7" y="56" width="1" height="1" fill="#131313" />
<rect x="11" y="56" width="1" height="1" fill="#131313" />
<rect x="14" y="56" width="1" height="1" fill="#131313" />
<rect x="31" y="56" width="1" height="2" fill="#C42430" />
<rect x="32" y="56" width="1" height="2" fill="#891E2B" />
<rect x="33" y="56" width="1" height="1" fill="#571C27" />
<rect x="34" y="56" width="1" height="1" fill="#131313" />
<rect x="36" y="56" width="1" height="2" fill="#571C27" />
<rect x="40" y="56" width="1" height="3" fill="#891E2B" />
<rect x="42" y="56" width="1" height="2" fill="#571C27" />
<rect x="43" y="56" width="2" height="1" fill="#131313" />
<rect x="49" y="56" width="1" height="2" fill="#131313" />
<rect x="61" y="56" width="2" height="3" fill="#131313" />
<rect x="13" y="57" width="1" height="1" fill="#131313" />
<rect x="14" y="57" width="1" height="1" fill="#3D3D3D" />
<rect x="15" y="57" width="1" height="1" fill="#891E2B" />
<rect x="17" y="57" width="1" height="1" fill="#571C27" />
<rect x="30" y="57" width="1" height="1" fill="#891E2B" />
<rect x="33" y="57" width="1" height="2" fill="#131313" />
<rect x="35" y="57" width="1" height="1" fill="#131313" />
<rect x="37" y="57" width="1" height="2" fill="#571C27" />
<rect x="41" y="57" width="1" height="3" fill="#891E2B" />
<rect x="43" y="57" width="2" height="2" fill="#571C27" />
<rect x="45" y="57" width="1" height="1" fill="#131313" />
<rect x="47" y="57" width="1" height="2" fill="#131313" />
<rect x="50" y="57" width="11" height="1" fill="#272727" />
<rect x="63" y="57" width="1" height="1" fill="#131313" />
<rect x="12" y="58" width="1" height="1" fill="#131313" />
<rect x="13" y="58" width="1" height="1" fill="#3D3D3D" />
<rect x="14" y="58" width="1" height="2" fill="#131313" />
<rect x="15" y="58" width="1" height="1" fill="#571C27" />
<rect x="16" y="58" width="2" height="1" fill="#131313" />
<rect x="30" y="58" width="1" height="1" fill="#3D3D3D" />
<rect x="31" y="58" width="1" height="1" fill="#891E2B" />
<rect x="32" y="58" width="1" height="1" fill="#571C27" />
<rect x="36" y="58" width="1" height="1" fill="#131313" />
<rect x="38" y="58" width="1" height="2" fill="#571C27" />
<rect x="39" y="58" width="1" height="1" fill="#891E2B" />
<rect x="42" y="58" width="1" height="2" fill="#891E2B" />
<rect x="45" y="58" width="1" height="2" fill="#571C27" />
<rect x="48" y="58" width="2" height="1" fill="#272727" />
<rect x="50" y="58" width="9" height="1" fill="#3D3D3D" />
<rect x="59" y="58" width="1" height="2" fill="#272727" />
<rect x="60" y="58" width="1" height="4" fill="#131313" />
<rect x="13" y="59" width="1" height="1" fill="#131313" />
<rect x="15" y="59" width="1" height="1" fill="#131313" />
<rect x="28" y="59" width="1" height="1" fill="#131313" />
<rect x="29" y="59" width="1" height="1" fill="#3D3D3D" />
<rect x="30" y="59" width="1" height="2" fill="#131313" />
<rect x="31" y="59" width="1" height="1" fill="#571C27" />
<rect x="32" y="59" width="1" height="1" fill="#131313" />
<rect x="37" y="59" width="1" height="1" fill="#131313" />
<rect x="39" y="59" width="2" height="1" fill="#571C27" />
<rect x="43" y="59" width="1" height="1" fill="#891E2B" />
<rect x="44" y="59" width="1" height="1" fill="#571C27" />
<rect x="46" y="59" width="2" height="4" fill="#571C27" />
<rect x="48" y="59" width="2" height="2" fill="#131313" />
<rect x="50" y="59" width="1" height="1" fill="#272727" />
<rect x="51" y="59" width="8" height="1" fill="#3D3D3D" />
<rect x="61" y="59" width="1" height="1" fill="#131313" />
<rect x="29" y="60" width="1" height="1" fill="#131313" />
<rect x="31" y="60" width="1" height="1" fill="#131313" />
<rect x="38" y="60" width="2" height="1" fill="#131313" />
<rect x="40" y="60" width="4" height="1" fill="#571C27" />
<rect x="44" y="60" width="2" height="1" fill="#891E2B" />
<rect x="50" y="60" width="1" height="6" fill="#131313" />
<rect x="51" y="60" width="1" height="2" fill="#272727" />
<rect x="52" y="60" width="2" height="1" fill="#3D3D3D" />
<rect x="54" y="60" width="1" height="2" fill="#272727" />
<rect x="55" y="60" width="1" height="1" fill="#3D3D3D" />
<rect x="56" y="60" width="3" height="1" fill="#272727" />
<rect x="59" y="60" width="1" height="3" fill="#131313" />
<rect x="40" y="61" width="3" height="1" fill="#131313" />
<rect x="43" y="61" width="3" height="1" fill="#571C27" />
<rect x="48" y="61" width="1" height="1" fill="#571C27" />
<rect x="49" y="61" width="1" height="5" fill="#131313" />
<rect x="52" y="61" width="2" height="1" fill="#272727" />
<rect x="55" y="61" width="1" height="1" fill="#272727" />
<rect x="56" y="61" width="1" height="4" fill="#131313" />
<rect x="57" y="61" width="2" height="1" fill="#272727" />
<rect x="43" y="62" width="2" height="1" fill="#131313" />
<rect x="45" y="62" width="1" height="1" fill="#571C27" />
<rect x="48" y="62" width="1" height="3" fill="#131313" />
<rect x="51" y="62" width="5" height="3" fill="#131313" />
<rect x="57" y="62" width="2" height="2" fill="#131313" />
<rect x="45" y="63" width="3" height="1" fill="#131313" />
<rect x="47" y="64" width="1" height="1" fill="#131313" />
<rect x="51" y="65" width="4" height="1" fill="#131313" />
</svg>