<svg width="20" height="20" viewBox="0 0 20 20" fill="none" xmlns="http://www.w3.org/2000/svg">
<path d="M17.5 7.875V7H16.625V5.25H17.5V3.5H16.625V2.625H15.75V1.75H14V2.625H12.25V1.75H11.375V0H7.875V1.75H7V2.625H5.25V1.75H3.5V2.625H2.625V3.5H1.75V5.25H2.625V7H1.75V7.875H0V11.375H1.75V12.25H2.625V14H1.75V15.75H2.625V16.625H3.5V17.5H5.25V16.625H7V17.5H7.875V19.25H11.375V17.5H12.25V16.625H14V17.5H15.75V16.625H16.625V15.75H17.5V14H16.625V12.25H17.5V11.375H19.25V7.875H17.5ZM7.875 7.875V7H11.375V7.875H12.25V11.375H11.375V12.25H7.875V11.375H7V7.875H7.875Z" fill="white"/>
</svg>
