<?xml version="1.0" encoding="UTF-8" ?>
<svg version="1.1" width="45" height="30" xmlns="http://www.w3.org/2000/svg" shape-rendering="crispEdges">
<rect x="26" y="0" width="2" height="1" fill="#5D2C28" />
<rect x="28" y="0" width="2" height="3" fill="#391F21" />
<rect x="23" y="1" width="1" height="2" fill="#391F21" />
<rect x="24" y="1" width="3" height="4" fill="#5D2C28" />
<rect x="27" y="1" width="1" height="2" fill="#391F21" />
<rect x="30" y="1" width="2" height="3" fill="#391F21" />
<rect x="32" y="2" width="1" height="7" fill="#391F21" />
<rect x="22" y="3" width="1" height="2" fill="#391F21" />
<rect x="23" y="3" width="1" height="3" fill="#5D2C28" />
<rect x="27" y="3" width="2" height="4" fill="#5D2C28" />
<rect x="29" y="3" width="1" height="1" fill="#391F21" />
<rect x="33" y="3" width="2" height="1" fill="#391F21" />
<rect x="29" y="4" width="2" height="1" fill="#5D2C28" />
<rect x="31" y="4" width="1" height="6" fill="#391F21" />
<rect x="33" y="4" width="1" height="1" fill="#391F21" />
<rect x="21" y="5" width="1" height="1" fill="#391F21" />
<rect x="22" y="5" width="1" height="2" fill="#5D2C28" />
<rect x="24" y="5" width="2" height="2" fill="#391F21" />
<rect x="26" y="5" width="1" height="1" fill="#5D2C28" />
<rect x="29" y="5" width="2" height="4" fill="#391F21" />
<rect x="23" y="6" width="1" height="3" fill="#391F21" />
<rect x="26" y="6" width="1" height="1" fill="#391F21" />
<rect x="33" y="6" width="1" height="1" fill="#391F21" />
<rect x="34" y="6" width="4" height="1" fill="#891E2B" />
<rect x="22" y="7" width="1" height="1" fill="#391F21" />
<rect x="24" y="7" width="1" height="1" fill="#0069AA" />
<rect x="25" y="7" width="2" height="1" fill="#BF6F4A" />
<rect x="27" y="7" width="2" height="1" fill="#391F21" />
<rect x="33" y="7" width="2" height="1" fill="#891E2B" />
<rect x="35" y="7" width="2" height="2" fill="#C42430" />
<rect x="37" y="7" width="1" height="1" fill="#891E2B" />
<rect x="38" y="7" width="1" height="3" fill="#272727" />
<rect x="39" y="7" width="1" height="1" fill="#B4B4B4" />
<rect x="24" y="8" width="3" height="1" fill="#E69C69" />
<rect x="27" y="8" width="1" height="1" fill="#0069AA" />
<rect x="28" y="8" width="1" height="1" fill="#FFFFFF" />
<rect x="33" y="8" width="1" height="1" fill="#891E2B" />
<rect x="34" y="8" width="1" height="3" fill="#C42430" />
<rect x="37" y="8" width="1" height="3" fill="#272727" />
<rect x="39" y="8" width="1" height="1" fill="#FFFFFF" />
<rect x="40" y="8" width="2" height="1" fill="#B4B4B4" />
<rect x="24" y="9" width="1" height="1" fill="#E69C69" />
<rect x="25" y="9" width="4" height="1" fill="#F6CA9F" />
<rect x="29" y="9" width="1" height="1" fill="#E69C69" />
<rect x="30" y="9" width="1" height="2" fill="#391F21" />
<rect x="32" y="9" width="1" height="1" fill="#571C27" />
<rect x="33" y="9" width="1" height="1" fill="#C42430" />
<rect x="35" y="9" width="1" height="1" fill="#C42430" />
<rect x="36" y="9" width="1" height="1" fill="#891E2B" />
<rect x="39" y="9" width="1" height="1" fill="#B4B4B4" />
<rect x="40" y="9" width="1" height="1" fill="#FFFFFF" />
<rect x="41" y="9" width="1" height="1" fill="#B4B4B4" />
<rect x="42" y="9" width="2" height="1" fill="#E69C69" />
<rect x="24" y="10" width="1" height="3" fill="#571C27" />
<rect x="25" y="10" width="1" height="1" fill="#E69C69" />
<rect x="26" y="10" width="2" height="1" fill="#F6CA9F" />
<rect x="28" y="10" width="1" height="1" fill="#E69C69" />
<rect x="29" y="10" width="1" height="1" fill="#B4B4B4" />
<rect x="31" y="10" width="1" height="3" fill="#571C27" />
<rect x="32" y="10" width="2" height="2" fill="#891E2B" />
<rect x="35" y="10" width="1" height="2" fill="#891E2B" />
<rect x="36" y="10" width="1" height="2" fill="#131313" />
<rect x="40" y="10" width="1" height="1" fill="#B4B4B4" />
<rect x="41" y="10" width="1" height="1" fill="#FFFFFF" />
<rect x="42" y="10" width="2" height="2" fill="#F6CA9F" />
<rect x="44" y="10" width="1" height="2" fill="#E69C69" />
<rect x="23" y="11" width="1" height="2" fill="#571C27" />
<rect x="25" y="11" width="1" height="3" fill="#571C27" />
<rect x="26" y="11" width="2" height="1" fill="#E69C69" />
<rect x="28" y="11" width="1" height="1" fill="#8A4836" />
<rect x="29" y="11" width="1" height="1" fill="#5D2C28" />
<rect x="30" y="11" width="1" height="1" fill="#571C27" />
<rect x="34" y="11" width="1" height="1" fill="#891E2B" />
<rect x="26" y="12" width="2" height="2" fill="#571C27" />
<rect x="28" y="12" width="2" height="1" fill="#BF6F4A" />
<rect x="30" y="12" width="1" height="1" fill="#8A4836" />
<rect x="32" y="12" width="1" height="1" fill="#891E2B" />
<rect x="33" y="12" width="3" height="1" fill="#571C27" />
<rect x="24" y="13" width="1" height="2" fill="#272727" />
<rect x="28" y="13" width="1" height="3" fill="#571C27" />
<rect x="29" y="13" width="2" height="1" fill="#BF6F4A" />
<rect x="31" y="13" width="1" height="1" fill="#8A4836" />
<rect x="32" y="13" width="3" height="1" fill="#571C27" />
<rect x="25" y="14" width="2" height="1" fill="#272727" />
<rect x="27" y="14" width="1" height="1" fill="#5D2C28" />
<rect x="29" y="14" width="1" height="2" fill="#272727" />
<rect x="30" y="14" width="2" height="1" fill="#BF6F4A" />
<rect x="32" y="14" width="1" height="1" fill="#8A4836" />
<rect x="33" y="14" width="2" height="1" fill="#571C27" />
<rect x="25" y="15" width="1" height="2" fill="#272727" />
<rect x="26" y="15" width="2" height="1" fill="#B4B4B4" />
<rect x="30" y="15" width="1" height="1" fill="#891E2B" />
<rect x="31" y="15" width="2" height="1" fill="#BF6F4A" />
<rect x="33" y="15" width="2" height="2" fill="#8A4836" />
<rect x="26" y="16" width="5" height="10" fill="#C7CFDD" />
<rect x="31" y="16" width="2" height="1" fill="#424C6E" />
<rect x="35" y="16" width="1" height="3" fill="#571C27" />
<rect x="18" y="17" width="8" height="10" fill="#C7CFDD" />
<rect x="31" y="17" width="1" height="9" fill="#C7CFDD" />
<rect x="32" y="17" width="3" height="1" fill="#571C27" />
<rect x="36" y="17" width="1" height="2" fill="#571C27" />
<rect x="15" y="18" width="3" height="9" fill="#C7CFDD" />
<rect x="32" y="18" width="1" height="8" fill="#C7CFDD" />
<rect x="33" y="18" width="1" height="1" fill="#FFFFFF" />
<rect x="34" y="18" width="1" height="1" fill="#571C27" />
<rect x="11" y="19" width="4" height="7" fill="#C7CFDD" />
<rect x="33" y="19" width="1" height="6" fill="#C7CFDD" />
<rect x="34" y="19" width="3" height="1" fill="#FFFFFF" />
<rect x="37" y="19" width="1" height="1" fill="#571C27" />
<rect x="5" y="20" width="6" height="5" fill="#C7CFDD" />
<rect x="34" y="20" width="2" height="5" fill="#C7CFDD" />
<rect x="36" y="20" width="4" height="1" fill="#FFFFFF" />
<rect x="1" y="21" width="4" height="2" fill="#C7CFDD" />
<rect x="36" y="21" width="3" height="3" fill="#C7CFDD" />
<rect x="39" y="21" width="4" height="1" fill="#FFFFFF" />
<rect x="0" y="22" width="1" height="1" fill="#C7CFDD" />
<rect x="39" y="22" width="3" height="2" fill="#C7CFDD" />
<rect x="42" y="22" width="1" height="1" fill="#FFFFFF" />
<rect x="2" y="23" width="3" height="1" fill="#C7CFDD" />
<rect x="42" y="23" width="1" height="1" fill="#C7CFDD" />
<rect x="36" y="24" width="1" height="1" fill="#C7CFDD" />
<rect x="37" y="24" width="3" height="2" fill="#131313" />
<rect x="8" y="25" width="3" height="1" fill="#C7CFDD" />
<rect x="12" y="26" width="3" height="1" fill="#C7CFDD" />
<rect x="26" y="26" width="2" height="1" fill="#C7CFDD" />
<rect x="29" y="26" width="3" height="1" fill="#272727" />
<rect x="37" y="26" width="1" height="1" fill="#BF6F4A" />
<rect x="38" y="26" width="2" height="2" fill="#391F21" />
<rect x="30" y="27" width="2" height="1" fill="#272727" />
<rect x="29" y="28" width="2" height="1" fill="#8A4836" />
<rect x="31" y="28" width="1" height="2" fill="#5D2C28" />
<rect x="28" y="29" width="2" height="1" fill="#F6CA9F" />
<rect x="30" y="29" width="1" height="1" fill="#8A4836" />
</svg>