<?xml version="1.0" encoding="UTF-8" ?>
<svg version="1.1" width="24" height="47" xmlns="http://www.w3.org/2000/svg" shape-rendering="crispEdges">
<rect x="11" y="0" width="2" height="1" fill="#000000" />
<rect x="10" y="1" width="1" height="2" fill="#000000" />
<rect x="11" y="1" width="1" height="19" fill="#091A12" />
<rect x="12" y="1" width="1" height="7" fill="#30F39B" />
<rect x="13" y="1" width="1" height="2" fill="#000000" />
<rect x="9" y="3" width="1" height="2" fill="#000000" />
<rect x="10" y="3" width="1" height="21" fill="#0A1B14" />
<rect x="13" y="3" width="1" height="1" fill="#30F39B" />
<rect x="14" y="3" width="1" height="2" fill="#000000" />
<rect x="13" y="4" width="1" height="2" fill="#258C5E" />
<rect x="8" y="5" width="1" height="2" fill="#000000" />
<rect x="9" y="5" width="1" height="17" fill="#13412C" />
<rect x="14" y="5" width="1" height="4" fill="#258C5E" />
<rect x="15" y="5" width="1" height="2" fill="#000000" />
<rect x="13" y="6" width="1" height="6" fill="#13412C" />
<rect x="7" y="7" width="1" height="2" fill="#000000" />
<rect x="8" y="7" width="1" height="8" fill="#13412C" />
<rect x="15" y="7" width="1" height="1" fill="#30F39B" />
<rect x="16" y="7" width="1" height="2" fill="#000000" />
<rect x="12" y="8" width="1" height="7" fill="#258C5E" />
<rect x="15" y="8" width="1" height="2" fill="#258C5E" />
<rect x="6" y="9" width="1" height="2" fill="#000000" />
<rect x="7" y="9" width="1" height="3" fill="#13412C" />
<rect x="14" y="9" width="1" height="8" fill="#13412C" />
<rect x="16" y="9" width="1" height="5" fill="#30F39B" />
<rect x="17" y="9" width="1" height="2" fill="#000000" />
<rect x="15" y="10" width="1" height="1" fill="#30F39B" />
<rect x="5" y="11" width="1" height="2" fill="#000000" />
<rect x="6" y="11" width="1" height="3" fill="#13412C" />
<rect x="15" y="11" width="1" height="8" fill="#13412C" />
<rect x="17" y="11" width="1" height="9" fill="#30F39B" />
<rect x="18" y="11" width="1" height="2" fill="#000000" />
<rect x="7" y="12" width="1" height="11" fill="#258C5E" />
<rect x="13" y="12" width="1" height="10" fill="#30F39B" />
<rect x="4" y="13" width="1" height="2" fill="#000000" />
<rect x="5" y="13" width="1" height="5" fill="#13412C" />
<rect x="18" y="13" width="1" height="6" fill="#30F39B" />
<rect x="19" y="13" width="1" height="2" fill="#000000" />
<rect x="6" y="14" width="1" height="10" fill="#258C5E" />
<rect x="16" y="14" width="1" height="2" fill="#13412C" />
<rect x="3" y="15" width="1" height="2" fill="#000000" />
<rect x="4" y="15" width="1" height="2" fill="#13412C" />
<rect x="8" y="15" width="1" height="7" fill="#258C5E" />
<rect x="12" y="15" width="1" height="9" fill="#30F39B" />
<rect x="19" y="15" width="1" height="3" fill="#30F39B" />
<rect x="20" y="15" width="1" height="2" fill="#000000" />
<rect x="16" y="16" width="1" height="4" fill="#30F39B" />
<rect x="2" y="17" width="1" height="2" fill="#000000" />
<rect x="3" y="17" width="1" height="3" fill="#13412C" />
<rect x="4" y="17" width="1" height="8" fill="#258C5E" />
<rect x="14" y="17" width="1" height="3" fill="#30F39B" />
<rect x="20" y="17" width="1" height="2" fill="#30F39B" />
<rect x="21" y="17" width="1" height="2" fill="#000000" />
<rect x="5" y="18" width="1" height="6" fill="#258C5E" />
<rect x="19" y="18" width="1" height="6" fill="#13412C" />
<rect x="1" y="19" width="1" height="2" fill="#000000" />
<rect x="2" y="19" width="1" height="1" fill="#13412C" />
<rect x="15" y="19" width="1" height="2" fill="#30F39B" />
<rect x="18" y="19" width="1" height="5" fill="#13412C" />
<rect x="20" y="19" width="1" height="2" fill="#13412C" />
<rect x="21" y="19" width="1" height="2" fill="#30F39B" />
<rect x="22" y="19" width="1" height="2" fill="#000000" />
<rect x="2" y="20" width="2" height="5" fill="#258C5E" />
<rect x="11" y="20" width="1" height="2" fill="#0A1B14" />
<rect x="14" y="20" width="1" height="4" fill="#13412C" />
<rect x="16" y="20" width="2" height="4" fill="#13412C" />
<rect x="0" y="21" width="1" height="1" fill="#000000" />
<rect x="1" y="21" width="1" height="5" fill="#258C5E" />
<rect x="15" y="21" width="1" height="3" fill="#13412C" />
<rect x="20" y="21" width="1" height="1" fill="#30F39B" />
<rect x="21" y="21" width="1" height="3" fill="#13412C" />
<rect x="22" y="21" width="1" height="4" fill="#30F39B" />
<rect x="23" y="21" width="1" height="5" fill="#000000" />
<rect x="0" y="22" width="1" height="4" fill="#091A12" />
<rect x="8" y="22" width="2" height="2" fill="#0A1B14" />
<rect x="11" y="22" width="1" height="1" fill="#091A12" />
<rect x="13" y="22" width="1" height="2" fill="#13412C" />
<rect x="20" y="22" width="1" height="2" fill="#13412C" />
<rect x="7" y="23" width="1" height="1" fill="#13412C" />
<rect x="11" y="23" width="1" height="1" fill="#0A1B14" />
<rect x="5" y="24" width="4" height="1" fill="#0A1B14" />
<rect x="9" y="24" width="1" height="1" fill="#091A12" />
<rect x="10" y="24" width="3" height="1" fill="#13412C" />
<rect x="13" y="24" width="2" height="1" fill="#0A1B14" />
<rect x="15" y="24" width="3" height="1" fill="#091A12" />
<rect x="18" y="24" width="4" height="1" fill="#30F39B" />
<rect x="2" y="25" width="1" height="2" fill="#258C5E" />
<rect x="3" y="25" width="2" height="1" fill="#13412C" />
<rect x="5" y="25" width="4" height="1" fill="#258C5E" />
<rect x="9" y="25" width="3" height="1" fill="#13412C" />
<rect x="12" y="25" width="1" height="12" fill="#258C5E" />
<rect x="13" y="25" width="1" height="20" fill="#13412C" />
<rect x="14" y="25" width="5" height="6" fill="#0A1B14" />
<rect x="19" y="25" width="2" height="1" fill="#13412C" />
<rect x="21" y="25" width="1" height="2" fill="#0A1B14" />
<rect x="22" y="25" width="1" height="1" fill="#13412C" />
<rect x="1" y="26" width="1" height="2" fill="#000000" />
<rect x="3" y="26" width="1" height="4" fill="#13412C" />
<rect x="4" y="26" width="4" height="2" fill="#258C5E" />
<rect x="8" y="26" width="3" height="4" fill="#13412C" />
<rect x="11" y="26" width="1" height="19" fill="#091A12" />
<rect x="19" y="26" width="1" height="7" fill="#0A1B14" />
<rect x="20" y="26" width="1" height="2" fill="#13412C" />
<rect x="22" y="26" width="1" height="2" fill="#000000" />
<rect x="2" y="27" width="1" height="1" fill="#13412C" />
<rect x="21" y="27" width="1" height="1" fill="#13412C" />
<rect x="2" y="28" width="1" height="2" fill="#000000" />
<rect x="4" y="28" width="1" height="2" fill="#13412C" />
<rect x="5" y="28" width="2" height="2" fill="#258C5E" />
<rect x="7" y="28" width="1" height="5" fill="#13412C" />
<rect x="20" y="28" width="1" height="2" fill="#0A1B14" />
<rect x="21" y="28" width="1" height="2" fill="#000000" />
<rect x="3" y="30" width="1" height="3" fill="#000000" />
<rect x="4" y="30" width="2" height="2" fill="#258C5E" />
<rect x="6" y="30" width="1" height="6" fill="#13412C" />
<rect x="8" y="30" width="2" height="1" fill="#13412C" />
<rect x="10" y="30" width="1" height="15" fill="#258C5E" />
<rect x="20" y="30" width="1" height="3" fill="#000000" />
<rect x="8" y="31" width="1" height="2" fill="#258C5E" />
<rect x="9" y="31" width="1" height="4" fill="#13412C" />
<rect x="14" y="31" width="3" height="6" fill="#0A1B14" />
<rect x="17" y="31" width="1" height="6" fill="#13412C" />
<rect x="18" y="31" width="1" height="4" fill="#0A1B14" />
<rect x="4" y="32" width="2" height="1" fill="#13412C" />
<rect x="4" y="33" width="1" height="2" fill="#000000" />
<rect x="5" y="33" width="1" height="2" fill="#13412C" />
<rect x="7" y="33" width="1" height="3" fill="#258C5E" />
<rect x="8" y="33" width="1" height="5" fill="#13412C" />
<rect x="19" y="33" width="1" height="2" fill="#000000" />
<rect x="5" y="35" width="1" height="2" fill="#000000" />
<rect x="9" y="35" width="1" height="8" fill="#258C5E" />
<rect x="18" y="35" width="1" height="2" fill="#000000" />
<rect x="6" y="36" width="1" height="1" fill="#258C5E" />
<rect x="7" y="36" width="1" height="3" fill="#13412C" />
<rect x="6" y="37" width="1" height="2" fill="#000000" />
<rect x="12" y="37" width="1" height="9" fill="#30F39B" />
<rect x="14" y="37" width="2" height="1" fill="#0A1B14" />
<rect x="16" y="37" width="1" height="2" fill="#13412C" />
<rect x="17" y="37" width="1" height="2" fill="#000000" />
<rect x="8" y="38" width="1" height="3" fill="#258C5E" />
<rect x="14" y="38" width="1" height="1" fill="#0A1B14" />
<rect x="15" y="38" width="1" height="3" fill="#13412C" />
<rect x="7" y="39" width="1" height="2" fill="#000000" />
<rect x="14" y="39" width="1" height="4" fill="#13412C" />
<rect x="16" y="39" width="1" height="2" fill="#000000" />
<rect x="8" y="41" width="1" height="2" fill="#000000" />
<rect x="15" y="41" width="1" height="2" fill="#000000" />
<rect x="9" y="43" width="1" height="2" fill="#000000" />
<rect x="14" y="43" width="1" height="2" fill="#000000" />
<rect x="10" y="45" width="1" height="1" fill="#000000" />
<rect x="11" y="45" width="1" height="1" fill="#13412C" />
<rect x="13" y="45" width="1" height="1" fill="#000000" />
<rect x="11" y="46" width="2" height="1" fill="#000000" />
</svg>