<?xml version="1.0" encoding="UTF-8" ?>
<svg version="1.1" width="68" height="61" xmlns="http://www.w3.org/2000/svg" shape-rendering="crispEdges">
<rect x="9" y="0" width="2" height="4" fill="#131313" />
<rect x="33" y="0" width="2" height="4" fill="#131313" />
<rect x="8" y="1" width="1" height="2" fill="#131313" />
<rect x="11" y="1" width="1" height="1" fill="#131313" />
<rect x="32" y="1" width="1" height="1" fill="#131313" />
<rect x="35" y="1" width="1" height="2" fill="#131313" />
<rect x="7" y="2" width="1" height="2" fill="#131313" />
<rect x="36" y="2" width="1" height="2" fill="#131313" />
<rect x="6" y="3" width="1" height="3" fill="#131313" />
<rect x="8" y="3" width="1" height="1" fill="#3D3D3D" />
<rect x="35" y="3" width="1" height="1" fill="#3D3D3D" />
<rect x="37" y="3" width="1" height="3" fill="#131313" />
<rect x="5" y="4" width="1" height="20" fill="#131313" />
<rect x="7" y="4" width="1" height="11" fill="#3D3D3D" />
<rect x="8" y="4" width="2" height="3" fill="#131313" />
<rect x="34" y="4" width="2" height="3" fill="#131313" />
<rect x="36" y="4" width="1" height="11" fill="#3D3D3D" />
<rect x="38" y="4" width="1" height="20" fill="#131313" />
<rect x="4" y="5" width="1" height="18" fill="#131313" />
<rect x="39" y="5" width="1" height="18" fill="#131313" />
<rect x="6" y="6" width="1" height="7" fill="#3D3D3D" />
<rect x="37" y="6" width="1" height="7" fill="#3D3D3D" />
<rect x="3" y="7" width="1" height="14" fill="#131313" />
<rect x="8" y="7" width="1" height="5" fill="#131313" />
<rect x="35" y="7" width="1" height="5" fill="#131313" />
<rect x="40" y="7" width="1" height="14" fill="#131313" />
<rect x="2" y="9" width="1" height="10" fill="#131313" />
<rect x="41" y="9" width="1" height="10" fill="#131313" />
<rect x="9" y="10" width="1" height="4" fill="#131313" />
<rect x="34" y="10" width="1" height="4" fill="#131313" />
<rect x="1" y="11" width="1" height="5" fill="#131313" />
<rect x="42" y="11" width="1" height="5" fill="#131313" />
<rect x="8" y="12" width="1" height="5" fill="#3D3D3D" />
<rect x="10" y="12" width="1" height="4" fill="#131313" />
<rect x="33" y="12" width="1" height="4" fill="#131313" />
<rect x="35" y="12" width="1" height="5" fill="#3D3D3D" />
<rect x="6" y="13" width="1" height="12" fill="#131313" />
<rect x="37" y="13" width="1" height="12" fill="#131313" />
<rect x="9" y="14" width="1" height="5" fill="#3D3D3D" />
<rect x="11" y="14" width="1" height="3" fill="#131313" />
<rect x="32" y="14" width="1" height="3" fill="#131313" />
<rect x="34" y="14" width="1" height="5" fill="#3D3D3D" />
<rect x="7" y="15" width="1" height="11" fill="#131313" />
<rect x="36" y="15" width="1" height="12" fill="#131313" />
<rect x="10" y="16" width="1" height="5" fill="#3D3D3D" />
<rect x="12" y="16" width="1" height="2" fill="#131313" />
<rect x="31" y="16" width="1" height="2" fill="#131313" />
<rect x="33" y="16" width="1" height="5" fill="#3D3D3D" />
<rect x="8" y="17" width="1" height="10" fill="#131313" />
<rect x="11" y="17" width="1" height="5" fill="#3D3D3D" />
<rect x="13" y="17" width="1" height="2" fill="#131313" />
<rect x="30" y="17" width="1" height="2" fill="#131313" />
<rect x="32" y="17" width="1" height="5" fill="#3D3D3D" />
<rect x="35" y="17" width="1" height="9" fill="#131313" />
<rect x="12" y="18" width="1" height="5" fill="#3D3D3D" />
<rect x="14" y="18" width="2" height="2" fill="#131313" />
<rect x="18" y="18" width="8" height="1" fill="#131313" />
<rect x="28" y="18" width="2" height="2" fill="#131313" />
<rect x="31" y="18" width="1" height="5" fill="#3D3D3D" />
<rect x="9" y="19" width="1" height="10" fill="#131313" />
<rect x="13" y="19" width="1" height="5" fill="#3D3D3D" />
<rect x="16" y="19" width="2" height="2" fill="#131313" />
<rect x="18" y="19" width="8" height="2" fill="#571C27" />
<rect x="26" y="19" width="2" height="1" fill="#131313" />
<rect x="30" y="19" width="1" height="5" fill="#3D3D3D" />
<rect x="34" y="19" width="1" height="8" fill="#131313" />
<rect x="14" y="20" width="2" height="2" fill="#3D3D3D" />
<rect x="26" y="20" width="1" height="3" fill="#571C27" />
<rect x="27" y="20" width="1" height="2" fill="#131313" />
<rect x="28" y="20" width="2" height="2" fill="#3D3D3D" />
<rect x="10" y="21" width="1" height="8" fill="#131313" />
<rect x="16" y="21" width="1" height="1" fill="#131313" />
<rect x="17" y="21" width="1" height="1" fill="#571C27" />
<rect x="18" y="21" width="4" height="2" fill="#891E2B" />
<rect x="22" y="21" width="4" height="1" fill="#571C27" />
<rect x="33" y="21" width="1" height="7" fill="#131313" />
<rect x="11" y="22" width="1" height="7" fill="#131313" />
<rect x="14" y="22" width="1" height="2" fill="#3D3D3D" />
<rect x="15" y="22" width="1" height="2" fill="#131313" />
<rect x="16" y="22" width="1" height="2" fill="#571C27" />
<rect x="17" y="22" width="1" height="3" fill="#891E2B" />
<rect x="22" y="22" width="3" height="2" fill="#891E2B" />
<rect x="25" y="22" width="1" height="1" fill="#571C27" />
<rect x="27" y="22" width="1" height="2" fill="#571C27" />
<rect x="28" y="22" width="1" height="2" fill="#131313" />
<rect x="29" y="22" width="1" height="2" fill="#3D3D3D" />
<rect x="32" y="22" width="1" height="6" fill="#131313" />
<rect x="44" y="22" width="3" height="1" fill="#131313" />
<rect x="12" y="23" width="1" height="5" fill="#131313" />
<rect x="18" y="23" width="1" height="1" fill="#891E2B" />
<rect x="19" y="23" width="3" height="6" fill="#C42430" />
<rect x="25" y="23" width="2" height="5" fill="#891E2B" />
<rect x="31" y="23" width="1" height="5" fill="#131313" />
<rect x="43" y="23" width="1" height="2" fill="#131313" />
<rect x="44" y="23" width="2" height="2" fill="#C42430" />
<rect x="46" y="23" width="1" height="2" fill="#891E2B" />
<rect x="47" y="23" width="1" height="1" fill="#131313" />
<rect x="13" y="24" width="2" height="2" fill="#131313" />
<rect x="15" y="24" width="1" height="2" fill="#571C27" />
<rect x="16" y="24" width="1" height="2" fill="#891E2B" />
<rect x="18" y="24" width="1" height="7" fill="#C42430" />
<rect x="22" y="24" width="1" height="6" fill="#C42430" />
<rect x="23" y="24" width="2" height="1" fill="#891E2B" />
<rect x="27" y="24" width="1" height="4" fill="#891E2B" />
<rect x="28" y="24" width="1" height="2" fill="#571C27" />
<rect x="29" y="24" width="2" height="2" fill="#131313" />
<rect x="47" y="24" width="1" height="3" fill="#891E2B" />
<rect x="48" y="24" width="1" height="1" fill="#131313" />
<rect x="3" y="25" width="2" height="1" fill="#131313" />
<rect x="17" y="25" width="1" height="5" fill="#C42430" />
<rect x="23" y="25" width="1" height="4" fill="#C42430" />
<rect x="24" y="25" width="1" height="1" fill="#891E2B" />
<rect x="44" y="25" width="1" height="2" fill="#131313" />
<rect x="45" y="25" width="2" height="2" fill="#C42430" />
<rect x="48" y="25" width="1" height="5" fill="#891E2B" />
<rect x="49" y="25" width="1" height="1" fill="#131313" />
<rect x="2" y="26" width="1" height="1" fill="#131313" />
<rect x="3" y="26" width="1" height="2" fill="#C42430" />
<rect x="4" y="26" width="1" height="4" fill="#891E2B" />
<rect x="5" y="26" width="1" height="1" fill="#131313" />
<rect x="13" y="26" width="1" height="2" fill="#131313" />
<rect x="14" y="26" width="1" height="1" fill="#571C27" />
<rect x="15" y="26" width="1" height="1" fill="#891E2B" />
<rect x="16" y="26" width="1" height="3" fill="#C42430" />
<rect x="24" y="26" width="1" height="2" fill="#C42430" />
<rect x="28" y="26" width="1" height="2" fill="#891E2B" />
<rect x="29" y="26" width="1" height="2" fill="#571C27" />
<rect x="30" y="26" width="1" height="1" fill="#131313" />
<rect x="35" y="26" width="1" height="4" fill="#571C27" />
<rect x="49" y="26" width="1" height="15" fill="#891E2B" />
<rect x="50" y="26" width="1" height="2" fill="#131313" />
<rect x="1" y="27" width="1" height="3" fill="#131313" />
<rect x="2" y="27" width="1" height="10" fill="#C42430" />
<rect x="5" y="27" width="1" height="2" fill="#891E2B" />
<rect x="6" y="27" width="2" height="1" fill="#131313" />
<rect x="14" y="27" width="1" height="1" fill="#891E2B" />
<rect x="15" y="27" width="1" height="1" fill="#C42430" />
<rect x="30" y="27" width="1" height="1" fill="#571C27" />
<rect x="34" y="27" width="1" height="18" fill="#571C27" />
<rect x="36" y="27" width="1" height="3" fill="#571C27" />
<rect x="37" y="27" width="1" height="2" fill="#131313" />
<rect x="45" y="27" width="1" height="1" fill="#131313" />
<rect x="46" y="27" width="2" height="3" fill="#C42430" />
<rect x="3" y="28" width="1" height="7" fill="#891E2B" />
<rect x="6" y="28" width="2" height="2" fill="#891E2B" />
<rect x="8" y="28" width="1" height="1" fill="#131313" />
<rect x="12" y="28" width="3" height="1" fill="#571C27" />
<rect x="15" y="28" width="1" height="1" fill="#891E2B" />
<rect x="24" y="28" width="2" height="1" fill="#891E2B" />
<rect x="26" y="28" width="3" height="1" fill="#571C27" />
<rect x="29" y="28" width="2" height="1" fill="#891E2B" />
<rect x="31" y="28" width="3" height="1" fill="#571C27" />
<rect x="38" y="28" width="7" height="1" fill="#131313" />
<rect x="45" y="28" width="1" height="3" fill="#891E2B" />
<rect x="50" y="28" width="1" height="12" fill="#891E2B" />
<rect x="51" y="28" width="1" height="2" fill="#131313" />
<rect x="5" y="29" width="1" height="5" fill="#571C27" />
<rect x="8" y="29" width="4" height="1" fill="#891E2B" />
<rect x="12" y="29" width="1" height="5" fill="#571C27" />
<rect x="13" y="29" width="2" height="1" fill="#FFA214" />
<rect x="15" y="29" width="1" height="1" fill="#571C27" />
<rect x="16" y="29" width="1" height="1" fill="#891E2B" />
<rect x="19" y="29" width="1" height="2" fill="#891E2B" />
<rect x="20" y="29" width="2" height="1" fill="#C42430" />
<rect x="23" y="29" width="2" height="1" fill="#891E2B" />
<rect x="25" y="29" width="1" height="1" fill="#571C27" />
<rect x="26" y="29" width="3" height="1" fill="#FFA214" />
<rect x="29" y="29" width="1" height="4" fill="#571C27" />
<rect x="30" y="29" width="2" height="7" fill="#891E2B" />
<rect x="32" y="29" width="2" height="2" fill="#571C27" />
<rect x="37" y="29" width="8" height="1" fill="#C42430" />
<rect x="0" y="30" width="1" height="3" fill="#131313" />
<rect x="1" y="30" width="1" height="3" fill="#C42430" />
<rect x="4" y="30" width="1" height="4" fill="#571C27" />
<rect x="6" y="30" width="5" height="3" fill="#571C27" />
<rect x="11" y="30" width="1" height="6" fill="#891E2B" />
<rect x="13" y="30" width="1" height="3" fill="#FFA214" />
<rect x="14" y="30" width="1" height="1" fill="#FFC825" />
<rect x="15" y="30" width="1" height="1" fill="#FFA214" />
<rect x="16" y="30" width="1" height="1" fill="#571C27" />
<rect x="17" y="30" width="1" height="1" fill="#891E2B" />
<rect x="20" y="30" width="1" height="2" fill="#891E2B" />
<rect x="21" y="30" width="1" height="1" fill="#C42430" />
<rect x="22" y="30" width="2" height="1" fill="#891E2B" />
<rect x="24" y="30" width="1" height="1" fill="#571C27" />
<rect x="25" y="30" width="2" height="1" fill="#FFA214" />
<rect x="27" y="30" width="1" height="3" fill="#FFC825" />
<rect x="28" y="30" width="1" height="3" fill="#FFA214" />
<rect x="35" y="30" width="4" height="1" fill="#C42430" />
<rect x="39" y="30" width="6" height="1" fill="#891E2B" />
<rect x="46" y="30" width="1" height="8" fill="#571C27" />
<rect x="47" y="30" width="2" height="3" fill="#C42430" />
<rect x="51" y="30" width="1" height="9" fill="#891E2B" />
<rect x="52" y="30" width="1" height="1" fill="#131313" />
<rect x="14" y="31" width="1" height="1" fill="#FFEB57" />
<rect x="15" y="31" width="1" height="1" fill="#FFC825" />
<rect x="16" y="31" width="1" height="1" fill="#FFA214" />
<rect x="17" y="31" width="1" height="1" fill="#571C27" />
<rect x="18" y="31" width="1" height="1" fill="#891E2B" />
<rect x="19" y="31" width="1" height="3" fill="#571C27" />
<rect x="21" y="31" width="1" height="1" fill="#891E2B" />
<rect x="22" y="31" width="2" height="1" fill="#571C27" />
<rect x="24" y="31" width="1" height="1" fill="#FFA214" />
<rect x="25" y="31" width="1" height="1" fill="#FFC825" />
<rect x="26" y="31" width="1" height="2" fill="#FFEB57" />
<rect x="32" y="31" width="1" height="10" fill="#891E2B" />
<rect x="33" y="31" width="1" height="3" fill="#571C27" />
<rect x="35" y="31" width="1" height="1" fill="#C42430" />
<rect x="36" y="31" width="2" height="1" fill="#891E2B" />
<rect x="38" y="31" width="8" height="3" fill="#571C27" />
<rect x="52" y="31" width="1" height="8" fill="#891E2B" />
<rect x="53" y="31" width="1" height="1" fill="#131313" />
<rect x="14" y="32" width="1" height="1" fill="#FFC825" />
<rect x="15" y="32" width="1" height="1" fill="#FFEB57" />
<rect x="16" y="32" width="1" height="1" fill="#FFC825" />
<rect x="17" y="32" width="1" height="2" fill="#FFA214" />
<rect x="18" y="32" width="1" height="2" fill="#571C27" />
<rect x="20" y="32" width="2" height="2" fill="#571C27" />
<rect x="22" y="32" width="2" height="1" fill="#FFA214" />
<rect x="24" y="32" width="1" height="1" fill="#FFC825" />
<rect x="25" y="32" width="1" height="2" fill="#FFEB57" />
<rect x="35" y="32" width="1" height="13" fill="#571C27" />
<rect x="36" y="32" width="1" height="1" fill="#891E2B" />
<rect x="37" y="32" width="1" height="8" fill="#571C27" />
<rect x="53" y="32" width="1" height="6" fill="#891E2B" />
<rect x="54" y="32" width="1" height="2" fill="#131313" />
<rect x="1" y="33" width="1" height="4" fill="#131313" />
<rect x="6" y="33" width="2" height="2" fill="#571C27" />
<rect x="8" y="33" width="2" height="1" fill="#131313" />
<rect x="10" y="33" width="1" height="1" fill="#571C27" />
<rect x="13" y="33" width="1" height="2" fill="#571C27" />
<rect x="14" y="33" width="3" height="1" fill="#FFA214" />
<rect x="22" y="33" width="1" height="1" fill="#FFA214" />
<rect x="23" y="33" width="1" height="1" fill="#FFC825" />
<rect x="24" y="33" width="1" height="1" fill="#FFEB57" />
<rect x="26" y="33" width="1" height="1" fill="#FFC825" />
<rect x="27" y="33" width="1" height="1" fill="#FFA214" />
<rect x="28" y="33" width="1" height="1" fill="#571C27" />
<rect x="29" y="33" width="1" height="3" fill="#891E2B" />
<rect x="36" y="33" width="1" height="13" fill="#571C27" />
<rect x="47" y="33" width="1" height="3" fill="#571C27" />
<rect x="48" y="33" width="1" height="8" fill="#C42430" />
<rect x="4" y="34" width="1" height="4" fill="#891E2B" />
<rect x="5" y="34" width="1" height="4" fill="#131313" />
<rect x="8" y="34" width="1" height="1" fill="#131313" />
<rect x="10" y="34" width="1" height="2" fill="#131313" />
<rect x="12" y="34" width="1" height="4" fill="#891E2B" />
<rect x="14" y="34" width="4" height="1" fill="#571C27" />
<rect x="18" y="34" width="4" height="2" fill="#891E2B" />
<rect x="22" y="34" width="1" height="1" fill="#571C27" />
<rect x="23" y="34" width="4" height="1" fill="#FFA214" />
<rect x="27" y="34" width="1" height="1" fill="#571C27" />
<rect x="28" y="34" width="1" height="3" fill="#891E2B" />
<rect x="33" y="34" width="1" height="4" fill="#891E2B" />
<rect x="38" y="34" width="3" height="1" fill="#571C27" />
<rect x="41" y="34" width="1" height="2" fill="#131313" />
<rect x="42" y="34" width="4" height="1" fill="#571C27" />
<rect x="54" y="34" width="1" height="4" fill="#891E2B" />
<rect x="55" y="34" width="1" height="1" fill="#131313" />
<rect x="3" y="35" width="1" height="4" fill="#C42430" />
<rect x="6" y="35" width="2" height="1" fill="#131313" />
<rect x="13" y="35" width="5" height="1" fill="#891E2B" />
<rect x="22" y="35" width="1" height="3" fill="#891E2B" />
<rect x="23" y="35" width="4" height="1" fill="#571C27" />
<rect x="27" y="35" width="1" height="3" fill="#891E2B" />
<rect x="38" y="35" width="1" height="2" fill="#571C27" />
<rect x="39" y="35" width="1" height="2" fill="#131313" />
<rect x="40" y="35" width="1" height="1" fill="#571C27" />
<rect x="42" y="35" width="1" height="1" fill="#131313" />
<rect x="43" y="35" width="3" height="1" fill="#571C27" />
<rect x="55" y="35" width="1" height="3" fill="#891E2B" />
<rect x="56" y="35" width="1" height="3" fill="#131313" />
<rect x="11" y="36" width="1" height="2" fill="#131313" />
<rect x="13" y="36" width="1" height="1" fill="#891E2B" />
<rect x="14" y="36" width="1" height="1" fill="#131313" />
<rect x="15" y="36" width="1" height="1" fill="#891E2B" />
<rect x="16" y="36" width="1" height="1" fill="#131313" />
<rect x="17" y="36" width="2" height="1" fill="#891E2B" />
<rect x="19" y="36" width="1" height="2" fill="#131313" />
<rect x="20" y="36" width="2" height="1" fill="#891E2B" />
<rect x="23" y="36" width="4" height="1" fill="#891E2B" />
<rect x="29" y="36" width="2" height="1" fill="#131313" />
<rect x="31" y="36" width="1" height="1" fill="#891E2B" />
<rect x="40" y="36" width="1" height="1" fill="#131313" />
<rect x="43" y="36" width="1" height="1" fill="#131313" />
<rect x="44" y="36" width="2" height="1" fill="#571C27" />
<rect x="47" y="36" width="1" height="5" fill="#131313" />
<rect x="2" y="37" width="1" height="2" fill="#131313" />
<rect x="13" y="37" width="1" height="1" fill="#131313" />
<rect x="14" y="37" width="1" height="4" fill="#FFC825" />
<rect x="15" y="37" width="1" height="2" fill="#131313" />
<rect x="16" y="37" width="1" height="1" fill="#FFC825" />
<rect x="17" y="37" width="1" height="2" fill="#131313" />
<rect x="18" y="37" width="1" height="1" fill="#891E2B" />
<rect x="20" y="37" width="1" height="1" fill="#891E2B" />
<rect x="21" y="37" width="1" height="1" fill="#131313" />
<rect x="23" y="37" width="1" height="1" fill="#891E2B" />
<rect x="24" y="37" width="3" height="1" fill="#131313" />
<rect x="28" y="37" width="1" height="1" fill="#131313" />
<rect x="29" y="37" width="2" height="1" fill="#FFA214" />
<rect x="31" y="37" width="1" height="3" fill="#131313" />
<rect x="38" y="37" width="1" height="3" fill="#131313" />
<rect x="44" y="37" width="1" height="1" fill="#131313" />
<rect x="45" y="37" width="1" height="1" fill="#571C27" />
<rect x="4" y="38" width="1" height="2" fill="#C42430" />
<rect x="5" y="38" width="1" height="2" fill="#891E2B" />
<rect x="6" y="38" width="1" height="2" fill="#131313" />
<rect x="12" y="38" width="1" height="2" fill="#131313" />
<rect x="13" y="38" width="1" height="2" fill="#FFA214" />
<rect x="16" y="38" width="1" height="2" fill="#FFEB57" />
<rect x="18" y="38" width="1" height="2" fill="#131313" />
<rect x="19" y="38" width="1" height="1" fill="#FFC825" />
<rect x="20" y="38" width="1" height="2" fill="#131313" />
<rect x="21" y="38" width="1" height="1" fill="#FFC825" />
<rect x="22" y="38" width="2" height="1" fill="#131313" />
<rect x="24" y="38" width="2" height="1" fill="#FFC825" />
<rect x="26" y="38" width="2" height="1" fill="#131313" />
<rect x="28" y="38" width="2" height="1" fill="#FFC825" />
<rect x="30" y="38" width="1" height="2" fill="#FFA214" />
<rect x="33" y="38" width="1" height="7" fill="#571C27" />
<rect x="45" y="38" width="2" height="1" fill="#131313" />
<rect x="53" y="38" width="3" height="1" fill="#131313" />
<rect x="3" y="39" width="1" height="1" fill="#131313" />
<rect x="15" y="39" width="1" height="3" fill="#FFC825" />
<rect x="17" y="39" width="1" height="1" fill="#FFC825" />
<rect x="19" y="39" width="1" height="3" fill="#FFEB57" />
<rect x="21" y="39" width="1" height="3" fill="#FFEB57" />
<rect x="22" y="39" width="1" height="1" fill="#FFC825" />
<rect x="23" y="39" width="1" height="1" fill="#131313" />
<rect x="24" y="39" width="2" height="3" fill="#FFEB57" />
<rect x="26" y="39" width="1" height="1" fill="#131313" />
<rect x="27" y="39" width="1" height="1" fill="#FFC825" />
<rect x="28" y="39" width="1" height="2" fill="#FFEB57" />
<rect x="29" y="39" width="1" height="1" fill="#FFC825" />
<rect x="51" y="39" width="2" height="1" fill="#131313" />
<rect x="4" y="40" width="1" height="1" fill="#131313" />
<rect x="5" y="40" width="1" height="1" fill="#C42430" />
<rect x="6" y="40" width="1" height="2" fill="#891E2B" />
<rect x="7" y="40" width="1" height="2" fill="#131313" />
<rect x="13" y="40" width="1" height="2" fill="#131313" />
<rect x="16" y="40" width="1" height="1" fill="#FFC825" />
<rect x="17" y="40" width="1" height="1" fill="#FFEB57" />
<rect x="18" y="40" width="1" height="2" fill="#FFC825" />
<rect x="20" y="40" width="1" height="1" fill="#FFC825" />
<rect x="22" y="40" width="1" height="1" fill="#FFEB57" />
<rect x="23" y="40" width="1" height="1" fill="#FFC825" />
<rect x="26" y="40" width="2" height="1" fill="#FFEB57" />
<rect x="29" y="40" width="1" height="1" fill="#FFA214" />
<rect x="30" y="40" width="1" height="1" fill="#131313" />
<rect x="31" y="40" width="1" height="3" fill="#891E2B" />
<rect x="37" y="40" width="1" height="3" fill="#131313" />
<rect x="50" y="40" width="1" height="1" fill="#131313" />
<rect x="5" y="41" width="1" height="1" fill="#131313" />
<rect x="14" y="41" width="1" height="1" fill="#FFA214" />
<rect x="16" y="41" width="1" height="2" fill="#131313" />
<rect x="17" y="41" width="1" height="2" fill="#FFC825" />
<rect x="20" y="41" width="1" height="1" fill="#FFEB57" />
<rect x="22" y="41" width="1" height="1" fill="#FFC825" />
<rect x="23" y="41" width="1" height="1" fill="#FFEB57" />
<rect x="26" y="41" width="1" height="1" fill="#FFC825" />
<rect x="27" y="41" width="1" height="1" fill="#FFEB57" />
<rect x="28" y="41" width="1" height="1" fill="#FFC825" />
<rect x="29" y="41" width="1" height="1" fill="#131313" />
<rect x="30" y="41" width="1" height="3" fill="#891E2B" />
<rect x="32" y="41" width="1" height="4" fill="#571C27" />
<rect x="46" y="41" width="1" height="3" fill="#131313" />
<rect x="47" y="41" width="1" height="3" fill="#C42430" />
<rect x="48" y="41" width="1" height="2" fill="#891E2B" />
<rect x="49" y="41" width="1" height="2" fill="#131313" />
<rect x="6" y="42" width="1" height="1" fill="#131313" />
<rect x="14" y="42" width="1" height="3" fill="#131313" />
<rect x="15" y="42" width="1" height="1" fill="#FFA214" />
<rect x="18" y="42" width="1" height="1" fill="#131313" />
<rect x="19" y="42" width="3" height="1" fill="#FFC825" />
<rect x="22" y="42" width="1" height="1" fill="#131313" />
<rect x="23" y="42" width="3" height="1" fill="#FFC825" />
<rect x="26" y="42" width="1" height="1" fill="#131313" />
<rect x="27" y="42" width="1" height="1" fill="#FFC825" />
<rect x="28" y="42" width="1" height="1" fill="#131313" />
<rect x="29" y="42" width="1" height="2" fill="#891E2B" />
<rect x="15" y="43" width="1" height="1" fill="#131313" />
<rect x="16" y="43" width="1" height="3" fill="#571C27" />
<rect x="17" y="43" width="1" height="1" fill="#131313" />
<rect x="18" y="43" width="1" height="2" fill="#891E2B" />
<rect x="19" y="43" width="1" height="1" fill="#131313" />
<rect x="20" y="43" width="1" height="1" fill="#FFC825" />
<rect x="21" y="43" width="1" height="1" fill="#131313" />
<rect x="22" y="43" width="1" height="4" fill="#891E2B" />
<rect x="23" y="43" width="3" height="1" fill="#131313" />
<rect x="26" y="43" width="1" height="2" fill="#891E2B" />
<rect x="27" y="43" width="1" height="1" fill="#131313" />
<rect x="28" y="43" width="1" height="2" fill="#891E2B" />
<rect x="31" y="43" width="1" height="2" fill="#571C27" />
<rect x="37" y="43" width="1" height="11" fill="#571C27" />
<rect x="38" y="43" width="1" height="2" fill="#131313" />
<rect x="48" y="43" width="1" height="1" fill="#131313" />
<rect x="10" y="44" width="4" height="1" fill="#131313" />
<rect x="15" y="44" width="1" height="2" fill="#571C27" />
<rect x="17" y="44" width="1" height="4" fill="#571C27" />
<rect x="19" y="44" width="1" height="2" fill="#891E2B" />
<rect x="20" y="44" width="1" height="1" fill="#131313" />
<rect x="21" y="44" width="1" height="3" fill="#891E2B" />
<rect x="23" y="44" width="3" height="2" fill="#891E2B" />
<rect x="27" y="44" width="1" height="1" fill="#891E2B" />
<rect x="29" y="44" width="2" height="1" fill="#571C27" />
<rect x="47" y="44" width="1" height="1" fill="#131313" />
<rect x="66" y="44" width="1" height="11" fill="#131313" />
<rect x="8" y="45" width="2" height="1" fill="#131313" />
<rect x="10" y="45" width="5" height="1" fill="#891E2B" />
<rect x="18" y="45" width="1" height="5" fill="#571C27" />
<rect x="20" y="45" width="1" height="1" fill="#891E2B" />
<rect x="26" y="45" width="3" height="1" fill="#571C27" />
<rect x="29" y="45" width="1" height="7" fill="#C42430" />
<rect x="30" y="45" width="3" height="1" fill="#891E2B" />
<rect x="33" y="45" width="3" height="2" fill="#C42430" />
<rect x="38" y="45" width="1" height="4" fill="#571C27" />
<rect x="39" y="45" width="1" height="2" fill="#131313" />
<rect x="65" y="45" width="1" height="2" fill="#131313" />
<rect x="67" y="45" width="1" height="7" fill="#131313" />
<rect x="7" y="46" width="1" height="1" fill="#131313" />
<rect x="8" y="46" width="1" height="1" fill="#891E2B" />
<rect x="9" y="46" width="5" height="2" fill="#C42430" />
<rect x="14" y="46" width="3" height="1" fill="#891E2B" />
<rect x="19" y="46" width="2" height="3" fill="#571C27" />
<rect x="23" y="46" width="2" height="1" fill="#891E2B" />
<rect x="25" y="46" width="2" height="2" fill="#C42430" />
<rect x="27" y="46" width="1" height="1" fill="#891E2B" />
<rect x="28" y="46" width="1" height="6" fill="#C42430" />
<rect x="30" y="46" width="1" height="2" fill="#C42430" />
<rect x="31" y="46" width="1" height="3" fill="#891E2B" />
<rect x="32" y="46" width="1" height="5" fill="#C42430" />
<rect x="36" y="46" width="1" height="4" fill="#891E2B" />
<rect x="64" y="46" width="1" height="2" fill="#131313" />
<rect x="5" y="47" width="2" height="1" fill="#131313" />
<rect x="7" y="47" width="1" height="1" fill="#891E2B" />
<rect x="8" y="47" width="1" height="2" fill="#C42430" />
<rect x="14" y="47" width="1" height="2" fill="#C42430" />
<rect x="15" y="47" width="2" height="1" fill="#891E2B" />
<rect x="21" y="47" width="3" height="1" fill="#571C27" />
<rect x="24" y="47" width="1" height="5" fill="#C42430" />
<rect x="27" y="47" width="1" height="5" fill="#C42430" />
<rect x="33" y="47" width="2" height="2" fill="#C42430" />
<rect x="35" y="47" width="1" height="2" fill="#891E2B" />
<rect x="39" y="47" width="1" height="3" fill="#571C27" />
<rect x="40" y="47" width="1" height="2" fill="#131313" />
<rect x="62" y="47" width="2" height="2" fill="#131313" />
<rect x="65" y="47" width="1" height="3" fill="#272727" />
<rect x="4" y="48" width="1" height="1" fill="#131313" />
<rect x="5" y="48" width="1" height="4" fill="#C42430" />
<rect x="6" y="48" width="1" height="1" fill="#891E2B" />
<rect x="7" y="48" width="1" height="4" fill="#C42430" />
<rect x="9" y="48" width="1" height="2" fill="#891E2B" />
<rect x="10" y="48" width="2" height="3" fill="#C42430" />
<rect x="12" y="48" width="2" height="1" fill="#891E2B" />
<rect x="15" y="48" width="1" height="2" fill="#C42430" />
<rect x="16" y="48" width="2" height="5" fill="#891E2B" />
<rect x="21" y="48" width="2" height="1" fill="#571C27" />
<rect x="23" y="48" width="1" height="1" fill="#891E2B" />
<rect x="25" y="48" width="1" height="2" fill="#C42430" />
<rect x="26" y="48" width="1" height="1" fill="#891E2B" />
<rect x="30" y="48" width="1" height="1" fill="#891E2B" />
<rect x="60" y="48" width="2" height="2" fill="#131313" />
<rect x="64" y="48" width="1" height="3" fill="#272727" />
<rect x="3" y="49" width="1" height="3" fill="#131313" />
<rect x="4" y="49" width="1" height="2" fill="#C42430" />
<rect x="6" y="49" width="1" height="3" fill="#571C27" />
<rect x="8" y="49" width="1" height="2" fill="#891E2B" />
<rect x="12" y="49" width="1" height="3" fill="#891E2B" />
<rect x="13" y="49" width="1" height="3" fill="#571C27" />
<rect x="14" y="49" width="1" height="1" fill="#891E2B" />
<rect x="19" y="49" width="1" height="1" fill="#571C27" />
<rect x="20" y="49" width="3" height="1" fill="#131313" />
<rect x="23" y="49" width="1" height="3" fill="#C42430" />
<rect x="26" y="49" width="1" height="1" fill="#571C27" />
<rect x="30" y="49" width="2" height="3" fill="#571C27" />
<rect x="33" y="49" width="1" height="2" fill="#C42430" />
<rect x="34" y="49" width="1" height="2" fill="#891E2B" />
<rect x="35" y="49" width="1" height="2" fill="#571C27" />
<rect x="38" y="49" width="1" height="3" fill="#891E2B" />
<rect x="40" y="49" width="1" height="2" fill="#571C27" />
<rect x="41" y="49" width="1" height="2" fill="#131313" />
<rect x="58" y="49" width="2" height="2" fill="#131313" />
<rect x="62" y="49" width="2" height="5" fill="#272727" />
<rect x="9" y="50" width="1" height="3" fill="#571C27" />
<rect x="14" y="50" width="1" height="3" fill="#571C27" />
<rect x="15" y="50" width="1" height="1" fill="#891E2B" />
<rect x="18" y="50" width="1" height="5" fill="#891E2B" />
<rect x="19" y="50" width="1" height="6" fill="#131313" />
<rect x="22" y="50" width="1" height="2" fill="#131313" />
<rect x="25" y="50" width="1" height="2" fill="#891E2B" />
<rect x="26" y="50" width="1" height="4" fill="#131313" />
<rect x="36" y="50" width="1" height="3" fill="#571C27" />
<rect x="39" y="50" width="1" height="3" fill="#891E2B" />
<rect x="57" y="50" width="1" height="2" fill="#131313" />
<rect x="60" y="50" width="2" height="3" fill="#272727" />
<rect x="65" y="50" width="1" height="6" fill="#131313" />
<rect x="4" y="51" width="1" height="1" fill="#891E2B" />
<rect x="8" y="51" width="1" height="2" fill="#C42430" />
<rect x="10" y="51" width="1" height="1" fill="#891E2B" />
<rect x="11" y="51" width="1" height="1" fill="#C42430" />
<rect x="15" y="51" width="1" height="3" fill="#571C27" />
<rect x="32" y="51" width="1" height="1" fill="#3D3D3D" />
<rect x="33" y="51" width="1" height="2" fill="#131313" />
<rect x="34" y="51" width="1" height="1" fill="#571C27" />
<rect x="35" y="51" width="1" height="1" fill="#891E2B" />
<rect x="40" y="51" width="1" height="3" fill="#891E2B" />
<rect x="41" y="51" width="1" height="1" fill="#571C27" />
<rect x="42" y="51" width="1" height="1" fill="#131313" />
<rect x="56" y="51" width="1" height="2" fill="#131313" />
<rect x="58" y="51" width="2" height="3" fill="#272727" />
<rect x="64" y="51" width="1" height="6" fill="#131313" />
<rect x="4" y="52" width="1" height="1" fill="#131313" />
<rect x="5" y="52" width="1" height="1" fill="#3D3D3D" />
<rect x="6" y="52" width="1" height="3" fill="#131313" />
<rect x="7" y="52" width="1" height="1" fill="#891E2B" />
<rect x="10" y="52" width="1" height="3" fill="#131313" />
<rect x="11" y="52" width="1" height="1" fill="#3D3D3D" />
<rect x="12" y="52" width="2" height="2" fill="#131313" />
<rect x="23" y="52" width="1" height="1" fill="#131313" />
<rect x="24" y="52" width="1" height="1" fill="#3D3D3D" />
<rect x="25" y="52" width="1" height="3" fill="#131313" />
<rect x="27" y="52" width="1" height="1" fill="#131313" />
<rect x="28" y="52" width="1" height="1" fill="#3D3D3D" />
<rect x="29" y="52" width="1" height="3" fill="#131313" />
<rect x="30" y="52" width="1" height="1" fill="#891E2B" />
<rect x="31" y="52" width="2" height="1" fill="#571C27" />
<rect x="34" y="52" width="1" height="2" fill="#891E2B" />
<rect x="35" y="52" width="1" height="2" fill="#571C27" />
<rect x="38" y="52" width="1" height="3" fill="#571C27" />
<rect x="41" y="52" width="1" height="3" fill="#891E2B" />
<rect x="42" y="52" width="1" height="1" fill="#571C27" />
<rect x="43" y="52" width="2" height="1" fill="#131313" />
<rect x="55" y="52" width="1" height="2" fill="#131313" />
<rect x="57" y="52" width="1" height="2" fill="#272727" />
<rect x="5" y="53" width="1" height="1" fill="#131313" />
<rect x="7" y="53" width="1" height="1" fill="#131313" />
<rect x="8" y="53" width="1" height="1" fill="#3D3D3D" />
<rect x="9" y="53" width="1" height="3" fill="#131313" />
<rect x="11" y="53" width="1" height="1" fill="#131313" />
<rect x="14" y="53" width="1" height="1" fill="#131313" />
<rect x="16" y="53" width="1" height="2" fill="#C42430" />
<rect x="17" y="53" width="1" height="3" fill="#891E2B" />
<rect x="24" y="53" width="1" height="1" fill="#131313" />
<rect x="28" y="53" width="1" height="1" fill="#131313" />
<rect x="30" y="53" width="1" height="4" fill="#131313" />
<rect x="31" y="53" width="1" height="2" fill="#571C27" />
<rect x="32" y="53" width="2" height="1" fill="#891E2B" />
<rect x="36" y="53" width="1" height="1" fill="#131313" />
<rect x="39" y="53" width="1" height="3" fill="#571C27" />
<rect x="42" y="53" width="1" height="3" fill="#891E2B" />
<rect x="43" y="53" width="2" height="1" fill="#571C27" />
<rect x="45" y="53" width="3" height="1" fill="#131313" />
<rect x="54" y="53" width="1" height="3" fill="#131313" />
<rect x="56" y="53" width="1" height="2" fill="#272727" />
<rect x="60" y="53" width="2" height="1" fill="#131313" />
<rect x="8" y="54" width="1" height="1" fill="#131313" />
<rect x="12" y="54" width="1" height="1" fill="#131313" />
<rect x="15" y="54" width="1" height="1" fill="#131313" />
<rect x="32" y="54" width="1" height="2" fill="#C42430" />
<rect x="33" y="54" width="1" height="2" fill="#891E2B" />
<rect x="34" y="54" width="1" height="1" fill="#571C27" />
<rect x="35" y="54" width="1" height="1" fill="#131313" />
<rect x="37" y="54" width="1" height="1" fill="#131313" />
<rect x="40" y="54" width="1" height="3" fill="#571C27" />
<rect x="43" y="54" width="2" height="2" fill="#891E2B" />
<rect x="45" y="54" width="3" height="1" fill="#571C27" />
<rect x="48" y="54" width="6" height="1" fill="#131313" />
<rect x="55" y="54" width="1" height="1" fill="#272727" />
<rect x="57" y="54" width="4" height="6" fill="#131313" />
<rect x="61" y="54" width="2" height="1" fill="#272727" />
<rect x="63" y="54" width="1" height="4" fill="#131313" />
<rect x="14" y="55" width="1" height="1" fill="#131313" />
<rect x="15" y="55" width="1" height="1" fill="#3D3D3D" />
<rect x="16" y="55" width="1" height="1" fill="#891E2B" />
<rect x="18" y="55" width="1" height="1" fill="#571C27" />
<rect x="31" y="55" width="1" height="1" fill="#891E2B" />
<rect x="34" y="55" width="1" height="2" fill="#131313" />
<rect x="38" y="55" width="1" height="1" fill="#131313" />
<rect x="41" y="55" width="1" height="3" fill="#571C27" />
<rect x="45" y="55" width="3" height="2" fill="#891E2B" />
<rect x="48" y="55" width="6" height="1" fill="#571C27" />
<rect x="55" y="55" width="2" height="3" fill="#131313" />
<rect x="61" y="55" width="2" height="4" fill="#131313" />
<rect x="13" y="56" width="1" height="1" fill="#131313" />
<rect x="14" y="56" width="1" height="1" fill="#3D3D3D" />
<rect x="15" y="56" width="1" height="2" fill="#131313" />
<rect x="16" y="56" width="1" height="1" fill="#571C27" />
<rect x="17" y="56" width="2" height="1" fill="#131313" />
<rect x="31" y="56" width="1" height="1" fill="#3D3D3D" />
<rect x="32" y="56" width="1" height="1" fill="#891E2B" />
<rect x="33" y="56" width="1" height="1" fill="#571C27" />
<rect x="39" y="56" width="1" height="1" fill="#131313" />
<rect x="42" y="56" width="2" height="2" fill="#571C27" />
<rect x="44" y="56" width="1" height="1" fill="#891E2B" />
<rect x="48" y="56" width="5" height="1" fill="#891E2B" />
<rect x="53" y="56" width="2" height="3" fill="#571C27" />
<rect x="14" y="57" width="1" height="1" fill="#131313" />
<rect x="16" y="57" width="1" height="1" fill="#131313" />
<rect x="29" y="57" width="1" height="1" fill="#131313" />
<rect x="30" y="57" width="1" height="1" fill="#3D3D3D" />
<rect x="31" y="57" width="1" height="2" fill="#131313" />
<rect x="32" y="57" width="1" height="1" fill="#571C27" />
<rect x="33" y="57" width="1" height="1" fill="#131313" />
<rect x="40" y="57" width="1" height="1" fill="#131313" />
<rect x="44" y="57" width="9" height="2" fill="#571C27" />
<rect x="30" y="58" width="1" height="1" fill="#131313" />
<rect x="32" y="58" width="1" height="1" fill="#131313" />
<rect x="41" y="58" width="2" height="1" fill="#131313" />
<rect x="43" y="58" width="1" height="1" fill="#571C27" />
<rect x="55" y="58" width="1" height="1" fill="#571C27" />
<rect x="56" y="58" width="1" height="2" fill="#131313" />
<rect x="43" y="59" width="3" height="1" fill="#131313" />
<rect x="46" y="59" width="6" height="1" fill="#571C27" />
<rect x="52" y="59" width="4" height="1" fill="#131313" />
<rect x="46" y="60" width="6" height="1" fill="#131313" />
</svg>