<svg height="52" shape-rendering="crispEdges" width="32" xmlns="http://www.w3.org/2000/svg"><path d="m21 0h10v5h-10z" fill="#1d1c2b"/><path d="m31 0h1v48h-1z" fill="#13121c"/><path d="m21 5h2v2h-2z" fill="#1d1c2b"/><path d="m23 5h2v1h-2z" fill="#252535"/><path d="m25 5h6v2h-6z" fill="#1d1c2b"/><path d="m23 6h2v1h-2z" fill="#1d1c2b"/><path d="m21 7h3v1h-3z" fill="#2f2f41"/><path d="m24 7h4v1h-4z" fill="#1d1c2b"/><path d="m28 7h1v2h-1z" fill="#252535"/><path d="m29 7h2v2h-2z" fill="#1d1c2b"/><path d="m21 8h2v1h-2z" fill="#343446"/><path d="m23 8h2v1h-2z" fill="#2f2f41"/><path d="m25 8h3v1h-3z" fill="#252535"/><path d="m21 9h1v1h-1z" fill="#57566d"/><path d="m22 9h1v1h-1z" fill="#3f3f53"/><path d="m23 9h1v3h-1z" fill="#343446"/><path d="m24 9h1v3h-1z" fill="#2f2f41"/><path d="m25 9h1v7h-1z" fill="#696584"/><path d="m26 9h1v6h-1z" fill="#57566d"/><path d="m27 9h1v7h-1z" fill="#3f3f53"/><path d="m28 9h1v4h-1z" fill="#2f2f41"/><path d="m29 9h1v3h-1z" fill="#252535"/><path d="m30 9h1v2h-1z" fill="#1d1c2b"/><path d="m21 10h1v1h-1z" fill="#2c2c3c"/><path d="m22 10h1v1h-1z" fill="#48485d"/><path d="m21 11h2v1h-2z" fill="#343446"/><path d="m30 11h1v1h-1z" fill="#252535"/><path d="m21 12h1v7h-1z" fill="#343446"/><path d="m22 12h1v7h-1z" fill="#8278a3"/><path d="m23 12h1v6h-1z" fill="#696584"/><path d="m24 12h1v1h-1z" fill="#343446"/><path d="m29 12h2v1h-2z" fill="#2f2f41"/><path d="m24 13h1v6h-1z" fill="#3f3f53"/><path d="m28 13h1v2h-1z" fill="#3f3f53"/><path d="m29 13h1v1h-1z" fill="#343446"/><path d="m30 13h1v1h-1z" fill="#2f2f41"/><path d="m29 14h1v1h-1z" fill="#48485d"/><path d="m30 14h1v4h-1z" fill="#343446"/><path d="m26 15h1v1h-1z" fill="#696584"/><path d="m28 15h1v2h-1z" fill="#48485d"/><path d="m29 15h1v3h-1z" fill="#3f3f53"/><path d="m19 16h1v1h-1z" fill="#48485d"/><path d="m20 16h1v1h-1z" fill="#3f3f53"/><path d="m25 16h2v1h-2z" fill="#3f3f53"/><path d="m27 16h1v2h-1z" fill="#48485d"/><path d="m18 17h1v2h-1z" fill="#48485d"/><path d="m19 17h1v7h-1z" fill="#8278a3"/><path d="m20 17h1v6h-1z" fill="#696584"/><path d="m25 17h2v1h-2z" fill="#48485d"/><path d="m28 17h1v2h-1z" fill="#3f3f53"/><path d="m17 18h1v1h-1z" fill="#48485d"/><path d="m23 18h1v1h-1z" fill="#8278a3"/><path d="m25 18h3v1h-3z" fill="#3f3f53"/><path d="m29 18h1v1h-1z" fill="#343446"/><path d="m30 18h1v2h-1z" fill="#2c2c3c"/><path d="m16 19h1v1h-1z" fill="#48485d"/><path d="m17 19h2v1h-2z" fill="#3f3f53"/><path d="m21 19h1v4h-1z" fill="#3f3f53"/><path d="m22 19h7v1h-7z" fill="#343446"/><path d="m29 19h1v1h-1z" fill="#2c2c3c"/><path d="m15 20h1v7h-1z" fill="#3f3f53"/><path d="m16 20h1v7h-1z" fill="#8278a3"/><path d="m17 20h1v6h-1z" fill="#696584"/><path d="m18 20h1v2h-1z" fill="#3f3f53"/><path d="m22 20h1v3h-1z" fill="#48485d"/><path d="m23 20h3v1h-3z" fill="#343446"/><path d="m26 20h1v1h-1z" fill="#696584"/><path d="m27 20h3v2h-3z" fill="#57566d"/><path d="m30 20h1v1h-1z" fill="#3f3f53"/><path d="m23 21h1v3h-1z" fill="#3f3f53"/><path d="m24 21h1v3h-1z" fill="#343446"/><path d="m25 21h1v1h-1z" fill="#696584"/><path d="m26 21h1v2h-1z" fill="#57566d"/><path d="m30 21h1v4h-1z" fill="#343446"/><path d="m18 22h1v3h-1z" fill="#343446"/><path d="m25 22h1v2h-1z" fill="#57566d"/><path d="m27 22h3v1h-3z" fill="#48485d"/><path d="m14 23h1v1h-1z" fill="#48485d"/><path d="m20 23h1v1h-1z" fill="#8278a3"/><path d="m21 23h1v1h-1z" fill="#48485d"/><path d="m22 23h1v2h-1z" fill="#3f3f53"/><path d="m26 23h3v1h-3z" fill="#48485d"/><path d="m29 23h1v1h-1z" fill="#3f3f53"/><path d="m13 24h1v1h-1z" fill="#343446"/><path d="m14 24h1v1h-1z" fill="#3f3f53"/><path d="m19 24h3v1h-3z" fill="#3f3f53"/><path d="m23 24h1v1h-1z" fill="#343446"/><path d="m24 24h1v2h-1z" fill="#2c2c3c"/><path d="m25 24h1v1h-1z" fill="#343446"/><path d="m26 24h3v1h-3z" fill="#3f3f53"/><path d="m29 24h1v3h-1z" fill="#343446"/><path d="m12 25h1v2h-1z" fill="#343446"/><path d="m13 25h1v7h-1z" fill="#8278a3"/><path d="m14 25h1v6h-1z" fill="#696584"/><path d="m18 25h1v2h-1z" fill="#3f3f53"/><path d="m19 25h4v1h-4z" fill="#343446"/><path d="m23 25h1v2h-1z" fill="#2c2c3c"/><path d="m25 25h1v1h-1z" fill="#2c2c3c"/><path d="m26 25h3v1h-3z" fill="#343446"/><path d="m30 25h1v1h-1z" fill="#252535"/><path d="m17 26h1v1h-1z" fill="#8278a3"/><path d="m19 26h2v1h-2z" fill="#57566d"/><path d="m21 26h1v1h-1z" fill="#343446"/><path d="m22 26h1v1h-1z" fill="#2c2c3c"/><path d="m24 26h1v1h-1z" fill="#696584"/><path d="m25 26h4v1h-4z" fill="#57566d"/><path d="m30 26h1v1h-1z" fill="#2c2c3c"/><path d="m10 27h2v1h-2z" fill="#343446"/><path d="m12 27h1v1h-1z" fill="#2c2c3c"/><path d="m15 27h1v6h-1z" fill="#343446"/><path d="m16 27h2v1h-2z" fill="#3f3f53"/><path d="m18 27h1v3h-1z" fill="#48485d"/><path d="m19 27h1v1h-1z" fill="#57566d"/><path d="m20 27h1v2h-1z" fill="#48485d"/><path d="m21 27h1v3h-1z" fill="#3f3f53"/><path d="m22 27h1v3h-1z" fill="#343446"/><path d="m23 27h1v1h-1z" fill="#696584"/><path d="m24 27h4v1h-4z" fill="#57566d"/><path d="m28 27h1v2h-1z" fill="#48485d"/><path d="m29 27h1v3h-1z" fill="#3f3f53"/><path d="m30 27h1v4h-1z" fill="#343446"/><path d="m9 28h1v1h-1z" fill="#343446"/><path d="m10 28h1v7h-1z" fill="#8278a3"/><path d="m11 28h1v6h-1z" fill="#696584"/><path d="m12 28h1v2h-1z" fill="#3f3f53"/><path d="m16 28h1v3h-1z" fill="#3f3f53"/><path d="m17 28h1v2h-1z" fill="#48485d"/><path d="m19 28h1v2h-1z" fill="#48485d"/><path d="m23 28h2v1h-2z" fill="#57566d"/><path d="m25 28h3v2h-3z" fill="#48485d"/><path d="m9 29h1v3h-1z" fill="#48485d"/><path d="m20 29h1v2h-1z" fill="#3f3f53"/><path d="m23 29h1v1h-1z" fill="#57566d"/><path d="m24 29h1v1h-1z" fill="#48485d"/><path d="m28 29h1v2h-1z" fill="#3f3f53"/><path d="m12 30h1v4h-1z" fill="#343446"/><path d="m17 30h3v1h-3z" fill="#3f3f53"/><path d="m21 30h1v1h-1z" fill="#343446"/><path d="m22 30h1v2h-1z" fill="#2c2c3c"/><path d="m23 30h1v1h-1z" fill="#343446"/><path d="m24 30h4v1h-4z" fill="#3f3f53"/><path d="m29 30h1v1h-1z" fill="#343446"/><path d="m14 31h1v1h-1z" fill="#8278a3"/><path d="m16 31h5v1h-5z" fill="#343446"/><path d="m21 31h1v1h-1z" fill="#2c2c3c"/><path d="m23 31h1v1h-1z" fill="#2c2c3c"/><path d="m24 31h5v1h-5z" fill="#343446"/><path d="m29 31h1v1h-1z" fill="#2c2c3c"/><path d="m30 31h1v1h-1z" fill="#252535"/><path d="m7 32h1v1h-1z" fill="#2c2c3c"/><path d="m8 32h1v1h-1z" fill="#343446"/><path d="m9 32h1v3h-1z" fill="#3f3f53"/><path d="m13 32h2v1h-2z" fill="#3f3f53"/><path d="m16 32h2v1h-2z" fill="#2c2c3c"/><path d="m18 32h1v1h-1z" fill="#696584"/><path d="m19 32h4v1h-4z" fill="#57566d"/><path d="m23 32h1v1h-1z" fill="#343446"/><path d="m24 32h2v1h-2z" fill="#3f3f53"/><path d="m26 32h1v1h-1z" fill="#696584"/><path d="m27 32h3v1h-3z" fill="#57566d"/><path d="m30 32h1v4h-1z" fill="#343446"/><path d="m6 33h1v2h-1z" fill="#2c2c3c"/><path d="m7 33h1v7h-1z" fill="#696584"/><path d="m8 33h1v6h-1z" fill="#57566d"/><path d="m13 33h1v1h-1z" fill="#3f3f53"/><path d="m14 33h1v2h-1z" fill="#48485d"/><path d="m15 33h1v3h-1z" fill="#3f3f53"/><path d="m16 33h1v3h-1z" fill="#343446"/><path d="m17 33h1v1h-1z" fill="#696584"/><path d="m18 33h4v1h-4z" fill="#57566d"/><path d="m22 33h1v2h-1z" fill="#48485d"/><path d="m23 33h1v3h-1z" fill="#3f3f53"/><path d="m24 33h1v3h-1z" fill="#343446"/><path d="m25 33h1v1h-1z" fill="#696584"/><path d="m26 33h3v1h-3z" fill="#57566d"/><path d="m29 33h1v2h-1z" fill="#48485d"/><path d="m11 34h1v1h-1z" fill="#8278a3"/><path d="m12 34h1v1h-1z" fill="#3f3f53"/><path d="m13 34h1v2h-1z" fill="#48485d"/><path d="m17 34h2v1h-2z" fill="#57566d"/><path d="m19 34h3v2h-3z" fill="#48485d"/><path d="m25 34h2v1h-2z" fill="#57566d"/><path d="m27 34h2v2h-2z" fill="#48485d"/><path d="m4 35h1v1h-1z" fill="#343446"/><path d="m5 35h1v1h-1z" fill="#2c2c3c"/><path d="m6 35h1v2h-1z" fill="#3f3f53"/><path d="m9 35h1v4h-1z" fill="#343446"/><path d="m10 35h2v2h-2z" fill="#3f3f53"/><path d="m12 35h1v1h-1z" fill="#48485d"/><path d="m14 35h1v2h-1z" fill="#3f3f53"/><path d="m17 35h1v1h-1z" fill="#57566d"/><path d="m18 35h1v2h-1z" fill="#48485d"/><path d="m22 35h1v2h-1z" fill="#3f3f53"/><path d="m25 35h1v1h-1z" fill="#57566d"/><path d="m26 35h1v1h-1z" fill="#48485d"/><path d="m29 35h1v1h-1z" fill="#3f3f53"/><path d="m3 36h1v3h-1z" fill="#343446"/><path d="m4 36h1v7h-1z" fill="#696584"/><path d="m5 36h1v6h-1z" fill="#57566d"/><path d="m12 36h2v1h-2z" fill="#3f3f53"/><path d="m15 36h1v1h-1z" fill="#343446"/><path d="m16 36h1v2h-1z" fill="#2c2c3c"/><path d="m17 36h1v1h-1z" fill="#343446"/><path d="m19 36h3v1h-3z" fill="#3f3f53"/><path d="m23 36h1v1h-1z" fill="#343446"/><path d="m24 36h1v2h-1z" fill="#2c2c3c"/><path d="m25 36h1v1h-1z" fill="#343446"/><path d="m26 36h3v1h-3z" fill="#3f3f53"/><path d="m29 36h1v1h-1z" fill="#343446"/><path d="m30 36h1v2h-1z" fill="#252535"/><path d="m6 37h1v5h-1z" fill="#343446"/><path d="m10 37h5v1h-5z" fill="#343446"/><path d="m15 37h1v2h-1z" fill="#2c2c3c"/><path d="m17 37h1v1h-1z" fill="#2c2c3c"/><path d="m18 37h5v1h-5z" fill="#343446"/><path d="m23 37h1v2h-1z" fill="#2c2c3c"/><path d="m25 37h1v1h-1z" fill="#3f3f53"/><path d="m26 37h3v1h-3z" fill="#343446"/><path d="m29 37h1v1h-1z" fill="#252535"/><path d="m10 38h2v1h-2z" fill="#48485d"/><path d="m12 38h1v1h-1z" fill="#57566d"/><path d="m13 38h1v1h-1z" fill="#343446"/><path d="m14 38h1v1h-1z" fill="#2c2c3c"/><path d="m16 38h1v1h-1z" fill="#696584"/><path d="m17 38h4v1h-4z" fill="#57566d"/><path d="m21 38h1v1h-1z" fill="#343446"/><path d="m22 38h1v1h-1z" fill="#2c2c3c"/><path d="m24 38h1v1h-1z" fill="#696584"/><path d="m25 38h4v1h-4z" fill="#57566d"/><path d="m29 38h1v1h-1z" fill="#48485d"/><path d="m30 38h1v2h-1z" fill="#3f3f53"/><path d="m3 39h1v1h-1z" fill="#2a2a3b"/><path d="m8 39h1v1h-1z" fill="#696584"/><path d="m9 39h1v1h-1z" fill="#3f3f53"/><path d="m10 39h1v2h-1z" fill="#48485d"/><path d="m11 39h1v1h-1z" fill="#57566d"/><path d="m12 39h1v1h-1z" fill="#48485d"/><path d="m13 39h1v1h-1z" fill="#3f3f53"/><path d="m14 39h1v2h-1z" fill="#343446"/><path d="m15 39h1v1h-1z" fill="#696584"/><path d="m16 39h4v1h-4z" fill="#57566d"/><path d="m20 39h1v1h-1z" fill="#48485d"/><path d="m21 39h1v1h-1z" fill="#3f3f53"/><path d="m22 39h1v2h-1z" fill="#343446"/><path d="m23 39h1v1h-1z" fill="#696584"/><path d="m24 39h4v1h-4z" fill="#57566d"/><path d="m28 39h1v1h-1z" fill="#48485d"/><path d="m29 39h1v2h-1z" fill="#3f3f53"/><path d="m1 40h3v1h-3z" fill="#343446"/><path d="m7 40h2v1h-2z" fill="#3f3f53"/><path d="m9 40h1v2h-1z" fill="#48485d"/><path d="m11 40h1v1h-1z" fill="#48485d"/><path d="m12 40h1v1h-1z" fill="#3f3f53"/><path d="m13 40h1v2h-1z" fill="#343446"/><path d="m15 40h2v1h-2z" fill="#57566d"/><path d="m17 40h3v1h-3z" fill="#48485d"/><path d="m20 40h1v1h-1z" fill="#3f3f53"/><path d="m21 40h1v2h-1z" fill="#343446"/><path d="m23 40h2v1h-2z" fill="#57566d"/><path d="m25 40h3v1h-3z" fill="#48485d"/><path d="m28 40h1v2h-1z" fill="#3f3f53"/><path d="m30 40h1v2h-1z" fill="#343446"/><path d="m0 41h1v2h-1z" fill="#272837"/><path d="m1 41h1v7h-1z" fill="#696584"/><path d="m2 41h1v6h-1z" fill="#57566d"/><path d="m3 41h1v3h-1z" fill="#3f3f53"/><path d="m7 41h1v1h-1z" fill="#3f3f53"/><path d="m8 41h1v1h-1z" fill="#48485d"/><path d="m10 41h2v1h-2z" fill="#3f3f53"/><path d="m12 41h1v2h-1z" fill="#343446"/><path d="m14 41h1v1h-1z" fill="#2a2a3b"/><path d="m15 41h1v1h-1z" fill="#57566d"/><path d="m16 41h1v1h-1z" fill="#48485d"/><path d="m17 41h3v1h-3z" fill="#3f3f53"/><path d="m20 41h1v2h-1z" fill="#343446"/><path d="m22 41h1v1h-1z" fill="#2a2a3b"/><path d="m23 41h1v1h-1z" fill="#57566d"/><path d="m24 41h2v1h-2z" fill="#48485d"/><path d="m26 41h2v1h-2z" fill="#3f3f53"/><path d="m29 41h1v1h-1z" fill="#343446"/><path d="m5 42h1v1h-1z" fill="#696584"/><path d="m6 42h1v1h-1z" fill="#3f3f53"/><path d="m7 42h5v1h-5z" fill="#343446"/><path d="m13 42h1v1h-1z" fill="#2a2a3b"/><path d="m14 42h1v2h-1z" fill="#272837"/><path d="m15 42h1v1h-1z" fill="#2a2a3b"/><path d="m16 42h4v1h-4z" fill="#343446"/><path d="m21 42h1v1h-1z" fill="#2a2a3b"/><path d="m22 42h1v2h-1z" fill="#272837"/><path d="m23 42h1v1h-1z" fill="#2a2a3b"/><path d="m24 42h5v1h-5z" fill="#343446"/><path d="m29 42h1v1h-1z" fill="#2a2a3b"/><path d="m30 42h1v1h-1z" fill="#252535"/><path d="m0 43h1v2h-1z" fill="#1d1c2b"/><path d="m4 43h2v1h-2z" fill="#343446"/><path d="m6 43h1v1h-1z" fill="#2a2a3b"/><path d="m7 43h1v1h-1z" fill="#272837"/><path d="m8 43h5v1h-5z" fill="#2a2a3b"/><path d="m13 43h1v1h-1z" fill="#272837"/><path d="m15 43h1v1h-1z" fill="#272837"/><path d="m16 43h5v1h-5z" fill="#2a2a3b"/><path d="m21 43h1v1h-1z" fill="#272837"/><path d="m23 43h1v1h-1z" fill="#272837"/><path d="m24 43h5v1h-5z" fill="#2a2a3b"/><path d="m29 43h1v1h-1z" fill="#272837"/><path d="m30 43h1v1h-1z" fill="#1d1c2b"/><path d="m3 44h2v1h-2z" fill="#343446"/><path d="m5 44h2v1h-2z" fill="#48485d"/><path d="m7 44h1v1h-1z" fill="#2a2a3b"/><path d="m8 44h2v1h-2z" fill="#272837"/><path d="m10 44h1v1h-1z" fill="#57566d"/><path d="m11 44h4v1h-4z" fill="#48485d"/><path d="m15 44h1v1h-1z" fill="#2a2a3b"/><path d="m16 44h2v1h-2z" fill="#272837"/><path d="m18 44h1v1h-1z" fill="#57566d"/><path d="m19 44h4v1h-4z" fill="#48485d"/><path d="m23 44h1v1h-1z" fill="#2a2a3b"/><path d="m24 44h2v1h-2z" fill="#272837"/><path d="m26 44h1v1h-1z" fill="#57566d"/><path d="m27 44h2v2h-2z" fill="#48485d"/><path d="m29 44h1v4h-1z" fill="#343446"/><path d="m30 44h1v4h-1z" fill="#252535"/><path d="m0 45h1v4h-1z" fill="#13121c"/><path d="m3 45h1v4h-1z" fill="#343446"/><path d="m4 45h1v1h-1z" fill="#48485d"/><path d="m5 45h2v2h-2z" fill="#3f3f53"/><path d="m7 45h1v3h-1z" fill="#343446"/><path d="m8 45h1v3h-1z" fill="#2a2a3b"/><path d="m9 45h1v1h-1z" fill="#57566d"/><path d="m10 45h4v1h-4z" fill="#48485d"/><path d="m14 45h1v2h-1z" fill="#3f3f53"/><path d="m15 45h1v3h-1z" fill="#343446"/><path d="m16 45h1v3h-1z" fill="#2a2a3b"/><path d="m17 45h1v1h-1z" fill="#57566d"/><path d="m18 45h4v1h-4z" fill="#48485d"/><path d="m22 45h1v2h-1z" fill="#3f3f53"/><path d="m23 45h1v3h-1z" fill="#343446"/><path d="m24 45h1v3h-1z" fill="#2a2a3b"/><path d="m25 45h1v1h-1z" fill="#57566d"/><path d="m26 45h1v2h-1z" fill="#48485d"/><path d="m4 46h1v2h-1z" fill="#3f3f53"/><path d="m9 46h2v1h-2z" fill="#48485d"/><path d="m11 46h3v2h-3z" fill="#3f3f53"/><path d="m17 46h2v1h-2z" fill="#48485d"/><path d="m19 46h3v2h-3z" fill="#3f3f53"/><path d="m25 46h1v2h-1z" fill="#48485d"/><path d="m27 46h2v1h-2z" fill="#3f3f53"/><path d="m2 47h1v1h-1z" fill="#696584"/><path d="m5 47h1v1h-1z" fill="#3f3f53"/><path d="m6 47h1v2h-1z" fill="#343446"/><path d="m9 47h1v1h-1z" fill="#48485d"/><path d="m10 47h1v1h-1z" fill="#3f3f53"/><path d="m14 47h1v2h-1z" fill="#343446"/><path d="m17 47h1v1h-1z" fill="#48485d"/><path d="m18 47h1v1h-1z" fill="#3f3f53"/><path d="m22 47h1v2h-1z" fill="#343446"/><path d="m26 47h2v1h-2z" fill="#3f3f53"/><path d="m28 47h1v2h-1z" fill="#343446"/><path d="m1 48h1v1h-1z" fill="#2a2a3b"/><path d="m2 48h1v1h-1z" fill="#343446"/><path d="m4 48h2v1h-2z" fill="#343446"/><path d="m7 48h1v1h-1z" fill="#2a2a3b"/><path d="m8 48h1v1h-1z" fill="#1d1c2b"/><path d="m9 48h1v1h-1z" fill="#2a2a3b"/><path d="m10 48h4v1h-4z" fill="#343446"/><path d="m15 48h1v1h-1z" fill="#2a2a3b"/><path d="m16 48h1v1h-1z" fill="#1d1c2b"/><path d="m17 48h1v1h-1z" fill="#2a2a3b"/><path d="m18 48h4v1h-4z" fill="#343446"/><path d="m23 48h1v1h-1z" fill="#2a2a3b"/><path d="m24 48h1v1h-1z" fill="#1d1c2b"/><path d="m25 48h1v1h-1z" fill="#2a2a3b"/><path d="m26 48h2v1h-2z" fill="#343446"/><path d="m29 48h1v1h-1z" fill="#252535"/><path d="m30 48h1v1h-1z" fill="#13121c"/><path d="m31 48h1v2h-1z" fill="#29293e" opacity=".4"/><path d="m0 49h1v1h-1z" fill="#29293e" opacity=".4"/><path d="m1 49h29v1h-29z" fill="#13121c"/><g fill="#29293e"><path d="m30 49h1v2h-1z" opacity=".4"/><path d="m1 50h29v1h-29z" opacity=".4"/><path d="m2 51h28v1h-28z" opacity=".4"/></g></svg>