<svg width="108" height="100" viewBox="0 0 108 100" fill="none" xmlns="http://www.w3.org/2000/svg">
<path d="M17.3571 9.61538V0H90.6429V9.61538H17.3571Z" fill="black"/>
<path d="M17.3571 17.3077V9.61538H88.7143V17.3077H17.3571Z" fill="#7F7F7F"/>
<path d="M17.3571 92.3077V82.6923H90.6429V92.3077H17.3571Z" fill="#373737"/>
<path d="M17.3571 17.3077H90.6429V82.6923H17.3571V17.3077Z" fill="#686868"/>
<path d="M17.7926 17.7418H26.6889V26.6127H17.7926V17.7418Z" fill="#7F7F7F"/>
<path d="M81 17.7418H89.8963V26.6127H81V17.7418Z" fill="#7F7F7F"/>
<path d="M17.7926 73.6286H26.6889V82.4995H17.7926V73.6286Z" fill="#373737"/>
<path d="M81 73.6286H89.8963V82.4995H81V73.6286Z" fill="#373737"/>
<path d="M8.89625 50.5643H17.7925L17.7926 82.4995L8.89625 82.4996V50.5643Z" fill="#373737"/>
<path d="M8.89625 17.7418H17.7926L17.7925 50.5643H8.89625V17.7418Z" fill="#7F7F7F"/>
<path d="M17.3571 9.61538L26.2534 9.61538V17.6923H17.3571L17.3571 9.61538Z" fill="#7F7F7F"/>
<path d="M17.7926 82.4995H26.6889L26.6888 91.3704H17.7925L17.7926 82.4995Z" fill="#373737"/>
<path d="M89.8964 9.61538H81.0001V18.4063H89.8964V9.61538Z" fill="#7F7F7F"/>
<path d="M89.8964 82.5796H81.0001V91.3704H89.8964V82.5796Z" fill="#373737"/>
<path d="M89.8964 50.9325H98.7927V82.5797L89.8964 82.5796V50.9325Z" fill="#373737"/>
<path d="M89.8964 18.4063L98.7927 18.4062V50.9325H89.8964V18.4063Z" fill="#7F7F7F"/>
<path d="M108 18.3002H98.3571V81.6998H108V18.3002Z" fill="black"/>
<path d="M98.3571 9.61538H88.7143V18.3003L98.3571 18.3002V9.61538Z" fill="black"/>
<path d="M98.3571 81.6998L88.7143 81.6997V90.3846H98.3571V81.6998Z" fill="black"/>
<path d="M17.3571 100V90.3846H90.6429V100H17.3571Z" fill="black"/>
<path d="M0 18.3002H9.64286V81.6998H0V18.3002Z" fill="black"/>
<path d="M9.64286 9.61538H19.2857V18.3003L9.64286 18.3002V9.61538Z" fill="black"/>
<path d="M9.64286 81.6998L19.2857 81.6997V90.3846H9.64286V81.6998Z" fill="black"/>
</svg>
