<svg width="50" height="47" viewBox="0 0 50 47" fill="none" xmlns="http://www.w3.org/2000/svg">
<path d="M8.03571 4.51923V0H41.9643V4.51923H8.03571Z" fill="black"/>
<path d="M8.03571 8.13461V4.51923H41.0714V8.13461H8.03571Z" fill="#E87777"/>
<path d="M8.03571 43.3846V38.8654H41.9643V43.3846H8.03571Z" fill="#650909"/>
<path d="M8.03571 8.13461H41.9643V38.8654H8.03571V8.13461Z" fill="#A91212"/>
<path d="M8.23732 8.33864H12.356V12.508H8.23732V8.33864Z" fill="#E87777"/>
<path d="M37.5 8.33864H41.6186V12.508H37.5V8.33864Z" fill="#E87777"/>
<path d="M8.23732 34.6054H12.356V38.7748H8.23732V34.6054Z" fill="#650909"/>
<path d="M37.5 34.6054H41.6186V38.7748H37.5V34.6054Z" fill="#650909"/>
<path d="M4.11864 23.7652H8.23728L8.23732 38.7748L4.11864 38.7748V23.7652Z" fill="#650909"/>
<path d="M4.11864 8.33864H8.23732L8.23728 23.7652H4.11864V8.33864Z" fill="#E87777"/>
<path d="M8.03571 4.51923L12.1544 4.51923V8.31538H8.03571L8.03571 4.51923Z" fill="#E87777"/>
<path d="M8.23732 38.7748H12.356L12.3559 42.9441H8.23729L8.23732 38.7748Z" fill="#650909"/>
<path d="M41.6187 4.51923H37.5001V8.65095H41.6187V4.51923Z" fill="#E87777"/>
<path d="M41.6187 38.8124H37.5001V42.9441H41.6187V38.8124Z" fill="#650909"/>
<path d="M41.6187 23.9383H45.7373V38.8125L41.6187 38.8124V23.9383Z" fill="#650909"/>
<path d="M41.6187 8.65095L45.7373 8.65092V23.9383H41.6187V8.65095Z" fill="#E87777"/>
<path d="M50 8.6011H45.5357V38.3989H50V8.6011Z" fill="black"/>
<path d="M45.5357 4.51923H41.0714V8.60112L45.5357 8.6011V4.51923Z" fill="black"/>
<path d="M45.5357 38.3989L41.0714 38.3989V42.4808H45.5357V38.3989Z" fill="black"/>
<path d="M8.03571 47V42.4808H41.9643V47H8.03571Z" fill="black"/>
<path d="M0 8.6011H4.46429V38.3989H0V8.6011Z" fill="black"/>
<path d="M4.46429 4.51923H8.92857V8.60112L4.46429 8.6011V4.51923Z" fill="black"/>
<path d="M4.46429 38.3989L8.92857 38.3989V42.4808H4.46429V38.3989Z" fill="black"/>
</svg>
